<?xml version="1.0" standalone="no"?>
<!DOCTYPE svg PUBLIC "-//W3C//DTD SVG 1.1//EN" "http://www.w3.org/Graphics/SVG/1.1/DTD/svg11.dtd" >
<svg xmlns="http://www.w3.org/2000/svg" xmlns:xlink="http://www.w3.org/1999/xlink" version="1.1">
<metadata>
Created by FontForge 20201107 at Thu Jul 16 13:30:34 2026
 By www-data
Copyright 2025
</metadata>
<defs>
<font id="Bounded-Medium" horiz-adv-x="1597" >
  <font-face 
    font-family="Bounded Med"
    font-weight="500"
    font-stretch="normal"
    units-per-em="2048"
    panose-1="0 0 0 0 0 0 0 0 0 0"
    ascent="1638"
    descent="-410"
    x-height="1163"
    cap-height="1536"
    bbox="-598 -608 3623 2437"
    underline-thickness="102"
    underline-position="-255"
    unicode-range="U+000D-FB02"
  />
<missing-glyph horiz-adv-x="1730" 
d="M162 0v1536h1407v-1536h-1407zM475 279h780v978h-780v-978z" />
    <glyph glyph-name="fi" unicode="fi" horiz-adv-x="1728" 
d="M1081 838h-483v-838h-315v838h-246v239h246v25q0 238 135.5 372t404.5 134q131 0 269 -52v-241q-105 51 -232 51q-136 0 -199 -53.5t-63 -175.5v-60h483v-239zM1278 0v1174h317v-1174h-317zM1438 1303q-88 0 -143.5 47t-55.5 123q0 75 55.5 121t143.5 46t142 -46t54 -121
q0 -76 -54 -123t-142 -47z" />
    <glyph glyph-name="fl" unicode="fl" horiz-adv-x="1728" 
d="M1081 838h-483v-838h-315v838h-246v239h246v25q0 238 135.5 372t404.5 134q131 0 269 -52v-241q-105 51 -232 51q-136 0 -199 -53.5t-63 -175.5v-60h483v-239zM1278 0v1577h317v-1577h-317z" />
    <glyph glyph-name="f_f" unicode="ff" horiz-adv-x="2058" 
d="M2034 838h-484v-838h-315v838h-637v-838h-315v838h-246v239h246v25q0 238 135.5 372t404.5 134q131 0 269 -52v-241q-105 51 -232 51q-136 0 -199 -53.5t-63 -175.5v-60h637v25q0 238 136 372t405 134q130 0 268 -52v-241q-105 51 -232 51q-136 0 -199 -53.5t-63 -175.5
v-60h484v-239z" />
    <glyph glyph-name="f_f_i" unicode="ffi" horiz-adv-x="2635" 
d="M2034 838h-484v-838h-315v838h-637v-838h-315v838h-246v239h246v25q0 238 135.5 372t404.5 134q131 0 269 -52v-241q-105 51 -232 51q-136 0 -199 -53.5t-63 -175.5v-60h637v25q0 238 136 372t405 134q130 0 268 -52v-241q-105 51 -232 51q-136 0 -199 -53.5t-63 -175.5
v-60h484v-239zM2185 0v1174h318v-1174h-318zM2343 1303q-88 0 -143.5 47t-55.5 123q0 75 55.5 121t143.5 46t142.5 -46t54.5 -121q0 -76 -54.5 -123t-142.5 -47z" />
    <glyph glyph-name="f_f_l" unicode="ffl" horiz-adv-x="2639" 
d="M2034 838h-484v-838h-315v838h-637v-838h-315v838h-246v239h246v25q0 238 135.5 372t404.5 134q131 0 269 -52v-241q-105 51 -232 51q-136 0 -199 -53.5t-63 -175.5v-60h637v25q0 238 136 372t405 134q130 0 268 -52v-241q-105 51 -232 51q-136 0 -199 -53.5t-63 -175.5
v-60h484v-239zM2191 0v1577h318v-1577h-318z" />
    <glyph glyph-name="f_t.liga" unicode="ft" horiz-adv-x="2129" 
d="M1208 858h-608v-858h-317v858h-246v244h246q0 238 136 372t406 134q129 0 267 -52v-219q-104 39 -232 39q-136 0 -198 -50t-62 -165v-59h614l129 336h183v-326h522v-244h-522v-389q0 -140 58 -197t200 -57q161 0 284 74l3 -250q-65 -31 -163.5 -53.5t-197.5 -22.5
q-256 0 -379 121t-123 336v428z" />
    <glyph glyph-name="t_t.liga" unicode="tt" horiz-adv-x="2185" 
d="M256 924h-246v141l246 74l133 331h182v-307h707l127 307h182v-307h524v-239h-524v-447q0 -141 59 -197.5t201 -56.5q158 0 285 68v-250q-65 -30 -162.5 -51t-195.5 -21q-256 0 -379 122t-123 337v496h-701v-447q0 -141 58.5 -197.5t199.5 -56.5q157 0 287 68v-250
q-66 -29 -163 -50.5t-195 -21.5q-256 0 -379 122t-123 337v496z" />
    <glyph glyph-name=".notdef" horiz-adv-x="1730" 
d="M162 0v1536h1407v-1536h-1407zM475 279h780v978h-780v-978z" />
    <glyph glyph-name="uni0000" horiz-adv-x="0" 
 />
    <glyph glyph-name="uni0000" horiz-adv-x="0" 
 />
    <glyph glyph-name="uni000D" unicode="&#xd;" horiz-adv-x="512" 
 />
    <glyph glyph-name="space" unicode=" " horiz-adv-x="530" 
 />
    <glyph glyph-name="exclam" unicode="!" horiz-adv-x="602" 
d="M301 -18q-83 0 -135.5 50t-52.5 128t52.5 127t135.5 49q84 0 136 -49t52 -127q0 -79 -52 -128.5t-136 -49.5zM188 492l-51 1044h328l-51 -1044h-226z" />
    <glyph glyph-name="quotedbl" unicode="&#x22;" horiz-adv-x="921" 
d="M768 938h-184l-60 598h303zM336 938h-184l-60 598h303z" />
    <glyph glyph-name="numbersign" unicode="#" horiz-adv-x="1714" 
d="M295 0l47 406h-250v223h277l32 276h-260v223h285l49 408h256l-47 -408h430l47 408h258l-47 -408h250v-223h-276l-33 -276h260v-223h-287l-47 -406h-258l49 406h-430l-49 -406h-256zM625 629h430l32 276h-430z" />
    <glyph glyph-name="dollar" unicode="$" horiz-adv-x="1599" 
d="M676 1704h239v-145q250 -31 402 -162t164 -326h-316q-9 87 -72.5 149.5t-177.5 86.5v-398l23 -2q309 -29 444.5 -138t135.5 -308q0 -201 -162 -334.5t-441 -153.5v-141h-239v145q-269 32 -431 173.5t-169 351.5h317q12 -104 85 -174.5t198 -98.5v420l-12 2
q-564 52 -564 447q0 196 154 319.5t422 145.5v141zM1200 430q0 81 -63.5 128.5t-221.5 68.5v-408q138 13 211.5 69.5t73.5 141.5zM416 1110q0 -71 59.5 -115.5t200.5 -62.5v383q-125 -15 -192.5 -69.5t-67.5 -135.5z" />
    <glyph glyph-name="percent" unicode="%" horiz-adv-x="2537" 
d="M733 0l834 1536h243l-835 -1536h-242zM1972 -29q-230 0 -372 126t-142 329q0 201 142 327t372 126q229 0 371.5 -126t142.5 -327q0 -202 -142.5 -328.5t-371.5 -126.5zM567 647q-230 0 -372 126t-142 329q0 201 142 326.5t372 125.5q229 0 371.5 -125.5t142.5 -326.5
q0 -202 -142.5 -328.5t-371.5 -126.5zM1972 166q120 0 190 69.5t70 190.5q0 120 -69.5 190t-190.5 70t-190.5 -70t-69.5 -190q0 -122 69 -191t191 -69zM567 842q120 0 190 69.5t70 190.5q0 120 -69.5 190t-190.5 70t-190.5 -70t-69.5 -190q0 -122 69.5 -191t190.5 -69z" />
    <glyph glyph-name="ampersand" unicode="&#x26;" horiz-adv-x="1841" 
d="M1458 1114h-317q-12 100 -86.5 160.5t-202.5 60.5q-117 0 -185.5 -46t-68.5 -128q0 -90 117 -188l506 -430l211 282h333l-364 -436l457 -389h-404l-227 193q-119 -116 -254 -170t-314 -54q-269 0 -428 128t-159 321q0 149 96.5 258.5t292.5 165.5q-99 87 -149 168.5
t-50 169.5q0 174 155 280.5t425 106.5q277 0 440.5 -126t175.5 -327zM698 213q212 0 355 127l-447 377q-105 -42 -161 -108t-56 -150q0 -105 84 -175.5t225 -70.5z" />
    <glyph glyph-name="quotesingle" unicode="'" horiz-adv-x="499" 
d="M154 938l-62 598h316l-60 -598h-194z" />
    <glyph glyph-name="parenleft" unicode="(" horiz-adv-x="718" 
d="M418 1536h252q-260 -445 -260 -874q0 -421 260 -875h-252q-336 423 -336 875q0 451 336 874z" />
    <glyph glyph-name="parenright" unicode=")" horiz-adv-x="718" 
d="M49 1536h252q336 -423 336 -874q0 -452 -336 -875h-252q260 454 260 875q0 429 -260 874z" />
    <glyph glyph-name="asterisk" unicode="*" horiz-adv-x="1075" 
d="M449 1241l-13 328h203l-10 -328l305 119l63 -195l-315 -94l209 -258l-164 -121l-188 275l-191 -275l-166 121l211 258l-313 94l61 195z" />
    <glyph glyph-name="plus" unicode="+" horiz-adv-x="1269" 
d="M754 152h-238v454h-455v238h455v454h238v-454h454v-238h-454v-454z" />
    <glyph glyph-name="comma" unicode="," horiz-adv-x="563" 
d="M246 -289h-166l133 287q-55 21 -89 69t-34 107q0 78 55.5 132t135.5 54q82 0 136 -55t54 -137q0 -53 -24 -111t-82 -149z" />
    <glyph glyph-name="hyphen" unicode="-" horiz-adv-x="733" 
d="M117 590v256h497v-256h-497z" />
    <glyph glyph-name="period" unicode="." horiz-adv-x="557" 
d="M279 -18q-80 0 -135.5 55.5t-55.5 134.5t55.5 134.5t135.5 55.5q79 0 134.5 -55t55.5 -135t-55.5 -135t-134.5 -55z" />
    <glyph glyph-name="slash" unicode="/" horiz-adv-x="888" 
d="M31 -55l573 1646h254l-573 -1646h-254z" />
    <glyph glyph-name="zero" unicode="0" horiz-adv-x="1771" 
d="M887 -31q-380 0 -605 219t-225 580t225 580t605 219q188 0 343 -57.5t261.5 -162t164.5 -253t58 -326.5t-58 -326.5t-164.5 -253t-261.5 -162t-343 -57.5zM887 233q239 0 372.5 141t133.5 394t-133.5 394t-372.5 141t-372.5 -141t-133.5 -394t133.5 -394t372.5 -141z" />
    <glyph glyph-name="one" unicode="1" horiz-adv-x="1431" 
d="M672 1536h239v-1278h480v-258h-1350v258h549v1002l-490 -86v251z" />
    <glyph glyph-name="two" unicode="2" horiz-adv-x="1562" 
d="M365 999h-324q19 258 228.5 413t531.5 155q199 0 353 -62.5t238.5 -176t84.5 -259.5q0 -169 -131.5 -307.5t-454.5 -317.5l-322 -182h953v-262h-1461v229l656 389q252 150 344 240.5t92 194.5q0 115 -93 186.5t-269 71.5q-204 0 -308.5 -86.5t-117.5 -225.5z" />
    <glyph glyph-name="three" unicode="3" horiz-adv-x="1583" 
d="M129 1278v258h1341v-240l-532 -389q300 -6 452 -121t152 -319q0 -223 -192.5 -360.5t-538.5 -137.5q-343 0 -549.5 143t-220.5 384h321q39 -271 449 -271q197 0 300 66t103 192q0 112 -92 171t-301 59h-223v225l463 340h-932z" />
    <glyph glyph-name="four" unicode="4" horiz-adv-x="1646" 
d="M940 1536h408v-975h268v-250h-268v-311h-320v311h-987v230zM389 561h639v709z" />
    <glyph glyph-name="five" unicode="5" horiz-adv-x="1544" 
d="M106 621l125 915h1149v-252h-927l-60 -424q190 160 481 160t460 -144.5t169 -369.5q0 -238 -195 -387.5t-522 -149.5q-319 0 -518.5 138t-226.5 352h321q25 -109 135.5 -171.5t288.5 -62.5q181 0 287.5 76t106.5 205q0 128 -95 203t-278 75q-144 0 -251.5 -46
t-176.5 -117h-273z" />
    <glyph glyph-name="six" unicode="6" horiz-adv-x="1603" 
d="M844 1567q276 0 463 -123t221 -314h-307q-73 185 -369 185q-255 0 -377.5 -139t-122.5 -398v-37q112 119 265 186.5t339 67.5q278 0 443.5 -135t165.5 -360q0 -237 -190 -384t-513 -147q-160 0 -293 38t-230 108t-164 169t-100 221t-32 263q-1 176 51.5 322t152 252.5
t252.5 165.5t345 59zM885 741q-140 0 -266.5 -58t-225.5 -163q108 -297 471 -297q181 0 279 73.5t98 192.5q0 114 -90.5 183t-265.5 69z" />
    <glyph glyph-name="seven" unicode="7" horiz-adv-x="1437" 
d="M610 0h-354l795 1274h-1051v262h1397v-258z" />
    <glyph glyph-name="eight" unicode="8" horiz-adv-x="1665" 
d="M834 1567q353 0 544 -112t191 -314q0 -128 -85.5 -215.5t-244.5 -124.5q187 -34 286 -130.5t99 -246.5q0 -219 -205 -337t-585 -118q-382 0 -587.5 118t-205.5 337q0 151 99 247t286 130q-160 39 -245 125.5t-85 214.5q0 202 192.5 314t545.5 112zM834 223q228 0 347 56
t119 165q0 222 -466 222q-467 0 -467 -222q0 -109 119 -165t348 -56zM834 905q200 0 306.5 51.5t106.5 153.5q0 97 -107.5 150t-305.5 53q-199 0 -307.5 -53t-108.5 -150q0 -102 107 -153.5t309 -51.5z" />
    <glyph glyph-name="nine" unicode="9" horiz-adv-x="1603" 
d="M760 -31q-276 0 -463 123t-221 314h307q73 -185 369 -185q254 0 376.5 139t122.5 398v37q-112 -119 -265 -186.5t-339 -67.5q-278 0 -443 135t-165 360q0 237 189.5 384t512.5 147q199 0 356 -58.5t258.5 -165t154 -252.5t51.5 -323q1 -176 -51.5 -322t-152 -252.5
t-252.5 -165.5t-345 -59zM719 795q140 0 266 58t225 163q-108 297 -471 297q-181 0 -279 -73.5t-98 -192.5q0 -114 91 -183t266 -69z" />
    <glyph glyph-name="colon" unicode=":" horiz-adv-x="624" 
d="M313 -18q-82 0 -136 53t-54 133q0 79 54 131.5t136 52.5t135.5 -52t53.5 -132t-53.5 -133t-135.5 -53zM313 717q-82 0 -136 53t-54 133q0 78 54.5 131t135.5 53t135 -53t54 -131q0 -80 -53.5 -133t-135.5 -53z" />
    <glyph glyph-name="semicolon" unicode=";" horiz-adv-x="636" 
d="M285 -289h-164l131 283q-56 17 -87.5 62t-31.5 106q0 77 52.5 125.5t136.5 48.5q83 0 134.5 -50t51.5 -130q0 -48 -23 -106t-82 -146zM319 717q-82 0 -136 53t-54 133q0 78 54.5 131t135.5 53t135 -53t54 -131q0 -80 -53.5 -133t-135.5 -53z" />
    <glyph glyph-name="less" unicode="&#x3c;" horiz-adv-x="1269" 
d="M362 729l844 -297v-250l-1147 416v260l1147 418v-250z" />
    <glyph glyph-name="equal" unicode="=" horiz-adv-x="1269" 
d="M61 856v238h1147v-238h-1147zM61 356v238h1147v-238h-1147z" />
    <glyph glyph-name="greater" unicode="&#x3e;" horiz-adv-x="1269" 
d="M63 432l844 297l-844 297v250l1147 -418v-260l-1147 -416v250z" />
    <glyph glyph-name="question" unicode="?" horiz-adv-x="1372" 
d="M655 -18q-83 0 -135.5 50t-52.5 128t52.5 127t135.5 49q85 0 137 -49t52 -127t-52.5 -128t-136.5 -50zM514 553q0 95 51.5 163.5t165.5 125.5l156 80q129 66 129 168q0 103 -85 163t-235 60q-152 0 -246.5 -69t-109.5 -189h-305q19 242 193.5 377t467.5 135
q295 0 461 -122t166 -339q0 -107 -62.5 -195.5t-181.5 -148.5l-168 -86q-58 -31 -86 -65t-28 -83v-55h-273q-10 36 -10 80z" />
    <glyph glyph-name="at" unicode="@" horiz-adv-x="2101" 
d="M2032 788q0 -238 -149.5 -380t-401.5 -142h-164v266q-51 -138 -148.5 -214t-234.5 -76q-179 0 -292.5 119.5t-113.5 312.5t113 313.5t293 120.5q138 0 236 -77t147 -212v264h289v-661q105 29 165 125.5t60 238.5q0 172 -91.5 302t-259 200t-388.5 70q-242 0 -424.5 -86.5
t-282.5 -247t-100 -373.5q0 -198 98.5 -347t279.5 -229.5t420 -80.5q175 0 356.5 39.5t297.5 105.5v-192q-125 -60 -306.5 -95.5t-353.5 -35.5q-224 0 -411 60t-316.5 168t-201.5 263.5t-72 341.5q0 197 73 362.5t204.5 281t321 179.5t417.5 64q281 0 494.5 -92.5
t329.5 -262.5t116 -393zM815 674q0 -96 57 -154.5t148 -58.5q89 0 163.5 59.5t108.5 153.5q-34 95 -108.5 155t-163.5 60q-91 0 -148 -59.5t-57 -155.5z" />
    <glyph glyph-name="A" unicode="A" horiz-adv-x="1880" 
d="M735 1536h412l723 -1536h-342l-154 334h-868l-152 -334h-344zM627 596h628l-315 690z" />
    <glyph glyph-name="B" unicode="B" horiz-adv-x="1759" 
d="M1337 807q173 -37 259.5 -137.5t86.5 -245.5q0 -192 -133 -308t-379 -116h-1060v1536h1024q212 0 329 -99t117 -274q0 -113 -60 -208t-184 -148zM432 670v-426h682q115 0 179.5 54t64.5 153q0 103 -75 161t-218 58h-633zM432 1292v-385h596q101 0 164 55.5t63 153.5
q0 78 -56 127t-155 49h-612z" />
    <glyph glyph-name="C" unicode="C" horiz-adv-x="1882" 
d="M1487 621h323q-21 -193 -133 -341t-297.5 -229.5t-418.5 -81.5q-259 0 -458 100t-308 281.5t-109 417.5t109 417.5t308 281.5t458 100q233 0 418.5 -81.5t297.5 -229.5t133 -341h-323q-32 172 -171.5 269.5t-357.5 97.5q-252 0 -398 -138.5t-146 -375.5t146 -375.5
t398 -138.5q220 0 358.5 96t170.5 271z" />
    <glyph glyph-name="D" unicode="D" horiz-adv-x="1855" 
d="M162 1536h719q263 0 465 -95.5t312.5 -270t110.5 -402.5t-110.5 -402.5t-312.5 -270t-465 -95.5h-719v1536zM483 1251v-966h420q246 0 393.5 132t147.5 351t-147.5 351t-393.5 132h-420z" />
    <glyph glyph-name="E" unicode="E" horiz-adv-x="1587" 
d="M436 641v-371h1045v-270h-1370v1536h1359v-270h-1034v-371h981v-254h-981z" />
    <glyph glyph-name="F" unicode="F" horiz-adv-x="1536" 
d="M162 1536h1298v-279h-977v-378h942v-279h-942v-600h-321v1536z" />
    <glyph glyph-name="G" unicode="G" horiz-adv-x="1949" 
d="M987 240q201 0 345.5 77.5t203.5 214.5h-500v236h789v-768h-234l-16 254q-99 -134 -259 -209.5t-372 -75.5q-145 0 -275 34.5t-236 103t-183 164t-119.5 223t-42.5 274.5q0 245 114 427.5t311 277t450 94.5q352 0 577.5 -165.5t269.5 -430.5h-325q-34 148 -173.5 233.5
t-350.5 85.5q-255 0 -402 -137t-147 -385q0 -250 154 -389t421 -139z" />
    <glyph glyph-name="H" unicode="H" horiz-adv-x="1882" 
d="M162 0v1536h321v-618h916v618h321v-1536h-321v635h-916v-635h-321z" />
    <glyph glyph-name="I" unicode="I" horiz-adv-x="647" 
d="M162 0v1536h321v-1536h-321z" />
    <glyph glyph-name="J" unicode="J" horiz-adv-x="1613" 
d="M47 657v84h315v-61q0 -210 94 -318t298 -108q395 0 395 403v879h321v-893q0 -162 -52 -290t-146.5 -212t-226 -128t-291.5 -44q-323 0 -515 180t-192 508z" />
    <glyph glyph-name="K" unicode="K" horiz-adv-x="1773" 
d="M483 0h-321v1536h321v-618h375l528 618h367l-637 -733l658 -803h-388l-516 635h-387v-635z" />
    <glyph glyph-name="L" unicode="L" horiz-adv-x="1529" 
d="M162 1536h321v-1251h1012v-285h-1333v1536z" />
    <glyph glyph-name="M" unicode="M" horiz-adv-x="2451" 
d="M1794 1536h494v-1536h-306v1243l-589 -1243h-336l-588 1239v-1239h-307v1536h495l570 -1229z" />
    <glyph glyph-name="N" unicode="N" horiz-adv-x="1943" 
d="M580 1536l888 -1174v1174h312v-1536h-408l-897 1192v-1192h-313v1536h418z" />
    <glyph glyph-name="O" unicode="O" horiz-adv-x="1953" 
d="M977 -31q-197 0 -363 58t-282 162t-181 253t-65 326t65 326t181 253t282 162t363 58q196 0 362 -58t282.5 -162t181.5 -253t65 -326t-65 -326t-181.5 -253t-282.5 -162t-362 -58zM977 258q260 0 412.5 137.5t152.5 372.5t-152.5 372.5t-412.5 137.5t-412.5 -137.5
t-152.5 -372.5t152.5 -372.5t412.5 -137.5z" />
    <glyph glyph-name="P" unicode="P" horiz-adv-x="1619" 
d="M162 1536h829q266 0 424 -137.5t158 -362.5t-158 -362t-424 -137h-508v-537h-321v1536zM483 805h494q126 0 198 62t72 169t-72 169.5t-198 62.5h-494v-463z" />
    <glyph glyph-name="Q" unicode="Q" horiz-adv-x="1953" 
d="M1427 -109l-118 125q-152 -47 -332 -47q-197 0 -363 58t-282 162t-181 253t-65 326t65 326t181 253t282 162t363 58q196 0 362 -58t282.5 -162t181.5 -253t65 -326q0 -192 -76.5 -350.5t-216.5 -265.5l250 -261h-398zM977 258q36 0 98 4l-317 336h389l217 -225
q178 142 178 395q0 235 -152.5 372.5t-412.5 137.5t-412.5 -137.5t-152.5 -372.5t152.5 -372.5t412.5 -137.5z" />
    <glyph glyph-name="R" unicode="R" horiz-adv-x="1687" 
d="M1245 0l-479 594h-283v-594h-321v1536h862q250 0 403.5 -130.5t153.5 -342.5q0 -185 -121.5 -310t-326.5 -153l493 -600h-381zM483 850h506q123 0 194.5 57.5t71.5 155.5q0 99 -71.5 156t-194.5 57h-506v-426z" />
    <glyph glyph-name="S" unicode="S" horiz-adv-x="1671" 
d="M76 502h327q17 -127 140 -201t319 -74q189 0 299.5 56.5t110.5 154.5q0 81 -65 122t-232 61l-316 36q-291 35 -423 140t-132 297q0 219 192.5 346t516.5 127q210 0 375.5 -61.5t261.5 -174.5t106 -260h-327q-14 108 -126.5 173t-295.5 65q-174 0 -276.5 -54t-102.5 -149
q0 -73 62 -112.5t215 -59.5l325 -41q313 -38 439 -132t126 -286q0 -152 -92 -267t-259.5 -177t-387.5 -62q-340 0 -554.5 147.5t-225.5 385.5z" />
    <glyph glyph-name="T" unicode="T" horiz-adv-x="1628" 
d="M653 0v1251h-618v285h1558v-285h-618v-1251h-322z" />
    <glyph glyph-name="U" unicode="U" horiz-adv-x="1775" 
d="M463 1536v-868q0 -190 113 -300t313 -110t312 110t112 300v868h321v-881q0 -308 -205.5 -497t-539.5 -189q-335 0 -541.5 189t-206.5 497v881h322z" />
    <glyph glyph-name="V" unicode="V" horiz-adv-x="1847" 
d="M356 1536l572 -1239l567 1239h342l-733 -1536h-361l-733 1536h346z" />
    <glyph glyph-name="W" unicode="W" horiz-adv-x="2725" 
d="M1536 1536l436 -1239l389 1239h338l-501 -1536h-412l-424 1178l-422 -1178h-412l-501 1536h340l387 -1241l438 1241h344z" />
    <glyph glyph-name="X" unicode="X" horiz-adv-x="1677" 
d="M1645 1536l-605 -735l652 -801h-396l-460 586l-463 -586h-389l657 801l-608 735h401l412 -520l407 520h392z" />
    <glyph glyph-name="Y" unicode="Y" horiz-adv-x="1818" 
d="M1071 0h-321v625l-723 911h360l522 -659l523 659h360l-721 -909v-627z" />
    <glyph glyph-name="Z" unicode="Z" horiz-adv-x="1609" 
d="M1526 0h-1442v240l1003 1036h-997v260h1430v-238l-1004 -1036h1010v-262z" />
    <glyph glyph-name="bracketleft" unicode="[" horiz-adv-x="815" 
d="M154 1536h600v-238h-305v-1273h305v-238h-600v1749z" />
    <glyph glyph-name="backslash" unicode="\" horiz-adv-x="888" 
d="M285 1591l573 -1646h-254l-573 1646h254z" />
    <glyph glyph-name="bracketright" unicode="]" horiz-adv-x="815" 
d="M61 1536h601v-1749h-601v238h306v1273h-306v238z" />
    <glyph glyph-name="asciicircum" unicode="^" horiz-adv-x="1269" 
d="M1194 768h-270l-287 504l-291 -504h-270l444 768h230z" />
    <glyph glyph-name="underscore" unicode="_" horiz-adv-x="987" 
d="M-49 -279v218h1085v-218h-1085z" />
    <glyph glyph-name="grave" unicode="`" horiz-adv-x="690" 
d="M375 1649l254 -365h-301l-265 365h312z" />
    <glyph glyph-name="a" unicode="a" horiz-adv-x="1449" 
d="M1038 0v162q-82 -83 -204.5 -138t-268.5 -55q-219 0 -360.5 106t-141.5 283t139 279t363 113q31 2 88 2q243 0 383 -62q-12 124 -113 190t-290 66q-261 0 -471 -119v238q244 129 543 129q140 0 256.5 -32.5t204.5 -96t137 -165.5t49 -234v-666h-314zM1038 498
q-83 45 -299 45q-370 0 -370 -170q0 -79 76.5 -127.5t205.5 -48.5q69 0 136.5 19.5t124 56t91.5 95t35 130.5z" />
    <glyph glyph-name="b" unicode="b" horiz-adv-x="1626" 
d="M133 0v1577h318v-684q87 143 221.5 222t298.5 79q257 0 418 -169.5t161 -442.5t-161 -443t-418 -170q-163 0 -297.5 80t-222.5 223v-272h-318zM1229 582q0 159 -96 260.5t-246 101.5q-149 0 -270 -100t-181 -262q60 -163 181 -263t270 -100q151 0 246.5 101.5t95.5 261.5
z" />
    <glyph glyph-name="c" unicode="c" horiz-adv-x="1509" 
d="M1133 469h317q-29 -222 -219.5 -361t-464.5 -139q-204 0 -362 77.5t-245 217t-87 318.5t87 318.5t245 216.5t362 77q181 0 330 -62.5t242 -177t112 -262.5h-317q-26 120 -125.5 189t-241.5 69q-172 0 -273.5 -98t-101.5 -270t101.5 -270.5t273.5 -98.5q143 0 242.5 69.5
t124.5 186.5z" />
    <glyph glyph-name="d" unicode="d" horiz-adv-x="1640" 
d="M1493 1577v-1577h-317v272q-88 -143 -223 -223t-298 -80q-257 0 -418 170t-161 443t161 442.5t418 169.5q164 0 299 -79t222 -222v684h317zM397 582q0 -160 95.5 -261.5t246.5 -101.5q149 0 270 100t181 263q-60 162 -181 262t-270 100q-150 0 -246 -101.5t-96 -260.5z
" />
    <glyph glyph-name="e" unicode="e" horiz-adv-x="1470" 
d="M782 -31q-205 0 -366.5 76.5t-252.5 217t-91 321.5q0 178 87.5 317.5t242 216t350.5 76.5q296 0 470.5 -195t174.5 -520h-987q38 -128 153.5 -198t292.5 -70q133 0 268 39.5t242 109.5v-217q-113 -82 -266 -128t-318 -46zM750 956q-136 0 -228.5 -69.5t-120.5 -188.5h682
q-29 124 -115.5 191t-217.5 67z" />
    <glyph glyph-name="f" unicode="f" horiz-adv-x="1136" 
d="M1112 838h-512v-838h-317v838h-244v239h244v17q0 241 140.5 377.5t416.5 136.5q139 0 297 -52v-241q-117 51 -258 51q-148 0 -213.5 -58.5t-65.5 -189.5v-41h512v-239z" />
    <glyph glyph-name="g" unicode="g" horiz-adv-x="1617" 
d="M637 100q-244 0 -404.5 152t-160.5 395t160.5 395t404.5 152q168 0 307 -75.5t232 -192.5v237h315v-854q0 -162 -55.5 -291t-155.5 -213.5t-238 -129t-305 -44.5q-297 0 -551 166v254q229 -178 533 -178q222 0 339.5 106t117.5 310v71q-92 -115 -231.5 -187.5
t-307.5 -72.5zM737 328q283 0 449 319q-165 322 -449 322q-161 0 -253.5 -88t-92.5 -234q0 -145 91.5 -232t254.5 -87z" />
    <glyph glyph-name="h" unicode="h" horiz-adv-x="1536" 
d="M133 0v1577h318v-631q75 120 191.5 184t256.5 64q246 0 383 -146t137 -403v-645h-317v596q0 164 -79 250t-228 86q-158 0 -251 -100.5t-93 -266.5v-565h-318z" />
    <glyph glyph-name="i" unicode="i" horiz-adv-x="581" 
d="M133 0v1174h318v-1174h-318zM291 1303q-88 0 -143.5 47t-55.5 123q0 75 55.5 121t143.5 46t142 -46t54 -121q0 -76 -54 -123t-142 -47z" />
    <glyph glyph-name="j" unicode="j" horiz-adv-x="737" 
d="M596 1174v-1084q0 -215 -124 -337t-380 -122q-97 0 -195 21.5t-163 50.5v250q130 -68 286 -68q141 0 200 56t59 194v1039h317zM436 1303q-88 0 -143 47t-55 123q0 75 55 121t143 46t142.5 -46t54.5 -121q0 -76 -54.5 -123t-142.5 -47z" />
    <glyph glyph-name="k" unicode="k" horiz-adv-x="1441" 
d="M451 0h-318v1577h318v-866h247l379 452h361l-488 -559l523 -604h-375l-396 471h-251v-471z" />
    <glyph glyph-name="l" unicode="l" horiz-adv-x="581" 
d="M133 0v1577h318v-1577h-318z" />
    <glyph glyph-name="m" unicode="m" horiz-adv-x="2402" 
d="M1794 1194q232 0 362 -146.5t130 -402.5v-645h-318v596q0 164 -71 250t-207 86q-144 0 -229 -100t-85 -267v-565h-317v596q0 164 -71.5 250t-207.5 86q-144 0 -228.5 -100t-84.5 -267v-565h-317v1163h317v-209q71 116 179.5 178t240.5 62q169 0 285 -80t167 -229
q67 149 186 229t269 80z" />
    <glyph glyph-name="n" unicode="n" horiz-adv-x="1552" 
d="M918 1194q246 0 382 -146t136 -403v-645h-316v596q0 164 -79 250t-230 86q-158 0 -251 -100.5t-93 -266.5v-565h-317v1163h317v-217q75 120 192 184t259 64z" />
    <glyph glyph-name="o" unicode="o" horiz-adv-x="1583" 
d="M793 -31q-324 0 -522.5 169.5t-198.5 443.5t198.5 443t522.5 169q322 0 521 -169t199 -443t-199 -443.5t-521 -169.5zM793 213q184 0 291.5 99.5t107.5 269.5q0 169 -107.5 268.5t-291.5 99.5q-186 0 -294 -99.5t-108 -268.5q0 -170 108 -269.5t294 -99.5z" />
    <glyph glyph-name="p" unicode="p" horiz-adv-x="1630" 
d="M133 -338v1501h318v-276q87 146 222.5 226.5t301.5 80.5q257 0 418 -169.5t161 -442.5t-161 -443t-418 -170q-166 0 -301 81.5t-223 228.5v-617h-318zM1233 582q0 159 -96 260.5t-246 101.5q-149 0 -270 -100t-181 -262q60 -163 181 -263t270 -100q151 0 246.5 101.5
t95.5 261.5z" />
    <glyph glyph-name="q" unicode="q" horiz-adv-x="1630" 
d="M1497 1163v-1501h-317v617q-88 -147 -223.5 -228.5t-301.5 -81.5q-257 0 -418 170t-161 443t161 442.5t418 169.5q166 0 302 -80.5t223 -226.5v276h317zM397 582q0 -160 95.5 -261.5t246.5 -101.5q149 0 270 100t181 263q-60 162 -181 262t-270 100q-150 0 -246 -101.5
t-96 -260.5z" />
    <glyph glyph-name="r" unicode="r" horiz-adv-x="1069" 
d="M1040 1174v-275q-106 25 -202 25q-166 0 -268.5 -106t-102.5 -308v-510h-317v1163h317v-270q58 142 163 221.5t257 79.5q78 0 153 -20z" />
    <glyph glyph-name="s" unicode="s" horiz-adv-x="1454" 
d="M1384 362q0 -187 -160.5 -290t-463.5 -103q-315 0 -504.5 115.5t-198.5 306.5h322q20 -90 122.5 -142t264.5 -52q307 0 307 139q0 52 -54.5 77.5t-195.5 37.5l-221 18q-510 43 -510 350q0 180 165 277.5t443 97.5q184 0 331 -50.5t233.5 -141t97.5 -207.5h-322
q-14 74 -100.5 125t-255.5 51q-133 0 -205.5 -33t-72.5 -94q0 -45 47 -72t163 -37l285 -24q136 -12 231 -41.5t149.5 -75.5t78.5 -102.5t24 -129.5z" />
    <glyph glyph-name="t" unicode="t" horiz-adv-x="1169" 
d="M256 924h-246v141l246 74l133 331h182v-307h525v-239h-525v-451q0 -138 58.5 -194t199.5 -56q157 0 287 68v-250q-63 -29 -161 -50.5t-195 -21.5q-257 0 -380.5 122t-123.5 337v496z" />
    <glyph glyph-name="u" unicode="u" horiz-adv-x="1529" 
d="M1378 0h-315v215q-73 -118 -187 -182t-251 -64q-241 0 -374.5 146t-133.5 403v645h317v-598q0 -162 76 -248t219 -86q155 0 244.5 99t89.5 268v565h317v-778z" />
    <glyph glyph-name="v" unicode="v" horiz-adv-x="1499" 
d="M360 1163l396 -887l393 887h340l-559 -1163h-359l-559 1163h348z" />
    <glyph glyph-name="w" unicode="w" horiz-adv-x="2279" 
d="M1298 1163l322 -854l324 854h317l-457 -1163h-323l-338 868l-346 -868h-324l-455 1163h320l324 -848l327 848h309z" />
    <glyph glyph-name="x" unicode="x" horiz-adv-x="1372" 
d="M338 0h-354l499 596l-467 567h359l315 -379l320 379h348l-473 -565l506 -598h-361l-348 412z" />
    <glyph glyph-name="y" unicode="y" horiz-adv-x="1507" 
d="M446 -369q-206 0 -368 109v231q85 -54 160.5 -77t167.5 -23q89 0 152.5 39.5t103.5 130.5l10 20h-131l-523 1102h351l393 -899l397 899h338l-588 -1224q-76 -160 -195.5 -234t-267.5 -74z" />
    <glyph glyph-name="z" unicode="z" horiz-adv-x="1361" 
d="M1282 0h-1206v225l803 701h-795v237h1194v-225l-799 -700h803v-238z" />
    <glyph glyph-name="braceleft" unicode="{" horiz-adv-x="880" 
d="M817 1536v-227h-201q-69 0 -97 -40.5t-9 -109.5l61 -223q33 -112 -8.5 -182.5t-140.5 -91.5q99 -21 140.5 -92t8.5 -183l-61 -223q-19 -69 9 -109.5t97 -40.5h201v-227h-332q-161 0 -238 102.5t-30 253.5l84 271q20 64 -11 101.5t-95 37.5h-127v217h127q64 0 95 37.5
t11 101.5l-84 271q-47 151 30 253.5t238 102.5h332z" />
    <glyph glyph-name="bar" unicode="|" horiz-adv-x="602" 
d="M162 -201v1737h276v-1737h-276z" />
    <glyph glyph-name="braceright" unicode="}" horiz-adv-x="880" 
d="M63 1309v227h332q161 0 238.5 -102.5t30.5 -253.5l-84 -271q-20 -64 11 -101.5t95 -37.5h127v-217h-127q-64 0 -95 -37.5t-11 -101.5l84 -271q47 -151 -30.5 -253.5t-238.5 -102.5h-332v227h201q69 0 97.5 40.5t9.5 109.5l-62 223q-33 112 9 183t141 92q-99 21 -141 91.5
t-9 182.5l62 223q19 69 -9.5 109.5t-97.5 40.5h-201z" />
    <glyph glyph-name="asciitilde" unicode="~" horiz-adv-x="1269" 
d="M61 571v232q154 71 338 71q88 0 235.5 -32.5t235.5 -32.5q180 0 338 70v-232q-156 -72 -338 -72q-88 0 -235.5 33t-235.5 33q-180 0 -338 -70z" />
    <glyph glyph-name="uni00A0" unicode="&#xa0;" horiz-adv-x="530" 
 />
    <glyph glyph-name="exclamdown" unicode="&#xa1;" horiz-adv-x="581" 
d="M293 1237q83 0 135.5 -50t52.5 -128t-52.5 -127t-135.5 -49q-85 0 -137 49t-52 127t52.5 128t136.5 50zM406 727l51 -1044h-328l51 1044h226z" />
    <glyph glyph-name="cent" unicode="&#xa2;" horiz-adv-x="1572" 
d="M686 -174v149q-258 31 -414.5 195.5t-156.5 409.5t156 410t415 194v149h203v-147q233 -25 391 -157.5t186 -332.5h-297q-22 101 -95.5 168.5t-184.5 87.5v-743q109 20 183 87t97 167h297q-28 -197 -185 -330t-392 -158v-149h-203zM412 580q0 -148 72.5 -243.5
t201.5 -125.5v739q-128 -30 -201 -126.5t-73 -243.5z" />
    <glyph glyph-name="sterling" unicode="&#xa3;" horiz-adv-x="1617" 
d="M100 621v221h215q-88 126 -88 274q0 201 176.5 326t462.5 125q283 0 464.5 -129t193.5 -340h-320q-19 101 -107 159t-223 58q-151 0 -238 -60.5t-87 -164.5q0 -72 32 -128t91 -120h624v-221h-475q6 -27 6 -60q0 -99 -66.5 -181.5t-185.5 -139.5h971v-240h-1444v260
q412 77 412 264q0 48 -27 97h-387z" />
    <glyph glyph-name="currency" unicode="&#xa4;" horiz-adv-x="1445" 
d="M1350 362l-113 -116l-160 129q-144 -86 -356 -86q-215 0 -354 88l-160 -131l-113 116l148 130q-82 114 -82 264t82 264l-148 129l113 117l160 -129q141 86 354 86q212 0 356 -86l160 129l113 -127l-146 -121q78 -110 78 -262t-80 -264zM721 514q152 0 227.5 63.5
t75.5 178.5t-75.5 178t-227.5 63q-151 0 -226 -63t-75 -178t75.5 -178.5t225.5 -63.5z" />
    <glyph glyph-name="yen" unicode="&#xa5;" horiz-adv-x="1726" 
d="M180 612v203h393l-518 721h359l450 -645l451 645h358l-518 -721h397v-203h-526v-125h526v-202h-526v-285h-321v285h-525v202h525v125h-525z" />
    <glyph glyph-name="brokenbar" unicode="&#xa6;" horiz-adv-x="602" 
d="M162 -201v676h276v-676h-276zM438 1536v-676h-276v676h276z" />
    <glyph glyph-name="section" unicode="&#xa7;" horiz-adv-x="1726" 
d="M881 -293q-167 0 -302 35.5t-220.5 95.5t-133 135.5t-53.5 159.5h320q11 -95 110.5 -157t282.5 -62q160 0 241.5 45t81.5 113q0 58 -47.5 92t-169.5 72l-456 122q-224 60 -327.5 144t-103.5 215q0 171 195 244q-109 81 -109 231q0 164 169.5 269.5t484.5 105.5
q167 0 302 -36t220.5 -96.5t133 -136t52.5 -159.5h-317q-13 96 -112 157.5t-281 61.5q-162 0 -243 -44.5t-81 -113.5q0 -57 47.5 -91.5t169.5 -70.5l455 -123q234 -63 332 -144t98 -214q0 -172 -195 -244q109 -81 109 -231q0 -165 -168 -270t-485 -105zM625 827
q-81 22 -179 56q-61 -43 -61 -113t56.5 -112t189.5 -80l469 -132q100 -27 178 -57q61 44 61 115q0 69 -56 110.5t-189 81.5z" />
    <glyph glyph-name="dieresis" unicode="&#xa8;" horiz-adv-x="1136" 
d="M264 1303q-84 0 -135 44t-51 119q0 72 51.5 116t134.5 44q85 0 136 -44t51 -116q0 -75 -51 -119t-136 -44zM874 1303q-85 0 -135.5 44t-50.5 119q0 72 51 116t135 44q82 0 133.5 -44t51.5 -116q0 -74 -51 -118.5t-134 -44.5z" />
    <glyph glyph-name="copyright" unicode="&#xa9;" horiz-adv-x="1863" 
d="M1212 690h234q-20 -185 -159 -297t-351 -112q-233 0 -375.5 135.5t-142.5 355.5t142.5 356t375.5 136q211 0 350.5 -111.5t159.5 -296.5h-234q-19 99 -92 154t-186 55q-131 0 -207 -79.5t-76 -213.5t76 -213.5t207 -79.5q116 0 187.5 55t90.5 156zM932 -31
q-167 0 -317 60.5t-260 165t-174 254t-64 319.5q0 171 64.5 320.5t174.5 254t259.5 164.5t316.5 60t317 -60t260 -164.5t174 -254t64 -320.5q0 -170 -64 -319.5t-174 -254t-260 -165t-317 -60.5zM932 115q182 0 332 82t238.5 232.5t88.5 338.5t-88.5 338.5t-238.5 232.5
t-332 82q-136 0 -257 -48.5t-210 -133t-141 -207.5t-52 -264t52 -264t141 -207.5t210 -133t257 -48.5z" />
    <glyph glyph-name="ordfeminine" unicode="&#xaa;" horiz-adv-x="1345" 
d="M1223 625h-285v235q-66 -122 -173 -191t-241 -69q-197 0 -320.5 131.5t-123.5 343.5q0 214 123.5 345.5t320.5 131.5q134 0 241 -68t173 -190v234h285v-903zM358 1075q0 -113 68.5 -185.5t173.5 -72.5q109 0 198.5 71.5t131.5 186.5q-42 117 -131.5 188.5t-198.5 71.5
q-106 0 -174 -72.5t-68 -187.5z" />
    <glyph glyph-name="guillemotleft" unicode="&#xab;" horiz-adv-x="1345" 
d="M92 639l305 473h328l-313 -473l313 -473h-328zM621 639l305 473h327l-313 -473l313 -473h-327z" />
    <glyph glyph-name="logicalnot" unicode="&#xac;" horiz-adv-x="1269" 
d="M1200 399h-235v416h-912v238h1147v-654z" />
    <glyph glyph-name="uni00AD" unicode="&#xad;" horiz-adv-x="733" 
d="M117 590v256h497v-256h-497z" />
    <glyph glyph-name="registered" unicode="&#xae;" horiz-adv-x="1581" 
d="M791 303q-191 0 -344.5 81t-240.5 225.5t-87 324.5q0 179 86.5 323.5t240.5 227t345 82.5t344.5 -82.5t240 -227t86.5 -323.5q0 -180 -86.5 -324.5t-240 -225.5t-344.5 -81zM791 428q234 0 384 143t150 363t-150 363t-384 143q-233 0 -384 -143t-151 -363t151 -363
t384 -143zM489 578v722h365q118 0 192 -64t74 -165q0 -81 -47.5 -138t-130.5 -79l193 -276h-199l-168 266h-111v-266h-168zM657 1167v-194h183q51 0 79.5 26t28.5 72q0 45 -28.5 70.5t-79.5 25.5h-183z" />
    <glyph glyph-name="macron" unicode="&#xaf;" horiz-adv-x="1036" 
d="M987 1354h-924v200h924v-200z" />
    <glyph glyph-name="degree" unicode="&#xb0;" horiz-adv-x="884" 
d="M442 969q-154 0 -250 81.5t-96 211.5q0 129 96 209.5t250 80.5t250 -80.5t96 -209.5q0 -130 -96 -211.5t-250 -81.5zM442 1110q78 0 119 39t41 113q0 72 -41 111.5t-119 39.5q-76 0 -117.5 -39.5t-41.5 -111.5q0 -73 41 -112.5t118 -39.5z" />
    <glyph glyph-name="plusminus" unicode="&#xb1;" horiz-adv-x="1269" 
d="M754 436h-238v314h-455v227h455v311h238v-311h454v-227h-454v-314zM61 94v228h1147v-228h-1147z" />
    <glyph glyph-name="twosuperior" unicode="&#xb2;" horiz-adv-x="1112" 
d="M344 1450h-248q12 141 141 234.5t336 93.5q199 0 309.5 -83.5t110.5 -217.5q0 -60 -20.5 -110t-65 -95t-100 -82.5t-141.5 -85.5l-136 -72h478v-194h-904v151l357 199q146 80 214 139.5t68 128.5q0 57 -48.5 91t-139.5 34q-92 0 -147 -36t-64 -95z" />
    <glyph glyph-name="threesuperior" unicode="&#xb3;" horiz-adv-x="1144" 
d="M330 1436h-246q14 158 149.5 251t364.5 93q213 0 328.5 -72.5t115.5 -194.5q0 -151 -192 -200q217 -39 217 -205q0 -129 -122.5 -209t-358.5 -80q-238 0 -381 98.5t-148 256.5h246q19 -156 266 -156q120 0 176 23.5t56 82.5q0 48 -40 73.5t-140 25.5h-166v159h166
q87 0 125 28.5t38 72.5q0 96 -200 96q-235 0 -254 -143z" />
    <glyph glyph-name="acute" unicode="&#xb4;" horiz-adv-x="690" 
d="M61 1284l254 365h312l-265 -365h-301z" />
    <glyph glyph-name="paragraph" unicode="&#xb6;" horiz-adv-x="1613" 
d="M489 1536h549v-1536h-239v672h-310q-195 0 -318.5 121t-123.5 313q0 189 123.5 309.5t318.5 120.5zM1444 0h-240v1536h240v-1536z" />
    <glyph glyph-name="periodcentered" unicode="&#xb7;" horiz-adv-x="585" 
d="M293 563q-79 0 -135 55.5t-56 135.5q0 79 55.5 134.5t135.5 55.5q79 0 134.5 -55t55.5 -135t-55.5 -135.5t-134.5 -55.5z" />
    <glyph glyph-name="cedilla" unicode="&#xb8;" horiz-adv-x="841" 
d="M166 -227l160 250h174l-80 -121q46 12 98 12q131 0 198.5 -52t67.5 -143q0 -94 -90.5 -154.5t-251.5 -60.5q-145 0 -248.5 58.5t-134.5 152.5h209q46 -65 174 -65q67 0 101.5 20.5t34.5 57.5q0 71 -119 71q-63 0 -117 -26h-176z" />
    <glyph glyph-name="onesuperior" unicode="&#xb9;" horiz-adv-x="923" 
d="M446 1759h183v-727h237v-194h-757v194h286v512l-276 -49v197z" />
    <glyph glyph-name="ordmasculine" unicode="&#xba;" horiz-adv-x="1273" 
d="M637 600q-252 0 -408.5 131.5t-156.5 343.5q0 214 156.5 345.5t408.5 131.5t407.5 -131t155.5 -346q0 -212 -155.5 -343.5t-407.5 -131.5zM637 813q131 0 207 70.5t76 191.5q0 124 -76 194t-207 70q-133 0 -209 -70t-76 -194q0 -123 76.5 -192.5t208.5 -69.5z" />
    <glyph glyph-name="guillemotright" unicode="&#xbb;" horiz-adv-x="1345" 
d="M948 1112l305 -473l-305 -473h-327l313 473l-313 473h327zM420 1112l305 -473l-305 -473h-328l314 473l-314 473h328z" />
    <glyph glyph-name="onequarter" unicode="&#xbc;" horiz-adv-x="2244" 
d="M422 1536h182v-727h238v-195h-758v195h287v512l-277 -49v196zM623 0l833 1536h244l-836 -1536h-241zM1769 922h293v-566h146v-180h-146v-176h-231v176h-571v160zM1538 356h293v340z" />
    <glyph glyph-name="onehalf" unicode="&#xbd;" horiz-adv-x="2355" 
d="M1610 612h-248q12 141 141 234.5t336 93.5q199 0 309.5 -83.5t110.5 -217.5q0 -115 -77 -196t-251 -177l-135 -71h477v-195h-903v152l356 198q147 80 215 139.5t68 128.5q0 57 -48.5 91t-139.5 34q-92 0 -147 -36t-64 -95zM422 1536h182v-727h238v-195h-758v195h287v512
l-277 -49v196zM610 0l834 1536h244l-836 -1536h-242z" />
    <glyph glyph-name="threequarters" unicode="&#xbe;" horiz-adv-x="2435" 
d="M797 0l833 1536h244l-836 -1536h-241zM1950 922h293v-566h145v-180h-145v-176h-232v176h-571v160zM348 1212h-246q14 158 149.5 251t364.5 93q214 0 329.5 -72.5t115.5 -193.5q0 -151 -193 -200q217 -39 217 -205q0 -129 -122.5 -209t-358.5 -80q-238 0 -380.5 98
t-147.5 256h246q10 -82 77 -118.5t189 -36.5q119 0 175 23.5t56 82.5q0 48 -40 73t-140 25h-166v160h166q87 0 125.5 29t38.5 72q0 96 -201 96q-235 0 -254 -144zM1718 356h293v340z" />
    <glyph glyph-name="questiondown" unicode="&#xbf;" horiz-adv-x="1366" 
d="M715 1237q83 0 135.5 -50t52.5 -128t-52.5 -127t-135.5 -49q-85 0 -137 49t-52 127t52.5 128t136.5 50zM856 666q0 -95 -51.5 -163.5t-165.5 -125.5l-156 -80q-129 -66 -129 -168q0 -103 85 -163t235 -60q152 0 246.5 69t109.5 189h305q-19 -242 -193.5 -377t-467.5 -135
q-295 0 -461 122t-166 339q0 107 62.5 195.5t181.5 148.5l168 86q59 31 86.5 64.5t27.5 82.5v55h273q10 -36 10 -79z" />
    <glyph glyph-name="Agrave" unicode="&#xc0;" horiz-adv-x="1880" 
d="M735 1536h412l723 -1536h-342l-154 334h-868l-152 -334h-344zM627 596h628l-315 690zM821 1980l301 -323h-327l-342 323h368z" />
    <glyph glyph-name="Aacute" unicode="&#xc1;" horiz-adv-x="1880" 
d="M735 1536h412l723 -1536h-342l-154 334h-868l-152 -334h-344zM627 596h628l-315 690zM731 1657l301 323h369l-342 -323h-328z" />
    <glyph glyph-name="Acircumflex" unicode="&#xc2;" horiz-adv-x="1880" 
d="M735 1536h412l723 -1536h-342l-154 334h-868l-152 -334h-344zM463 1657l303 323h346l307 -323h-276l-203 158l-203 -158h-274zM627 596h628l-315 690z" />
    <glyph glyph-name="Atilde" unicode="&#xc3;" horiz-adv-x="1880" 
d="M735 1536h412l723 -1536h-342l-154 334h-868l-152 -334h-344zM643 1671h-213q15 147 93.5 230.5t217.5 83.5q63 0 138.5 -27.5t141.5 -54.5t105 -27q45 0 74 26.5t35 73.5h215q-19 -148 -97.5 -230.5t-215.5 -82.5q-63 0 -138 26.5t-140.5 53t-104.5 26.5q-95 0 -111 -98
zM627 596h628l-315 690z" />
    <glyph glyph-name="Adieresis" unicode="&#xc4;" horiz-adv-x="1880" 
d="M735 1536h412l723 -1536h-342l-154 334h-868l-152 -334h-344zM627 596h628l-315 690zM633 1675q-83 0 -135 45.5t-52 118.5t51.5 116.5t135.5 43.5t135 -43.5t51 -116.5t-51.5 -118.5t-134.5 -45.5zM1247 1675q-83 0 -134.5 45.5t-51.5 118.5t51 116.5t135 43.5
t135.5 -43.5t51.5 -116.5t-52 -118.5t-135 -45.5z" />
    <glyph glyph-name="Aring" unicode="&#xc5;" horiz-adv-x="1880" 
d="M735 1536h412l723 -1536h-342l-154 334h-868l-152 -334h-344zM942 1628q-168 0 -263 66.5t-95 183.5q0 119 94.5 185.5t263.5 66.5t263.5 -66.5t94.5 -185.5q0 -117 -95 -183.5t-263 -66.5zM627 596h628l-315 690zM942 1778q172 0 172 100q0 102 -172 102
q-174 0 -174 -102q0 -100 174 -100z" />
    <glyph glyph-name="AE" unicode="&#xc6;" horiz-adv-x="2564" 
d="M2370 641h-854l155 -371h821v-270h-1044l-135 334h-811l-142 -334h-344l674 1536h1733v-270h-1163l153 -371h957v-254zM612 596h592l-291 713z" />
    <glyph glyph-name="Ccedilla" unicode="&#xc7;" horiz-adv-x="1882" 
d="M723 -223l127 196q-348 32 -556 248t-208 547q0 236 109 417.5t308 281.5t458 100q233 0 418.5 -81.5t297.5 -229.5t133 -341h-323q-32 172 -171.5 269.5t-357.5 97.5q-252 0 -398 -138.5t-146 -375.5t146 -375.5t398 -138.5q220 0 358.5 96t170.5 271h323
q-31 -280 -246.5 -457.5t-545.5 -192.5l-39 -67q52 10 104 10q126 0 197.5 -51t71.5 -139q0 -98 -93.5 -158t-261.5 -60q-149 0 -252.5 56t-134.5 153h221q41 -61 166 -61q69 0 105.5 21t36.5 55q0 31 -30.5 49t-88.5 18q-75 0 -127 -20h-170z" />
    <glyph glyph-name="Egrave" unicode="&#xc8;" horiz-adv-x="1587" 
d="M436 641v-371h1045v-270h-1370v1536h1359v-270h-1034v-371h981v-254h-981zM682 1980l301 -323h-328l-342 323h369z" />
    <glyph glyph-name="Eacute" unicode="&#xc9;" horiz-adv-x="1587" 
d="M436 641v-371h1045v-270h-1370v1536h1359v-270h-1034v-371h981v-254h-981zM592 1657l301 323h369l-342 -323h-328z" />
    <glyph glyph-name="Ecircumflex" unicode="&#xca;" horiz-adv-x="1587" 
d="M436 641v-371h1045v-270h-1370v1536h1359v-270h-1034v-371h981v-254h-981zM324 1657l303 323h346l307 -323h-276l-203 158l-203 -158h-274z" />
    <glyph glyph-name="Edieresis" unicode="&#xcb;" horiz-adv-x="1587" 
d="M436 641v-371h1045v-270h-1370v1536h1359v-270h-1034v-371h981v-254h-981zM494 1675q-83 0 -135 45.5t-52 118.5t51.5 116.5t135.5 43.5t135 -43.5t51 -116.5t-51.5 -118.5t-134.5 -45.5zM1108 1675q-83 0 -134.5 45.5t-51.5 118.5t51 116.5t135 43.5t135 -43.5
t51 -116.5t-51.5 -118.5t-134.5 -45.5z" />
    <glyph glyph-name="Igrave" unicode="&#xcc;" horiz-adv-x="647" 
d="M162 0v1536h321v-1536h-321zM203 1980l301 -323h-328l-342 323h369z" />
    <glyph glyph-name="Iacute" unicode="&#xcd;" horiz-adv-x="647" 
d="M162 0v1536h321v-1536h-321zM113 1657l301 323h368l-342 -323h-327z" />
    <glyph glyph-name="Icircumflex" unicode="&#xce;" horiz-adv-x="647" 
d="M162 0v1536h321v-1536h-321zM-72 1657l230 323h334l227 -323h-238l-157 168l-158 -168h-238z" />
    <glyph glyph-name="Idieresis" unicode="&#xcf;" horiz-adv-x="647" 
d="M162 0v1536h321v-1536h-321zM115 1675q-73 0 -116.5 44.5t-43.5 119.5q0 73 43.5 116.5t116.5 43.5t116 -43t43 -117q0 -75 -43 -119.5t-116 -44.5zM530 1675q-72 0 -114.5 44.5t-42.5 119.5q0 73 42.5 116.5t114.5 43.5q74 0 117 -43.5t43 -116.5q0 -75 -43.5 -119.5
t-116.5 -44.5z" />
    <glyph glyph-name="Eth" unicode="&#xd0;" horiz-adv-x="1916" 
d="M53 655v230h170v651h719q263 0 465 -95.5t313 -270t111 -402.5t-111 -402.5t-313 -270t-465 -95.5h-719v655h-170zM545 1251v-366h399v-230h-399v-370h420q246 0 393 132t147 351t-147 351t-393 132h-420z" />
    <glyph glyph-name="Ntilde" unicode="&#xd1;" horiz-adv-x="1943" 
d="M580 1536l888 -1174v1174h312v-1536h-408l-897 1192v-1192h-313v1536h418zM700 1671h-213q15 147 94 230.5t218 83.5q63 0 138.5 -27.5t141.5 -54.5t105 -27q44 0 73 26.5t35 73.5h215q-19 -148 -97.5 -230.5t-215.5 -82.5q-63 0 -138 26.5t-140.5 53t-104.5 26.5
q-95 0 -111 -98z" />
    <glyph glyph-name="Ograve" unicode="&#xd2;" horiz-adv-x="1953" 
d="M977 -31q-197 0 -363 58t-282 162t-181 253t-65 326t65 326t181 253t282 162t363 58q196 0 362 -58t282.5 -162t181.5 -253t65 -326t-65 -326t-181.5 -253t-282.5 -162t-362 -58zM977 258q260 0 412.5 137.5t152.5 372.5t-152.5 372.5t-412.5 137.5t-412.5 -137.5
t-152.5 -372.5t152.5 -372.5t412.5 -137.5zM856 1980l301 -323h-328l-342 323h369z" />
    <glyph glyph-name="Oacute" unicode="&#xd3;" horiz-adv-x="1953" 
d="M977 -31q-197 0 -363 58t-282 162t-181 253t-65 326t65 326t181 253t282 162t363 58q196 0 362 -58t282.5 -162t181.5 -253t65 -326t-65 -326t-181.5 -253t-282.5 -162t-362 -58zM766 1657l301 323h369l-342 -323h-328zM977 258q260 0 412.5 137.5t152.5 372.5
t-152.5 372.5t-412.5 137.5t-412.5 -137.5t-152.5 -372.5t152.5 -372.5t412.5 -137.5z" />
    <glyph glyph-name="Ocircumflex" unicode="&#xd4;" horiz-adv-x="1953" 
d="M977 -31q-197 0 -363 58t-282 162t-181 253t-65 326t65 326t181 253t282 162t363 58q196 0 362 -58t282.5 -162t181.5 -253t65 -326t-65 -326t-181.5 -253t-282.5 -162t-362 -58zM498 1657l303 323h346l307 -323h-276l-203 158l-203 -158h-274zM977 258
q260 0 412.5 137.5t152.5 372.5t-152.5 372.5t-412.5 137.5t-412.5 -137.5t-152.5 -372.5t152.5 -372.5t412.5 -137.5z" />
    <glyph glyph-name="Otilde" unicode="&#xd5;" horiz-adv-x="1953" 
d="M977 -31q-197 0 -363 58t-282 162t-181 253t-65 326t65 326t181 253t282 162t363 58q196 0 362 -58t282.5 -162t181.5 -253t65 -326t-65 -326t-181.5 -253t-282.5 -162t-362 -58zM680 1671h-213q15 147 93.5 230.5t217.5 83.5q63 0 138.5 -27.5t141.5 -54.5t105 -27
q45 0 74 26.5t35 73.5h215q-19 -148 -97.5 -230.5t-215.5 -82.5q-63 0 -138 26.5t-140.5 53t-104.5 26.5q-95 0 -111 -98zM977 258q260 0 412.5 137.5t152.5 372.5t-152.5 372.5t-412.5 137.5t-412.5 -137.5t-152.5 -372.5t152.5 -372.5t412.5 -137.5z" />
    <glyph glyph-name="Odieresis" unicode="&#xd6;" horiz-adv-x="1953" 
d="M977 -31q-197 0 -363 58t-282 162t-181 253t-65 326t65 326t181 253t282 162t363 58q196 0 362 -58t282.5 -162t181.5 -253t65 -326t-65 -326t-181.5 -253t-282.5 -162t-362 -58zM977 258q260 0 412.5 137.5t152.5 372.5t-152.5 372.5t-412.5 137.5t-412.5 -137.5
t-152.5 -372.5t152.5 -372.5t412.5 -137.5zM668 1675q-83 0 -135 45.5t-52 118.5t51.5 116.5t135.5 43.5t135 -43.5t51 -116.5t-51.5 -118.5t-134.5 -45.5zM1282 1675q-83 0 -134.5 45.5t-51.5 118.5t51 116.5t135 43.5t135 -43.5t51 -116.5t-51.5 -118.5t-134.5 -45.5z" />
    <glyph glyph-name="multiply" unicode="&#xd7;" horiz-adv-x="1269" 
d="M315 221l-168 168l320 322l-320 321l168 168l322 -321l319 321l170 -168l-321 -321l321 -322l-170 -168l-319 322z" />
    <glyph glyph-name="Oslash" unicode="&#xd8;" horiz-adv-x="1951" 
d="M127 -31l197 228q-238 218 -238 571q0 236 110.5 417.5t313 281.5t465.5 100q249 0 455 -99l88 99h307l-201 -232q116 -106 179 -250.5t63 -316.5q0 -177 -65 -326t-181 -253t-282 -162t-363 -58q-249 0 -457 97l-84 -97h-307zM408 768q0 -208 116 -342l709 815
q-115 45 -258 45q-261 0 -414 -140t-153 -378zM975 250q261 0 415 140t154 378q0 207 -117 342l-710 -815q118 -45 258 -45z" />
    <glyph glyph-name="Ugrave" unicode="&#xd9;" horiz-adv-x="1775" 
d="M463 1536v-868q0 -190 113 -300t313 -110t312 110t112 300v868h321v-881q0 -308 -205.5 -497t-539.5 -189q-335 0 -541.5 189t-206.5 497v881h322zM768 1980l301 -323h-328l-342 323h369z" />
    <glyph glyph-name="Uacute" unicode="&#xda;" horiz-adv-x="1775" 
d="M463 1536v-868q0 -190 113 -300t313 -110t312 110t112 300v868h321v-881q0 -308 -205.5 -497t-539.5 -189q-335 0 -541.5 189t-206.5 497v881h322zM678 1657l301 323h369l-342 -323h-328z" />
    <glyph glyph-name="Ucircumflex" unicode="&#xdb;" horiz-adv-x="1775" 
d="M463 1536v-868q0 -190 113 -300t313 -110t312 110t112 300v868h321v-881q0 -308 -205.5 -497t-539.5 -189q-335 0 -541.5 189t-206.5 497v881h322zM410 1657l303 323h346l307 -323h-276l-203 158l-203 -158h-274z" />
    <glyph glyph-name="Udieresis" unicode="&#xdc;" horiz-adv-x="1775" 
d="M463 1536v-868q0 -190 113 -300t313 -110t312 110t112 300v868h321v-881q0 -308 -205.5 -497t-539.5 -189q-335 0 -541.5 189t-206.5 497v881h322zM580 1675q-83 0 -135 45.5t-52 118.5t51.5 116.5t135.5 43.5t135 -43.5t51 -116.5t-51.5 -118.5t-134.5 -45.5zM1194 1675
q-83 0 -134.5 45.5t-51.5 118.5t51 116.5t135 43.5t135 -43.5t51 -116.5t-51.5 -118.5t-134.5 -45.5z" />
    <glyph glyph-name="Yacute" unicode="&#xdd;" horiz-adv-x="1818" 
d="M1071 0h-321v625l-723 911h360l522 -659l523 659h360l-721 -909v-627zM700 1657l301 323h369l-342 -323h-328z" />
    <glyph glyph-name="Thorn" unicode="&#xde;" horiz-adv-x="1648" 
d="M162 0v1536h321v-258h508q267 0 424.5 -136.5t157.5 -363.5t-157.5 -363t-424.5 -136h-508v-279h-321zM483 1010v-465h492q126 0 199 62t73 171q0 107 -73 169.5t-199 62.5h-492z" />
    <glyph glyph-name="germandbls" unicode="&#xdf;" horiz-adv-x="1746" 
d="M449 0h-316v995q0 279 193.5 446t523.5 167q305 0 462.5 -113.5t157.5 -294.5q0 -124 -71.5 -212t-210.5 -132q248 -24 371.5 -133t123.5 -287q0 -210 -162 -338.5t-450 -128.5q-232 0 -477 82v252q238 -92 428 -92q170 0 255 63t85 175q0 251 -444 251h-140v228h94
q138 0 214.5 57.5t76.5 151.5q0 105 -89 166t-240 61q-179 0 -282 -91.5t-103 -248.5v-1024z" />
    <glyph glyph-name="agrave" unicode="&#xe0;" horiz-adv-x="1638" 
d="M1038 0v162q-82 -83 -204.5 -138t-268.5 -55q-219 0 -360.5 106t-141.5 283t139 279t363 113q31 2 88 2q243 0 383 -62q-12 124 -113 190t-290 66q-261 0 -471 -119v238q244 129 543 129q140 0 256.5 -32.5t204.5 -96t137 -165.5t49 -234v-666h-314zM1038 498
q-83 45 -299 45q-370 0 -370 -170q0 -79 76.5 -127.5t205.5 -48.5q69 0 136.5 19.5t124 56t91.5 95t35 130.5zM727 1649l254 -365h-301l-264 365h311z" />
    <glyph glyph-name="aacute" unicode="&#xe1;" horiz-adv-x="1638" 
d="M1038 0v162q-82 -83 -204.5 -138t-268.5 -55q-219 0 -360.5 106t-141.5 283t139 279t363 113q31 2 88 2q243 0 383 -62q-12 124 -113 190t-290 66q-261 0 -471 -119v238q244 129 543 129q140 0 256.5 -32.5t204.5 -96t137 -165.5t49 -234v-666h-314zM627 1284l254 365
h311l-264 -365h-301zM1038 498q-83 45 -299 45q-370 0 -370 -170q0 -79 76.5 -127.5t205.5 -48.5q69 0 136.5 19.5t124 56t91.5 95t35 130.5z" />
    <glyph glyph-name="acircumflex" unicode="&#xe2;" horiz-adv-x="1638" 
d="M1038 0v162q-82 -83 -204.5 -138t-268.5 -55q-219 0 -360.5 106t-141.5 283t139 279t363 113q31 2 88 2q243 0 383 -62q-12 124 -113 190t-290 66q-261 0 -471 -119v238q244 129 543 129q140 0 256.5 -32.5t204.5 -96t137 -165.5t49 -234v-666h-314zM348 1284l293 365
h334l293 -365h-262l-199 201l-197 -201h-262zM1038 498q-83 45 -299 45q-370 0 -370 -170q0 -79 76.5 -127.5t205.5 -48.5q69 0 136.5 19.5t124 56t91.5 95t35 130.5z" />
    <glyph glyph-name="atilde" unicode="&#xe3;" horiz-adv-x="1638" 
d="M1038 0v162q-82 -83 -204.5 -138t-268.5 -55q-219 0 -360.5 106t-141.5 283t139 279t363 113q31 2 88 2q243 0 383 -62q-12 124 -113 190t-290 66q-261 0 -471 -119v238q244 129 543 129q140 0 256.5 -32.5t204.5 -96t137 -165.5t49 -234v-666h-314zM535 1307h-207
q9 162 79.5 253t198.5 91q49 0 105.5 -18t98 -39.5t87 -39.5t74.5 -18q44 0 73 30t37 83h207q-8 -158 -77.5 -250t-200.5 -92q-62 0 -134 28.5t-133 57t-96 28.5q-45 0 -75 -29.5t-37 -84.5zM1038 498q-83 45 -299 45q-370 0 -370 -170q0 -79 76.5 -127.5t205.5 -48.5
q69 0 136.5 19.5t124 56t91.5 95t35 130.5z" />
    <glyph glyph-name="adieresis" unicode="&#xe4;" horiz-adv-x="1638" 
d="M1038 0v162q-82 -83 -204.5 -138t-268.5 -55q-219 0 -360.5 106t-141.5 283t139 279t363 113q31 2 88 2q243 0 383 -62q-12 124 -113 190t-290 66q-261 0 -471 -119v238q244 129 543 129q140 0 256.5 -32.5t204.5 -96t137 -165.5t49 -234v-666h-314zM504 1303
q-84 0 -135.5 44.5t-51.5 118.5q0 72 52 116t135 44q84 0 135 -44t51 -116q0 -75 -50.5 -119t-135.5 -44zM1114 1303q-85 0 -135.5 44t-50.5 119q0 72 51 116t135 44q82 0 133 -44t51 -116q0 -74 -51 -118.5t-133 -44.5zM1038 498q-83 45 -299 45q-370 0 -370 -170
q0 -79 76.5 -127.5t205.5 -48.5q69 0 136.5 19.5t124 56t91.5 95t35 130.5z" />
    <glyph glyph-name="aring" unicode="&#xe5;" horiz-adv-x="1638" 
d="M1038 0v162q-82 -83 -204.5 -138t-268.5 -55q-219 0 -360.5 106t-141.5 283t139 279t363 113q31 2 88 2q243 0 383 -62q-12 124 -113 190t-290 66q-261 0 -471 -119v238q244 129 543 129q140 0 256.5 -32.5t204.5 -96t137 -165.5t49 -234v-666h-314zM1038 498
q-83 45 -299 45q-370 0 -370 -170q0 -79 76.5 -127.5t205.5 -48.5q69 0 136.5 19.5t124 56t91.5 95t35 130.5zM809 1264q-161 0 -254.5 70.5t-93.5 191.5q0 120 93.5 190t254.5 70q160 0 252 -70t92 -190q0 -122 -92 -192t-252 -70zM809 1407q76 0 117 30.5t41 88.5
q0 57 -41.5 88t-116.5 31q-77 0 -118.5 -31t-41.5 -88q0 -58 41.5 -88.5t118.5 -30.5z" />
    <glyph glyph-name="ae" unicode="&#xe6;" horiz-adv-x="2572" 
d="M1411 0h-233l-15 250q-89 -133 -220 -207t-288 -74q-257 0 -418 170t-161 443t161 442.5t418 169.5q157 0 288 -73t220 -206l15 248h233l6 -172q81 97 202.5 150t272.5 53q191 0 331.5 -91t209.5 -248t64 -357h-977q33 -138 149 -212.5t309 -74.5q266 0 488 143v-213
q-238 -172 -522 -172q-167 0 -302 57t-223 160zM397 582q0 -160 95.5 -261.5t246.5 -101.5q149 0 270 100t181 263q-60 162 -181 262t-270 100q-150 0 -246 -101.5t-96 -260.5zM1862 963q-135 0 -228 -72.5t-118 -198.5h694q-30 131 -116.5 201t-231.5 70z" />
    <glyph glyph-name="ccedilla" unicode="&#xe7;" horiz-adv-x="1509" 
d="M535 -227l129 202q-268 28 -430 193.5t-162 413.5q0 179 87 318.5t245 216.5t362 77q181 0 330 -62.5t242 -177t112 -262.5h-317q-26 120 -125.5 189t-241.5 69q-172 0 -273.5 -98t-101.5 -270t101.5 -270.5t273.5 -98.5q143 0 242.5 69.5t124.5 186.5h317
q-28 -208 -197 -343.5t-419 -154.5l-46 -69q47 12 99 12q131 0 198.5 -52t67.5 -143q0 -94 -90.5 -154.5t-251.5 -60.5q-145 0 -248.5 58.5t-134.5 152.5h209q46 -65 174 -65q135 0 135 78q0 71 -119 71q-62 0 -116 -26h-176z" />
    <glyph glyph-name="egrave" unicode="&#xe8;" horiz-adv-x="1470" 
d="M782 -31q-205 0 -366.5 76.5t-252.5 217t-91 321.5q0 178 87.5 317.5t242 216t350.5 76.5q296 0 470.5 -195t174.5 -520h-987q38 -128 153.5 -198t292.5 -70q133 0 268 39.5t242 109.5v-217q-113 -82 -266 -128t-318 -46zM666 1649l254 -365h-302l-264 365h312zM750 956
q-136 0 -228.5 -69.5t-120.5 -188.5h682q-29 124 -115.5 191t-217.5 67z" />
    <glyph glyph-name="eacute" unicode="&#xe9;" horiz-adv-x="1470" 
d="M782 -31q-205 0 -366.5 76.5t-252.5 217t-91 321.5q0 178 87.5 317.5t242 216t350.5 76.5q296 0 470.5 -195t174.5 -520h-987q38 -128 153.5 -198t292.5 -70q133 0 268 39.5t242 109.5v-217q-113 -82 -266 -128t-318 -46zM565 1284l254 365h311l-264 -365h-301zM750 956
q-136 0 -228.5 -69.5t-120.5 -188.5h682q-29 124 -115.5 191t-217.5 67z" />
    <glyph glyph-name="ecircumflex" unicode="&#xea;" horiz-adv-x="1470" 
d="M782 -31q-205 0 -366.5 76.5t-252.5 217t-91 321.5q0 178 87.5 317.5t242 216t350.5 76.5q296 0 470.5 -195t174.5 -520h-987q38 -128 153.5 -198t292.5 -70q133 0 268 39.5t242 109.5v-217q-113 -82 -266 -128t-318 -46zM287 1284l293 365h333l293 -365h-262l-199 201
l-196 -201h-262zM750 956q-136 0 -228.5 -69.5t-120.5 -188.5h682q-29 124 -115.5 191t-217.5 67z" />
    <glyph glyph-name="edieresis" unicode="&#xeb;" horiz-adv-x="1470" 
d="M782 -31q-205 0 -366.5 76.5t-252.5 217t-91 321.5q0 178 87.5 317.5t242 216t350.5 76.5q296 0 470.5 -195t174.5 -520h-987q38 -128 153.5 -198t292.5 -70q133 0 268 39.5t242 109.5v-217q-113 -82 -266 -128t-318 -46zM442 1303q-84 0 -135 44t-51 119q0 72 51.5 116
t134.5 44q85 0 136 -44t51 -116q0 -75 -51 -119t-136 -44zM1053 1303q-85 0 -136 44t-51 119q0 72 51 116t136 44q82 0 133 -44t51 -116q0 -74 -51 -118.5t-133 -44.5zM750 956q-136 0 -228.5 -69.5t-120.5 -188.5h682q-29 124 -115.5 191t-217.5 67z" />
    <glyph glyph-name="igrave" unicode="&#xec;" horiz-adv-x="581" 
d="M133 0v1174h318v-1174h-318zM211 1649l254 -365h-301l-264 365h311z" />
    <glyph glyph-name="iacute" unicode="&#xed;" horiz-adv-x="581" 
d="M133 0v1174h318v-1174h-318zM111 1284l254 365h311l-264 -365h-301z" />
    <glyph glyph-name="icircumflex" unicode="&#xee;" horiz-adv-x="581" 
d="M133 0v1174h318v-1174h-318zM-76 1284l199 365h334l200 -365h-229l-139 205l-137 -205h-228z" />
    <glyph glyph-name="idieresis" unicode="&#xef;" horiz-adv-x="581" 
d="M133 0v1174h318v-1174h-318zM109 1303q-72 0 -114 46t-42 124q0 77 42 122t114 45q70 0 111.5 -45t41.5 -122q0 -78 -41.5 -124t-111.5 -46zM494 1303q-71 0 -113.5 46t-42.5 124q0 76 42.5 121.5t113.5 45.5t113 -45.5t42 -121.5q0 -78 -42 -124t-113 -46z" />
    <glyph glyph-name="eth" unicode="&#xf0;" horiz-adv-x="1583" 
d="M1427 1313l-196 -37q274 -322 274 -680q0 -133 -47 -247t-135 -199t-222.5 -133t-301.5 -48q-330 0 -529.5 153t-199.5 402q0 158 84.5 279.5t238 188.5t350.5 67q238 0 396 -111q-82 145 -195 273l-416 -82v178l267 51q-110 101 -244 191l317 49q108 -80 219 -183
l340 66v-178zM791 213q186 0 293.5 83t107.5 224q0 140 -108.5 223.5t-292.5 83.5q-186 0 -294 -83t-108 -224t108 -224t294 -83z" />
    <glyph glyph-name="ntilde" unicode="&#xf1;" horiz-adv-x="1552" 
d="M918 1194q246 0 382 -146t136 -403v-645h-316v596q0 164 -79 250t-230 86q-158 0 -251 -100.5t-93 -266.5v-565h-317v1163h317v-217q75 120 192 184t259 64zM520 1307h-207q9 162 80 253t199 91q49 0 105 -18t97.5 -39.5t87 -39.5t74.5 -18q44 0 73.5 30t37.5 83h207
q-8 -158 -78 -250t-201 -92q-62 0 -134 28.5t-132.5 57t-95.5 28.5q-45 0 -75.5 -29.5t-37.5 -84.5z" />
    <glyph glyph-name="ograve" unicode="&#xf2;" horiz-adv-x="1583" 
d="M793 -31q-324 0 -522.5 169.5t-198.5 443.5t198.5 443t522.5 169q322 0 521 -169t199 -443t-199 -443.5t-521 -169.5zM793 213q184 0 291.5 99.5t107.5 269.5q0 169 -107.5 268.5t-291.5 99.5q-186 0 -294 -99.5t-108 -268.5q0 -170 108 -269.5t294 -99.5zM711 1649
l254 -365h-301l-265 365h312z" />
    <glyph glyph-name="oacute" unicode="&#xf3;" horiz-adv-x="1583" 
d="M793 -31q-324 0 -522.5 169.5t-198.5 443.5t198.5 443t522.5 169q322 0 521 -169t199 -443t-199 -443.5t-521 -169.5zM610 1284l254 365h312l-265 -365h-301zM793 213q184 0 291.5 99.5t107.5 269.5q0 169 -107.5 268.5t-291.5 99.5q-186 0 -294 -99.5t-108 -268.5
q0 -170 108 -269.5t294 -99.5z" />
    <glyph glyph-name="ocircumflex" unicode="&#xf4;" horiz-adv-x="1583" 
d="M793 -31q-324 0 -522.5 169.5t-198.5 443.5t198.5 443t522.5 169q322 0 521 -169t199 -443t-199 -443.5t-521 -169.5zM332 1284l293 365h333l293 -365h-262l-198 201l-197 -201h-262zM793 213q184 0 291.5 99.5t107.5 269.5q0 169 -107.5 268.5t-291.5 99.5
q-186 0 -294 -99.5t-108 -268.5q0 -170 108 -269.5t294 -99.5z" />
    <glyph glyph-name="otilde" unicode="&#xf5;" horiz-adv-x="1583" 
d="M793 -31q-324 0 -522.5 169.5t-198.5 443.5t198.5 443t522.5 169q322 0 521 -169t199 -443t-199 -443.5t-521 -169.5zM518 1307h-207q9 162 80 253t199 91q49 0 105 -18t97.5 -39.5t87 -39.5t74.5 -18q44 0 73.5 30t37.5 83h207q-8 -158 -78 -250t-201 -92
q-62 0 -134 28.5t-132.5 57t-95.5 28.5q-45 0 -75.5 -29.5t-37.5 -84.5zM793 213q184 0 291.5 99.5t107.5 269.5q0 169 -107.5 268.5t-291.5 99.5q-186 0 -294 -99.5t-108 -268.5q0 -170 108 -269.5t294 -99.5z" />
    <glyph glyph-name="odieresis" unicode="&#xf6;" horiz-adv-x="1583" 
d="M793 -31q-324 0 -522.5 169.5t-198.5 443.5t198.5 443t522.5 169q322 0 521 -169t199 -443t-199 -443.5t-521 -169.5zM487 1303q-84 0 -135 44t-51 119q0 72 51.5 116t134.5 44q85 0 136 -44t51 -116q0 -75 -51 -119t-136 -44zM1098 1303q-85 0 -136 44t-51 119
q0 72 51 116t136 44q82 0 133 -44t51 -116q0 -74 -51 -118.5t-133 -44.5zM793 213q184 0 291.5 99.5t107.5 269.5q0 169 -107.5 268.5t-291.5 99.5q-186 0 -294 -99.5t-108 -268.5q0 -170 108 -269.5t294 -99.5z" />
    <glyph glyph-name="divide" unicode="&#xf7;" horiz-adv-x="1269" 
d="M614 158q-71 0 -116 44t-45 113q0 68 45.5 112t115.5 44t116 -44t46 -112q0 -69 -45.5 -113t-116.5 -44zM61 606v238h1147v-238h-1147zM614 981q-70 0 -115.5 44.5t-45.5 113.5q0 68 45.5 111.5t115.5 43.5q71 0 116.5 -44t45.5 -111q0 -69 -45.5 -113.5t-116.5 -44.5z
" />
    <glyph glyph-name="oslash" unicode="&#xf8;" horiz-adv-x="1583" 
d="M92 -59l174 202q-194 165 -194 439t198.5 443t522.5 169q183 0 331 -59l74 88h295l-174 -203q93 -80 143.5 -192.5t50.5 -245.5q0 -274 -199 -443.5t-521 -169.5q-180 0 -334 58l-74 -86h-293zM377 582q0 -143 67 -234l517 598q-80 25 -168 25q-192 0 -304 -104.5
t-112 -284.5zM793 190q191 0 302 105.5t111 286.5q0 138 -65 233l-516 -598q83 -27 168 -27z" />
    <glyph glyph-name="ugrave" unicode="&#xf9;" horiz-adv-x="1529" 
d="M1378 0h-315v215q-73 -118 -187 -182t-251 -64q-241 0 -374.5 146t-133.5 403v645h317v-598q0 -162 76 -248t219 -86q155 0 244.5 99t89.5 268v565h317v-778zM676 1649l254 -365h-301l-264 365h311z" />
    <glyph glyph-name="uacute" unicode="&#xfa;" horiz-adv-x="1529" 
d="M1378 0h-315v215q-73 -118 -187 -182t-251 -64q-241 0 -374.5 146t-133.5 403v645h317v-598q0 -162 76 -248t219 -86q155 0 244.5 99t89.5 268v565h317v-778zM575 1284l254 365h312l-264 -365h-302z" />
    <glyph glyph-name="ucircumflex" unicode="&#xfb;" horiz-adv-x="1529" 
d="M1378 0h-315v215q-73 -118 -187 -182t-251 -64q-241 0 -374.5 146t-133.5 403v645h317v-598q0 -162 76 -248t219 -86q155 0 244.5 99t89.5 268v565h317v-778zM297 1284l293 365h334l293 -365h-263l-198 201l-197 -201h-262z" />
    <glyph glyph-name="udieresis" unicode="&#xfc;" horiz-adv-x="1529" 
d="M1378 0h-315v215q-73 -118 -187 -182t-251 -64q-241 0 -374.5 146t-133.5 403v645h317v-598q0 -162 76 -248t219 -86q155 0 244.5 99t89.5 268v565h317v-778zM453 1303q-84 0 -135.5 44.5t-51.5 118.5q0 72 52 116t135 44q85 0 135.5 -44t50.5 -116q0 -75 -50.5 -119
t-135.5 -44zM1063 1303q-85 0 -135.5 44t-50.5 119q0 72 50.5 116t135.5 44q82 0 133 -44t51 -116q0 -74 -51 -118.5t-133 -44.5z" />
    <glyph glyph-name="yacute" unicode="&#xfd;" horiz-adv-x="1507" 
d="M446 -369q-206 0 -368 109v231q85 -54 160.5 -77t167.5 -23q89 0 152.5 39.5t103.5 130.5l10 20h-131l-523 1102h351l393 -899l397 899h338l-588 -1224q-76 -160 -195.5 -234t-267.5 -74zM590 1284l254 365h311l-264 -365h-301z" />
    <glyph glyph-name="thorn" unicode="&#xfe;" horiz-adv-x="1630" 
d="M133 -338v1915h318v-690q87 146 222.5 226.5t301.5 80.5q257 0 418 -169.5t161 -442.5t-161 -443t-418 -170q-166 0 -301 81.5t-223 228.5v-617h-318zM1233 582q0 159 -96 260.5t-246 101.5q-149 0 -270 -100t-181 -262q60 -163 181 -263t270 -100q151 0 246.5 101.5
t95.5 261.5z" />
    <glyph glyph-name="ydieresis" unicode="&#xff;" horiz-adv-x="1507" 
d="M446 -369q-206 0 -368 109v231q85 -54 160.5 -77t167.5 -23q89 0 152.5 39.5t103.5 130.5l10 20h-131l-523 1102h351l393 -899l397 899h338l-588 -1224q-76 -160 -195.5 -234t-267.5 -74zM467 1303q-84 0 -135 44t-51 119q0 72 51.5 116t134.5 44q85 0 135.5 -44
t50.5 -116q0 -75 -50.5 -119t-135.5 -44zM1077 1303q-85 0 -135.5 44t-50.5 119q0 72 50.5 116t135.5 44q82 0 133.5 -44t51.5 -116q0 -74 -51 -118.5t-134 -44.5z" />
    <glyph glyph-name="Amacron" unicode="&#x100;" horiz-adv-x="1880" 
d="M735 1536h412l723 -1536h-342l-154 334h-868l-152 -334h-344zM627 596h628l-315 690zM1403 1710h-922v203h922v-203z" />
    <glyph glyph-name="amacron" unicode="&#x101;" horiz-adv-x="1638" 
d="M1038 0v162q-82 -83 -204.5 -138t-268.5 -55q-219 0 -360.5 106t-141.5 283t139 279t363 113q31 2 88 2q243 0 383 -62q-12 124 -113 190t-290 66q-261 0 -471 -119v238q244 129 543 129q140 0 256.5 -32.5t204.5 -96t137 -165.5t49 -234v-666h-314zM1270 1354h-924v200
h924v-200zM1038 498q-83 45 -299 45q-370 0 -370 -170q0 -79 76.5 -127.5t205.5 -48.5q69 0 136.5 19.5t124 56t91.5 95t35 130.5z" />
    <glyph glyph-name="Abreve" unicode="&#x102;" horiz-adv-x="1880" 
d="M735 1536h412l723 -1536h-342l-154 334h-868l-152 -334h-344zM473 1985h248q56 -140 219 -140t219 140h248q-41 -165 -164 -252.5t-303 -87.5q-181 0 -304.5 87.5t-162.5 252.5zM627 596h628l-315 690z" />
    <glyph glyph-name="abreve" unicode="&#x103;" horiz-adv-x="1638" 
d="M1038 0v162q-82 -83 -204.5 -138t-268.5 -55q-219 0 -360.5 106t-141.5 283t139 279t363 113q31 2 88 2q243 0 383 -62q-12 124 -113 190t-290 66q-261 0 -471 -119v238q244 129 543 129q140 0 256.5 -32.5t204.5 -96t137 -165.5t49 -234v-666h-314zM356 1647h242
q15 -82 70.5 -128t140.5 -46q83 0 138.5 46t72.5 128h242q-27 -176 -144 -274.5t-309 -98.5t-309 98.5t-144 274.5zM1038 498q-83 45 -299 45q-370 0 -370 -170q0 -79 76.5 -127.5t205.5 -48.5q69 0 136.5 19.5t124 56t91.5 95t35 130.5z" />
    <glyph glyph-name="Aogonek" unicode="&#x104;" horiz-adv-x="1880" 
d="M735 1536h412l723 -1536h2q-250 -73 -250 -154q0 -59 127 -59q71 0 123 12v-186q-79 -27 -199 -27q-133 0 -213 53.5t-80 143.5q0 135 209 217h-61l-154 334h-868l-152 -334h-344zM627 596h628l-315 690z" />
    <glyph glyph-name="aogonek" unicode="&#x105;" horiz-adv-x="1638" 
d="M1038 0v162q-82 -83 -204.5 -138t-268.5 -55q-219 0 -360.5 106t-141.5 283t139 279t363 113q31 2 88 2q243 0 383 -62q-12 124 -113 190t-290 66q-261 0 -471 -119v238q244 129 543 129q140 0 256.5 -32.5t204.5 -96t137 -165.5t49 -234v-666q-250 -73 -250 -154
q0 -59 127 -59q71 0 123 12v-186q-79 -27 -199 -27q-133 0 -213 53.5t-80 143.5q0 135 209 217h-31zM1038 498q-83 45 -299 45q-370 0 -370 -170q0 -79 76.5 -127.5t205.5 -48.5q69 0 136.5 19.5t124 56t91.5 95t35 130.5z" />
    <glyph glyph-name="Cacute" unicode="&#x106;" horiz-adv-x="1882" 
d="M1487 621h323q-21 -193 -133 -341t-297.5 -229.5t-418.5 -81.5q-259 0 -458 100t-308 281.5t-109 417.5t109 417.5t308 281.5t458 100q233 0 418.5 -81.5t297.5 -229.5t133 -341h-323q-32 172 -171.5 269.5t-357.5 97.5q-252 0 -398 -138.5t-146 -375.5t146 -375.5
t398 -138.5q220 0 358.5 96t170.5 271zM739 1657l301 323h369l-342 -323h-328z" />
    <glyph glyph-name="cacute" unicode="&#x107;" horiz-adv-x="1509" 
d="M1133 469h317q-29 -222 -219.5 -361t-464.5 -139q-204 0 -362 77.5t-245 217t-87 318.5t87 318.5t245 216.5t362 77q181 0 330 -62.5t242 -177t112 -262.5h-317q-26 120 -125.5 189t-241.5 69q-172 0 -273.5 -98t-101.5 -270t101.5 -270.5t273.5 -98.5q143 0 242.5 69.5
t124.5 186.5zM586 1284l254 365h311l-264 -365h-301z" />
    <glyph glyph-name="Ccircumflex" unicode="&#x108;" horiz-adv-x="1882" 
d="M1487 621h323q-21 -193 -133 -341t-297.5 -229.5t-418.5 -81.5q-259 0 -458 100t-308 281.5t-109 417.5t109 417.5t308 281.5t458 100q233 0 418.5 -81.5t297.5 -229.5t133 -341h-323q-32 172 -171.5 269.5t-357.5 97.5q-252 0 -398 -138.5t-146 -375.5t146 -375.5
t398 -138.5q220 0 358.5 96t170.5 271zM471 1657l303 323h346l307 -323h-276l-203 158l-203 -158h-274z" />
    <glyph glyph-name="ccircumflex" unicode="&#x109;" horiz-adv-x="1509" 
d="M1133 469h317q-29 -222 -219.5 -361t-464.5 -139q-204 0 -362 77.5t-245 217t-87 318.5t87 318.5t245 216.5t362 77q181 0 330 -62.5t242 -177t112 -262.5h-317q-26 120 -125.5 189t-241.5 69q-172 0 -273.5 -98t-101.5 -270t101.5 -270.5t273.5 -98.5q143 0 242.5 69.5
t124.5 186.5zM309 1284l293 365h334l293 -365h-262l-199 201l-197 -201h-262z" />
    <glyph glyph-name="Cdotaccent" unicode="&#x10a;" horiz-adv-x="1882" 
d="M1487 621h323q-21 -193 -133 -341t-297.5 -229.5t-418.5 -81.5q-259 0 -458 100t-308 281.5t-109 417.5t109 417.5t308 281.5t458 100q233 0 418.5 -81.5t297.5 -229.5t133 -341h-323q-32 172 -171.5 269.5t-357.5 97.5q-252 0 -398 -138.5t-146 -375.5t146 -375.5
t398 -138.5q220 0 358.5 96t170.5 271zM950 1675q-88 0 -143 47t-55 123q0 75 55 122.5t143 47.5t142.5 -47.5t54.5 -122.5q0 -76 -54.5 -123t-142.5 -47z" />
    <glyph glyph-name="cdotaccent" unicode="&#x10b;" horiz-adv-x="1509" 
d="M1133 469h317q-29 -222 -219.5 -361t-464.5 -139q-204 0 -362 77.5t-245 217t-87 318.5t87 318.5t245 216.5t362 77q181 0 330 -62.5t242 -177t112 -262.5h-317q-26 120 -125.5 189t-241.5 69q-172 0 -273.5 -98t-101.5 -270t101.5 -270.5t273.5 -98.5q143 0 242.5 69.5
t124.5 186.5zM768 1303q-88 0 -143.5 47t-55.5 123q0 75 55.5 121t143.5 46t142.5 -46t54.5 -121q0 -76 -54.5 -123t-142.5 -47z" />
    <glyph glyph-name="Ccaron" unicode="&#x10c;" horiz-adv-x="1882" 
d="M1487 621h323q-21 -193 -133 -341t-297.5 -229.5t-418.5 -81.5q-259 0 -458 100t-308 281.5t-109 417.5t109 417.5t308 281.5t458 100q233 0 418.5 -81.5t297.5 -229.5t133 -341h-323q-32 172 -171.5 269.5t-357.5 97.5q-252 0 -398 -138.5t-146 -375.5t146 -375.5
t398 -138.5q220 0 358.5 96t170.5 271zM1425 1980l-303 -323h-346l-307 323h276l203 -157l203 157h274z" />
    <glyph glyph-name="ccaron" unicode="&#x10d;" horiz-adv-x="1509" 
d="M1133 469h317q-29 -222 -219.5 -361t-464.5 -139q-204 0 -362 77.5t-245 217t-87 318.5t87 318.5t245 216.5t362 77q181 0 330 -62.5t242 -177t112 -262.5h-317q-26 120 -125.5 189t-241.5 69q-172 0 -273.5 -98t-101.5 -270t101.5 -270.5t273.5 -98.5q143 0 242.5 69.5
t124.5 186.5zM1227 1649l-293 -365h-334l-293 365h262l199 -201l197 201h262z" />
    <glyph glyph-name="Dcaron" unicode="&#x10e;" horiz-adv-x="1855" 
d="M162 1536h719q263 0 465 -95.5t312.5 -270t110.5 -402.5t-110.5 -402.5t-312.5 -270t-465 -95.5h-719v1536zM1346 1980l-304 -323h-346l-307 323h277l202 -157l203 157h275zM483 1251v-966h420q246 0 393.5 132t147.5 351t-147.5 351t-393.5 132h-420z" />
    <glyph glyph-name="dcaron" unicode="&#x10f;" horiz-adv-x="1671" 
d="M1493 1577v-1577h-317v272q-88 -143 -223 -223t-298 -80q-257 0 -418 170t-161 443t161 442.5t418 169.5q164 0 299 -79t222 -222v684h317zM397 582q0 -160 95.5 -261.5t246.5 -101.5q149 0 270 100t181 263q-60 162 -181 262t-270 100q-150 0 -246 -101.5t-96 -260.5z
M1653 1292l49 398h283l-107 -398h-225z" />
    <glyph glyph-name="Dcroat" unicode="&#x110;" horiz-adv-x="1916" 
d="M53 655v230h170v651h719q263 0 465 -95.5t313 -270t111 -402.5t-111 -402.5t-313 -270t-465 -95.5h-719v655h-170zM545 1251v-366h399v-230h-399v-370h420q246 0 393 132t147 351t-147 351t-393 132h-420z" />
    <glyph glyph-name="dcroat" unicode="&#x111;" horiz-adv-x="1628" 
d="M1495 0h-317v264q-87 -140 -222.5 -217.5t-300.5 -77.5q-256 0 -417.5 164t-161.5 426q0 265 161.5 429.5t417.5 164.5q164 0 300 -77.5t223 -217.5v389h-594v197h594v133h317v-133h158v-197h-158v-1247zM741 219q148 0 268.5 93.5t180.5 246.5q-60 155 -180.5 249.5
t-268.5 94.5q-152 0 -248 -96t-96 -248q0 -151 96 -245.5t248 -94.5z" />
    <glyph glyph-name="Emacron" unicode="&#x112;" horiz-adv-x="1587" 
d="M436 641v-371h1045v-270h-1370v1536h1359v-270h-1034v-371h981v-254h-981zM1264 1710h-922v203h922v-203z" />
    <glyph glyph-name="emacron" unicode="&#x113;" horiz-adv-x="1470" 
d="M782 -31q-205 0 -366.5 76.5t-252.5 217t-91 321.5q0 178 87.5 317.5t242 216t350.5 76.5q296 0 470.5 -195t174.5 -520h-987q38 -128 153.5 -198t292.5 -70q133 0 268 39.5t242 109.5v-217q-113 -82 -266 -128t-318 -46zM1208 1354h-923v200h923v-200zM750 956
q-136 0 -228.5 -69.5t-120.5 -188.5h682q-29 124 -115.5 191t-217.5 67z" />
    <glyph glyph-name="Ebreve" unicode="&#x114;" horiz-adv-x="1587" 
d="M436 641v-371h1045v-270h-1370v1536h1359v-270h-1034v-371h981v-254h-981zM334 1985h248q56 -140 219 -140t219 140h248q-41 -165 -164 -252.5t-303 -87.5q-181 0 -304.5 87.5t-162.5 252.5z" />
    <glyph glyph-name="ebreve" unicode="&#x115;" horiz-adv-x="1470" 
d="M782 -31q-205 0 -366.5 76.5t-252.5 217t-91 321.5q0 178 87.5 317.5t242 216t350.5 76.5q296 0 470.5 -195t174.5 -520h-987q38 -128 153.5 -198t292.5 -70q133 0 268 39.5t242 109.5v-217q-113 -82 -266 -128t-318 -46zM295 1647h242q15 -82 70.5 -128t140.5 -46
q83 0 138 46t72 128h242q-27 -177 -143.5 -275t-308.5 -98t-309 98.5t-144 274.5zM750 956q-136 0 -228.5 -69.5t-120.5 -188.5h682q-29 124 -115.5 191t-217.5 67z" />
    <glyph glyph-name="Edotaccent" unicode="&#x116;" horiz-adv-x="1587" 
d="M436 641v-371h1045v-270h-1370v1536h1359v-270h-1034v-371h981v-254h-981zM803 1675q-88 0 -143.5 47t-55.5 123q0 75 55.5 122.5t143.5 47.5q87 0 141.5 -47.5t54.5 -122.5q0 -76 -54 -123t-142 -47z" />
    <glyph glyph-name="edotaccent" unicode="&#x117;" horiz-adv-x="1470" 
d="M782 -31q-205 0 -366.5 76.5t-252.5 217t-91 321.5q0 178 87.5 317.5t242 216t350.5 76.5q296 0 470.5 -195t174.5 -520h-987q38 -128 153.5 -198t292.5 -70q133 0 268 39.5t242 109.5v-217q-113 -82 -266 -128t-318 -46zM748 1303q-88 0 -143.5 47t-55.5 123
q0 75 55.5 121t143.5 46t142 -46t54 -121q0 -76 -54 -123t-142 -47zM750 956q-136 0 -228.5 -69.5t-120.5 -188.5h682q-29 124 -115.5 191t-217.5 67z" />
    <glyph glyph-name="Eogonek" unicode="&#x118;" horiz-adv-x="1587" 
d="M436 641v-371h1045v-270q-250 -73 -250 -154q0 -59 127 -59q70 0 123 12v-186q-79 -27 -199 -27q-133 0 -213 53.5t-80 143.5q0 135 209 217h-1087v1536h1359v-270h-1034v-371h981v-254h-981z" />
    <glyph glyph-name="eogonek" unicode="&#x119;" horiz-adv-x="1470" 
d="M1137 -414q-140 0 -226 52t-86 139q0 124 170 217q-109 -25 -213 -25q-205 0 -366.5 76.5t-252.5 217t-91 321.5q0 178 87.5 317.5t242 216t350.5 76.5q297 0 471 -193.5t174 -517.5h-987q35 -130 151 -201t295 -71q282 0 510 149v-217q-78 -50 -106 -67
q-91 -55 -138 -109t-47 -100q0 -80 137 -80q70 0 123 12v-186q-79 -27 -198 -27zM403 696h680q-28 121 -116 190.5t-213 69.5q-140 0 -233 -70t-118 -190z" />
    <glyph glyph-name="Ecaron" unicode="&#x11a;" horiz-adv-x="1587" 
d="M436 641v-371h1045v-270h-1370v1536h1359v-270h-1034v-371h981v-254h-981zM1278 1980l-303 -323h-346l-307 323h276l203 -157l203 157h274z" />
    <glyph glyph-name="ecaron" unicode="&#x11b;" horiz-adv-x="1470" 
d="M782 -31q-205 0 -366.5 76.5t-252.5 217t-91 321.5q0 178 87.5 317.5t242 216t350.5 76.5q296 0 470.5 -195t174.5 -520h-987q38 -128 153.5 -198t292.5 -70q133 0 268 39.5t242 109.5v-217q-113 -82 -266 -128t-318 -46zM1204 1649l-293 -365h-333l-293 365h262
l198 -201l197 201h262zM750 956q-136 0 -228.5 -69.5t-120.5 -188.5h682q-29 124 -115.5 191t-217.5 67z" />
    <glyph glyph-name="Gcircumflex" unicode="&#x11c;" horiz-adv-x="1949" 
d="M987 240q201 0 345.5 77.5t203.5 214.5h-500v236h789v-768h-234l-16 254q-99 -134 -259 -209.5t-372 -75.5q-145 0 -275 34.5t-236 103t-183 164t-119.5 223t-42.5 274.5q0 245 114 427.5t311 277t450 94.5q352 0 577.5 -165.5t269.5 -430.5h-325q-34 148 -173.5 233.5
t-350.5 85.5q-255 0 -402 -137t-147 -385q0 -250 154 -389t421 -139zM483 1657l303 323h347l307 -323h-277l-202 158l-203 -158h-275z" />
    <glyph glyph-name="gcircumflex" unicode="&#x11d;" horiz-adv-x="1617" 
d="M637 100q-244 0 -404.5 152t-160.5 395t160.5 395t404.5 152q168 0 307 -75.5t232 -192.5v237h315v-854q0 -162 -55.5 -291t-155.5 -213.5t-238 -129t-305 -44.5q-297 0 -551 166v254q229 -178 533 -178q222 0 339.5 106t117.5 310v71q-92 -115 -231.5 -187.5
t-307.5 -72.5zM342 1284l293 365h334l293 -365h-263l-198 201l-197 -201h-262zM737 328q283 0 449 319q-165 322 -449 322q-161 0 -253.5 -88t-92.5 -234q0 -145 91.5 -232t254.5 -87z" />
    <glyph glyph-name="Gbreve" unicode="&#x11e;" horiz-adv-x="1949" 
d="M987 240q201 0 345.5 77.5t203.5 214.5h-500v236h789v-768h-234l-16 254q-99 -134 -259 -209.5t-372 -75.5q-145 0 -275 34.5t-236 103t-183 164t-119.5 223t-42.5 274.5q0 245 114 427.5t311 277t450 94.5q352 0 577.5 -165.5t269.5 -430.5h-325q-34 148 -173.5 233.5
t-350.5 85.5q-255 0 -402 -137t-147 -385q0 -250 154 -389t421 -139zM494 1985h247q56 -140 220 -140q163 0 219 140h247q-41 -165 -163.5 -252.5t-302.5 -87.5q-181 0 -304.5 87.5t-162.5 252.5z" />
    <glyph glyph-name="gbreve" unicode="&#x11f;" horiz-adv-x="1617" 
d="M637 100q-244 0 -404.5 152t-160.5 395t160.5 395t404.5 152q168 0 307 -75.5t232 -192.5v237h315v-854q0 -162 -55.5 -291t-155.5 -213.5t-238 -129t-305 -44.5q-297 0 -551 166v254q229 -178 533 -178q222 0 339.5 106t117.5 310v71q-92 -115 -231.5 -187.5
t-307.5 -72.5zM348 1647h242q15 -82 70.5 -128t140.5 -46q83 0 138.5 46t72.5 128h241q-27 -177 -143.5 -275t-308.5 -98t-309 98.5t-144 274.5zM737 328q283 0 449 319q-165 322 -449 322q-161 0 -253.5 -88t-92.5 -234q0 -145 91.5 -232t254.5 -87z" />
    <glyph glyph-name="Gdotaccent" unicode="&#x120;" horiz-adv-x="1949" 
d="M987 240q201 0 345.5 77.5t203.5 214.5h-500v236h789v-768h-234l-16 254q-99 -134 -259 -209.5t-372 -75.5q-145 0 -275 34.5t-236 103t-183 164t-119.5 223t-42.5 274.5q0 245 114 427.5t311 277t450 94.5q352 0 577.5 -165.5t269.5 -430.5h-325q-34 148 -173.5 233.5
t-350.5 85.5q-255 0 -402 -137t-147 -385q0 -250 154 -389t421 -139zM963 1675q-88 0 -143.5 47t-55.5 123q0 75 55.5 122.5t143.5 47.5q87 0 141.5 -47.5t54.5 -122.5q0 -76 -54 -123t-142 -47z" />
    <glyph glyph-name="gdotaccent" unicode="&#x121;" horiz-adv-x="1617" 
d="M637 100q-244 0 -404.5 152t-160.5 395t160.5 395t404.5 152q168 0 307 -75.5t232 -192.5v237h315v-854q0 -162 -55.5 -291t-155.5 -213.5t-238 -129t-305 -44.5q-297 0 -551 166v254q229 -178 533 -178q222 0 339.5 106t117.5 310v71q-92 -115 -231.5 -187.5
t-307.5 -72.5zM801 1303q-88 0 -143.5 47t-55.5 123q0 75 55.5 121t143.5 46t142 -46t54 -121q0 -76 -54 -123t-142 -47zM737 328q283 0 449 319q-165 322 -449 322q-161 0 -253.5 -88t-92.5 -234q0 -145 91.5 -232t254.5 -87z" />
    <glyph glyph-name="uni0122" unicode="&#x122;" horiz-adv-x="1949" 
d="M987 240q201 0 345.5 77.5t203.5 214.5h-500v236h789v-768h-234l-16 254q-99 -134 -259 -209.5t-372 -75.5q-145 0 -275 34.5t-236 103t-183 164t-119.5 223t-42.5 274.5q0 245 114 427.5t311 277t450 94.5q352 0 577.5 -165.5t269.5 -430.5h-325q-34 148 -173.5 233.5
t-350.5 85.5q-255 0 -402 -137t-147 -385q0 -250 154 -389t421 -139zM963 -569h-164l112 190q-57 12 -88.5 48.5t-31.5 90.5q0 65 49 105.5t131 40.5q83 0 132.5 -41.5t49.5 -108.5q0 -47 -19.5 -85t-80.5 -122z" />
    <glyph glyph-name="uni0123" unicode="&#x123;" horiz-adv-x="1617" 
d="M637 100q-244 0 -404.5 152t-160.5 395t160.5 395t404.5 152q168 0 307 -75.5t232 -192.5v237h315v-854q0 -162 -55.5 -291t-155.5 -213.5t-238 -129t-305 -44.5q-297 0 -551 166v254q229 -178 533 -178q222 0 339.5 106t117.5 310v71q-92 -115 -231.5 -187.5
t-307.5 -72.5zM815 1749h164l-113 -190q57 -12 89 -49t32 -91q0 -65 -49 -105t-131 -40q-83 0 -132.5 41t-49.5 108q0 47 19.5 85t80.5 122zM737 328q283 0 449 319q-165 322 -449 322q-161 0 -253.5 -88t-92.5 -234q0 -145 91.5 -232t254.5 -87z" />
    <glyph glyph-name="Hcircumflex" unicode="&#x124;" horiz-adv-x="1882" 
d="M162 0v1536h321v-618h916v618h321v-1536h-321v635h-916v-635h-321zM463 1657l303 323h346l307 -323h-276l-203 158l-203 -158h-274z" />
    <glyph glyph-name="hcircumflex" unicode="&#x125;" horiz-adv-x="1536" 
d="M133 0v1577h318v-631q75 120 191.5 184t256.5 64q246 0 383 -146t137 -403v-645h-317v596q0 164 -79 250t-228 86q-158 0 -251 -100.5t-93 -266.5v-565h-318zM342 1698l293 364h334l293 -364h-263l-198 200l-197 -200h-262z" />
    <glyph glyph-name="Hbar" unicode="&#x126;" horiz-adv-x="1947" 
d="M195 0v1133h-148v227h148v176h321v-176h916v176h321v-176h148v-227h-148v-1133h-321v608h-916v-608h-321zM516 883h916v250h-916v-250z" />
    <glyph glyph-name="hbar" unicode="&#x127;" horiz-adv-x="1536" 
d="M-25 1247v197h158v133h318v-133h598v-197h-598v-342q75 120 191.5 184t256.5 64q246 0 383 -146t137 -403v-604h-317v555q0 164 -79 250t-228 86q-158 0 -251 -100.5t-93 -266.5v-524h-318v1247h-158z" />
    <glyph glyph-name="Itilde" unicode="&#x128;" horiz-adv-x="647" 
d="M162 0v1536h321v-1536h-321zM117 1669h-172q9 143 68.5 225t164.5 82q44 0 85 -18t66.5 -39t56.5 -39t58 -18q67 0 86 112h168q-8 -144 -67.5 -225.5t-163.5 -81.5q-44 0 -84.5 18t-66 39.5t-56.5 39.5t-57 18q-70 0 -86 -113z" />
    <glyph glyph-name="itilde" unicode="&#x129;" horiz-adv-x="581" 
d="M133 0v1174h318v-1174h-318zM88 1313h-172q9 154 69 241.5t165 87.5q44 0 85 -18t66.5 -39t56.5 -39t58 -18q67 0 86 110h168q-8 -153 -68 -240t-164 -87q-44 0 -84.5 17.5t-66 38.5t-56.5 38.5t-57 17.5q-70 0 -86 -110z" />
    <glyph glyph-name="Imacron" unicode="&#x12a;" horiz-adv-x="647" 
d="M162 0v1536h321v-1536h-321zM680 1710h-715v203h715v-203z" />
    <glyph glyph-name="imacron" unicode="&#x12b;" horiz-adv-x="581" 
d="M133 0v1174h318v-1174h-318zM614 1354h-649v200h649v-200z" />
    <glyph glyph-name="Ibreve" unicode="&#x12c;" horiz-adv-x="647" 
d="M162 0v1536h321v-1536h-321zM-66 1980h228q12 -72 52.5 -110.5t107.5 -38.5q136 0 161 149h226q-17 -156 -119.5 -245.5t-267.5 -89.5q-164 0 -267.5 89.5t-120.5 245.5z" />
    <glyph glyph-name="ibreve" unicode="&#x12d;" horiz-adv-x="581" 
d="M133 0v1174h318v-1174h-318zM-76 1647h217q11 -78 50.5 -122t99.5 -44t98.5 43.5t50.5 122.5h215q-15 -172 -112 -272.5t-252 -100.5q-154 0 -252 100t-115 273z" />
    <glyph glyph-name="Iogonek" unicode="&#x12e;" horiz-adv-x="647" 
d="M162 0v1536h321v-1536q-88 -38 -134 -75t-46 -79q0 -59 115 -59q70 0 119 12v-186q-27 -10 -83.5 -18.5t-109.5 -8.5q-132 0 -210.5 51t-78.5 140q0 135 199 223h-92z" />
    <glyph glyph-name="iogonek" unicode="&#x12f;" horiz-adv-x="581" 
d="M133 0v1174h318v-1174q-191 -77 -191 -154q0 -59 107 -59q69 0 122 12v-186q-79 -27 -198 -27q-125 0 -203 51.5t-78 135.5q0 71 52 125t163 102h-92zM291 1303q-88 0 -143.5 47t-55.5 123q0 75 55.5 121t143.5 46t142 -46t54 -121q0 -76 -54 -123t-142 -47z" />
    <glyph glyph-name="Idotaccent" unicode="&#x130;" horiz-adv-x="647" 
d="M162 0v1536h321v-1536h-321zM324 1675q-88 0 -143.5 47t-55.5 123q0 75 55.5 122.5t143.5 47.5q87 0 141.5 -47.5t54.5 -122.5q0 -76 -54 -123t-142 -47z" />
    <glyph glyph-name="dotlessi" unicode="&#x131;" horiz-adv-x="581" 
d="M133 0v1174h318v-1174h-318z" />
    <glyph glyph-name="IJ" unicode="&#x132;" horiz-adv-x="1695" 
d="M127 616v84h317v-61q0 -193 94.5 -293t299.5 -100q200 0 296.5 96t96.5 274v920h321v-934q0 -202 -90.5 -346t-250 -215.5t-373.5 -71.5q-325 0 -516.5 168.5t-194.5 478.5zM125 838v698h321v-698h-321z" />
    <glyph glyph-name="ij" unicode="&#x133;" horiz-adv-x="1165" 
d="M133 0v1174h318v-1174h-318zM1157 1174v-1084q0 -215 -124 -337t-380 -122q-97 0 -195 21.5t-163 50.5v250q130 -68 287 -68q141 0 199.5 56t58.5 194v1039h317zM291 1303q-88 0 -143.5 47t-55.5 123q0 75 55.5 121t143.5 46t142 -46t54 -121q0 -76 -54 -123t-142 -47z
M997 1303q-88 0 -143 47t-55 123q0 75 55 121t143 46t142.5 -46t54.5 -121q0 -76 -54.5 -123t-142.5 -47z" />
    <glyph glyph-name="Jcircumflex" unicode="&#x134;" horiz-adv-x="1613" 
d="M47 657v84h315v-61q0 -210 94 -318t298 -108q395 0 395 403v879h321v-893q0 -162 -52 -290t-146.5 -212t-226 -128t-291.5 -44q-323 0 -515 180t-192 508zM913 1657l230 323h334l227 -323h-238l-157 168l-158 -168h-238z" />
    <glyph glyph-name="jcircumflex" unicode="&#x135;" horiz-adv-x="581" 
d="M451 1174v-1084q0 -215 -124 -337t-380 -122q-97 0 -195.5 21.5t-163.5 50.5v250q130 -68 287 -68q141 0 199.5 56t58.5 194v1039h318zM-59 1284l198 365h334l201 -365h-230l-139 205l-137 -205h-227z" />
    <glyph glyph-name="uni0136" unicode="&#x136;" horiz-adv-x="1730" 
d="M483 0h-321v1536h321v-618h375l528 618h367l-637 -733l658 -803h-388l-516 635h-387v-635zM901 -569h-164l113 190q-57 12 -89 48.5t-32 90.5q0 65 49 105.5t131 40.5q83 0 133 -41.5t50 -108.5q0 -47 -19.5 -84.5t-81.5 -122.5z" />
    <glyph glyph-name="uni0137" unicode="&#x137;" horiz-adv-x="1441" 
d="M451 0h-318v1577h318v-866h247l379 452h361l-488 -559l523 -604h-375l-396 471h-251v-471zM764 -569h-164l113 190q-57 12 -89 48.5t-32 90.5q0 65 49 105.5t131 40.5q83 0 132.5 -41.5t49.5 -108.5q0 -47 -19.5 -85t-80.5 -122z" />
    <glyph glyph-name="kgreenlandic" unicode="&#x138;" horiz-adv-x="1441" 
d="M133 1163h316v-753l618 753h350l-407 -477l442 -686h-367l-276 453l-387 -453h-289v1163z" />
    <glyph glyph-name="Lacute" unicode="&#x139;" horiz-adv-x="1529" 
d="M162 1536h321v-1251h1012v-285h-1333v1536zM113 1657l301 323h368l-342 -323h-327z" />
    <glyph glyph-name="lacute" unicode="&#x13a;" horiz-adv-x="581" 
d="M133 0v1577h318v-1577h-318zM111 1698l254 364h311l-264 -364h-301z" />
    <glyph glyph-name="uni013B" unicode="&#x13b;" horiz-adv-x="1529" 
d="M162 1536h321v-1251h1012v-285h-1333v1536zM856 -569h-164l113 190q-57 12 -89 48.5t-32 90.5q0 65 49 105.5t131 40.5q83 0 133 -41.5t50 -108.5q0 -47 -19.5 -84.5t-81.5 -122.5z" />
    <glyph glyph-name="uni013C" unicode="&#x13c;" horiz-adv-x="581" 
d="M133 0v1577h318v-1577h-318zM283 -569h-164l112 190q-57 12 -88.5 48.5t-31.5 90.5q0 65 49 105.5t131 40.5q83 0 132.5 -41.5t49.5 -108.5q0 -47 -19.5 -85t-80.5 -122z" />
    <glyph glyph-name="Lcaron" unicode="&#x13d;" horiz-adv-x="1529" 
d="M162 1536h321v-1251h1012v-285h-1333v1536zM774 1067l57 469h283l-115 -469h-225z" />
    <glyph glyph-name="lcaron" unicode="&#x13e;" horiz-adv-x="610" 
d="M133 0v1577h318v-1577h-318zM539 1292l49 398h282l-106 -398h-225z" />
    <glyph glyph-name="Ldot" unicode="&#x13f;" horiz-adv-x="1529" 
d="M162 1536h321v-1251h1012v-285h-1333v1536zM1085 725q-85 0 -142.5 57t-57.5 142q0 86 57.5 143t142.5 57t143 -57t58 -143q0 -85 -58 -142t-143 -57z" />
    <glyph glyph-name="ldot" unicode="&#x140;" horiz-adv-x="911" 
d="M133 0v1577h318v-1577h-318zM748 618q-80 0 -135.5 56t-55.5 135t55.5 134.5t135.5 55.5t135 -55.5t55 -134.5q0 -80 -55.5 -135.5t-134.5 -55.5z" />
    <glyph glyph-name="Lslash" unicode="&#x141;" horiz-adv-x="1611" 
d="M244 1536h321v-541l508 135v-229l-508 -135v-481h1012v-285h-1333v680l-170 -45v231l170 45v625z" />
    <glyph glyph-name="lslash" unicode="&#x142;" horiz-adv-x="798" 
d="M61 647v223l181 56v651h317v-553l180 55v-223l-180 -55v-801h-317v702z" />
    <glyph glyph-name="Nacute" unicode="&#x143;" horiz-adv-x="1943" 
d="M580 1536l888 -1174v1174h312v-1536h-408l-897 1192v-1192h-313v1536h418zM788 1657l302 323h368l-342 -323h-328z" />
    <glyph glyph-name="nacute" unicode="&#x144;" horiz-adv-x="1552" 
d="M918 1194q246 0 382 -146t136 -403v-645h-316v596q0 164 -79 250t-230 86q-158 0 -251 -100.5t-93 -266.5v-565h-317v1163h317v-217q75 120 192 184t259 64zM612 1284l254 365h312l-265 -365h-301z" />
    <glyph glyph-name="uni0145" unicode="&#x145;" horiz-adv-x="1943" 
d="M580 1536l888 -1174v1174h312v-1536h-408l-897 1192v-1192h-313v1536h418zM965 -569h-164l112 190q-57 12 -88.5 48.5t-31.5 90.5q0 65 49 105.5t131 40.5q83 0 132.5 -41.5t49.5 -108.5q0 -47 -19.5 -85t-80.5 -122z" />
    <glyph glyph-name="uni0146" unicode="&#x146;" horiz-adv-x="1552" 
d="M918 1194q246 0 382 -146t136 -403v-645h-316v596q0 164 -79 250t-230 86q-158 0 -251 -100.5t-93 -266.5v-565h-317v1163h317v-217q75 120 192 184t259 64zM784 -569h-163l112 190q-57 12 -89 48.5t-32 90.5q0 65 49.5 105.5t131.5 40.5q83 0 132.5 -41.5t49.5 -108.5
q0 -47 -19.5 -84.5t-81.5 -122.5z" />
    <glyph glyph-name="Ncaron" unicode="&#x147;" horiz-adv-x="1943" 
d="M580 1536l888 -1174v1174h312v-1536h-408l-897 1192v-1192h-313v1536h418zM1475 1980l-304 -323h-346l-307 323h277l202 -157l203 157h275z" />
    <glyph glyph-name="ncaron" unicode="&#x148;" horiz-adv-x="1552" 
d="M918 1194q246 0 382 -146t136 -403v-645h-316v596q0 164 -79 250t-230 86q-158 0 -251 -100.5t-93 -266.5v-565h-317v1163h317v-217q75 120 192 184t259 64zM1251 1649l-293 -365h-333l-293 365h262l199 -201l196 201h262z" />
    <glyph glyph-name="napostrophe" unicode="&#x149;" horiz-adv-x="1898" 
d="M1264 1194q246 0 382 -146t136 -403v-645h-316v596q0 164 -79 250t-230 86q-158 0 -251 -100.5t-93 -266.5v-565h-317v1163h317v-217q75 120 192 184t259 64zM152 920h-162l129 278q-55 21 -89 67.5t-34 104.5q0 76 55 130t133 54q79 0 134 -54.5t55 -135.5
q0 -51 -23.5 -108.5t-81.5 -147.5z" />
    <glyph glyph-name="Eng" unicode="&#x14a;" horiz-adv-x="1859" 
d="M162 0v1536h321v-264q94 148 245 221.5t347 73.5q299 0 468 -160t169 -440v-891q0 -208 -127 -326.5t-385 -118.5q-198 0 -346 66v250q138 -64 299 -64q127 0 182.5 51t55.5 172v787q0 189 -109.5 287t-320.5 98q-222 0 -350 -112t-128 -302v-864h-321z" />
    <glyph glyph-name="eng" unicode="&#x14b;" horiz-adv-x="1552" 
d="M918 1194q246 0 382 -146t136 -403v-561q0 -205 -115 -329t-330 -124q-79 0 -158 21t-135 55v240q114 -66 234 -66q102 0 145 46.5t43 162.5v506q0 164 -79 250t-230 86q-158 0 -251 -100.5t-93 -266.5v-565h-317v1163h317v-217q75 120 192 184t259 64z" />
    <glyph glyph-name="Omacron" unicode="&#x14c;" horiz-adv-x="1953" 
d="M977 -31q-197 0 -363 58t-282 162t-181 253t-65 326t65 326t181 253t282 162t363 58q196 0 362 -58t282.5 -162t181.5 -253t65 -326t-65 -326t-181.5 -253t-282.5 -162t-362 -58zM977 258q260 0 412.5 137.5t152.5 372.5t-152.5 372.5t-412.5 137.5t-412.5 -137.5
t-152.5 -372.5t152.5 -372.5t412.5 -137.5zM1438 1710h-922v203h922v-203z" />
    <glyph glyph-name="omacron" unicode="&#x14d;" horiz-adv-x="1583" 
d="M793 -31q-324 0 -522.5 169.5t-198.5 443.5t198.5 443t522.5 169q322 0 521 -169t199 -443t-199 -443.5t-521 -169.5zM1253 1354h-923v200h923v-200zM793 213q184 0 291.5 99.5t107.5 269.5q0 169 -107.5 268.5t-291.5 99.5q-186 0 -294 -99.5t-108 -268.5
q0 -170 108 -269.5t294 -99.5z" />
    <glyph glyph-name="Obreve" unicode="&#x14e;" horiz-adv-x="1953" 
d="M977 -31q-197 0 -363 58t-282 162t-181 253t-65 326t65 326t181 253t282 162t363 58q196 0 362 -58t282.5 -162t181.5 -253t65 -326t-65 -326t-181.5 -253t-282.5 -162t-362 -58zM508 1985h248q56 -140 219 -140t219 140h248q-41 -165 -164 -252.5t-303 -87.5
q-181 0 -304.5 87.5t-162.5 252.5zM977 258q260 0 412.5 137.5t152.5 372.5t-152.5 372.5t-412.5 137.5t-412.5 -137.5t-152.5 -372.5t152.5 -372.5t412.5 -137.5z" />
    <glyph glyph-name="obreve" unicode="&#x14f;" horiz-adv-x="1583" 
d="M793 -31q-324 0 -522.5 169.5t-198.5 443.5t198.5 443t522.5 169q322 0 521 -169t199 -443t-199 -443.5t-521 -169.5zM340 1647h242q15 -82 70.5 -128t140.5 -46q83 0 138.5 46t72.5 128h241q-27 -177 -143.5 -275t-308.5 -98t-309 98.5t-144 274.5zM793 213
q184 0 291.5 99.5t107.5 269.5q0 169 -107.5 268.5t-291.5 99.5q-186 0 -294 -99.5t-108 -268.5q0 -170 108 -269.5t294 -99.5z" />
    <glyph glyph-name="Ohungarumlaut" unicode="&#x150;" horiz-adv-x="1953" 
d="M977 -31q-197 0 -363 58t-282 162t-181 253t-65 326t65 326t181 253t282 162t363 58q196 0 362 -58t282.5 -162t181.5 -253t65 -326t-65 -326t-181.5 -253t-282.5 -162t-362 -58zM598 1657l250 323h313l-274 -323h-289zM1079 1657l248 323h313l-274 -323h-287zM977 258
q260 0 412.5 137.5t152.5 372.5t-152.5 372.5t-412.5 137.5t-412.5 -137.5t-152.5 -372.5t152.5 -372.5t412.5 -137.5z" />
    <glyph glyph-name="ohungarumlaut" unicode="&#x151;" horiz-adv-x="1583" 
d="M793 -31q-324 0 -522.5 169.5t-198.5 443.5t198.5 443t522.5 169q322 0 521 -169t199 -443t-199 -443.5t-521 -169.5zM793 213q184 0 291.5 99.5t107.5 269.5q0 169 -107.5 268.5t-291.5 99.5q-186 0 -294 -99.5t-108 -268.5q0 -170 108 -269.5t294 -99.5zM426 1284
l227 365h287l-238 -365h-276zM877 1284l223 365h291l-242 -365h-272z" />
    <glyph glyph-name="OE" unicode="&#x152;" horiz-adv-x="2748" 
d="M2642 0h-1667q-263 0 -465 95.5t-313 270t-111 402.5t108.5 402.5t308.5 270t462 95.5h1667v-270h-967v-369h911v-254h-911v-373h977v-270zM954 285h396v966h-396q-246 0 -394 -132.5t-148 -350.5t148 -350.5t394 -132.5z" />
    <glyph glyph-name="oe" unicode="&#x153;" horiz-adv-x="2543" 
d="M1864 -31q-178 0 -316.5 61t-222.5 175q-87 -114 -229.5 -175t-327.5 -61q-308 0 -502 170t-194 443q0 180 88 319.5t246.5 216t361.5 76.5q186 0 328.5 -63t230.5 -179q85 114 218 178t296 64q189 0 332 -87.5t220 -245t77 -363.5h-971q33 -137 149 -212t287 -75
q277 0 504 149v-213q-107 -80 -262.5 -129t-312.5 -49zM782 213q180 0 284.5 99.5t104.5 269.5q0 169 -104.5 268.5t-284.5 99.5q-181 0 -286 -99.5t-105 -268.5q0 -171 105 -270t286 -99zM1845 963q-134 0 -229 -72t-121 -199h684q-28 127 -115 199t-219 72z" />
    <glyph glyph-name="Racute" unicode="&#x154;" horiz-adv-x="1687" 
d="M1245 0l-479 594h-283v-594h-321v1536h862q250 0 403.5 -130.5t153.5 -342.5q0 -185 -121.5 -310t-326.5 -153l493 -600h-381zM618 1657l302 323h368l-342 -323h-328zM483 850h506q123 0 194.5 57.5t71.5 155.5q0 99 -71.5 156t-194.5 57h-506v-426z" />
    <glyph glyph-name="racute" unicode="&#x155;" horiz-adv-x="1069" 
d="M1040 1174v-275q-106 25 -202 25q-166 0 -268.5 -106t-102.5 -308v-510h-317v1163h317v-270q58 142 163 221.5t257 79.5q78 0 153 -20zM401 1284l254 365h312l-265 -365h-301z" />
    <glyph glyph-name="uni0156" unicode="&#x156;" horiz-adv-x="1687" 
d="M1245 0l-479 594h-283v-594h-321v1536h862q250 0 403.5 -130.5t153.5 -342.5q0 -185 -121.5 -310t-326.5 -153l493 -600h-381zM850 -569h-164l113 190q-57 12 -89 48.5t-32 90.5q0 65 49 105.5t131 40.5q83 0 132.5 -41.5t49.5 -108.5q0 -47 -19.5 -85t-80.5 -122z
M483 850h506q123 0 194.5 57.5t71.5 155.5q0 99 -71.5 156t-194.5 57h-506v-426z" />
    <glyph glyph-name="uni0157" unicode="&#x157;" horiz-adv-x="1069" 
d="M1040 1174v-275q-106 25 -202 25q-166 0 -268.5 -106t-102.5 -308v-510h-317v1163h317v-270q58 142 163 221.5t257 79.5q78 0 153 -20zM297 -569h-164l113 190q-57 12 -89 48.5t-32 90.5q0 65 49 105.5t131 40.5q83 0 132.5 -41.5t49.5 -108.5q0 -47 -19.5 -85
t-80.5 -122z" />
    <glyph glyph-name="Rcaron" unicode="&#x158;" horiz-adv-x="1687" 
d="M1245 0l-479 594h-283v-594h-321v1536h862q250 0 403.5 -130.5t153.5 -342.5q0 -185 -121.5 -310t-326.5 -153l493 -600h-381zM1305 1980l-304 -323h-346l-307 323h277l202 -157l203 157h275zM483 850h506q123 0 194.5 57.5t71.5 155.5q0 99 -71.5 156t-194.5 57h-506
v-426z" />
    <glyph glyph-name="rcaron" unicode="&#x159;" horiz-adv-x="1069" 
d="M1040 1174v-275q-106 25 -202 25q-166 0 -268.5 -106t-102.5 -308v-510h-317v1163h317v-270q58 142 163 221.5t257 79.5q78 0 153 -20zM1042 1649l-292 -365h-334l-293 365h262l199 -201l196 201h262z" />
    <glyph glyph-name="Sacute" unicode="&#x15a;" horiz-adv-x="1671" 
d="M76 502h327q17 -127 140 -201t319 -74q189 0 299.5 56.5t110.5 154.5q0 81 -65 122t-232 61l-316 36q-291 35 -423 140t-132 297q0 219 192.5 346t516.5 127q210 0 375.5 -61.5t261.5 -174.5t106 -260h-327q-14 108 -126.5 173t-295.5 65q-174 0 -276.5 -54t-102.5 -149
q0 -73 62 -112.5t215 -59.5l325 -41q313 -38 439 -132t126 -286q0 -152 -92 -267t-259.5 -177t-387.5 -62q-340 0 -554.5 147.5t-225.5 385.5zM625 1657l301 323h368l-342 -323h-327z" />
    <glyph glyph-name="sacute" unicode="&#x15b;" horiz-adv-x="1454" 
d="M1384 362q0 -187 -160.5 -290t-463.5 -103q-315 0 -504.5 115.5t-198.5 306.5h322q20 -90 122.5 -142t264.5 -52q307 0 307 139q0 52 -54.5 77.5t-195.5 37.5l-221 18q-510 43 -510 350q0 180 165 277.5t443 97.5q184 0 331 -50.5t233.5 -141t97.5 -207.5h-322
q-14 74 -100.5 125t-255.5 51q-133 0 -205.5 -33t-72.5 -94q0 -45 47 -72t163 -37l285 -24q136 -12 231 -41.5t149.5 -75.5t78.5 -102.5t24 -129.5zM545 1284l254 365h311l-264 -365h-301z" />
    <glyph glyph-name="Scircumflex" unicode="&#x15c;" horiz-adv-x="1671" 
d="M76 502h327q17 -127 140 -201t319 -74q189 0 299.5 56.5t110.5 154.5q0 81 -65 122t-232 61l-316 36q-291 35 -423 140t-132 297q0 219 192.5 346t516.5 127q210 0 375.5 -61.5t261.5 -174.5t106 -260h-327q-14 108 -126.5 173t-295.5 65q-174 0 -276.5 -54t-102.5 -149
q0 -73 62 -112.5t215 -59.5l325 -41q313 -38 439 -132t126 -286q0 -152 -92 -267t-259.5 -177t-387.5 -62q-340 0 -554.5 147.5t-225.5 385.5zM356 1657l303 323h347l307 -323h-277l-202 158l-203 -158h-275z" />
    <glyph glyph-name="scircumflex" unicode="&#x15d;" horiz-adv-x="1454" 
d="M1384 362q0 -187 -160.5 -290t-463.5 -103q-315 0 -504.5 115.5t-198.5 306.5h322q20 -90 122.5 -142t264.5 -52q307 0 307 139q0 52 -54.5 77.5t-195.5 37.5l-221 18q-510 43 -510 350q0 180 165 277.5t443 97.5q184 0 331 -50.5t233.5 -141t97.5 -207.5h-322
q-14 74 -100.5 125t-255.5 51q-133 0 -205.5 -33t-72.5 -94q0 -45 47 -72t163 -37l285 -24q136 -12 231 -41.5t149.5 -75.5t78.5 -102.5t24 -129.5zM266 1284l293 365h334l293 -365h-262l-199 201l-197 -201h-262z" />
    <glyph glyph-name="Scedilla" unicode="&#x15e;" horiz-adv-x="1671" 
d="M602 -223l127 198q-290 28 -467 170t-186 357h327q17 -127 140 -201t319 -74q189 0 299.5 56.5t110.5 154.5q0 81 -65 122t-232 61l-316 36q-291 35 -423 140t-132 297q0 219 192.5 346t516.5 127q210 0 375.5 -61.5t261.5 -174.5t106 -260h-327q-14 108 -126.5 173
t-295.5 65q-174 0 -276.5 -54t-102.5 -149q0 -73 62 -112.5t215 -59.5l325 -41q313 -38 439 -132t126 -286q0 -222 -190.5 -359.5t-507.5 -146.5l-39 -65q52 10 105 10q125 0 196.5 -51t71.5 -139q0 -98 -93 -158t-261 -60q-149 0 -253 56t-135 153h222q41 -61 166 -61
q69 0 105 21t36 55q0 31 -30.5 49t-88.5 18q-75 0 -127 -20h-170z" />
    <glyph glyph-name="scedilla" unicode="&#x15f;" horiz-adv-x="1454" 
d="M510 -227l129 200q-265 23 -419.5 135t-162.5 283h322q20 -90 122.5 -142t264.5 -52q307 0 307 139q0 52 -54.5 77.5t-195.5 37.5l-221 18q-510 43 -510 350q0 180 165 277.5t443 97.5q184 0 331 -50.5t233.5 -141t97.5 -207.5h-322q-14 74 -100.5 125t-255.5 51
q-133 0 -205.5 -33t-72.5 -94q0 -45 47 -72t163 -37l285 -24q136 -12 231 -41.5t149.5 -75.5t78.5 -102.5t24 -129.5q0 -179 -148 -281.5t-427 -111.5l-45 -67q46 12 98 12q131 0 198.5 -52t67.5 -143q0 -94 -90.5 -154.5t-251.5 -60.5q-145 0 -248.5 58.5t-134.5 152.5h209
q46 -65 174 -65q67 0 101.5 20.5t34.5 57.5q0 71 -119 71q-63 0 -117 -26h-176z" />
    <glyph glyph-name="Scaron" unicode="&#x160;" horiz-adv-x="1671" 
d="M76 502h327q17 -127 140 -201t319 -74q189 0 299.5 56.5t110.5 154.5q0 81 -65 122t-232 61l-316 36q-291 35 -423 140t-132 297q0 219 192.5 346t516.5 127q210 0 375.5 -61.5t261.5 -174.5t106 -260h-327q-14 108 -126.5 173t-295.5 65q-174 0 -276.5 -54t-102.5 -149
q0 -73 62 -112.5t215 -59.5l325 -41q313 -38 439 -132t126 -286q0 -152 -92 -267t-259.5 -177t-387.5 -62q-340 0 -554.5 147.5t-225.5 385.5zM1311 1980l-303 -323h-346l-308 323h277l203 -157l202 157h275z" />
    <glyph glyph-name="scaron" unicode="&#x161;" horiz-adv-x="1454" 
d="M1384 362q0 -187 -160.5 -290t-463.5 -103q-315 0 -504.5 115.5t-198.5 306.5h322q20 -90 122.5 -142t264.5 -52q307 0 307 139q0 52 -54.5 77.5t-195.5 37.5l-221 18q-510 43 -510 350q0 180 165 277.5t443 97.5q184 0 331 -50.5t233.5 -141t97.5 -207.5h-322
q-14 74 -100.5 125t-255.5 51q-133 0 -205.5 -33t-72.5 -94q0 -45 47 -72t163 -37l285 -24q136 -12 231 -41.5t149.5 -75.5t78.5 -102.5t24 -129.5zM1184 1649l-293 -365h-334l-293 365h262l199 -201l197 201h262z" />
    <glyph glyph-name="uni0162" unicode="&#x162;" horiz-adv-x="1628" 
d="M653 0v1251h-618v285h1558v-285h-618v-1251h-82l-57 -96q52 10 104 10q125 0 196.5 -51t71.5 -139q0 -98 -93 -158t-261 -60q-149 0 -252.5 56t-134.5 153h221q41 -61 166 -61q69 0 105 21t36 55q0 31 -30.5 49t-87.5 18q-75 0 -127 -20h-170l143 223h-70z" />
    <glyph glyph-name="uni0163" unicode="&#x163;" horiz-adv-x="1169" 
d="M256 924h-246v141l246 74l133 331h182v-307h525v-239h-525v-451q0 -138 58.5 -194t199.5 -56q157 0 287 68v-250q-161 -72 -395 -72l-45 -67q46 12 98 12q131 0 198.5 -52t67.5 -143q0 -94 -90.5 -154.5t-251.5 -60.5q-145 0 -248.5 58.5t-134.5 152.5h209
q46 -65 174 -65q67 0 101.5 20.5t34.5 57.5q0 71 -119 71q-63 0 -117 -26h-176l141 219q-157 43 -232 155.5t-75 280.5v496z" />
    <glyph glyph-name="Tcaron" unicode="&#x164;" horiz-adv-x="1628" 
d="M653 0v1251h-618v285h1558v-285h-618v-1251h-322zM1290 1980l-303 -323h-346l-307 323h276l203 -157l203 157h274z" />
    <glyph glyph-name="tcaron" unicode="&#x165;" horiz-adv-x="1169" 
d="M256 924h-246v141l246 74l133 331h182v-307h525v-239h-525v-451q0 -138 58.5 -194t199.5 -56q157 0 287 68v-250q-63 -29 -161 -50.5t-195 -21.5q-257 0 -380.5 122t-123.5 337v496zM707 1311l49 397h282l-106 -397h-225z" />
    <glyph glyph-name="Tbar" unicode="&#x166;" horiz-adv-x="1658" 
d="M49 1251v285h1559v-285h-619v-432h416v-229h-416v-590h-321v590h-414v229h414v432h-619z" />
    <glyph glyph-name="tbar" unicode="&#x167;" horiz-adv-x="1191" 
d="M274 924h-245v141l245 74l134 331h182v-307h524v-239h-524v-219h401v-216h-401v-16q0 -138 58.5 -194t199.5 -56q157 0 287 68v-250q-63 -29 -161.5 -50.5t-195.5 -21.5q-257 0 -380.5 122t-123.5 337v61h-217v216h217v219z" />
    <glyph glyph-name="Utilde" unicode="&#x168;" horiz-adv-x="1775" 
d="M463 1536v-868q0 -190 113 -300t313 -110t312 110t112 300v868h321v-881q0 -308 -205.5 -497t-539.5 -189q-335 0 -541.5 189t-206.5 497v881h322zM590 1671h-213q15 147 93.5 230.5t217.5 83.5q63 0 138.5 -27.5t141.5 -54.5t105 -27q45 0 74 26.5t35 73.5h215
q-19 -147 -98 -230t-216 -83q-63 0 -138 26.5t-140.5 53t-104.5 26.5q-94 0 -110 -98z" />
    <glyph glyph-name="utilde" unicode="&#x169;" horiz-adv-x="1529" 
d="M1378 0h-315v215q-73 -118 -187 -182t-251 -64q-241 0 -374.5 146t-133.5 403v645h317v-598q0 -162 76 -248t219 -86q155 0 244.5 99t89.5 268v565h317v-778zM483 1307h-207q9 162 80 253t199 91q49 0 105.5 -18t98 -39.5t87 -39.5t74.5 -18q44 0 73 30t37 83h207
q-8 -158 -78 -250t-201 -92q-62 0 -134 28.5t-132.5 57t-95.5 28.5q-45 0 -75.5 -29.5t-37.5 -84.5z" />
    <glyph glyph-name="Umacron" unicode="&#x16a;" horiz-adv-x="1775" 
d="M463 1536v-868q0 -190 113 -300t313 -110t312 110t112 300v868h321v-881q0 -308 -205.5 -497t-539.5 -189q-335 0 -541.5 189t-206.5 497v881h322zM1350 1710h-922v203h922v-203z" />
    <glyph glyph-name="umacron" unicode="&#x16b;" horiz-adv-x="1529" 
d="M1378 0h-315v215q-73 -118 -187 -182t-251 -64q-241 0 -374.5 146t-133.5 403v645h317v-598q0 -162 76 -248t219 -86q155 0 244.5 99t89.5 268v565h317v-778zM1219 1354h-924v200h924v-200z" />
    <glyph glyph-name="Ubreve" unicode="&#x16c;" horiz-adv-x="1775" 
d="M463 1536v-868q0 -190 113 -300t313 -110t312 110t112 300v868h321v-881q0 -308 -205.5 -497t-539.5 -189q-335 0 -541.5 189t-206.5 497v881h322zM420 1985h248q56 -140 219 -140t219 140h248q-41 -165 -164 -252.5t-303 -87.5q-181 0 -304.5 87.5t-162.5 252.5z" />
    <glyph glyph-name="ubreve" unicode="&#x16d;" horiz-adv-x="1529" 
d="M1378 0h-315v215q-73 -118 -187 -182t-251 -64q-241 0 -374.5 146t-133.5 403v645h317v-598q0 -162 76 -248t219 -86q155 0 244.5 99t89.5 268v565h317v-778zM305 1647h242q15 -82 70.5 -128t140.5 -46q83 0 138.5 46t72.5 128h241q-27 -177 -143.5 -275t-308.5 -98
t-309 98.5t-144 274.5z" />
    <glyph glyph-name="Uring" unicode="&#x16e;" horiz-adv-x="1775" 
d="M463 1536v-868q0 -190 113 -300t313 -110t312 110t112 300v868h321v-881q0 -308 -205.5 -497t-539.5 -189q-335 0 -541.5 189t-206.5 497v881h322zM889 1628q-169 0 -264 66.5t-95 183.5q0 118 95 185t264 67t263.5 -66.5t94.5 -185.5q0 -117 -95 -183.5t-263 -66.5z
M889 1778q172 0 172 100q0 102 -172 102q-174 0 -174 -102q0 -100 174 -100z" />
    <glyph glyph-name="uring" unicode="&#x16f;" horiz-adv-x="1529" 
d="M1378 0h-315v215q-73 -118 -187 -182t-251 -64q-241 0 -374.5 146t-133.5 403v645h317v-598q0 -162 76 -248t219 -86q155 0 244.5 99t89.5 268v565h317v-778zM758 1264q-161 0 -254.5 70.5t-93.5 191.5q0 120 93.5 190t254.5 70q160 0 252 -70t92 -190q0 -122 -92 -192
t-252 -70zM758 1407q76 0 116.5 30.5t40.5 88.5q0 57 -41 88t-116 31q-77 0 -118.5 -31t-41.5 -88q0 -58 41.5 -88.5t118.5 -30.5z" />
    <glyph glyph-name="Uhungarumlaut" unicode="&#x170;" horiz-adv-x="1775" 
d="M463 1536v-868q0 -190 113 -300t313 -110t312 110t112 300v868h321v-881q0 -308 -205.5 -497t-539.5 -189q-335 0 -541.5 189t-206.5 497v881h322zM451 1657l249 323h314l-275 -323h-288zM932 1657l248 323h313l-274 -323h-287z" />
    <glyph glyph-name="uhungarumlaut" unicode="&#x171;" horiz-adv-x="1529" 
d="M1378 0h-315v215q-73 -118 -187 -182t-251 -64q-241 0 -374.5 146t-133.5 403v645h317v-598q0 -162 76 -248t219 -86q155 0 244.5 99t89.5 268v565h317v-778zM391 1284l227 365h287l-237 -365h-277zM842 1284l223 365h291l-242 -365h-272z" />
    <glyph glyph-name="Uogonek" unicode="&#x172;" horiz-adv-x="1775" 
d="M1313 670v866h321v-881q0 -245 -130 -414.5t-357 -236.5q-256 -74 -256 -154q0 -63 151 -63q70 0 125 12v-186q-83 -27 -200 -27q-139 0 -223.5 52t-84.5 139q0 119 168 196q-309 17 -497.5 203.5t-188.5 478.5v881h322v-866q0 -190 113 -301t313 -111t312 110t112 302z
" />
    <glyph glyph-name="uogonek" unicode="&#x173;" horiz-adv-x="1529" 
d="M1378 0q-250 -73 -250 -154q0 -59 127 -59q71 0 123 12v-186q-79 -27 -198 -27q-133 0 -213 53.5t-80 143.5q0 135 209 217h-33v215q-73 -118 -187 -182t-251 -64q-241 0 -374.5 146t-133.5 403v645h317v-598q0 -162 76 -248t219 -86q155 0 244.5 99t89.5 268v565h317
v-778z" />
    <glyph glyph-name="Wcircumflex" unicode="&#x174;" horiz-adv-x="2725" 
d="M1536 1536l436 -1239l389 1239h338l-501 -1536h-412l-424 1178l-422 -1178h-412l-501 1536h340l387 -1241l438 1241h344zM885 1657l303 323h346l307 -323h-276l-203 158l-203 -158h-274z" />
    <glyph glyph-name="wcircumflex" unicode="&#x175;" horiz-adv-x="2279" 
d="M1298 1163l322 -854l324 854h317l-457 -1163h-323l-338 868l-346 -868h-324l-455 1163h320l324 -848l327 848h309zM686 1284l293 365h334l293 -365h-263l-198 201l-197 -201h-262z" />
    <glyph glyph-name="Ycircumflex" unicode="&#x176;" horiz-adv-x="1818" 
d="M1071 0h-321v625l-723 911h360l522 -659l523 659h360l-721 -909v-627zM432 1657l303 323h346l308 -323h-277l-203 158l-202 -158h-275z" />
    <glyph glyph-name="ycircumflex" unicode="&#x177;" horiz-adv-x="1507" 
d="M446 -369q-206 0 -368 109v231q85 -54 160.5 -77t167.5 -23q89 0 152.5 39.5t103.5 130.5l10 20h-131l-523 1102h351l393 -899l397 899h338l-588 -1224q-76 -160 -195.5 -234t-267.5 -74zM311 1284l293 365h334l293 -365h-262l-199 201l-197 -201h-262z" />
    <glyph glyph-name="Ydieresis" unicode="&#x178;" horiz-adv-x="1818" 
d="M1071 0h-321v625l-723 911h360l522 -659l523 659h360l-721 -909v-627zM602 1675q-83 0 -134.5 45.5t-51.5 118.5t51 116.5t135 43.5t135 -43.5t51 -116.5t-51.5 -118.5t-134.5 -45.5zM1217 1675q-83 0 -135 45.5t-52 118.5t51.5 116.5t135.5 43.5t135 -43.5t51 -116.5
t-51.5 -118.5t-134.5 -45.5z" />
    <glyph glyph-name="Zacute" unicode="&#x179;" horiz-adv-x="1609" 
d="M1526 0h-1442v240l1003 1036h-997v260h1430v-238l-1004 -1036h1010v-262zM596 1657l301 323h369l-342 -323h-328z" />
    <glyph glyph-name="zacute" unicode="&#x17a;" horiz-adv-x="1361" 
d="M1282 0h-1206v225l803 701h-795v237h1194v-225l-799 -700h803v-238zM500 1284l254 365h311l-264 -365h-301z" />
    <glyph glyph-name="Zdotaccent" unicode="&#x17b;" horiz-adv-x="1609" 
d="M1526 0h-1442v240l1003 1036h-997v260h1430v-238l-1004 -1036h1010v-262zM807 1675q-88 0 -143.5 47t-55.5 123q0 75 55.5 122.5t143.5 47.5t142.5 -47.5t54.5 -122.5q0 -76 -54.5 -123t-142.5 -47z" />
    <glyph glyph-name="zdotaccent" unicode="&#x17c;" horiz-adv-x="1361" 
d="M1282 0h-1206v225l803 701h-795v237h1194v-225l-799 -700h803v-238zM682 1303q-88 0 -143.5 47t-55.5 123q0 75 55.5 121t143.5 46t142.5 -46t54.5 -121q0 -76 -54.5 -123t-142.5 -47z" />
    <glyph glyph-name="Zcaron" unicode="&#x17d;" horiz-adv-x="1609" 
d="M1526 0h-1442v240l1003 1036h-997v260h1430v-238l-1004 -1036h1010v-262zM1282 1980l-303 -323h-346l-307 323h276l203 -157l203 157h274z" />
    <glyph glyph-name="zcaron" unicode="&#x17e;" horiz-adv-x="1361" 
d="M1282 0h-1206v225l803 701h-795v237h1194v-225l-799 -700h803v-238zM1139 1649l-293 -365h-334l-293 365h262l199 -201l197 201h262z" />
    <glyph glyph-name="longs" unicode="&#x17f;" horiz-adv-x="583" 
d="M727 1366q-147 0 -211.5 -58.5t-64.5 -189.5v-1118h-318v1094q0 242 139.5 378t415.5 136q138 0 299 -52v-241q-119 51 -260 51z" />
    <glyph glyph-name="uni0180" unicode="&#x180;" horiz-adv-x="1628" 
d="M451 0h-318v1247h-158v197h158v133h318v-133h593v-197h-593v-389q87 140 222.5 217.5t299.5 77.5q256 0 417.5 -164.5t161.5 -429.5q0 -262 -161.5 -426t-417.5 -164q-165 0 -299.5 77.5t-222.5 217.5v-264zM887 219q152 0 248 94.5t96 245.5q0 152 -96 248t-248 96
q-148 0 -268.5 -94.5t-180.5 -249.5q60 -153 180.5 -246.5t268.5 -93.5z" />
    <glyph glyph-name="uni0181" unicode="&#x181;" horiz-adv-x="2144" 
d="M412 1536h1108q212 0 329 -99t117 -274q0 -113 -60 -208t-184 -148q173 -37 259.5 -137.5t86.5 -245.5q0 -192 -133 -308t-379 -116h-1058l10 1294h-23q-163 0 -163 -164q0 -112 49 -237h-250q-78 169 -78 301q0 162 96.5 252t272.5 90zM817 670v-426h682q115 0 179.5 54
t64.5 153q0 103 -75 161t-218 58h-633zM817 1292v-385h596q101 0 164 55.5t63 153.5q0 79 -55.5 127.5t-154.5 48.5h-613z" />
    <glyph glyph-name="uni0186" unicode="&#x186;" horiz-adv-x="1882" 
d="M72 621h323q32 -175 170.5 -271t358.5 -96q252 0 398 138.5t146 375.5t-146 375.5t-398 138.5q-218 0 -357.5 -97.5t-171.5 -269.5h-323q21 193 133 341t298 229.5t419 81.5q259 0 458 -100t307.5 -281.5t108.5 -417.5t-108.5 -417.5t-307.5 -281.5t-458 -100
q-233 0 -419 81.5t-298 229.5t-133 341z" />
    <glyph glyph-name="uni0187" unicode="&#x187;" horiz-adv-x="1923" 
d="M950 1567q282 0 469 -129q-14 46 -14 102q0 136 99.5 220.5t289.5 84.5q139 0 254 -43v-248q-107 35 -182 35q-98 0 -146.5 -43.5t-48.5 -118.5q0 -70 70 -251q61 -167 71 -261h-323q-32 171 -172.5 269t-358.5 98q-251 0 -397.5 -138.5t-146.5 -373.5q0 -238 146 -377
t398 -139q220 0 359.5 96t171.5 271h323q-34 -293 -266 -472.5t-585 -179.5q-259 0 -457.5 100t-307 281.5t-108.5 417.5q0 177 63.5 326t176 253t273 162t349.5 58z" />
    <glyph glyph-name="uni0188" unicode="&#x188;" horiz-adv-x="1552" 
d="M1495 1505q131 0 264 -59v-236q-119 52 -207 52q-101 0 -146.5 -43.5t-45.5 -131.5q0 -26 3 -50.5t11 -58.5t14 -54.5t21.5 -70.5t22.5 -75l22 -86h-317q-26 120 -125.5 189t-241.5 69q-172 0 -273.5 -98t-101.5 -270t101.5 -270.5t273.5 -98.5q142 0 241.5 69.5
t125.5 186.5h317q-19 -147 -112.5 -261t-243 -176.5t-332.5 -62.5q-306 0 -499 171t-193 444q0 269 184.5 439.5t478.5 170.5q217 0 373 -109q-4 20 -4 64q0 175 103 265.5t286 90.5z" />
    <glyph glyph-name="uni0189" unicode="&#x189;" horiz-adv-x="1916" 
d="M53 655v230h170v651h719q263 0 465 -95.5t313 -270t111 -402.5t-111 -402.5t-313 -270t-465 -95.5h-719v655h-170zM545 1251v-366h399v-230h-399v-370h420q246 0 393 132t147 351t-147 351t-393 132h-420z" />
    <glyph glyph-name="uni018A" unicode="&#x18a;" horiz-adv-x="2285" 
d="M430 1536h881q263 0 465.5 -95.5t314 -270t111.5 -402.5t-111.5 -402.5t-314 -270t-465.5 -95.5h-717v1264h-100q-83 0 -126.5 -36.5t-43.5 -119.5q0 -100 47 -215h-250q-78 169 -78 299q0 165 98.5 254.5t288.5 89.5zM913 1251v-966h422q244 0 392.5 132.5t148.5 350.5
t-148.5 350.5t-392.5 132.5h-422z" />
    <glyph glyph-name="uni018E" unicode="&#x18e;" horiz-adv-x="1587" 
d="M1151 270v371h-981v254h981v371h-1034v270h1360v-1536h-1371v270h1045z" />
    <glyph glyph-name="uni018F" unicode="&#x18f;" horiz-adv-x="1882" 
d="M932 1567q204 0 369.5 -63t272 -172.5t163.5 -254.5t57 -313q0 -175 -63 -323.5t-175 -252t-272 -161.5t-350 -58q-200 0 -361.5 66t-268.5 184t-164.5 280t-57.5 353h1380q-26 206 -166 322t-364 116q-207 0 -337 -86t-173 -231h-324q48 265 273 429.5t561 164.5z
M934 244q206 0 342 97.5t176 276.5h-1026q38 -172 170 -273t338 -101z" />
    <glyph glyph-name="uni0190" unicode="&#x190;" horiz-adv-x="1648" 
d="M1532 1536v-258h-932l463 -340v-225h-223q-209 0 -301.5 -59.5t-92.5 -170.5q0 -126 103.5 -192t300.5 -66q409 0 448 271h322q-14 -241 -220.5 -384t-549.5 -143q-346 0 -538.5 137.5t-192.5 360.5q0 204 152 319t452 121l-533 389v240h1342z" />
    <glyph glyph-name="uni0191" unicode="&#x191;" horiz-adv-x="1536" 
d="M483 1257v-378h942v-279h-942v-500q0 -225 -118.5 -347t-346.5 -122q-154 0 -264 45v246q107 -35 189 -35q112 0 165.5 60t53.5 182v1407h1298v-279h-977z" />
    <glyph glyph-name="florin" unicode="&#x192;" horiz-adv-x="1161" 
d="M1137 825h-512v-680q0 -242 -137 -378t-410 -136q-133 0 -277 52v241q111 -51 238 -51q141 0 204.5 59t63.5 189v704h-244v252h244v17q0 241 140.5 377.5t416.5 136.5q139 0 297 -52v-241q-117 51 -258 51q-147 0 -212.5 -58.5t-65.5 -189.5v-41h512v-252z" />
    <glyph glyph-name="uni0193" unicode="&#x193;" horiz-adv-x="1970" 
d="M946 -31q-181 0 -337.5 55t-271.5 156t-181 252.5t-66 335.5q0 185 67 337t183.5 252.5t274.5 155t341 54.5q290 0 471 -131q-16 53 -16 104q0 135 100 220t289 85q139 0 254 -43v-248q-103 35 -182 35q-98 0 -146.5 -43.5t-48.5 -118.5q0 -74 72 -251q48 -132 61 -205
h-325q-32 148 -172 233.5t-350 85.5q-255 0 -401 -137t-146 -385q0 -251 153 -389.5t420 -138.5q208 0 353.5 81t201.5 224h-506v223h789v-768h-234l-16 254q-99 -134 -259 -209.5t-372 -75.5z" />
    <glyph glyph-name="uni0194" unicode="&#x194;" horiz-adv-x="1822" 
d="M1577 0h-1325l471 596l-725 940h354l559 -723l570 723h344l-727 -936zM748 199h331l-166 211z" />
    <glyph glyph-name="uni0196" unicode="&#x196;" horiz-adv-x="802" 
d="M156 393v1143h321v-1126q0 -97 35 -141t119 -44q62 0 129 23v-248q-110 -31 -215 -31q-389 0 -389 424z" />
    <glyph glyph-name="uni0197" unicode="&#x197;" horiz-adv-x="763" 
d="M727 676h-184v-676h-322v676h-184v231h184v629h322v-629h184v-231z" />
    <glyph glyph-name="uni0198" unicode="&#x198;" horiz-adv-x="1767" 
d="M1364 0l-412 645l-501 -645h-289v1536h321v-1081l705 929q70 91 146 137t194 46q98 0 201 -31v-248q-108 23 -152 23q-67 0 -110 -28t-83 -81l-233 -301l584 -901h-371z" />
    <glyph glyph-name="uni0199" unicode="&#x199;" horiz-adv-x="1443" 
d="M1085 0l-276 453l-387 -453h-289v1116q0 248 129.5 370t415.5 122q174 0 326 -56v-245q-122 53 -275 53q-148 0 -213 -67t-65 -210v-675l620 755h348l-407 -477l440 -686h-367z" />
    <glyph glyph-name="uni019A" unicode="&#x19a;" horiz-adv-x="821" 
d="M66 725v197h188v655h317v-655h187v-197h-187v-725h-317v725h-188z" />
    <glyph glyph-name="uni019B" unicode="&#x19b;" horiz-adv-x="1445" 
d="M1167 1321l-321 -107l590 -1214h-342l-377 825l-398 -825h-339l518 1006h139l-55 120l-330 -110l-57 176l297 100q-60 78 -170 78q-157 0 -314 -100v221q85 61 167 89t187 28q251 0 396 -226l350 119z" />
    <glyph glyph-name="uni019C" unicode="&#x19c;" horiz-adv-x="2461" 
d="M643 -31q-232 0 -362.5 146.5t-130.5 402.5v1018h321v-967q0 -156 71 -238.5t203 -82.5q142 0 227 96.5t85 257.5v934h323v-967q0 -156 70.5 -238.5t202.5 -82.5q144 0 228.5 96t84.5 258v934h322v-1536h-322v211q-72 -117 -180.5 -179.5t-239.5 -62.5q-167 0 -282 78.5
t-166 224.5q-70 -146 -188.5 -224.5t-266.5 -78.5z" />
    <glyph glyph-name="uni019D" unicode="&#x19d;" horiz-adv-x="1943" 
d="M162 133v1403h418l888 -1176v1176h312v-1536h-408l-897 1194v-1079q0 -236 -120 -360t-357 -124q-128 0 -244 37v248q98 -27 180 -27q119 0 173.5 59t54.5 185z" />
    <glyph glyph-name="uni019E" unicode="&#x19e;" horiz-adv-x="1552" 
d="M915 1194q246 0 383.5 -146.5t137.5 -402.5v-983h-318v934q0 164 -79 250t-230 86q-156 0 -250 -100.5t-94 -266.5v-565h-318v1163h318v-217q75 120 192 184t258 64z" />
    <glyph glyph-name="uni019F" unicode="&#x19f;" horiz-adv-x="1953" 
d="M977 -31q-197 0 -363 58t-282 162t-181 253t-65 326t65 326t181 253t282 162t363 58q196 0 362 -58t282.5 -162t181.5 -253t65 -326t-65 -326t-181.5 -253t-282.5 -162t-362 -58zM977 250q223 0 369 102.5t186 284.5h-1112q40 -182 186.5 -284.5t370.5 -102.5zM977 1286
q-224 0 -370.5 -102.5t-186.5 -284.5h1112q-40 182 -186 284.5t-369 102.5z" />
    <glyph glyph-name="Ohorn" unicode="&#x1a0;" horiz-adv-x="1951" 
d="M975 -31q-263 0 -465.5 100t-313 281.5t-110.5 417.5t110.5 417.5t313 281.5t465.5 100q121 0 260 -27q101 -24 184 -24q103 0 152 38t49 101q0 72 -53 149h262q57 -91 57 -194t-72 -171t-210 -89q125 -104 192.5 -253t67.5 -329q0 -177 -65 -326t-180.5 -253
t-281.5 -162t-362 -58zM975 258q259 0 411 137.5t152 372.5t-152 372.5t-411 137.5t-411 -137.5t-152 -372.5t152 -372.5t411 -137.5z" />
    <glyph glyph-name="ohorn" unicode="&#x1a1;" horiz-adv-x="1603" 
d="M793 -31q-324 0 -522.5 169.5t-198.5 443.5t198.5 443t522.5 169q39 0 78 -3.5t61.5 -7t57 -10t46.5 -8.5q59 -12 119 -12q172 0 172 129q0 34 -12.5 76t-32.5 72h248q49 -85 49 -187q0 -101 -63 -167.5t-177 -86.5q174 -154 174 -407q0 -274 -199 -443.5t-521 -169.5z
M793 213q184 0 291.5 99.5t107.5 269.5q0 169 -107.5 268.5t-291.5 99.5q-186 0 -294 -99.5t-108 -268.5q0 -170 108 -269.5t294 -99.5z" />
    <glyph glyph-name="uni01A4" unicode="&#x1a4;" horiz-adv-x="2048" 
d="M430 1536h991q265 0 423.5 -138t158.5 -362t-158.5 -361.5t-423.5 -137.5h-508v-537h-321v1264h-98q-83 0 -126.5 -36.5t-43.5 -119.5q0 -100 47 -215h-250q-78 169 -78 299q0 165 98.5 254.5t288.5 89.5zM913 805h492q127 0 198.5 61.5t71.5 169.5t-71.5 170t-198.5 62
h-492v-463z" />
    <glyph glyph-name="uni01A5" unicode="&#x1a5;" horiz-adv-x="1628" 
d="M131 -338v1454q0 248 129.5 370t415.5 122q173 0 325 -56v-245q-122 53 -274 53q-148 0 -213 -67t-65 -210v-209q87 144 223 224t301 80q257 0 418 -167.5t161 -437.5q0 -269 -161 -436.5t-418 -167.5q-166 0 -301 80t-223 225v-612h-318zM1231 573q0 156 -96 255.5
t-246 99.5q-149 0 -270 -98t-183 -257q61 -160 182.5 -257t270.5 -97q151 0 246.5 98.5t95.5 255.5z" />
    <glyph glyph-name="uni01A9" unicode="&#x1a9;" horiz-adv-x="1554" 
d="M1481 0h-1403v240l631 530l-613 526v240h1358v-264h-911l454 -391v-226l-469 -391h953v-264z" />
    <glyph glyph-name="uni01AA" unicode="&#x1aa;" horiz-adv-x="1105" 
d="M1145 -115q91 0 190 35v-244q-115 -45 -264 -45q-226 0 -339.5 121t-113.5 346v776q-101 -69 -227 -69q-183 0 -302.5 114.5t-119.5 288.5q0 175 124.5 287.5t344.5 112.5q237 0 367.5 -129.5t130.5 -356.5v-993q0 -125 49 -184.5t160 -59.5zM414 1010q124 0 204 106v43
q0 94 -53.5 152.5t-152.5 58.5q-93 0 -141 -47.5t-48 -128.5q0 -84 52 -134t139 -50z" />
    <glyph glyph-name="uni01AC" unicode="&#x1ac;" horiz-adv-x="1794" 
d="M817 0v1251h-319q-87 0 -131.5 -37t-44.5 -120t47 -201h-250q-76 164 -76 299q0 165 98 254.5t289 89.5h1329v-285h-618v-1251h-324z" />
    <glyph glyph-name="uni01AD" unicode="&#x1ad;" horiz-adv-x="1171" 
d="M10 915v142l246 76q3 240 133 357.5t412 117.5q173 0 325 -56v-245q-122 53 -274 53q-129 0 -194.5 -50t-79.5 -155h518v-240h-525v-442q0 -138 58.5 -194t199.5 -56q157 0 287 68v-250q-63 -29 -161 -50.5t-195 -21.5q-257 0 -380.5 122t-123.5 337v487h-246z" />
    <glyph glyph-name="uni01AE" unicode="&#x1ae;" horiz-adv-x="1630" 
d="M35 1251v285h1558v-285h-618v-1122q0 -123 49 -182.5t158 -59.5q83 0 190 35v-246q-110 -45 -262 -45q-228 0 -342.5 121t-114.5 348v1151h-618z" />
    <glyph glyph-name="Uhorn" unicode="&#x1af;" horiz-adv-x="1873" 
d="M463 1536v-868q0 -190 113 -300t313 -110t312 110t112 300v868h268q64 0 101.5 32.5t37.5 86.5q0 69 -55 149h250q57 -91 57 -186q0 -117 -90 -187.5t-248 -76.5v-699q0 -308 -205.5 -497t-539.5 -189q-335 0 -541.5 189t-206.5 497v881h322z" />
    <glyph glyph-name="uhorn" unicode="&#x1b0;" horiz-adv-x="1642" 
d="M1378 0h-315v215q-73 -118 -187 -182t-251 -64q-241 0 -374.5 146t-133.5 403v645h317v-598q0 -162 76 -248t219 -86q155 0 244.5 99t89.5 268v565h291q52 6 82 37.5t30 79.5q0 70 -55 150h250q57 -91 57 -187q0 -117 -90 -187.5t-248 -76.5v-594z" />
    <glyph glyph-name="uni01B1" unicode="&#x1b1;" horiz-adv-x="1964" 
d="M981 -31q-205 0 -367.5 57t-267 157t-159 233.5t-54.5 290.5q0 176 75.5 323t217.5 252h-336v254h717v-231q-356 -182 -356 -529q0 -238 141 -378t389 -140q249 0 390.5 140t141.5 378q0 347 -356 529v231h717v-254h-338q142 -105 218.5 -252.5t76.5 -322.5
q0 -157 -55 -290.5t-159 -233.5t-267.5 -157t-368.5 -57z" />
    <glyph glyph-name="uni01B2" unicode="&#x1b2;" horiz-adv-x="1783" 
d="M145 643v893h322v-881q0 -187 86.5 -293t261.5 -106q112 0 213 53t176.5 147t119.5 231.5t44 297.5q0 152 -72.5 235t-203.5 83q-114 0 -220 -52v258q123 58 299 58q255 0 389 -145.5t134 -434.5q0 -168 -41 -322t-120.5 -280t-188 -219.5t-251 -145t-302.5 -51.5
q-208 0 -355 86t-219 236t-72 352z" />
    <glyph glyph-name="uni01B3" unicode="&#x1b3;" horiz-adv-x="1830" 
d="M1065 0h-324v625l-723 911h359l526 -664l346 471q91 127 163.5 175.5t180.5 48.5q85 0 183 -31v-246q-70 21 -125 21q-56 0 -88 -20.5t-70 -73.5l-428 -588v-629z" />
    <glyph glyph-name="uni01B4" unicode="&#x1b4;" horiz-adv-x="1601" 
d="M444 -369q-203 0 -368 109v231q85 -54 160 -77t167 -23q183 0 259 170l8 20h-131l-521 1102h349l393 -899l287 647q68 152 148 217.5t212 65.5q106 0 186 -43v-223q-66 33 -120 33q-61 0 -98.5 -32.5t-71.5 -105.5l-396 -884q-71 -160 -192 -234t-271 -74z" />
    <glyph glyph-name="uni01B5" unicode="&#x1b5;" horiz-adv-x="1624" 
d="M203 664v229h522l371 383h-998v260h1430v-238l-393 -405h292v-229h-514l-389 -402h1010v-262h-1442v240l410 424h-299z" />
    <glyph glyph-name="uni01B6" unicode="&#x1b6;" horiz-adv-x="1374" 
d="M135 489v199h477l273 238h-795v237h1194v-225l-285 -250h244v-199h-469l-289 -251h803v-238h-1206v225l303 264h-250z" />
    <glyph glyph-name="uni01B7" unicode="&#x1b7;" horiz-adv-x="1628" 
d="M129 1278v258h1341v-240l-532 -389q300 -6 452 -121t152 -319q0 -223 -192.5 -360.5t-538.5 -137.5q-343 0 -549.5 143t-220.5 384h321q39 -271 449 -271q197 0 300 66t103 192q0 112 -92 171t-301 59h-223v225l463 340h-932z" />
    <glyph glyph-name="uni01B8" unicode="&#x1b8;" horiz-adv-x="1628" 
d="M1499 1536v-258h-932l463 -340v-225h-223q-209 0 -301 -59t-92 -171q0 -126 103 -192t300 -66q410 0 449 271h321q-14 -241 -220.5 -384t-549.5 -143q-346 0 -538.5 137.5t-192.5 360.5q0 204 152 319t452 121l-532 389v240h1341z" />
    <glyph glyph-name="uni01B9" unicode="&#x1b9;" horiz-adv-x="1468" 
d="M1350 1163v-237h-838l471 -351v-204h-219q-385 0 -385 -244q0 -121 96.5 -189.5t272.5 -68.5q173 0 276.5 75t122.5 203h303q-8 -148 -92.5 -264t-242.5 -184t-367 -68q-329 0 -510 134.5t-181 349.5q0 93 35 171.5t104.5 139t183.5 96t263 39.5l-506 371v231h1213z" />
    <glyph glyph-name="uni01C0" unicode="&#x1c0;" horiz-adv-x="565" 
d="M133 -215v1792h299v-1792h-299z" />
    <glyph glyph-name="uni01C1" unicode="&#x1c1;" horiz-adv-x="1122" 
d="M133 -215v1792h299v-1792h-299zM690 -215v1792h299v-1792h-299z" />
    <glyph glyph-name="uni01C2" unicode="&#x1c2;" horiz-adv-x="827" 
d="M98 821v199h166v557h299v-557h168v-199h-168v-280h168v-199h-168v-557h-299v557h-166v199h166v280h-166z" />
    <glyph glyph-name="uni01C3" unicode="&#x1c3;" horiz-adv-x="530" 
d="M264 -18q-83 0 -135.5 50t-52.5 128t52.5 127t135.5 49q85 0 137 -49t52 -127t-52.5 -128t-136.5 -50zM152 492l-52 1044h328l-51 -1044h-225z" />
    <glyph glyph-name="uni01C4" unicode="&#x1c4;" horiz-adv-x="3383" 
d="M162 1536h719q263 0 465 -95.5t312.5 -270t110.5 -402.5t-110.5 -402.5t-312.5 -270t-465 -95.5h-719v1536zM3299 0h-1441v240l1003 1036h-997v260h1429v-238l-1003 -1036h1009v-262zM3056 1980l-303 -323h-347l-307 323h277l202 -157l203 157h275zM483 1251v-966h420
q246 0 393.5 132t147.5 351t-147.5 351t-393.5 132h-420z" />
    <glyph glyph-name="uni01C5" unicode="&#x1c5;" horiz-adv-x="3207" 
d="M162 1536h719q263 0 465 -95.5t312.5 -270t110.5 -402.5t-110.5 -402.5t-312.5 -270t-465 -95.5h-719v1536zM3127 0h-1206v225l803 701h-795v237h1194v-225l-799 -700h803v-238zM2984 1649l-293 -365h-334l-293 365h263l198 -201l197 201h262zM483 1251v-966h420
q246 0 393.5 132t147.5 351t-147.5 351t-393.5 132h-420z" />
    <glyph glyph-name="uni01C6" unicode="&#x1c6;" horiz-adv-x="2985" 
d="M1493 1577v-1577h-317v272q-88 -143 -223 -223t-298 -80q-257 0 -418 170t-161 443t161 442.5t418 169.5q164 0 299 -79t222 -222v684h317zM2906 0h-1206v225l803 701h-795v237h1194v-225l-799 -700h803v-238zM2763 1649l-293 -365h-334l-293 365h262l199 -201l197 201
h262zM397 582q0 -160 95.5 -261.5t246.5 -101.5q149 0 270 100t181 263q-60 162 -181 262t-270 100q-150 0 -246 -101.5t-96 -260.5z" />
    <glyph glyph-name="uni01C7" unicode="&#x1c7;" horiz-adv-x="3139" 
d="M162 1536h321v-1251h1012v-285h-1333v1536zM1573 657v84h315v-61q0 -210 93.5 -318t297.5 -108q396 0 396 403v879h321v-893q0 -215 -91 -368.5t-251 -229.5t-375 -76q-323 0 -514.5 180t-191.5 508z" />
    <glyph glyph-name="uni01C8" unicode="&#x1c8;" horiz-adv-x="2097" 
d="M162 1536h321v-1251h1012v-285h-1333v1536zM2089 1174v-1084q0 -215 -124 -337t-380 -122q-97 0 -195 21.5t-163 50.5v250q130 -68 286 -68q141 0 200 56t59 194v1039h317zM1929 1303q-88 0 -143 47t-55 123q0 75 55 121t143 46t142.5 -46t54.5 -121q0 -76 -54.5 -123
t-142.5 -47z" />
    <glyph glyph-name="uni01C9" unicode="&#x1c9;" horiz-adv-x="1140" 
d="M133 0v1577h318v-1577h-318zM1133 1174v-1084q0 -215 -124 -337t-380 -122q-97 0 -195.5 21.5t-163.5 50.5v250q130 -68 287 -68q141 0 199.5 56t58.5 194v1039h318zM973 1303q-88 0 -143.5 47t-55.5 123q0 75 55.5 121t143.5 46t142 -46t54 -121q0 -76 -54 -123
t-142 -47z" />
    <glyph glyph-name="uni01CA" unicode="&#x1ca;" horiz-adv-x="3557" 
d="M580 1536l888 -1174v1174h312v-1536h-408l-897 1192v-1192h-313v1536h418zM1991 657v84h315v-61q0 -210 93.5 -318t297.5 -108q395 0 395 403v879h322v-893q0 -215 -91 -368.5t-251 -229.5t-375 -76q-323 0 -514.5 180t-191.5 508z" />
    <glyph glyph-name="uni01CB" unicode="&#x1cb;" horiz-adv-x="2504" 
d="M580 1536l888 -1174v1174h312v-1536h-408l-897 1192v-1192h-313v1536h418zM2497 1174v-1084q0 -215 -124 -337t-380 -122q-97 0 -195.5 21.5t-163.5 50.5v250q130 -68 287 -68q141 0 199.5 56t58.5 194v1039h318zM2337 1303q-88 0 -143.5 47t-55.5 123q0 75 55.5 121
t143.5 46t142 -46t54 -121q0 -76 -54 -123t-142 -47z" />
    <glyph glyph-name="uni01CC" unicode="&#x1cc;" horiz-adv-x="2107" 
d="M918 1194q246 0 382 -146t136 -403v-645h-316v596q0 164 -79 250t-230 86q-158 0 -251 -100.5t-93 -266.5v-565h-317v1163h317v-217q75 120 192 184t259 64zM2099 1174v-1084q0 -215 -124 -337t-380 -122q-97 0 -195 21.5t-163 50.5v250q130 -68 287 -68q141 0 199.5 56
t58.5 194v1039h317zM1939 1303q-88 0 -143 47t-55 123q0 75 55 121t143 46t142.5 -46t54.5 -121q0 -76 -54.5 -123t-142.5 -47z" />
    <glyph glyph-name="uni01CD" unicode="&#x1cd;" horiz-adv-x="1880" 
d="M735 1536h412l723 -1536h-342l-154 334h-868l-152 -334h-344zM1417 1980l-303 -323h-346l-307 323h276l203 -157l203 157h274zM627 596h628l-315 690z" />
    <glyph glyph-name="uni01CE" unicode="&#x1ce;" horiz-adv-x="1638" 
d="M1038 0v162q-82 -83 -204.5 -138t-268.5 -55q-219 0 -360.5 106t-141.5 283t139 279t363 113q31 2 88 2q243 0 383 -62q-12 124 -113 190t-290 66q-261 0 -471 -119v238q244 129 543 129q140 0 256.5 -32.5t204.5 -96t137 -165.5t49 -234v-666h-314zM1266 1649l-293 -365
h-334l-293 365h262l199 -201l197 201h262zM1038 498q-83 45 -299 45q-370 0 -370 -170q0 -79 76.5 -127.5t205.5 -48.5q69 0 136.5 19.5t124 56t91.5 95t35 130.5z" />
    <glyph glyph-name="uni01CF" unicode="&#x1cf;" horiz-adv-x="647" 
d="M162 0v1536h321v-1536h-321zM799 1980l-303 -323h-346l-308 323h277l203 -157l202 157h275z" />
    <glyph glyph-name="uni01D0" unicode="&#x1d0;" horiz-adv-x="581" 
d="M133 0v1174h318v-1174h-318zM750 1649l-293 -365h-334l-293 365h262l199 -201l196 201h263z" />
    <glyph glyph-name="uni01D1" unicode="&#x1d1;" horiz-adv-x="1953" 
d="M977 -31q-197 0 -363 58t-282 162t-181 253t-65 326t65 326t181 253t282 162t363 58q196 0 362 -58t282.5 -162t181.5 -253t65 -326t-65 -326t-181.5 -253t-282.5 -162t-362 -58zM1452 1980l-303 -323h-346l-307 323h276l203 -157l203 157h274zM977 258
q260 0 412.5 137.5t152.5 372.5t-152.5 372.5t-412.5 137.5t-412.5 -137.5t-152.5 -372.5t152.5 -372.5t412.5 -137.5z" />
    <glyph glyph-name="uni01D2" unicode="&#x1d2;" horiz-adv-x="1583" 
d="M793 -31q-324 0 -522.5 169.5t-198.5 443.5t198.5 443t522.5 169q322 0 521 -169t199 -443t-199 -443.5t-521 -169.5zM1249 1649l-293 -365h-333l-293 365h262l199 -201l196 201h262zM793 213q184 0 291.5 99.5t107.5 269.5q0 169 -107.5 268.5t-291.5 99.5
q-186 0 -294 -99.5t-108 -268.5q0 -170 108 -269.5t294 -99.5z" />
    <glyph glyph-name="uni01D3" unicode="&#x1d3;" horiz-adv-x="1775" 
d="M463 1536v-868q0 -190 113 -300t313 -110t312 110t112 300v868h321v-881q0 -308 -205.5 -497t-539.5 -189q-335 0 -541.5 189t-206.5 497v881h322zM1364 1980l-303 -323h-346l-307 323h276l203 -157l203 157h274z" />
    <glyph glyph-name="uni01D4" unicode="&#x1d4;" horiz-adv-x="1527" 
d="M1378 0h-315v215q-73 -118 -187 -182t-251 -64q-241 0 -374.5 146t-133.5 403v645h317v-598q0 -162 76 -248t219 -86q155 0 244.5 99t89.5 268v565h317v-778zM1214 1649l-292 -365h-334l-293 365h262l199 -201l196 201h262z" />
    <glyph glyph-name="uni01D5" unicode="&#x1d5;" horiz-adv-x="1775" 
d="M463 1536v-868q0 -190 113 -300t313 -110t312 110t112 300v868h321v-881q0 -308 -205.5 -497t-539.5 -189q-335 0 -541.5 189t-206.5 497v881h322zM582 1675q-83 0 -135 45.5t-52 118.5t51.5 116.5t135.5 43.5t135 -43.5t51 -116.5t-51.5 -118.5t-134.5 -45.5zM1352 2111
h-922v203h922v-203zM1196 1675q-83 0 -134.5 45.5t-51.5 118.5t51 116.5t135 43.5t135 -43.5t51 -116.5t-51.5 -118.5t-134.5 -45.5z" />
    <glyph glyph-name="uni01D6" unicode="&#x1d6;" horiz-adv-x="1527" 
d="M1378 0h-315v215q-73 -118 -187 -182t-251 -64q-241 0 -374.5 146t-133.5 403v645h317v-598q0 -162 76 -248t219 -86q155 0 244.5 99t89.5 268v565h317v-778zM453 1303q-84 0 -135.5 44.5t-51.5 118.5q0 72 52 116t135 44q85 0 135.5 -44t50.5 -116q0 -75 -50.5 -119
t-135.5 -44zM1219 1733h-924v200h924v-200zM1063 1303q-85 0 -135.5 44t-50.5 119q0 72 50.5 116t135.5 44q82 0 133 -44t51 -116q0 -74 -51 -118.5t-133 -44.5z" />
    <glyph glyph-name="uni01D7" unicode="&#x1d7;" horiz-adv-x="1775" 
d="M463 1536v-868q0 -190 113 -300t313 -110t312 110t112 300v868h321v-881q0 -308 -205.5 -497t-539.5 -189q-335 0 -541.5 189t-206.5 497v881h322zM580 1675q-83 0 -135 45.5t-52 118.5t51.5 116.5t135.5 43.5t135 -43.5t51 -116.5t-51.5 -118.5t-134.5 -45.5zM1194 1675
q-83 0 -134.5 45.5t-51.5 118.5t51 116.5t135 43.5t135 -43.5t51 -116.5t-51.5 -118.5t-134.5 -45.5zM678 2079l301 323h369l-342 -323h-328z" />
    <glyph glyph-name="uni01D8" unicode="&#x1d8;" horiz-adv-x="1527" 
d="M1378 0h-315v215q-73 -118 -187 -182t-251 -64q-241 0 -374.5 146t-133.5 403v645h317v-598q0 -162 76 -248t219 -86q155 0 244.5 99t89.5 268v565h317v-778zM453 1303q-84 0 -135.5 44.5t-51.5 118.5q0 72 52 116t135 44q85 0 135.5 -44t50.5 -116q0 -75 -50.5 -119
t-135.5 -44zM1063 1303q-85 0 -135.5 44t-50.5 119q0 72 50.5 116t135.5 44q82 0 133 -44t51 -116q0 -74 -51 -118.5t-133 -44.5zM547 1716l301 324h369l-343 -324h-327z" />
    <glyph glyph-name="uni01D9" unicode="&#x1d9;" horiz-adv-x="1775" 
d="M463 1536v-868q0 -190 113 -300t313 -110t312 110t112 300v868h321v-881q0 -308 -205.5 -497t-539.5 -189q-335 0 -541.5 189t-206.5 497v881h322zM580 1675q-83 0 -135 45.5t-52 118.5t51.5 116.5t135.5 43.5t135 -43.5t51 -116.5t-51.5 -118.5t-134.5 -45.5zM1364 2402
l-303 -323h-346l-307 323h276l203 -157l203 157h274zM1194 1675q-83 0 -134.5 45.5t-51.5 118.5t51 116.5t135 43.5t135 -43.5t51 -116.5t-51.5 -118.5t-134.5 -45.5z" />
    <glyph glyph-name="uni01DA" unicode="&#x1da;" horiz-adv-x="1527" 
d="M1378 0h-315v215q-73 -118 -187 -182t-251 -64q-241 0 -374.5 146t-133.5 403v645h317v-598q0 -162 76 -248t219 -86q155 0 244.5 99t89.5 268v565h317v-778zM453 1303q-84 0 -135.5 44.5t-51.5 118.5q0 72 52 116t135 44q85 0 135.5 -44t50.5 -116q0 -75 -50.5 -119
t-135.5 -44zM1063 1303q-85 0 -135.5 44t-50.5 119q0 72 50.5 116t135.5 44q82 0 133 -44t51 -116q0 -74 -51 -118.5t-133 -44.5zM1233 2040l-303 -324h-346l-308 324h277l203 -158l202 158h275z" />
    <glyph glyph-name="uni01DB" unicode="&#x1db;" horiz-adv-x="1775" 
d="M463 1536v-868q0 -190 113 -300t313 -110t312 110t112 300v868h321v-881q0 -308 -205.5 -497t-539.5 -189q-335 0 -541.5 189t-206.5 497v881h322zM580 1675q-83 0 -135 45.5t-52 118.5t51.5 116.5t135.5 43.5t135 -43.5t51 -116.5t-51.5 -118.5t-134.5 -45.5zM1194 1675
q-83 0 -134.5 45.5t-51.5 118.5t51 116.5t135 43.5t135 -43.5t51 -116.5t-51.5 -118.5t-134.5 -45.5zM768 2402l301 -323h-328l-342 323h369z" />
    <glyph glyph-name="uni01DC" unicode="&#x1dc;" horiz-adv-x="1527" 
d="M1378 0h-315v215q-73 -118 -187 -182t-251 -64q-241 0 -374.5 146t-133.5 403v645h317v-598q0 -162 76 -248t219 -86q155 0 244.5 99t89.5 268v565h317v-778zM453 1303q-84 0 -135.5 44.5t-51.5 118.5q0 72 52 116t135 44q85 0 135.5 -44t50.5 -116q0 -75 -50.5 -119
t-135.5 -44zM1063 1303q-85 0 -135.5 44t-50.5 119q0 72 50.5 116t135.5 44q82 0 133 -44t51 -116q0 -74 -51 -118.5t-133 -44.5zM637 2040l301 -324h-328l-342 324h369z" />
    <glyph glyph-name="uni01DD" unicode="&#x1dd;" horiz-adv-x="1470" 
d="M688 1194q205 0 367 -76.5t253 -216.5t91 -321q0 -178 -87.5 -318t-242 -216.5t-350.5 -76.5q-296 0 -470.5 195t-174.5 520h987q-38 128 -153.5 198t-293.5 70q-133 0 -268 -39.5t-242 -109.5v217q113 82 266 128t318 46zM721 207q135 0 227.5 69.5t120.5 188.5h-682
q29 -123 115.5 -190.5t218.5 -67.5z" />
    <glyph glyph-name="uni01DE" unicode="&#x1de;" horiz-adv-x="1880" 
d="M735 1536h412l723 -1536h-342l-154 334h-868l-152 -334h-344zM635 1675q-83 0 -134.5 45.5t-51.5 118.5t51 116.5t135 43.5t135 -43.5t51 -116.5t-51.5 -118.5t-134.5 -45.5zM1405 2111h-922v203h922v-203zM1249 1675q-83 0 -134.5 45.5t-51.5 118.5t51 116.5t135 43.5
t135.5 -43.5t51.5 -116.5t-52 -118.5t-135 -45.5zM627 596h628l-315 690z" />
    <glyph glyph-name="uni01DF" unicode="&#x1df;" horiz-adv-x="1638" 
d="M1038 0v162q-82 -83 -204.5 -138t-268.5 -55q-219 0 -360.5 106t-141.5 283t139 279t363 113q31 2 88 2q243 0 383 -62q-12 124 -113 190t-290 66q-261 0 -471 -119v238q244 129 543 129q140 0 256.5 -32.5t204.5 -96t137 -165.5t49 -234v-666h-314zM504 1303
q-84 0 -135.5 44.5t-51.5 118.5q0 72 52 116t135 44q84 0 135 -44t51 -116q0 -75 -50.5 -119t-135.5 -44zM1270 1733h-924v200h924v-200zM1114 1303q-85 0 -135.5 44t-50.5 119q0 72 51 116t135 44q82 0 133 -44t51 -116q0 -74 -51 -118.5t-133 -44.5zM1038 498
q-83 45 -299 45q-370 0 -370 -170q0 -79 76.5 -127.5t205.5 -48.5q69 0 136.5 19.5t124 56t91.5 95t35 130.5z" />
    <glyph glyph-name="uni01E0" unicode="&#x1e0;" horiz-adv-x="1880" 
d="M735 1536h412l723 -1536h-342l-154 334h-868l-152 -334h-344zM1401 2111h-922v203h922v-203zM942 1675q-88 0 -143.5 47t-55.5 123q0 75 55.5 122.5t143.5 47.5t142.5 -47.5t54.5 -122.5q0 -76 -54.5 -123t-142.5 -47zM627 596h628l-315 690z" />
    <glyph glyph-name="uni01E1" unicode="&#x1e1;" horiz-adv-x="1638" 
d="M1038 0v162q-82 -83 -204.5 -138t-268.5 -55q-219 0 -360.5 106t-141.5 283t139 279t363 113q31 2 88 2q243 0 383 -62q-12 124 -113 190t-290 66q-261 0 -471 -119v238q244 129 543 129q140 0 256.5 -32.5t204.5 -96t137 -165.5t49 -234v-666h-314zM807 1303
q-88 0 -143.5 47t-55.5 123q0 75 55.5 121t143.5 46t142.5 -46t54.5 -121q0 -76 -54.5 -123t-142.5 -47zM1270 1733h-924v200h924v-200zM1038 498q-83 45 -299 45q-370 0 -370 -170q0 -79 76.5 -127.5t205.5 -48.5q69 0 136.5 19.5t124 56t91.5 95t35 130.5z" />
    <glyph glyph-name="uni01E2" unicode="&#x1e2;" horiz-adv-x="2564" 
d="M2370 641h-854l155 -371h821v-270h-1044l-135 334h-811l-142 -334h-344l674 1536h1733v-270h-1163l153 -371h957v-254zM612 596h592l-291 713zM1978 1710h-921v203h921v-203z" />
    <glyph glyph-name="uni01E3" unicode="&#x1e3;" horiz-adv-x="2572" 
d="M1411 0h-233l-15 250q-89 -133 -220 -207t-288 -74q-257 0 -418 170t-161 443t161 442.5t418 169.5q157 0 288 -73t220 -206l15 248h233l6 -172q81 97 202.5 150t272.5 53q191 0 331.5 -91t209.5 -248t64 -357h-977q33 -138 149 -212.5t309 -74.5q266 0 488 143v-213
q-238 -172 -522 -172q-167 0 -302 57t-223 160zM397 582q0 -160 95.5 -261.5t246.5 -101.5q149 0 270 100t181 263q-60 162 -181 262t-270 100q-150 0 -246 -101.5t-96 -260.5zM1862 963q-135 0 -228 -72.5t-118 -198.5h694q-30 131 -116.5 201t-231.5 70zM1755 1354h-924
v200h924v-200z" />
    <glyph glyph-name="uni01E4" unicode="&#x1e4;" horiz-adv-x="2007" 
d="M1061 627v215h764v-285h184v-188h-184v-367h-211l-12 266q-96 -143 -260.5 -221t-389.5 -78q-253 0 -448.5 97t-305.5 279t-110 423q0 245 114 427.5t311 277t450 94.5q174 0 319.5 -42t249.5 -117.5t172.5 -178t97.5 -225.5h-340q-32 126 -165 207t-328 81
q-258 0 -407.5 -138t-149.5 -386q0 -243 149.5 -389t421.5 -146q312 0 463 136h-481v188h589q9 52 9 70h-502z" />
    <glyph glyph-name="uni01E5" unicode="&#x1e5;" horiz-adv-x="1685" 
d="M637 158q-245 0 -405 144t-160 374t160 374t405 144q168 0 307 -71.5t232 -182.5v223h315v-862q0 -97 -21 -182h187v-180h-260q-92 -150 -263 -229t-397 -79q-297 0 -551 166v242q229 -178 533 -178q189 0 305 78h-438v180h567q23 74 23 153v131q-92 -108 -231.5 -176.5
t-307.5 -68.5zM737 385q284 0 449 291q-164 293 -449 293q-161 0 -253.5 -80.5t-92.5 -212.5t91.5 -211.5t254.5 -79.5z" />
    <glyph glyph-name="Gcaron" unicode="&#x1e6;" horiz-adv-x="1949" 
d="M987 240q201 0 345.5 77.5t203.5 214.5h-500v236h789v-768h-234l-16 254q-99 -134 -259 -209.5t-372 -75.5q-145 0 -275 34.5t-236 103t-183 164t-119.5 223t-42.5 274.5q0 245 114 427.5t311 277t450 94.5q352 0 577.5 -165.5t269.5 -430.5h-325q-34 148 -173.5 233.5
t-350.5 85.5q-255 0 -402 -137t-147 -385q0 -250 154 -389t421 -139zM1438 1980l-303 -323h-347l-307 323h277l203 -157l202 157h275z" />
    <glyph glyph-name="gcaron" unicode="&#x1e7;" horiz-adv-x="1617" 
d="M637 100q-244 0 -404.5 152t-160.5 395t160.5 395t404.5 152q168 0 307 -75.5t232 -192.5v237h315v-854q0 -162 -55.5 -291t-155.5 -213.5t-238 -129t-305 -44.5q-297 0 -551 166v254q229 -178 533 -178q222 0 339.5 106t117.5 310v71q-92 -115 -231.5 -187.5
t-307.5 -72.5zM1260 1649l-293 -365h-334l-293 365h262l199 -201l196 201h263zM737 328q283 0 449 319q-165 322 -449 322q-161 0 -253.5 -88t-92.5 -234q0 -145 91.5 -232t254.5 -87z" />
    <glyph glyph-name="uni01E8" unicode="&#x1e8;" horiz-adv-x="1730" 
d="M483 0h-321v1536h321v-618h375l528 618h367l-637 -733l658 -803h-388l-516 635h-387v-635zM1395 1980l-303 -323h-347l-307 323h277l203 -157l202 157h275z" />
    <glyph glyph-name="uni01E9" unicode="&#x1e9;" horiz-adv-x="1443" 
d="M451 0h-318v1577h318v-866h247l379 452h361l-488 -559l523 -604h-375l-396 471h-251v-471zM1247 2021l-303 -323h-346l-307 323h276l203 -157l203 157h274z" />
    <glyph glyph-name="uni01EA" unicode="&#x1ea;" horiz-adv-x="1953" 
d="M1245 -201v-186q-79 -27 -198 -27q-131 0 -211 53t-80 140q0 115 159 192q-248 11 -436 114t-290.5 280t-102.5 403q0 177 65 326t181 253t282 162t363 58q196 0 362 -58t282.5 -162t181.5 -253t65 -326q0 -290 -169 -494t-456 -274q-122 -30 -184 -69.5t-62 -82.5
q0 -61 125 -61q70 0 123 12zM412 768q0 -235 152.5 -372.5t412.5 -137.5t412.5 137.5t152.5 372.5t-152.5 372.5t-412.5 137.5t-412.5 -137.5t-152.5 -372.5z" />
    <glyph glyph-name="uni01EB" unicode="&#x1eb;" horiz-adv-x="1583" 
d="M1034 0q-231 -75 -231 -152q0 -61 139 -61q70 0 125 12v-186q-83 -27 -201 -27q-139 0 -222 49t-83 132q0 122 172 204q-299 17 -480 183.5t-181 427.5q0 274 198.5 443t522.5 169q322 0 521 -169t199 -443q0 -220 -128.5 -368.5t-350.5 -213.5zM391 582
q0 -170 108 -269.5t294 -99.5q184 0 291.5 99.5t107.5 269.5q0 169 -107.5 268.5t-291.5 99.5q-186 0 -294 -99.5t-108 -268.5z" />
    <glyph glyph-name="uni01EC" unicode="&#x1ec;" horiz-adv-x="1953" 
d="M1245 -201v-186q-79 -27 -198 -27q-131 0 -211 53t-80 140q0 115 159 192q-248 11 -436 114t-290.5 280t-102.5 403q0 177 65 326t181 253t282 162t363 58q196 0 362 -58t282.5 -162t181.5 -253t65 -326q0 -290 -169 -494t-456 -274q-122 -30 -184 -69.5t-62 -82.5
q0 -61 125 -61q70 0 123 12zM412 768q0 -235 152.5 -372.5t412.5 -137.5t412.5 137.5t152.5 372.5t-152.5 372.5t-412.5 137.5t-412.5 -137.5t-152.5 -372.5zM1438 1710h-922v203h922v-203z" />
    <glyph glyph-name="uni01ED" unicode="&#x1ed;" horiz-adv-x="1583" 
d="M1034 0q-231 -75 -231 -152q0 -61 139 -61q70 0 125 12v-186q-83 -27 -201 -27q-139 0 -222 49t-83 132q0 122 172 204q-299 17 -480 183.5t-181 427.5q0 274 198.5 443t522.5 169q322 0 521 -169t199 -443q0 -220 -128.5 -368.5t-350.5 -213.5zM1253 1354h-923v200h923
v-200zM391 582q0 -170 108 -269.5t294 -99.5q184 0 291.5 99.5t107.5 269.5q0 169 -107.5 268.5t-291.5 99.5q-186 0 -294 -99.5t-108 -268.5z" />
    <glyph glyph-name="uni01EE" unicode="&#x1ee;" horiz-adv-x="1628" 
d="M129 1278v258h1341v-240l-532 -389q300 -6 452 -121t152 -319q0 -223 -192.5 -360.5t-538.5 -137.5q-343 0 -549.5 143t-220.5 384h321q39 -271 449 -271q197 0 300 66t103 192q0 112 -92 171t-301 59h-223v225l463 340h-932zM1253 1980l-303 -323h-346l-307 323h276
l203 -157l203 157h274z" />
    <glyph glyph-name="uni01EF" unicode="&#x1ef;" horiz-adv-x="1468" 
d="M119 926v237h1212v-231l-506 -371q149 -4 263 -39.5t183.5 -96t104.5 -139t35 -171.5q0 -215 -180.5 -349.5t-509.5 -134.5q-314 0 -502.5 144.5t-200.5 371.5h304q19 -128 122.5 -203t276.5 -75q176 0 272.5 68.5t96.5 189.5q0 244 -385 244h-220v204l471 351h-837z
M1194 1649l-293 -365h-334l-293 365h263l198 -201l197 201h262z" />
    <glyph glyph-name="uni01F0" unicode="&#x1f0;" horiz-adv-x="581" 
d="M451 1174v-1084q0 -215 -124 -337t-380 -122q-97 0 -195.5 21.5t-163.5 50.5v250q130 -68 287 -68q141 0 199.5 56t58.5 194v1039h318zM750 1649l-293 -365h-334l-293 365h262l199 -201l196 201h263z" />
    <glyph glyph-name="uni01F1" unicode="&#x1f1;" horiz-adv-x="3383" 
d="M162 1536h719q263 0 465 -95.5t312.5 -270t110.5 -402.5t-110.5 -402.5t-312.5 -270t-465 -95.5h-719v1536zM3299 0h-1441v240l1003 1036h-997v260h1429v-238l-1003 -1036h1009v-262zM483 1251v-966h420q246 0 393.5 132t147.5 351t-147.5 351t-393.5 132h-420z" />
    <glyph glyph-name="uni01F2" unicode="&#x1f2;" horiz-adv-x="3207" 
d="M162 1536h719q263 0 465 -95.5t312.5 -270t110.5 -402.5t-110.5 -402.5t-312.5 -270t-465 -95.5h-719v1536zM3127 0h-1206v225l803 701h-795v237h1194v-225l-799 -700h803v-238zM483 1251v-966h420q246 0 393.5 132t147.5 351t-147.5 351t-393.5 132h-420z" />
    <glyph glyph-name="uni01F3" unicode="&#x1f3;" horiz-adv-x="2985" 
d="M1493 1577v-1577h-317v272q-88 -143 -223 -223t-298 -80q-257 0 -418 170t-161 443t161 442.5t418 169.5q164 0 299 -79t222 -222v684h317zM2906 0h-1206v225l803 701h-795v237h1194v-225l-799 -700h803v-238zM397 582q0 -160 95.5 -261.5t246.5 -101.5q149 0 270 100
t181 263q-60 162 -181 262t-270 100q-150 0 -246 -101.5t-96 -260.5z" />
    <glyph glyph-name="uni01F4" unicode="&#x1f4;" horiz-adv-x="1949" 
d="M987 240q201 0 345.5 77.5t203.5 214.5h-500v236h789v-768h-234l-16 254q-99 -134 -259 -209.5t-372 -75.5q-145 0 -275 34.5t-236 103t-183 164t-119.5 223t-42.5 274.5q0 245 114 427.5t311 277t450 94.5q352 0 577.5 -165.5t269.5 -430.5h-325q-34 148 -173.5 233.5
t-350.5 85.5q-255 0 -402 -137t-147 -385q0 -250 154 -389t421 -139zM752 1657l301 323h368l-342 -323h-327z" />
    <glyph glyph-name="uni01F5" unicode="&#x1f5;" horiz-adv-x="1617" 
d="M637 100q-244 0 -404.5 152t-160.5 395t160.5 395t404.5 152q168 0 307 -75.5t232 -192.5v237h315v-854q0 -162 -55.5 -291t-155.5 -213.5t-238 -129t-305 -44.5q-297 0 -551 166v254q229 -178 533 -178q222 0 339.5 106t117.5 310v71q-92 -115 -231.5 -187.5
t-307.5 -72.5zM618 1284l254 365h312l-264 -365h-302zM737 328q283 0 449 319q-165 322 -449 322q-161 0 -253.5 -88t-92.5 -234q0 -145 91.5 -232t254.5 -87z" />
    <glyph glyph-name="uni01F8" unicode="&#x1f8;" horiz-adv-x="1943" 
d="M580 1536l888 -1174v1174h312v-1536h-408l-897 1192v-1192h-313v1536h418zM879 1980l301 -323h-328l-342 323h369z" />
    <glyph glyph-name="uni01F9" unicode="&#x1f9;" horiz-adv-x="1552" 
d="M915 1194q246 0 382.5 -146t136.5 -403v-645h-316v596q0 164 -79 250t-230 86q-158 0 -251 -100.5t-93 -266.5v-565h-318v1163h318v-217q75 120 192 184t258 64zM711 1649l254 -365h-301l-265 365h312z" />
    <glyph glyph-name="Aringacute" unicode="&#x1fa;" horiz-adv-x="1880" 
d="M735 1536h412l723 -1536h-342l-154 334h-868l-152 -334h-344zM942 1628q-168 0 -263 66.5t-95 183.5q0 95 62.5 157.5t176.5 84.5l135 317h295l-186 -319q112 -22 172.5 -84t60.5 -156q0 -117 -95 -183.5t-263 -66.5zM627 596h628l-315 690zM942 1778q172 0 172 100
q0 102 -172 102q-174 0 -174 -102q0 -100 174 -100z" />
    <glyph glyph-name="aringacute" unicode="&#x1fb;" horiz-adv-x="1638" 
d="M1038 0v162q-82 -83 -204.5 -138t-268.5 -55q-219 0 -360.5 106t-141.5 283t139 279t363 113q31 2 88 2q243 0 383 -62q-12 124 -113 190t-290 66q-261 0 -471 -119v238q244 129 543 129q140 0 256.5 -32.5t204.5 -96t137 -165.5t49 -234v-666h-314zM809 1264
q-161 0 -254.5 70.5t-93.5 191.5q0 95 59.5 160t167.5 88l137 325h295l-188 -325q105 -23 163 -88t58 -160q0 -122 -92 -192t-252 -70zM1038 498q-83 45 -299 45q-370 0 -370 -170q0 -79 76.5 -127.5t205.5 -48.5q69 0 136.5 19.5t124 56t91.5 95t35 130.5zM809 1407
q76 0 117 30.5t41 88.5q0 57 -41.5 88t-116.5 31q-77 0 -118.5 -31t-41.5 -88q0 -58 41.5 -88.5t118.5 -30.5z" />
    <glyph glyph-name="AEacute" unicode="&#x1fc;" horiz-adv-x="2564" 
d="M2370 641h-854l155 -371h821v-270h-1044l-135 334h-811l-142 -334h-344l674 1536h1733v-270h-1163l153 -371h957v-254zM612 596h592l-291 713zM1307 1657l301 323h368l-342 -323h-327z" />
    <glyph glyph-name="aeacute" unicode="&#x1fd;" horiz-adv-x="2572" 
d="M1411 0h-233l-15 250q-89 -133 -220 -207t-288 -74q-257 0 -418 170t-161 443t161 442.5t418 169.5q157 0 288 -73t220 -206l15 248h233l6 -172q81 97 202.5 150t272.5 53q191 0 331.5 -91t209.5 -248t64 -357h-977q33 -138 149 -212.5t309 -74.5q266 0 488 143v-213
q-238 -172 -522 -172q-167 0 -302 57t-223 160zM397 582q0 -160 95.5 -261.5t246.5 -101.5q149 0 270 100t181 263q-60 162 -181 262t-270 100q-150 0 -246 -101.5t-96 -260.5zM1862 963q-135 0 -228 -72.5t-118 -198.5h694q-30 131 -116.5 201t-231.5 70zM1112 1284
l254 365h311l-264 -365h-301z" />
    <glyph glyph-name="Oslashacute" unicode="&#x1fe;" horiz-adv-x="1951" 
d="M127 -31l197 228q-238 218 -238 571q0 236 110.5 417.5t313 281.5t465.5 100q249 0 455 -99l88 99h307l-201 -232q116 -106 179 -250.5t63 -316.5q0 -177 -65 -326t-181 -253t-282 -162t-363 -58q-249 0 -457 97l-84 -97h-307zM766 1657l301 323h369l-342 -323h-328z
M408 768q0 -208 116 -342l709 815q-115 45 -258 45q-261 0 -414 -140t-153 -378zM975 250q261 0 415 140t154 378q0 207 -117 342l-710 -815q118 -45 258 -45z" />
    <glyph glyph-name="oslashacute" unicode="&#x1ff;" horiz-adv-x="1583" 
d="M92 -59l174 202q-194 165 -194 439t198.5 443t522.5 169q183 0 331 -59l74 88h295l-174 -203q93 -80 143.5 -192.5t50.5 -245.5q0 -274 -199 -443.5t-521 -169.5q-180 0 -334 58l-74 -86h-293zM610 1284l254 365h312l-265 -365h-301zM377 582q0 -143 67 -234l517 598
q-80 25 -168 25q-192 0 -304 -104.5t-112 -284.5zM793 190q191 0 302 105.5t111 286.5q0 138 -65 233l-516 -598q83 -27 168 -27z" />
    <glyph glyph-name="uni0200" unicode="&#x200;" horiz-adv-x="1880" 
d="M735 1536h412l723 -1536h-342l-154 334h-868l-152 -334h-344zM594 1980l248 -323h-287l-274 323h313zM1073 1980l250 -323h-289l-274 323h313zM627 596h628l-315 690z" />
    <glyph glyph-name="uni0201" unicode="&#x201;" horiz-adv-x="1638" 
d="M1038 0v162q-82 -83 -204.5 -138t-268.5 -55q-219 0 -360.5 106t-141.5 283t139 279t363 113q31 2 88 2q243 0 383 -62q-12 124 -113 190t-290 66q-261 0 -471 -119v238q244 129 543 129q140 0 256.5 -32.5t204.5 -96t137 -165.5t49 -234v-666h-314zM496 1649l223 -365
h-273l-241 365h291zM942 1649l227 -365h-276l-238 365h287zM1038 498q-83 45 -299 45q-370 0 -370 -170q0 -79 76.5 -127.5t205.5 -48.5q69 0 136.5 19.5t124 56t91.5 95t35 130.5z" />
    <glyph glyph-name="uni0202" unicode="&#x202;" horiz-adv-x="1880" 
d="M735 1536h412l723 -1536h-342l-154 334h-868l-152 -334h-344zM627 596h628l-315 690zM1407 1653h-248q-55 139 -219 139t-219 -139h-248q41 165 164 252.5t303 87.5q181 0 304.5 -87.5t162.5 -252.5z" />
    <glyph glyph-name="uni0203" unicode="&#x203;" horiz-adv-x="1638" 
d="M1038 0v162q-82 -83 -204.5 -138t-268.5 -55q-219 0 -360.5 106t-141.5 283t139 279t363 113q31 2 88 2q243 0 383 -62q-12 124 -113 190t-290 66q-261 0 -471 -119v238q244 129 543 129q140 0 256.5 -32.5t204.5 -96t137 -165.5t49 -234v-666h-314zM1260 1284h-242
q-15 82 -70.5 128t-140.5 46q-83 0 -138.5 -46t-72.5 -128h-242q27 176 144 274.5t309 98.5t309 -98.5t144 -274.5zM1038 498q-83 45 -299 45q-370 0 -370 -170q0 -79 76.5 -127.5t205.5 -48.5q69 0 136.5 19.5t124 56t91.5 95t35 130.5z" />
    <glyph glyph-name="uni0204" unicode="&#x204;" horiz-adv-x="1587" 
d="M436 641v-371h1045v-270h-1370v1536h1359v-270h-1034v-371h981v-254h-981zM455 1980l247 -323h-286l-275 323h314zM934 1980l250 -323h-289l-274 323h313z" />
    <glyph glyph-name="uni0205" unicode="&#x205;" horiz-adv-x="1470" 
d="M782 -31q-205 0 -366.5 76.5t-252.5 217t-91 321.5q0 178 87.5 317.5t242 216t350.5 76.5q296 0 470.5 -195t174.5 -520h-987q38 -128 153.5 -198t292.5 -70q133 0 268 39.5t242 109.5v-217q-113 -82 -266 -128t-318 -46zM434 1649l223 -365h-272l-242 365h291zM881 1649
l227 -365h-277l-237 365h287zM750 956q-136 0 -228.5 -69.5t-120.5 -188.5h682q-29 124 -115.5 191t-217.5 67z" />
    <glyph glyph-name="uni0206" unicode="&#x206;" horiz-adv-x="1587" 
d="M436 641v-371h1045v-270h-1370v1536h1359v-270h-1034v-371h981v-254h-981zM1268 1653h-248q-55 139 -219 139t-219 -139h-248q41 165 164 252.5t303 87.5q181 0 304.5 -87.5t162.5 -252.5z" />
    <glyph glyph-name="uni0207" unicode="&#x207;" horiz-adv-x="1470" 
d="M782 -31q-205 0 -366.5 76.5t-252.5 217t-91 321.5q0 178 87.5 317.5t242 216t350.5 76.5q296 0 470.5 -195t174.5 -520h-987q38 -128 153.5 -198t292.5 -70q133 0 268 39.5t242 109.5v-217q-113 -82 -266 -128t-318 -46zM1198 1284h-242q-15 82 -70.5 128t-140.5 46
q-83 0 -138 -46t-72 -128h-242q27 177 143.5 275t308.5 98t309 -98.5t144 -274.5zM750 956q-136 0 -228.5 -69.5t-120.5 -188.5h682q-29 124 -115.5 191t-217.5 67z" />
    <glyph glyph-name="uni0208" unicode="&#x208;" horiz-adv-x="647" 
d="M162 0v1536h321v-1536h-321zM-162 1980h266l185 -323h-252zM240 1980h266l186 -323h-254z" />
    <glyph glyph-name="uni0209" unicode="&#x209;" horiz-adv-x="581" 
d="M133 0v1174h318v-1174h-318zM-119 1649h236l184 -365h-219zM213 1649h236l184 -365h-221z" />
    <glyph glyph-name="uni020A" unicode="&#x20a;" horiz-adv-x="647" 
d="M162 0v1536h321v-1536h-321zM791 1653h-248q-55 139 -219 139q-165 0 -220 -139h-247q41 165 164 252.5t303 87.5q181 0 304.5 -87.5t162.5 -252.5z" />
    <glyph glyph-name="uni020B" unicode="&#x20b;" horiz-adv-x="581" 
d="M133 0v1174h318v-1174h-318zM657 1284h-217q-11 78 -50 122t-99 44t-99 -44t-51 -122h-215q15 172 112.5 272.5t252.5 100.5q154 0 251.5 -100t114.5 -273z" />
    <glyph glyph-name="uni020C" unicode="&#x20c;" horiz-adv-x="1953" 
d="M977 -31q-197 0 -363 58t-282 162t-181 253t-65 326t65 326t181 253t282 162t363 58q196 0 362 -58t282.5 -162t181.5 -253t65 -326t-65 -326t-181.5 -253t-282.5 -162t-362 -58zM631 1980l248 -323h-287l-275 323h314zM1110 1980l250 -323h-289l-274 323h313zM977 258
q260 0 412.5 137.5t152.5 372.5t-152.5 372.5t-412.5 137.5t-412.5 -137.5t-152.5 -372.5t152.5 -372.5t412.5 -137.5z" />
    <glyph glyph-name="uni020D" unicode="&#x20d;" horiz-adv-x="1583" 
d="M793 -31q-324 0 -522.5 169.5t-198.5 443.5t198.5 443t522.5 169q322 0 521 -169t199 -443t-199 -443.5t-521 -169.5zM479 1649l223 -365h-272l-242 365h291zM926 1649l227 -365h-276l-238 365h287zM793 213q184 0 291.5 99.5t107.5 269.5q0 169 -107.5 268.5
t-291.5 99.5q-186 0 -294 -99.5t-108 -268.5q0 -170 108 -269.5t294 -99.5z" />
    <glyph glyph-name="uni020E" unicode="&#x20e;" horiz-adv-x="1953" 
d="M977 -31q-197 0 -363 58t-282 162t-181 253t-65 326t65 326t181 253t282 162t363 58q196 0 362 -58t282.5 -162t181.5 -253t65 -326t-65 -326t-181.5 -253t-282.5 -162t-362 -58zM977 258q260 0 412.5 137.5t152.5 372.5t-152.5 372.5t-412.5 137.5t-412.5 -137.5
t-152.5 -372.5t152.5 -372.5t412.5 -137.5zM1444 1653h-248q-55 139 -219 139t-219 -139h-248q41 165 164 252.5t303 87.5q181 0 304.5 -87.5t162.5 -252.5z" />
    <glyph glyph-name="uni020F" unicode="&#x20f;" horiz-adv-x="1583" 
d="M793 -31q-324 0 -522.5 169.5t-198.5 443.5t198.5 443t522.5 169q322 0 521 -169t199 -443t-199 -443.5t-521 -169.5zM1243 1284h-242q-15 82 -70.5 128t-139.5 46q-83 0 -138.5 -46t-72.5 -128h-242q27 176 144 274.5t309 98.5t308.5 -98t143.5 -275zM793 213
q184 0 291.5 99.5t107.5 269.5q0 169 -107.5 268.5t-291.5 99.5q-186 0 -294 -99.5t-108 -268.5q0 -170 108 -269.5t294 -99.5z" />
    <glyph glyph-name="uni0210" unicode="&#x210;" horiz-adv-x="1687" 
d="M1245 0l-479 594h-283v-594h-321v1536h862q250 0 403.5 -130.5t153.5 -342.5q0 -185 -121.5 -310t-326.5 -153l493 -600h-381zM483 1980l248 -323h-287l-274 323h313zM963 1980l249 -323h-288l-275 323h314zM483 850h506q123 0 194.5 57.5t71.5 155.5q0 99 -71.5 156
t-194.5 57h-506v-426z" />
    <glyph glyph-name="uni0211" unicode="&#x211;" horiz-adv-x="1069" 
d="M1040 1174v-275q-106 25 -202 25q-166 0 -268.5 -106t-102.5 -308v-510h-317v1163h317v-270q58 142 163 221.5t257 79.5q78 0 153 -20zM272 1649l224 -365h-273l-241 365h290zM719 1649l227 -365h-276l-238 365h287z" />
    <glyph glyph-name="uni0212" unicode="&#x212;" horiz-adv-x="1687" 
d="M1245 0l-479 594h-283v-594h-321v1536h862q250 0 403.5 -130.5t153.5 -342.5q0 -185 -121.5 -310t-326.5 -153l493 -600h-381zM483 850h506q123 0 194.5 57.5t71.5 155.5q0 99 -71.5 156t-194.5 57h-506v-426zM1296 1653h-247q-55 139 -220 139q-164 0 -219 -139h-248
q41 165 164 252.5t303 87.5q181 0 304.5 -87.5t162.5 -252.5z" />
    <glyph glyph-name="uni0213" unicode="&#x213;" horiz-adv-x="1069" 
d="M1040 1174v-275q-106 25 -202 25q-166 0 -268.5 -106t-102.5 -308v-510h-317v1163h317v-270q58 142 163 221.5t257 79.5q78 0 153 -20zM1034 1284h-241q-15 82 -70.5 128t-140.5 46q-83 0 -138.5 -46t-72.5 -128h-242q27 176 144 274.5t309 98.5t308.5 -98t143.5 -275z
" />
    <glyph glyph-name="uni0214" unicode="&#x214;" horiz-adv-x="1775" 
d="M463 1536v-868q0 -190 113 -300t313 -110t312 110t112 300v868h321v-881q0 -308 -205.5 -497t-539.5 -189q-335 0 -541.5 189t-206.5 497v881h322zM541 1980l247 -323h-286l-275 323h314zM1020 1980l250 -323h-289l-274 323h313z" />
    <glyph glyph-name="uni0215" unicode="&#x215;" horiz-adv-x="1529" 
d="M1378 0h-315v215q-73 -118 -187 -182t-251 -64q-241 0 -374.5 146t-133.5 403v645h317v-598q0 -162 76 -248t219 -86q155 0 244.5 99t89.5 268v565h317v-778zM444 1649l224 -365h-273l-241 365h290zM891 1649l227 -365h-276l-238 365h287z" />
    <glyph glyph-name="uni0216" unicode="&#x216;" horiz-adv-x="1775" 
d="M463 1536v-868q0 -190 113 -300t313 -110t312 110t112 300v868h321v-881q0 -308 -205.5 -497t-539.5 -189q-335 0 -541.5 189t-206.5 497v881h322zM1354 1653h-248q-55 139 -219 139t-219 -139h-248q41 165 164 252.5t303 87.5q181 0 304.5 -87.5t162.5 -252.5z" />
    <glyph glyph-name="uni0217" unicode="&#x217;" horiz-adv-x="1529" 
d="M1378 0h-315v215q-73 -118 -187 -182t-251 -64q-241 0 -374.5 146t-133.5 403v645h317v-598q0 -162 76 -248t219 -86q155 0 244.5 99t89.5 268v565h317v-778zM1208 1284h-241q-15 82 -70.5 128t-140.5 46q-83 0 -138.5 -46t-72.5 -128h-242q27 176 144 274.5t309 98.5
t308.5 -98t143.5 -275z" />
    <glyph glyph-name="uni0218" unicode="&#x218;" horiz-adv-x="1671" 
d="M76 502h327q17 -127 140 -201t319 -74q189 0 299.5 56.5t110.5 154.5q0 81 -65 122t-232 61l-316 36q-291 35 -423 140t-132 297q0 219 192.5 346t516.5 127q210 0 375.5 -61.5t261.5 -174.5t106 -260h-327q-14 108 -126.5 173t-295.5 65q-174 0 -276.5 -54t-102.5 -149
q0 -73 62 -112.5t215 -59.5l325 -41q313 -38 439 -132t126 -286q0 -152 -92 -267t-259.5 -177t-387.5 -62q-340 0 -554.5 147.5t-225.5 385.5zM827 -569h-163l112 190q-57 12 -89 48.5t-32 90.5q0 65 49.5 105.5t131.5 40.5q83 0 132.5 -41.5t49.5 -108.5q0 -47 -19.5 -85
t-80.5 -122z" />
    <glyph glyph-name="uni0219" unicode="&#x219;" horiz-adv-x="1454" 
d="M1384 362q0 -187 -160.5 -290t-463.5 -103q-315 0 -504.5 115.5t-198.5 306.5h322q20 -90 122.5 -142t264.5 -52q307 0 307 139q0 52 -54.5 77.5t-195.5 37.5l-221 18q-510 43 -510 350q0 180 165 277.5t443 97.5q184 0 331 -50.5t233.5 -141t97.5 -207.5h-322
q-14 74 -100.5 125t-255.5 51q-133 0 -205.5 -33t-72.5 -94q0 -45 47 -72t163 -37l285 -24q136 -12 231 -41.5t149.5 -75.5t78.5 -102.5t24 -129.5zM733 -569h-164l113 190q-57 12 -89 48.5t-32 90.5q0 65 49 105.5t131 40.5q83 0 133 -41.5t50 -108.5q0 -47 -19.5 -84.5
t-81.5 -122.5z" />
    <glyph glyph-name="uni021A" unicode="&#x21a;" horiz-adv-x="1628" 
d="M653 0v1251h-618v285h1558v-285h-618v-1251h-322zM807 -569h-164l113 190q-57 12 -89 48.5t-32 90.5q0 65 49 105.5t131 40.5q83 0 132.5 -41.5t49.5 -108.5q0 -47 -19.5 -85t-80.5 -122z" />
    <glyph glyph-name="uni021B" unicode="&#x21b;" horiz-adv-x="1169" 
d="M256 924h-246v141l246 74l133 331h182v-307h525v-239h-525v-451q0 -138 58.5 -194t199.5 -56q157 0 287 68v-250q-63 -29 -161 -50.5t-195 -21.5q-257 0 -380.5 122t-123.5 337v496zM645 -569h-164l113 190q-57 12 -89 48.5t-32 90.5q0 65 49 105.5t131 40.5
q83 0 133 -41.5t50 -108.5q0 -47 -19.5 -84.5t-81.5 -122.5z" />
    <glyph glyph-name="uni021C" unicode="&#x21c;" horiz-adv-x="1628" 
d="M129 1278v258h1341v-240l-532 -389q300 -6 452 -121t152 -319q0 -223 -192.5 -360.5t-538.5 -137.5q-343 0 -549.5 143t-220.5 384h321q39 -271 449 -271q197 0 300 66t103 192q0 112 -92 171t-301 59h-223v225l463 340h-932z" />
    <glyph glyph-name="uni021D" unicode="&#x21d;" horiz-adv-x="1468" 
d="M119 926v237h1212v-231l-506 -371q149 -4 263 -39.5t183.5 -96t104.5 -139t35 -171.5q0 -215 -180.5 -349.5t-509.5 -134.5q-314 0 -502.5 144.5t-200.5 371.5h304q19 -128 122.5 -203t276.5 -75q176 0 272.5 68.5t96.5 189.5q0 244 -385 244h-220v204l471 351h-837z" />
    <glyph glyph-name="uni021E" unicode="&#x21e;" horiz-adv-x="1882" 
d="M162 0v1536h321v-618h916v618h321v-1536h-321v635h-916v-635h-321zM1417 1980l-303 -323h-346l-307 323h276l203 -157l203 157h274z" />
    <glyph glyph-name="uni021F" unicode="&#x21f;" horiz-adv-x="1536" 
d="M133 0v1577h318v-631q75 120 191.5 184t256.5 64q246 0 383 -146t137 -403v-645h-317v596q0 164 -79 250t-228 86q-158 0 -251 -100.5t-93 -266.5v-565h-318zM1278 2021l-303 -323h-346l-307 323h276l203 -157l203 157h274z" />
    <glyph glyph-name="uni0220" unicode="&#x220;" horiz-adv-x="1796" 
d="M162 0v1536h321v-258q175 289 557 289q285 0 446 -163t161 -448v-1294h-322v1221q0 193 -102 294t-297 101q-204 0 -323.5 -108t-119.5 -289v-881h-321z" />
    <glyph glyph-name="uni0226" unicode="&#x226;" horiz-adv-x="1880" 
d="M735 1536h412l723 -1536h-342l-154 334h-868l-152 -334h-344zM627 596h628l-315 690zM942 1675q-88 0 -143.5 47t-55.5 123q0 75 55.5 122.5t143.5 47.5t142.5 -47.5t54.5 -122.5q0 -76 -54.5 -123t-142.5 -47z" />
    <glyph glyph-name="uni0227" unicode="&#x227;" horiz-adv-x="1638" 
d="M1038 0v162q-82 -83 -204.5 -138t-268.5 -55q-219 0 -360.5 106t-141.5 283t139 279t363 113q31 2 88 2q243 0 383 -62q-12 124 -113 190t-290 66q-261 0 -471 -119v238q244 129 543 129q140 0 256.5 -32.5t204.5 -96t137 -165.5t49 -234v-666h-314zM809 1303
q-88 0 -143.5 47t-55.5 123q0 75 55.5 121t143.5 46t142.5 -46t54.5 -121q0 -76 -54.5 -123t-142.5 -47zM1038 498q-83 45 -299 45q-370 0 -370 -170q0 -79 76.5 -127.5t205.5 -48.5q69 0 136.5 19.5t124 56t91.5 95t35 130.5z" />
    <glyph glyph-name="uni0228" unicode="&#x228;" horiz-adv-x="1587" 
d="M436 641v-371h1045v-270h-561l-58 -96q52 10 105 10q125 0 196.5 -51t71.5 -139q0 -98 -93 -158t-261 -60q-149 0 -252.5 56t-134.5 153h221q41 -61 166 -61q69 0 105 21t36 55q0 31 -30.5 49t-88.5 18q-75 0 -127 -20h-170l144 223h-639v1536h1359v-270h-1034v-371h981
v-254h-981z" />
    <glyph glyph-name="uni0229" unicode="&#x229;" horiz-adv-x="1470" 
d="M526 -227l131 204q-263 34 -424 198.5t-161 408.5q0 178 87.5 317.5t242 216t350.5 76.5q296 0 470.5 -195t174.5 -520h-987q38 -128 153.5 -198t292.5 -70q133 0 268 39.5t242 109.5v-217q-105 -77 -246.5 -122.5t-294.5 -51.5l-45 -67q46 12 99 12q131 0 198.5 -52
t67.5 -143q0 -94 -90.5 -154.5t-251.5 -60.5q-145 0 -248.5 58.5t-134.5 152.5h209q46 -65 174 -65q135 0 135 78q0 71 -119 71q-63 0 -117 -26h-176zM750 956q-136 0 -228.5 -69.5t-120.5 -188.5h682q-29 124 -115.5 191t-217.5 67z" />
    <glyph glyph-name="uni022A" unicode="&#x22a;" horiz-adv-x="1953" 
d="M977 -31q-197 0 -363 58t-282 162t-181 253t-65 326t65 326t181 253t282 162t363 58q196 0 362 -58t282.5 -162t181.5 -253t65 -326t-65 -326t-181.5 -253t-282.5 -162t-362 -58zM670 1675q-83 0 -135 45.5t-52 118.5t51.5 116.5t135.5 43.5t135 -43.5t51 -116.5
t-51.5 -118.5t-134.5 -45.5zM1440 2111h-922v203h922v-203zM1284 1675q-83 0 -134.5 45.5t-51.5 118.5t51 116.5t135 43.5t135 -43.5t51 -116.5t-51.5 -118.5t-134.5 -45.5zM977 258q260 0 412.5 137.5t152.5 372.5t-152.5 372.5t-412.5 137.5t-412.5 -137.5t-152.5 -372.5
t152.5 -372.5t412.5 -137.5z" />
    <glyph glyph-name="uni022B" unicode="&#x22b;" horiz-adv-x="1583" 
d="M793 -31q-324 0 -522.5 169.5t-198.5 443.5t198.5 443t522.5 169q322 0 521 -169t199 -443t-199 -443.5t-521 -169.5zM487 1303q-84 0 -135 44t-51 119q0 72 51.5 116t134.5 44q85 0 136 -44t51 -116q0 -75 -51 -119t-136 -44zM1253 1733h-923v200h923v-200zM1098 1303
q-85 0 -136 44t-51 119q0 72 51 116t136 44q82 0 133 -44t51 -116q0 -74 -51 -118.5t-133 -44.5zM793 213q184 0 291.5 99.5t107.5 269.5q0 169 -107.5 268.5t-291.5 99.5q-186 0 -294 -99.5t-108 -268.5q0 -170 108 -269.5t294 -99.5z" />
    <glyph glyph-name="uni022C" unicode="&#x22c;" horiz-adv-x="1953" 
d="M977 -31q-197 0 -363 58t-282 162t-181 253t-65 326t65 326t181 253t282 162t363 58q196 0 362 -58t282.5 -162t181.5 -253t65 -326t-65 -326t-181.5 -253t-282.5 -162t-362 -58zM680 1671h-213q15 147 93.5 230.5t217.5 83.5q63 0 138.5 -27.5t141.5 -54.5t105 -27
q45 0 74 26.5t35 73.5h215q-19 -148 -97.5 -230.5t-215.5 -82.5q-63 0 -138 26.5t-140.5 53t-104.5 26.5q-95 0 -111 -98zM1438 2097h-922v203h922v-203zM977 258q260 0 412.5 137.5t152.5 372.5t-152.5 372.5t-412.5 137.5t-412.5 -137.5t-152.5 -372.5t152.5 -372.5
t412.5 -137.5z" />
    <glyph glyph-name="uni022D" unicode="&#x22d;" horiz-adv-x="1583" 
d="M793 -31q-324 0 -522.5 169.5t-198.5 443.5t198.5 443t522.5 169q322 0 521 -169t199 -443t-199 -443.5t-521 -169.5zM518 1307h-207q9 162 80 253t199 91q49 0 105 -18t97.5 -39.5t87 -39.5t74.5 -18q44 0 73.5 30t37.5 83h207q-8 -158 -78 -250t-201 -92
q-62 0 -134 28.5t-132.5 57t-95.5 28.5q-45 0 -75.5 -29.5t-37.5 -84.5zM1253 1790h-923v201h923v-201zM793 213q184 0 291.5 99.5t107.5 269.5q0 169 -107.5 268.5t-291.5 99.5q-186 0 -294 -99.5t-108 -268.5q0 -170 108 -269.5t294 -99.5z" />
    <glyph glyph-name="uni022E" unicode="&#x22e;" horiz-adv-x="1953" 
d="M977 -31q-197 0 -363 58t-282 162t-181 253t-65 326t65 326t181 253t282 162t363 58q196 0 362 -58t282.5 -162t181.5 -253t65 -326t-65 -326t-181.5 -253t-282.5 -162t-362 -58zM977 258q260 0 412.5 137.5t152.5 372.5t-152.5 372.5t-412.5 137.5t-412.5 -137.5
t-152.5 -372.5t152.5 -372.5t412.5 -137.5zM977 1675q-88 0 -143.5 47t-55.5 123q0 75 55.5 122.5t143.5 47.5t142.5 -47.5t54.5 -122.5q0 -76 -54.5 -123t-142.5 -47z" />
    <glyph glyph-name="uni022F" unicode="&#x22f;" horiz-adv-x="1583" 
d="M793 -31q-324 0 -522.5 169.5t-198.5 443.5t198.5 443t522.5 169q322 0 521 -169t199 -443t-199 -443.5t-521 -169.5zM793 1303q-88 0 -143.5 47t-55.5 123q0 75 55.5 121t143.5 46t142 -46t54 -121q0 -76 -54 -123t-142 -47zM793 213q184 0 291.5 99.5t107.5 269.5
q0 169 -107.5 268.5t-291.5 99.5q-186 0 -294 -99.5t-108 -268.5q0 -170 108 -269.5t294 -99.5z" />
    <glyph glyph-name="uni0230" unicode="&#x230;" horiz-adv-x="1953" 
d="M977 -31q-197 0 -363 58t-282 162t-181 253t-65 326t65 326t181 253t282 162t363 58q196 0 362 -58t282.5 -162t181.5 -253t65 -326t-65 -326t-181.5 -253t-282.5 -162t-362 -58zM1438 2111h-922v203h922v-203zM979 1675q-88 0 -143.5 47t-55.5 123q0 75 55.5 122.5
t143.5 47.5t142.5 -47.5t54.5 -122.5q0 -76 -54.5 -123t-142.5 -47zM977 258q260 0 412.5 137.5t152.5 372.5t-152.5 372.5t-412.5 137.5t-412.5 -137.5t-152.5 -372.5t152.5 -372.5t412.5 -137.5z" />
    <glyph glyph-name="uni0231" unicode="&#x231;" horiz-adv-x="1583" 
d="M793 -31q-324 0 -522.5 169.5t-198.5 443.5t198.5 443t522.5 169q322 0 521 -169t199 -443t-199 -443.5t-521 -169.5zM791 1303q-88 0 -143.5 47t-55.5 123q0 75 55.5 121t143.5 46t142 -46t54 -121q0 -76 -54 -123t-142 -47zM1253 1733h-923v200h923v-200zM793 213
q184 0 291.5 99.5t107.5 269.5q0 169 -107.5 268.5t-291.5 99.5q-186 0 -294 -99.5t-108 -268.5q0 -170 108 -269.5t294 -99.5z" />
    <glyph glyph-name="uni0232" unicode="&#x232;" horiz-adv-x="1818" 
d="M1071 0h-321v625l-723 911h360l522 -659l523 659h360l-721 -909v-627zM1372 1710h-921v203h921v-203z" />
    <glyph glyph-name="uni0233" unicode="&#x233;" horiz-adv-x="1507" 
d="M446 -369q-206 0 -368 109v231q85 -54 160.5 -77t167.5 -23q89 0 152.5 39.5t103.5 130.5l10 20h-131l-523 1102h351l393 -899l397 899h338l-588 -1224q-76 -160 -195.5 -234t-267.5 -74zM1233 1354h-924v200h924v-200z" />
    <glyph glyph-name="uni0237" unicode="&#x237;" horiz-adv-x="581" 
d="M451 1174v-1084q0 -215 -124 -337t-380 -122q-97 0 -195.5 21.5t-163.5 50.5v250q130 -68 287 -68q141 0 199.5 56t58.5 194v1039h318z" />
    <glyph glyph-name="uni0238" unicode="&#x238;" horiz-adv-x="2670" 
d="M653 1194q166 0 302 -80.5t223 -226.5v690h315v-686q89 144 224 223.5t300 79.5q256 0 417 -169.5t161 -442.5t-161 -443t-417 -170q-165 0 -300 80t-224 227v-276h-315v279q-88 -147 -223.5 -228.5t-301.5 -81.5q-254 0 -415.5 170t-161.5 443q0 180 73.5 319.5
t204.5 216t299 76.5zM2273 582q0 158 -95.5 260t-244.5 102t-270.5 -100t-181.5 -262q60 -163 181.5 -263t270.5 -100t244.5 101.5t95.5 261.5zM397 582q0 -160 95.5 -261.5t246.5 -101.5q148 0 269.5 100t181.5 263q-60 162 -181.5 262t-269.5 100q-150 0 -246 -101.5
t-96 -260.5z" />
    <glyph glyph-name="uni0239" unicode="&#x239;" horiz-adv-x="2670" 
d="M653 1194q166 0 302 -80.5t223 -226.5v276h315v-272q89 144 224 223.5t300 79.5q256 0 417 -169.5t161 -442.5t-161 -443t-417 -170q-165 0 -300 80t-224 227v-614h-315v617q-88 -147 -223.5 -228.5t-301.5 -81.5q-254 0 -415.5 170t-161.5 443q0 180 73.5 319.5
t204.5 216t299 76.5zM2273 582q0 158 -95.5 260t-244.5 102t-270.5 -100t-181.5 -262q60 -163 181.5 -263t270.5 -100t244.5 101.5t95.5 261.5zM397 582q0 -160 95.5 -261.5t246.5 -101.5q148 0 269.5 100t181.5 263q-60 162 -181.5 262t-269.5 100q-150 0 -246 -101.5
t-96 -260.5z" />
    <glyph glyph-name="uni023A" unicode="&#x23a;" horiz-adv-x="1884" 
d="M457 -250l235 584h-184l-152 -334h-344l725 1536h412l14 -33l115 283h233l-223 -549l584 -1237h-342l-154 334h-452l-234 -584h-233zM629 596h170l215 534l-72 156zM1030 596h227l-120 264z" />
    <glyph glyph-name="uni023B" unicode="&#x23b;" horiz-adv-x="1884" 
d="M412 -250l123 305q-212 95 -330.5 281t-118.5 432q0 236 109 417.5t308 281.5t458 100q93 0 178 -15l94 234h260l-121 -299q187 -78 301.5 -227t136.5 -345h-323q-19 101 -76.5 178.5t-146.5 123.5l-387 -959q27 -4 81 -4q220 0 358.5 96t170.5 271h323
q-21 -193 -133 -341t-297.5 -229.5t-418.5 -81.5q-91 0 -195 17l-94 -236h-260zM414 768q0 -150 60 -262t171 -176l383 950q-23 2 -70 2q-252 0 -398 -138.5t-146 -375.5z" />
    <glyph glyph-name="uni023C" unicode="&#x23c;" horiz-adv-x="1509" 
d="M354 -246l97 273q-177 71 -277 216.5t-100 338.5q0 179 87 318.5t245 216.5t362 77q30 0 88 -4l76 219h219l-92 -264q165 -59 269 -177t124 -276h-317q-30 139 -160 211l-240 -690h33q143 0 242.5 69.5t124.5 186.5h317q-29 -222 -219.5 -361t-464.5 -139q-66 0 -115 8
l-78 -223h-221zM393 582q0 -208 144 -306l235 674q-174 0 -276.5 -97.5t-102.5 -270.5z" />
    <glyph glyph-name="uni023D" unicode="&#x23d;" horiz-adv-x="1591" 
d="M223 1536h322v-571h524v-230h-524v-450h1011v-285h-1333v735h-184v230h184v571z" />
    <glyph glyph-name="uni023E" unicode="&#x23e;" horiz-adv-x="1654" 
d="M377 -250l276 524v977h-618v285h1280l131 250h268l-131 -250h10v-285h-159l-459 -872v-379h-199l-131 -250h-268zM975 1251v-362l190 362h-190z" />
    <glyph glyph-name="uni0241" unicode="&#x241;" horiz-adv-x="1480" 
d="M776 1567q326 0 499 -127t173 -334q0 -125 -55 -209.5t-201 -194.5l-131 -98q-105 -78 -141.5 -150.5t-36.5 -203.5v-250h-324v295q0 165 54.5 268t181.5 197l139 102q115 86 150.5 130t35.5 110q0 101 -93.5 155t-264.5 54q-184 0 -290 -67t-128 -193h-321
q9 109 63 202.5t147 163.5t233 110t310 40z" />
    <glyph glyph-name="uni0242" unicode="&#x242;" horiz-adv-x="1366" 
d="M502 0v127q0 105 34 173.5t119 127.5l183 127q88 62 118.5 103.5t30.5 99.5q0 87 -78 139.5t-225 52.5q-165 0 -250.5 -66.5t-114.5 -203.5h-313q30 243 201.5 378.5t482.5 135.5q181 0 320 -50t219 -148t80 -230q0 -86 -25.5 -151.5t-71 -114t-125.5 -103.5l-161 -114
q-63 -43 -86 -86t-23 -115v-82h-315z" />
    <glyph glyph-name="uni0243" unicode="&#x243;" horiz-adv-x="1873" 
d="M49 346v213h176v977h1022q212 0 329.5 -99t117.5 -274q0 -114 -59 -208.5t-183 -147.5q172 -37 258 -138t86 -245q0 -192 -132.5 -308t-377.5 -116h-1061v346h-176zM547 346v-108h678q116 0 180.5 55.5t64.5 157.5q0 106 -75 166.5t-219 60.5h-629v-119h528v-213h-528z
M547 1298v-399h592q101 0 165 58.5t64 158.5q0 82 -56.5 132t-156.5 50h-608z" />
    <glyph glyph-name="uni0244" unicode="&#x244;" horiz-adv-x="1941" 
d="M547 1536v-561h850v561h321v-561h183v-230h-183v-90q0 -308 -205.5 -497t-539.5 -189q-335 0 -541.5 189t-206.5 497v90h-184v230h184v561h322zM973 258q200 0 312 110t112 300v77h-850v-77q0 -190 113 -300t313 -110z" />
    <glyph glyph-name="uni0245" unicode="&#x245;" horiz-adv-x="1830" 
d="M350 0h-338l721 1536h363l723 -1536h-334l-567 1237z" />
    <glyph glyph-name="uni0246" unicode="&#x246;" horiz-adv-x="1587" 
d="M432 -250l86 250h-407v1536h929l84 250h260l-84 -250h170v-270h-262l-127 -371h336v-254h-422l-127 -371h613v-270h-705l-86 -250h-258zM436 270h172l127 371h-299v-371zM436 895h385l127 371h-512v-371z" />
    <glyph glyph-name="uni0247" unicode="&#x247;" horiz-adv-x="1470" 
d="M360 -246l97 275q-179 71 -282 216.5t-103 338.5q0 178 87.5 317.5t242 216t350.5 76.5q38 0 108 -8l78 223h219l-98 -285q161 -82 249.5 -250t88.5 -395h-563l-91 -260q70 -8 113 -8q133 0 268 39.5t242 109.5v-217q-113 -82 -266 -128t-318 -46q-71 0 -123 8l-77 -223
h-222zM750 956q-136 0 -228.5 -69.5t-120.5 -188.5h289l90 256q-5 0 -15 1t-15 1zM410 479q35 -121 139 -188l65 188h-204zM1083 698q-28 120 -108 185l-66 -185h174z" />
    <glyph glyph-name="uni0248" unicode="&#x248;" horiz-adv-x="1699" 
d="M756 788v230h393v518h321v-518h185v-230h-185v-145q0 -162 -52 -290t-146.5 -212t-226 -128t-291.5 -44q-323 0 -515 180t-192 508v84h315v-61q0 -210 94 -318t298 -108q395 0 395 403v131h-393z" />
    <glyph glyph-name="uni0249" unicode="&#x249;" horiz-adv-x="716" 
d="M518 1174v-383h158v-197h-158v-504q0 -215 -124 -337t-380 -122q-97 0 -195 21.5t-163 50.5v250q130 -68 287 -68q141 0 199.5 56t58.5 194v459h-158v197h158v383h317zM358 1303q-88 0 -143 47t-55 123q0 75 55 121t143 46t142.5 -46t54.5 -121q0 -76 -54.5 -123
t-142.5 -47z" />
    <glyph glyph-name="uni024A" unicode="&#x24a;" horiz-adv-x="1976" 
d="M2021 -113q82 0 189 35v-241q-115 -50 -264 -50q-227 0 -340 121t-113 348v269q-109 -191 -276 -295.5t-379 -104.5q-165 0 -304.5 58t-237 162t-152 253t-54.5 326t54.5 326t152 253t237 162t304.5 58q211 0 378.5 -103t276.5 -293v365h319v-1407q0 -124 49 -183
t160 -59zM416 770q0 -227 138 -371.5t361 -144.5q199 0 356.5 141.5t237.5 374.5q-80 231 -237 371.5t-357 140.5q-222 0 -360.5 -143.5t-138.5 -368.5z" />
    <glyph glyph-name="uni024B" unicode="&#x24b;" horiz-adv-x="1630" 
d="M1497 1163v-1034q0 -124 50 -184t159 -60q91 0 190 35v-244q-115 -45 -264 -45q-226 0 -339 121t-113 346v181q-87 -147 -223.5 -228.5t-301.5 -81.5q-257 0 -418 170t-161 443t161 442.5t418 169.5q165 0 300.5 -80.5t224.5 -226.5v276h317zM397 582q0 -160 95.5 -261.5
t246.5 -101.5q149 0 270 100t181 263q-60 162 -181 262t-270 100q-150 0 -246 -101.5t-96 -260.5z" />
    <glyph glyph-name="uni024C" unicode="&#x24c;" horiz-adv-x="1765" 
d="M39 598v229h201v709h862q250 0 403.5 -130.5t153.5 -342.5q0 -185 -122 -310t-327 -153l494 -600h-381l-479 594h-283v-594h-321v598h-201zM561 850h506q123 0 194.5 57.5t71.5 155.5q0 99 -71.5 156t-194.5 57h-506v-426z" />
    <glyph glyph-name="uni024D" unicode="&#x24d;" horiz-adv-x="1110" 
d="M1081 1174v-275q-106 25 -202 25q-158 0 -259.5 -95.5t-111.5 -279.5h264v-197h-264v-352h-318v352h-155v197h155v614h318v-270q58 142 163 221.5t257 79.5q78 0 153 -20z" />
    <glyph glyph-name="uni024E" unicode="&#x24e;" horiz-adv-x="1933" 
d="M45 1112v229h193l-154 195h360l154 -195h737l154 195h360l-153 -195h192v-229h-375l-385 -485v-627h-321v625l-387 487h-375zM967 877l186 235h-373z" />
    <glyph glyph-name="uni024F" unicode="&#x24f;" horiz-adv-x="1599" 
d="M33 664v192h172l-146 307h351l133 -307h522l135 307h338l-147 -307h180v-192h-273l-348 -725q-76 -160 -195.5 -234t-267.5 -74q-206 0 -368 109v231q85 -54 160 -77t167 -23q89 0 152.5 39.5t103.5 130.5l11 20h-131l-285 603h-264zM803 264l176 400h-350z" />
    <glyph glyph-name="uni0250" unicode="&#x250;" horiz-adv-x="1458" 
d="M893 424q-146 0 -267 49t-202 127v-92q0 -139 101.5 -215t303.5 -76q261 0 469 119v-238q-238 -129 -540 -129q-297 0 -469 137.5t-172 391.5v665h301v-159q81 83 203.5 136.5t271.5 53.5q146 0 260.5 -45.5t181 -134t66.5 -205.5q0 -175 -144 -280t-364 -105zM801 627
q129 0 205.5 49.5t76.5 132.5q0 85 -76.5 133.5t-205.5 48.5q-247 0 -387 -182q143 -182 387 -182z" />
    <glyph glyph-name="uni0251" unicode="&#x251;" horiz-adv-x="1638" 
d="M1038 0v162q-82 -83 -204.5 -138t-268.5 -55q-219 0 -360.5 106t-141.5 283t139 279t363 113q31 2 88 2q243 0 383 -62q-12 124 -113 190t-290 66q-261 0 -471 -119v238q244 129 543 129q140 0 256.5 -32.5t204.5 -96t137 -165.5t49 -234v-666h-314zM1038 498
q-83 45 -299 45q-370 0 -370 -170q0 -79 76.5 -127.5t205.5 -48.5q69 0 136.5 19.5t124 56t91.5 95t35 130.5z" />
    <glyph glyph-name="uni0252" unicode="&#x252;" horiz-adv-x="1638" 
d="M600 162v-162h-313v666q0 132 49 234t137 165.5t204.5 96t256.5 32.5q299 0 543 -129v-238q-210 119 -471 119q-189 0 -290.5 -66t-113.5 -190q140 62 383 62q57 0 88 -2q224 -11 363 -113t139 -279t-141.5 -283t-360.5 -106q-146 0 -268.5 55t-204.5 138zM600 498
q0 -72 35 -130.5t91.5 -95t124 -56t136.5 -19.5q129 0 206 48.5t77 127.5q0 170 -371 170q-216 0 -299 -45z" />
    <glyph glyph-name="uni0253" unicode="&#x253;" horiz-adv-x="1628" 
d="M133 0v1116q0 248 129.5 370t415.5 122q174 0 326 -56v-245q-122 53 -275 53q-149 0 -213.5 -67.5t-64.5 -211.5v-223q87 140 222.5 217.5t299.5 77.5q257 0 418 -164.5t161 -429.5q0 -262 -161 -426t-418 -164q-165 0 -299.5 78.5t-222.5 218.5v-266h-318zM1231 559
q0 152 -95.5 248t-246.5 96q-150 0 -270.5 -94.5t-180.5 -249.5q60 -154 180.5 -247t270.5 -93q151 0 246.5 94.5t95.5 245.5z" />
    <glyph glyph-name="uni0254" unicode="&#x254;" horiz-adv-x="1509" 
d="M377 694h-318q29 222 219.5 361t464.5 139q204 0 362 -77t245.5 -216.5t87.5 -318.5t-87.5 -318.5t-245.5 -217t-362 -77.5q-181 0 -330 62.5t-242 177t-112 262.5h318q26 -120 125 -189t241 -69q172 0 273.5 98.5t101.5 270.5t-101.5 270t-273.5 98q-143 0 -242 -69.5
t-124 -186.5z" />
    <glyph glyph-name="uni0256" unicode="&#x256;" horiz-adv-x="1681" 
d="M1208 836v741h314v-1432q0 -132 52.5 -188.5t166.5 -56.5q98 0 190 30v-247q-117 -52 -264 -52q-225 0 -342 96.5t-117 284.5v320q-86 -171 -229.5 -267t-323.5 -96q-257 0 -418 170t-161 443t161 442.5t418 169.5q181 0 324 -94.5t229 -263.5zM397 582
q0 -160 95.5 -261.5t246.5 -101.5q149 0 270 100t181 263q-60 162 -181 262t-270 100q-150 0 -246 -101.5t-96 -260.5z" />
    <glyph glyph-name="uni0257" unicode="&#x257;" horiz-adv-x="1624" 
d="M1493 1169v-1169h-315v272q-89 -143 -224.5 -223t-298.5 -80q-257 0 -418 170t-161 443t161 442.5t418 169.5q164 0 299 -79t224 -222v278q0 214 104.5 325.5t316.5 111.5q146 0 246 -49v-238q-80 41 -170 41q-93 0 -137.5 -47t-44.5 -146zM397 582q0 -160 95.5 -261.5
t246.5 -101.5q149 0 270 100t181 263q-60 162 -181 262t-270 100q-150 0 -246 -101.5t-96 -260.5z" />
    <glyph glyph-name="uni0259" unicode="&#x259;" horiz-adv-x="1470" 
d="M688 1194q205 0 367 -76.5t253 -216.5t91 -321q0 -180 -87.5 -319.5t-242 -215.5t-350.5 -76q-296 0 -470.5 198.5t-174.5 530.5h983q-41 122 -155.5 188t-287.5 66q-130 0 -264 -38t-241 -103v213q112 78 266.5 124t312.5 46zM719 201q142 0 235.5 74t116.5 202h-692
q28 -132 116.5 -204t223.5 -72z" />
    <glyph glyph-name="uni025B" unicode="&#x25b;" horiz-adv-x="1456" 
d="M106 866q0 146 157.5 237t461.5 91q149 0 270.5 -31.5t201 -86.5t124.5 -126t53 -153h-311q-21 72 -102.5 118t-231.5 46q-154 0 -227.5 -37t-73.5 -97q0 -133 274 -133h240v-198h-240q-168 0 -237.5 -33.5t-69.5 -102.5q0 -159 342 -159q177 0 263 44.5t100 131.5h315
q-6 -84 -52 -157t-129 -129.5t-213 -89t-292 -32.5q-317 0 -486 103.5t-169 261.5q0 219 317 268q-151 32 -218 102t-67 162z" />
    <glyph glyph-name="uni025F" unicode="&#x25f;" horiz-adv-x="716" 
d="M518 1174v-383h158v-197h-158v-504q0 -215 -124 -337t-380 -122q-97 0 -195 21.5t-163 50.5v250q130 -68 287 -68q141 0 199.5 56t58.5 194v459h-158v197h158v383h317z" />
    <glyph glyph-name="uni0260" unicode="&#x260;" horiz-adv-x="1619" 
d="M1720 1608q156 0 326 -56v-233q-132 55 -274 55q-146 0 -213.5 -73.5t-67.5 -217.5v-774q0 -162 -55.5 -291t-155.5 -213.5t-238 -129t-305 -44.5q-301 0 -551 172v244q229 -178 533 -178q222 0 339.5 107t117.5 313v71q-92 -115 -231.5 -187.5t-307.5 -72.5
q-244 0 -404.5 152t-160.5 395t160.5 395t404.5 152q168 0 307 -75.5t232 -192.5v170q0 259 134.5 385.5t409.5 126.5zM737 328q284 0 449 319q-166 322 -449 322q-161 0 -253.5 -88t-92.5 -234q0 -145 91.5 -232t254.5 -87z" />
    <glyph glyph-name="uni0261" unicode="&#x261;" horiz-adv-x="1617" 
d="M637 100q-244 0 -404.5 152t-160.5 395t160.5 395t404.5 152q168 0 307 -75.5t232 -192.5v237h315v-854q0 -162 -55.5 -291t-155.5 -213.5t-238 -129t-305 -44.5q-297 0 -551 166v254q229 -178 533 -178q222 0 339.5 106t117.5 310v71q-92 -115 -231.5 -187.5
t-307.5 -72.5zM737 328q283 0 449 319q-165 322 -449 322q-161 0 -253.5 -88t-92.5 -234q0 -145 91.5 -232t254.5 -87z" />
    <glyph glyph-name="uni0263" unicode="&#x263;" horiz-adv-x="1538" 
d="M770 -369q-170 0 -268.5 74t-98.5 199q0 69 38.5 141t140.5 211l-557 907h346l403 -696l406 696h333l-555 -907q101 -137 139 -209.5t38 -142.5q0 -125 -98.5 -199t-266.5 -74zM770 -164q47 0 75.5 23t28.5 61q0 33 -24 77.5t-80 123.5q-57 -78 -81.5 -123t-24.5 -78
q0 -38 28.5 -61t77.5 -23z" />
    <glyph glyph-name="uni0264" unicode="&#x264;" horiz-adv-x="1538" 
d="M770 -369q-170 0 -268.5 74t-98.5 199q0 69 38.5 141t140.5 211l-557 907h346l403 -696l406 696h333l-555 -907q101 -137 139 -209.5t38 -142.5q0 -125 -98.5 -199t-266.5 -74zM770 -164q47 0 75.5 23t28.5 61q0 33 -24 77.5t-80 123.5q-57 -78 -81.5 -123t-24.5 -78
q0 -38 28.5 -61t77.5 -23z" />
    <glyph glyph-name="uni0265" unicode="&#x265;" horiz-adv-x="1515" 
d="M1382 1163v-1501h-315v553q-75 -119 -189 -182.5t-251 -63.5q-243 0 -376.5 146t-133.5 403v645h317v-598q0 -164 76 -249t221 -85q154 0 245 100t91 267v565h315z" />
    <glyph glyph-name="uni0266" unicode="&#x266;" horiz-adv-x="1536" 
d="M133 0v1116q0 248 129.5 370t415.5 122q174 0 326 -56v-245q-122 53 -275 53q-148 0 -213 -67t-65 -210v-155q75 120 191.5 184t256.5 64q246 0 383 -146t137 -403v-627h-317v578q0 165 -78.5 250t-228.5 85q-158 0 -251 -99t-93 -267v-547h-318z" />
    <glyph glyph-name="uni0267" unicode="&#x267;" horiz-adv-x="1536" 
d="M133 0v1116q0 248 129.5 370t415.5 122q174 0 326 -56v-245q-122 53 -275 53q-148 0 -213 -67t-65 -210v-155q75 120 191.5 184t256.5 64q246 0 383 -146t137 -403v-529q0 -225 -112.5 -346t-337.5 -121q-152 0 -264 45v244q95 -35 188 -35q111 0 160 59.5t49 184.5v449
q0 165 -78.5 250t-228.5 85q-158 0 -251 -99t-93 -267v-547h-318z" />
    <glyph glyph-name="uni0268" unicode="&#x268;" horiz-adv-x="716" 
d="M43 594v197h158v383h317v-383h156v-197h-156v-594h-317v594h-158zM358 1303q-88 0 -143 47t-55 123q0 75 55 121t143 46t142.5 -46t54.5 -121q0 -76 -54.5 -123t-142.5 -47z" />
    <glyph glyph-name="uni0269" unicode="&#x269;" horiz-adv-x="880" 
d="M123 1163h317v-751q0 -103 46.5 -147t142.5 -44q120 0 231 66v-258q-128 -60 -276 -60q-229 0 -345 112t-116 302v780z" />
    <glyph glyph-name="uni026A" unicode="&#x26a;" horiz-adv-x="1216" 
d="M1143 0h-1069v197h377v768h-377v198h1069v-198h-377v-768h377v-197z" />
    <glyph glyph-name="uni026C" unicode="&#x26c;" horiz-adv-x="1173" 
d="M483 0v569q-27 -2 -77 -2q-179 0 -280 77.5t-101 215.5q0 121 78 198t216 77q92 0 164 -35v477h318v-735q151 57 342 182v-221q-169 -108 -342 -166v-637h-318zM418 756q19 0 65 4v145q-49 58 -131 58q-54 0 -83 -27t-29 -70q0 -49 42.5 -79.5t135.5 -30.5z" />
    <glyph glyph-name="uni026F" unicode="&#x26f;" horiz-adv-x="2400" 
d="M608 -31q-232 0 -361.5 146.5t-129.5 402.5v645h317v-596q0 -164 71.5 -250t207.5 -86q144 0 228.5 100t84.5 267v565h317v-596q0 -164 71.5 -250t207.5 -86q144 0 228.5 100t84.5 267v565h318v-1163h-318v209q-71 -116 -179 -178t-240 -62q-169 0 -285.5 80.5
t-167.5 229.5q-67 -149 -186 -229.5t-269 -80.5z" />
    <glyph glyph-name="uni0271" unicode="&#x271;" horiz-adv-x="2400" 
d="M2284 645v-547q0 -225 -113.5 -346t-339.5 -121q-149 0 -264 45v244q99 -35 190 -35q111 0 160 59.5t49 184.5v467q0 164 -71 250t-207 86q-144 0 -229 -100t-85 -267v-565h-317v596q0 164 -71.5 250t-207.5 86q-144 0 -228.5 -100t-84.5 -267v-565h-318v1163h318v-209
q72 116 181 178t239 62q170 0 285 -80t167 -229q69 149 187 229t268 80q232 0 362 -146.5t130 -402.5z" />
    <glyph glyph-name="uni0272" unicode="&#x272;" horiz-adv-x="1552" 
d="M147 1163h318v-217q75 120 192 184t258 64q246 0 383.5 -146.5t137.5 -402.5v-645h-318v596q0 164 -79 250t-230 86q-156 0 -250 -100.5t-94 -266.5v-497q0 -214 -105 -325.5t-317 -111.5q-139 0 -246 52v225q77 -41 170 -41t136.5 46.5t43.5 145.5v1104z" />
    <glyph glyph-name="uni0275" unicode="&#x275;" horiz-adv-x="1583" 
d="M793 -31q-324 0 -522.5 169.5t-198.5 443.5t198.5 443t522.5 169q322 0 521 -169t199 -443t-199 -443.5t-521 -169.5zM793 213q152 0 252.5 66.5t132.5 187.5h-772q34 -121 135 -187.5t252 -66.5zM793 950q-152 0 -253 -68.5t-134 -189.5h772q-33 121 -133.5 189.5
t-251.5 68.5z" />
    <glyph glyph-name="uni0278" unicode="&#x278;" horiz-adv-x="1863" 
d="M774 -338v307q-316 6 -509 174.5t-193 438.5t192.5 438t509.5 174v383h316v-383q316 -6 510 -174.5t194 -437.5q0 -270 -194.5 -438.5t-509.5 -174.5v-307h-316zM391 582q0 -167 102.5 -266t280.5 -103v737q-178 -4 -280.5 -103t-102.5 -265zM1473 582q0 166 -102.5 265
t-280.5 103v-737q178 4 280.5 103t102.5 266z" />
    <glyph glyph-name="uni027D" unicode="&#x27d;" horiz-adv-x="1067" 
d="M465 510v-381q0 -124 50 -184t159 -60q91 0 190 35v-244q-115 -45 -264 -45q-226 0 -339.5 121t-113.5 346v1065h320l-18 -315q55 162 164 254t272 92q81 0 153 -20v-275q-106 25 -202 25q-166 0 -268.5 -106t-102.5 -308z" />
    <glyph glyph-name="uni027E" unicode="&#x27e;" horiz-adv-x="854" 
d="M573 1194q150 0 265 -45v-244q-95 35 -191 35q-109 0 -159 -60t-50 -184v-696h-315v727q0 225 112.5 346t337.5 121z" />
    <glyph glyph-name="uni0283" unicode="&#x283;" horiz-adv-x="636" 
d="M743 1608q139 0 297 -52v-235q-119 49 -254 49q-145 0 -213.5 -61.5t-68.5 -194.5v-969q0 -241 -138 -377.5t-409 -136.5q-132 0 -276 52v241q111 -51 237 -51q141 0 204.5 59t63.5 189v973q0 241 140.5 377.5t416.5 136.5z" />
    <glyph glyph-name="uni0284" unicode="&#x284;" horiz-adv-x="798" 
d="M760 1608q139 0 297 -52v-241q-119 51 -258 51q-148 0 -213.5 -58.5t-65.5 -189.5v-717h178v-196h-178v-543h-317v543h-158v196h158v693q0 241 140.5 377.5t416.5 136.5z" />
    <glyph glyph-name="uni0288" unicode="&#x288;" horiz-adv-x="1075" 
d="M1104 924h-522v-797q0 -124 50 -184t159 -60q91 0 190 35v-242q-115 -45 -264 -45q-226 0 -339.5 121t-113.5 346v826h-244v141l244 74l135 331h183v-307h522v-239z" />
    <glyph glyph-name="uni0289" unicode="&#x289;" horiz-adv-x="1691" 
d="M1470 0h-315v213q-75 -118 -188 -181t-250 -63q-241 0 -374.5 146t-133.5 403v76h-162v197h162v372h317v-372h629v372h315v-372h183v-197h-183v-594zM821 231q155 0 243.5 97.5t90.5 265.5h-629v-29q0 -162 76 -248t219 -86z" />
    <glyph glyph-name="uni028A" unicode="&#x28a;" horiz-adv-x="1617" 
d="M809 -31q-318 0 -508 152.5t-190 402.5q0 127 59.5 235t177.5 185h-272v219h604v-168q-130 -64 -196 -171.5t-66 -239.5q0 -166 105 -268.5t286 -102.5q180 0 284.5 102t104.5 269q0 132 -65.5 239.5t-196.5 171.5v168h604v-219h-270q118 -77 177.5 -185t59.5 -235
q0 -250 -190.5 -402.5t-507.5 -152.5z" />
    <glyph glyph-name="uni028B" unicode="&#x28b;" horiz-adv-x="1538" 
d="M1466 733q0 -154 -55.5 -293.5t-153 -243.5t-240.5 -165.5t-308 -61.5q-303 0 -447.5 152t-144.5 424v618h315v-616q0 -152 71.5 -236t217.5 -84q187 0 306.5 132t119.5 329q0 126 -54.5 195t-166.5 69q-86 0 -174 -47v238q124 51 264 51q220 0 335 -120t115 -341z" />
    <glyph glyph-name="uni028C" unicode="&#x28c;" horiz-adv-x="1499" 
d="M12 0l559 1163h359l559 -1163h-350l-391 895l-398 -895h-338z" />
    <glyph glyph-name="uni028E" unicode="&#x28e;" horiz-adv-x="1505" 
d="M1063 1532q207 0 369 -109v-231q-85 54 -160.5 77t-167.5 23q-89 0 -152.5 -39.5t-103.5 -130.5l-10 -20h131l522 -1102h-350l-393 899l-398 -899h-338l588 1225q146 307 463 307z" />
    <glyph glyph-name="uni0292" unicode="&#x292;" horiz-adv-x="1468" 
d="M119 926v237h1212v-231l-506 -371q149 -4 263 -39.5t183.5 -96t104.5 -139t35 -171.5q0 -215 -180.5 -349.5t-509.5 -134.5q-314 0 -502.5 144.5t-200.5 371.5h304q19 -128 122.5 -203t276.5 -75q176 0 272.5 68.5t96.5 189.5q0 244 -385 244h-220v204l471 351h-837z" />
    <glyph glyph-name="uni0294" unicode="&#x294;" horiz-adv-x="1327" 
d="M498 0v526q0 105 34.5 171.5t114.5 123.5l195 135q81 58 111 98.5t30 100.5q0 99 -74.5 153t-228.5 54q-165 0 -250.5 -66.5t-114.5 -201.5h-313q30 245 201 379.5t483 134.5q288 0 453.5 -116.5t165.5 -326.5q0 -112 -51.5 -201t-172.5 -173l-176 -123q-54 -36 -73 -77
t-19 -110v-481h-315z" />
    <glyph glyph-name="uni0295" unicode="&#x295;" horiz-adv-x="1320" 
d="M829 526v-526h-315v481q0 69 -19 110t-73 77l-176 123q-121 84 -172 173t-51 201q0 210 165 326.5t453 116.5q312 0 483 -134.5t201 -379.5h-313q-29 135 -114.5 201.5t-250.5 66.5q-154 0 -228.5 -54t-74.5 -153q0 -60 30 -100.5t111 -98.5l195 -135
q80 -57 114.5 -123.5t34.5 -171.5z" />
    <glyph glyph-name="uni0298" unicode="&#x298;" horiz-adv-x="1906" 
d="M952 618q-71 0 -119.5 49t-48.5 121t48.5 121t119.5 49q72 0 121 -49t49 -121t-49 -121t-121 -49zM952 -31q-193 0 -355.5 59.5t-276 166t-177 259.5t-63.5 334q0 242 109 428.5t307.5 289t455.5 102.5q258 0 457 -102.5t308.5 -289t109.5 -428.5t-109.5 -428.5
t-308.5 -288.5t-457 -102zM952 213q255 0 404 155t149 420q0 266 -149 421t-404 155q-254 0 -403.5 -155.5t-149.5 -420.5t149.5 -420t403.5 -155z" />
    <glyph glyph-name="uni029D" unicode="&#x29d;" horiz-adv-x="1167" 
d="M444 -369q-209 0 -332.5 106.5t-123.5 276.5q0 176 120 284t318 108q97 0 203 -29v792l159 -30l158 30v-936q104 -70 154 -120v-246q-63 70 -162 143q-30 -175 -160.5 -277t-333.5 -102zM414 -139q102 0 158.5 59.5t56.5 161.5v92q-109 33 -185 33q-109 0 -167 -47.5
t-58 -130.5q0 -72 51.5 -120t143.5 -48zM788 1303q-88 0 -143 47t-55 123q0 75 55 121t143 46t142.5 -46t54.5 -121q0 -76 -54.5 -123t-142.5 -47z" />
    <glyph glyph-name="uni02A7" unicode="&#x2a7;" horiz-adv-x="1697" 
d="M258 922h-246v143l246 74l135 331h180v-307h678q19 210 159.5 327.5t395.5 117.5q139 0 297 -52v-235q-119 49 -254 49q-146 0 -215 -61.5t-69 -194.5v-969q0 -242 -137 -378t-410 -136q-136 0 -275 47v226q96 -41 213 -41q153 2 223 65t70 205v789h-676v-439
q0 -138 55.5 -194t188.5 -56q132 0 252 68v-244q-150 -75 -321 -75q-250 0 -370 120.5t-120 335.5v484z" />
    <glyph glyph-name="uni02B0" unicode="&#x2b0;" horiz-adv-x="1255" 
d="M117 573v1231h276v-481q58 89 146.5 136.5t193.5 47.5q191 0 298.5 -114.5t107.5 -313.5v-506h-277v465q0 119 -57 181.5t-166 62.5q-113 0 -179.5 -73.5t-66.5 -194.5v-441h-276z" />
    <glyph glyph-name="uni02B1" unicode="&#x2b1;" horiz-adv-x="1255" 
d="M117 573v861q0 200 104 297.5t332 97.5q139 0 256 -43v-207q-89 39 -209 39q-109 0 -158 -49t-49 -156v-115q58 90 146.5 137.5t193.5 47.5q192 0 299 -115t107 -313v-482h-277v441q0 119 -57 181t-166 62q-113 0 -179.5 -73t-66.5 -195v-416h-276z" />
    <glyph glyph-name="uni02B2" unicode="&#x2b2;" horiz-adv-x="530" 
d="M127 309v1180h276v-1180h-276zM264 1583q-74 0 -120 39t-46 102q0 64 46 103t120 39t120 -39t46 -103q0 -63 -45.5 -102t-120.5 -39z" />
    <glyph glyph-name="uni02B3" unicode="&#x2b3;" horiz-adv-x="765" 
d="M827 1493v-238q-84 19 -159 19q-123 0 -199 -78t-76 -233v-390h-276v910h276v-209q96 233 320 233q62 0 114 -14z" />
    <glyph glyph-name="uni02B7" unicode="&#x2b7;" horiz-adv-x="1581" 
d="M926 1483l225 -633l223 633h277l-338 -910h-283l-237 650l-242 -650h-283l-336 910h277l223 -629l227 629h267z" />
    <glyph glyph-name="uni02B8" unicode="&#x2b8;" horiz-adv-x="1036" 
d="M358 287q-166 0 -303 90v196q129 -81 264 -81q72 0 120.5 32t78.5 103l4 8h-116l-396 848h305l283 -672l291 672h291l-445 -944q-117 -252 -377 -252z" />
    <glyph glyph-name="uni02B9" unicode="&#x2b9;" horiz-adv-x="569" 
d="M188 938l-61 598h315l-59 -598h-195z" />
    <glyph glyph-name="uni02BB" unicode="&#x2bb;" horiz-adv-x="497" 
d="M254 1743h162l-111 -191q56 -14 88.5 -50.5t32.5 -88.5q0 -66 -48.5 -105.5t-131.5 -39.5q-84 0 -133.5 41t-49.5 108q0 52 20 89.5t81 117.5z" />
    <glyph glyph-name="uni02BC" unicode="&#x2bc;" horiz-adv-x="552" 
d="M270 920h-161l129 278q-55 21 -89 67.5t-34 104.5q0 76 55 130t133 54q79 0 134 -54.5t55 -135.5q0 -51 -23.5 -108.5t-81.5 -147.5z" />
    <glyph glyph-name="uni02BE" unicode="&#x2be;" horiz-adv-x="491" 
d="M90 1389v163q156 0 253 -83t97 -218q0 -133 -97.5 -216t-252.5 -83v166q164 0 164 133q0 67 -41.5 102.5t-122.5 35.5z" />
    <glyph glyph-name="uni02BF" unicode="&#x2bf;" horiz-adv-x="491" 
d="M401 1552v-163q-81 0 -122 -35.5t-41 -102.5q0 -133 163 -133v-166q-155 0 -252.5 83t-97.5 216q0 135 97 218t253 83z" />
    <glyph glyph-name="uni02C0" unicode="&#x2c0;" horiz-adv-x="600" 
d="M115 573v406q0 87 27.5 140.5t90.5 97.5l150 104q59 40 81.5 71.5t22.5 73.5q0 154 -215 154q-120 0 -182.5 -49.5t-83.5 -149.5h-270q21 191 155 299.5t385 108.5q229 0 359.5 -93t130.5 -259q0 -89 -39.5 -160t-130.5 -135l-139 -99q-37 -27 -51.5 -58.5t-14.5 -82.5
v-369h-276z" />
    <glyph glyph-name="uni02C1" unicode="&#x2c1;" horiz-adv-x="598" 
d="M485 979v-406h-274v369q0 52 -14.5 83t-53.5 58l-139 99q-92 64 -131 134.5t-39 160.5q0 166 131.5 259t360.5 93q244 0 380 -106.5t158 -301.5h-270q-21 100 -83 149.5t-181 49.5q-215 0 -215 -154q0 -43 21 -73.5t81 -71.5l152 -104q62 -42 89 -98t27 -140z" />
    <glyph glyph-name="circumflex" unicode="&#x2c6;" horiz-adv-x="1040" 
d="M61 1284l293 365h334l293 -365h-262l-199 201l-196 -201h-263z" />
    <glyph glyph-name="caron" unicode="&#x2c7;" horiz-adv-x="1040" 
d="M979 1649l-293 -365h-334l-293 365h263l198 -201l197 201h262z" />
    <glyph glyph-name="uni02C8" unicode="&#x2c8;" horiz-adv-x="495" 
d="M113 938v598h270v-598h-270z" />
    <glyph glyph-name="uni02C9" unicode="&#x2c9;" horiz-adv-x="1036" 
d="M987 1354h-924v200h924v-200z" />
    <glyph glyph-name="breve" unicode="&#x2d8;" horiz-adv-x="1026" 
d="M61 1647h242q15 -82 70.5 -128t140.5 -46q83 0 138.5 46t72.5 128h242q-27 -176 -144 -274.5t-309 -98.5t-309 98.5t-144 274.5z" />
    <glyph glyph-name="dotaccent" unicode="&#x2d9;" horiz-adv-x="581" 
d="M291 1303q-88 0 -143.5 47t-55.5 123q0 75 55.5 121t143.5 46t142 -46t54 -121q0 -76 -54 -123t-142 -47z" />
    <glyph glyph-name="ring" unicode="&#x2da;" horiz-adv-x="815" 
d="M410 1264q-161 0 -255 70.5t-94 191.5q0 120 94 190t255 70q160 0 252 -70t92 -190q0 -122 -92 -192t-252 -70zM410 1407q76 0 116.5 30.5t40.5 88.5q0 57 -41 88t-116 31q-77 0 -118.5 -31t-41.5 -88q0 -58 41.5 -88.5t118.5 -30.5z" />
    <glyph glyph-name="ogonek" unicode="&#x2db;" horiz-adv-x="630" 
d="M399 37l125 -10v-27h45q-250 -73 -250 -154q0 -59 127 -59q70 0 123 12v-186q-79 -27 -198 -27q-133 0 -213 53.5t-80 143.5q0 168 321 254z" />
    <glyph glyph-name="tilde" unicode="&#x2dc;" horiz-adv-x="1062" 
d="M258 1307h-207q9 162 80 253t199 91q49 0 105 -18t97.5 -39.5t87 -39.5t74.5 -18q44 0 73.5 30t37.5 83h207q-8 -158 -78 -250t-201 -92q-62 0 -134 28.5t-132.5 57t-95.5 28.5q-45 0 -75.5 -29.5t-37.5 -84.5z" />
    <glyph glyph-name="hungarumlaut" unicode="&#x2dd;" horiz-adv-x="1087" 
d="M63 1284l228 365h287l-238 -365h-277zM514 1284l223 365h291l-242 -365h-272z" />
    <glyph glyph-name="uni02E1" unicode="&#x2e1;" horiz-adv-x="509" 
d="M117 573v1231h276v-1231h-276z" />
    <glyph glyph-name="uni02E2" unicode="&#x2e2;" horiz-adv-x="1191" 
d="M1118 862q0 -150 -131 -231.5t-371 -81.5q-247 0 -396 91t-157 241h281q14 -67 89 -105.5t194 -38.5q219 0 219 103q0 39 -40 58t-142 28l-166 12q-217 18 -312.5 86.5t-95.5 185.5q0 143 131 220t354 77q219 0 364 -87.5t159 -227.5h-279q-12 57 -75.5 95t-182.5 38
q-94 0 -147.5 -25t-53.5 -71q0 -69 152 -82l217 -17q207 -17 298 -82t91 -186z" />
    <glyph glyph-name="uni02E3" unicode="&#x2e3;" horiz-adv-x="1173" 
d="M334 573h-307l383 463l-359 447h309l230 -283l231 283h303l-364 -443l389 -467h-315l-250 304z" />
    <glyph glyph-name="gravecomb" unicode="&#x300;" horiz-adv-x="690" 
d="M375 1649l254 -365h-301l-265 365h312z" />
    <glyph glyph-name="acutecomb" unicode="&#x301;" horiz-adv-x="690" 
d="M61 1284l254 365h312l-265 -365h-301z" />
    <glyph glyph-name="uni0302" unicode="&#x302;" horiz-adv-x="1040" 
d="M61 1284l293 365h334l293 -365h-262l-199 201l-196 -201h-263z" />
    <glyph glyph-name="tildecomb" unicode="&#x303;" horiz-adv-x="1062" 
d="M258 1307h-207q9 162 80 253t199 91q49 0 105 -18t97.5 -39.5t87 -39.5t74.5 -18q44 0 73.5 30t37.5 83h207q-8 -158 -78 -250t-201 -92q-62 0 -134 28.5t-132.5 57t-95.5 28.5q-45 0 -75.5 -29.5t-37.5 -84.5z" />
    <glyph glyph-name="uni0304" unicode="&#x304;" horiz-adv-x="1050" 
d="M987 1354h-924v200h924v-200z" />
    <glyph glyph-name="uni0306" unicode="&#x306;" horiz-adv-x="1026" 
d="M61 1647h242q15 -82 70.5 -128t140.5 -46q83 0 138.5 46t72.5 128h242q-27 -176 -144 -274.5t-309 -98.5t-309 98.5t-144 274.5z" />
    <glyph glyph-name="uni0307" unicode="&#x307;" horiz-adv-x="581" 
d="M291 1303q-88 0 -143.5 47t-55.5 123q0 75 55.5 121t143.5 46t142 -46t54 -121q0 -76 -54 -123t-142 -47z" />
    <glyph glyph-name="uni0308" unicode="&#x308;" horiz-adv-x="1136" 
d="M264 1303q-84 0 -135 44t-51 119q0 72 51.5 116t134.5 44q85 0 136 -44t51 -116q0 -75 -51 -119t-136 -44zM874 1303q-85 0 -135.5 44t-50.5 119q0 72 51 116t135 44q82 0 133.5 -44t51.5 -116q0 -74 -51 -118.5t-134 -44.5z" />
    <glyph glyph-name="hookabovecomb" unicode="&#x309;" horiz-adv-x="647" 
d="M260 1255l-63 101q63 19 97 48t34 64q0 72 -127 72q-71 0 -140 -16v180q94 27 213 27q147 0 230.5 -54.5t83.5 -150.5q0 -197 -328 -271z" />
    <glyph glyph-name="uni030A" unicode="&#x30a;" horiz-adv-x="815" 
d="M410 1264q-161 0 -255 70.5t-94 191.5q0 120 94 190t255 70q160 0 252 -70t92 -190q0 -122 -92 -192t-252 -70zM410 1407q76 0 116.5 30.5t40.5 88.5q0 57 -41 88t-116 31q-77 0 -118.5 -31t-41.5 -88q0 -58 41.5 -88.5t118.5 -30.5z" />
    <glyph glyph-name="uni030B" unicode="&#x30b;" horiz-adv-x="1087" 
d="M61 1284l228 365h286l-237 -365h-277zM512 1284l223 365h291l-242 -365h-272z" />
    <glyph glyph-name="uni030C" unicode="&#x30c;" horiz-adv-x="1040" 
d="M979 1649l-293 -365h-334l-293 365h263l198 -201l197 201h262z" />
    <glyph glyph-name="uni030D" unicode="&#x30d;" horiz-adv-x="512" 
d="M127 1284v406h258v-406h-258z" />
    <glyph glyph-name="uni030F" unicode="&#x30f;" horiz-adv-x="1085" 
d="M797 1649l227 -365h-276l-238 365h287zM350 1649l223 -365h-272l-242 365h291z" />
    <glyph glyph-name="uni0311" unicode="&#x311;" horiz-adv-x="1026" 
d="M965 1284h-242q-15 82 -70.5 128t-140.5 46q-83 0 -138.5 -46t-72.5 -128h-242q27 176 144 274.5t309 98.5t309 -98.5t144 -274.5z" />
    <glyph glyph-name="uni0312" unicode="&#x312;" horiz-adv-x="532" 
d="M274 1749h164l-112 -190q57 -12 88.5 -49t31.5 -91q0 -65 -49 -105t-131 -40q-83 0 -132.5 41t-49.5 108q0 47 19.5 85t80.5 122z" />
    <glyph glyph-name="uni0313" unicode="&#x313;" horiz-adv-x="522" 
d="M252 1284h-164l113 191q-57 12 -89 48.5t-32 90.5q0 65 49 105t131 40q83 0 132.5 -41t49.5 -108q0 -47 -19.5 -85t-80.5 -122z" />
    <glyph glyph-name="uni0315" unicode="&#x315;" horiz-adv-x="530" 
d="M252 1284h-164l113 191q-57 12 -89 48.5t-32 90.5q0 65 49 105t131 40q83 0 132.5 -41t49.5 -108q0 -47 -19.5 -85t-80.5 -122z" />
    <glyph glyph-name="uni031B" unicode="&#x31b;" horiz-adv-x="518" 
d="M459 1237q0 -122 -99 -193t-270 -71h-29v182h7q64 0 101.5 32.5t37.5 86.5q0 69 -55 149h249q58 -92 58 -186z" />
    <glyph glyph-name="uni0320" unicode="&#x320;" horiz-adv-x="1036" 
d="M987 -338h-924v201h924v-201z" />
    <glyph glyph-name="dotbelowcomb" unicode="&#x323;" horiz-adv-x="581" 
d="M291 -451q-88 0 -143.5 47t-55.5 123q0 75 55.5 121.5t143.5 46.5t142 -46.5t54 -121.5q0 -76 -54 -123t-142 -47z" />
    <glyph glyph-name="uni0324" unicode="&#x324;" horiz-adv-x="1136" 
d="M264 -436q-84 0 -135 44.5t-51 119.5q0 72 51.5 115.5t134.5 43.5q85 0 136 -43.5t51 -115.5q0 -75 -51 -119.5t-136 -44.5zM874 -436q-85 0 -135.5 44.5t-50.5 119.5q0 72 50.5 115.5t135.5 43.5q82 0 133.5 -43.5t51.5 -115.5q0 -74 -51.5 -119t-133.5 -45z" />
    <glyph glyph-name="uni0325" unicode="&#x325;" horiz-adv-x="815" 
d="M410 -608q-161 0 -255 70.5t-94 191.5q0 120 94 190t255 70q160 0 252 -70t92 -190q0 -122 -92 -192t-252 -70zM410 -465q76 0 116.5 30.5t40.5 88.5q0 57 -41 88t-116 31q-77 0 -118.5 -31t-41.5 -88q0 -58 41.5 -88.5t118.5 -30.5z" />
    <glyph glyph-name="uni0326" unicode="&#x326;" horiz-adv-x="518" 
d="M250 -569h-164l113 190q-57 12 -89 48.5t-32 90.5q0 65 49 105.5t131 40.5q83 0 132.5 -41.5t49.5 -108.5q0 -47 -19.5 -85t-80.5 -122z" />
    <glyph glyph-name="uni0327" unicode="&#x327;" horiz-adv-x="841" 
d="M166 -227l160 250h174l-80 -121q46 12 98 12q131 0 198.5 -52t67.5 -143q0 -94 -90.5 -154.5t-251.5 -60.5q-145 0 -248.5 58.5t-134.5 152.5h209q46 -65 174 -65q67 0 101.5 20.5t34.5 57.5q0 71 -119 71q-63 0 -117 -26h-176z" />
    <glyph glyph-name="uni0328" unicode="&#x328;" horiz-adv-x="630" 
d="M399 37l125 -10v-27h45q-250 -73 -250 -154q0 -59 127 -59q70 0 123 12v-186q-79 -27 -198 -27q-133 0 -213 53.5t-80 143.5q0 168 321 254z" />
    <glyph glyph-name="uni0329" unicode="&#x329;" horiz-adv-x="512" 
d="M127 -492v406h258v-406h-258z" />
    <glyph glyph-name="uni032D" unicode="&#x32d;" horiz-adv-x="1040" 
d="M61 -451l293 365h334l293 -365h-262l-199 201l-196 -201h-263z" />
    <glyph glyph-name="uni032E" unicode="&#x32e;" horiz-adv-x="1007" 
d="M61 -86h242q15 -82 70.5 -128t140.5 -46q83 0 138.5 46t72.5 128h242q-27 -176 -144 -274.5t-309 -98.5t-309 98.5t-144 274.5z" />
    <glyph glyph-name="uni032F" unicode="&#x32f;" horiz-adv-x="1026" 
d="M965 -459h-242q-15 82 -70.5 128t-140.5 46q-83 0 -138.5 -46t-72.5 -128h-242q27 176 144 274.5t309 98.5t309 -98.5t144 -274.5z" />
    <glyph glyph-name="uni0330" unicode="&#x330;" horiz-adv-x="1062" 
d="M258 -426h-207q9 162 80 253t199 91q62 0 134 -29t133 -57.5t97 -28.5q44 0 73.5 30t37.5 83h207q-8 -158 -78 -250t-201 -92q-62 0 -134 29t-132.5 57.5t-95.5 28.5q-45 0 -75.5 -30t-37.5 -85z" />
    <glyph glyph-name="uni0331" unicode="&#x331;" horiz-adv-x="1036" 
d="M987 -338h-924v201h924v-201z" />
    <glyph glyph-name="uni0332" unicode="&#x332;" horiz-adv-x="1069" 
d="M-8 -510v217h1085v-217h-1085z" />
    <glyph glyph-name="uni0335" unicode="&#x335;" horiz-adv-x="958" 
d="M63 494v196h834v-196h-834z" />
    <glyph glyph-name="uni035C" unicode="&#x35c;" horiz-adv-x="1765" 
d="M883 -522q-343 0 -572.5 111.5t-310.5 299.5h264q69 -85 227.5 -137.5t391.5 -52.5q234 0 391.5 52.5t226.5 137.5h264q-81 -188 -310 -299.5t-572 -111.5z" />
    <glyph glyph-name="uni035D" unicode="&#x35d;" horiz-adv-x="1765" 
d="M883 1274q-343 0 -572.5 112t-310.5 300h264q69 -85 227.5 -138t391.5 -53q234 0 391.5 53t226.5 138h264q-81 -188 -310 -300t-572 -112z" />
    <glyph glyph-name="uni0361" unicode="&#x361;" horiz-adv-x="1765" 
d="M883 1696q343 0 572 -112t310 -300h-264q-69 85 -226.5 138t-391.5 53q-233 0 -391.5 -53t-227.5 -138h-264q81 188 310.5 300t572.5 112z" />
    <glyph glyph-name="Beta" unicode="&#x392;" horiz-adv-x="1759" 
d="M1337 807q173 -37 259.5 -137.5t86.5 -245.5q0 -192 -133 -308t-379 -116h-1060v1536h1024q212 0 329 -99t117 -274q0 -113 -60 -208t-184 -148zM432 670v-426h682q115 0 179.5 54t64.5 153q0 103 -75 161t-218 58h-633zM432 1292v-385h596q101 0 164 55.5t63 153.5
q0 78 -56 127t-155 49h-612z" />
    <glyph glyph-name="Epsilon" unicode="&#x395;" horiz-adv-x="1587" 
d="M436 641v-371h1045v-270h-1370v1536h1359v-270h-1034v-371h981v-254h-981z" />
    <glyph glyph-name="Theta" unicode="&#x398;" horiz-adv-x="1953" 
d="M977 -31q-197 0 -363 58t-282 162t-181 253t-65 326t65 326t181 253t282 162t363 58q196 0 362 -58t282.5 -162t181.5 -253t65 -326t-65 -326t-181.5 -253t-282.5 -162t-362 -58zM559 637v262h838v-262h-838zM977 250q261 0 415 140t154 378t-154 378t-415 140
q-262 0 -415.5 -140t-153.5 -378t153.5 -378t415.5 -140z" />
    <glyph glyph-name="Lambda" unicode="&#x39b;" horiz-adv-x="1847" 
d="M928 1235l-570 -1235h-348l733 1536h361l733 -1536h-344z" />
    <glyph glyph-name="uni03A9" unicode="&#x3a9;" horiz-adv-x="2007" 
d="M1004 1567q263 0 464.5 -98t309.5 -269t108 -387q0 -178 -78 -320t-229 -239h330v-254h-791v231q208 45 324.5 186.5t116.5 340.5q0 112 -35.5 206.5t-103 166t-174.5 111.5t-242 40q-136 0 -243.5 -40t-175.5 -111.5t-103.5 -166t-35.5 -206.5q0 -199 116.5 -340.5
t326.5 -186.5v-231h-793v254h332q-151 97 -229 239t-78 320q0 162 63 301t176.5 239t279.5 157t364 57z" />
    <glyph glyph-name="beta" unicode="&#x3b2;" horiz-adv-x="1695" 
d="M446 -338h-315v1292q0 298 194.5 476t530.5 178q273 0 443.5 -108.5t170.5 -289.5q0 -125 -84.5 -217t-236.5 -135q234 -25 357.5 -133.5t123.5 -286.5q0 -210 -176 -339.5t-467 -129.5q-374 0 -541 217v-524zM446 657q0 -225 128.5 -339.5t357.5 -114.5q176 0 276.5 68
t100.5 184q0 114 -93 182t-284 68h-174v219h106q139 0 218 58t79 155q0 106 -88 167.5t-237 61.5q-182 0 -286 -102.5t-104 -280.5v-326z" />
    <glyph glyph-name="epsilon" unicode="&#x3b5;" horiz-adv-x="1456" 
d="M106 866q0 146 157.5 237t461.5 91q149 0 270.5 -31.5t201 -86.5t124.5 -126t53 -153h-311q-21 72 -102.5 118t-231.5 46q-154 0 -227.5 -37t-73.5 -97q0 -133 274 -133h240v-198h-240q-168 0 -237.5 -33.5t-69.5 -102.5q0 -159 342 -159q177 0 263 44.5t100 131.5h315
q-6 -84 -52 -157t-129 -129.5t-213 -89t-292 -32.5q-317 0 -486 103.5t-169 261.5q0 219 317 268q-151 32 -218 102t-67 162z" />
    <glyph glyph-name="theta" unicode="&#x3b8;" horiz-adv-x="1673" 
d="M838 -31q-237 0 -407.5 102.5t-257.5 287t-87 432.5q0 245 87 428.5t258 286t407 102.5q235 0 405.5 -102.5t257 -286t86.5 -428.5q0 -248 -86.5 -432.5t-256.5 -287t-406 -102.5zM838 211q192 0 300.5 116.5t131.5 342.5h-864q22 -226 130 -342.5t302 -116.5zM838 1366
q-194 0 -303 -117t-129 -342h864q-22 225 -131 342t-301 117z" />
    <glyph glyph-name="lambda" unicode="&#x3bb;" horiz-adv-x="1505" 
d="M346 0h-340l600 1178q-46 98 -105 140t-153 42q-128 0 -285 -92v233q153 107 332 107q149 0 259.5 -68t189.5 -225l653 -1315h-342l-399 864z" />
    <glyph glyph-name="omega" unicode="&#x3c9;" horiz-adv-x="2088" 
d="M909 530v252h269v-252q0 -157 66.5 -234t180.5 -77q130 0 205.5 85.5t75.5 248.5t-87.5 263t-244.5 122v256q201 -14 346.5 -102.5t219 -230.5t73.5 -322q0 -266 -148 -418t-388 -152q-159 0 -272.5 77t-160.5 224q-49 -147 -161 -224t-271 -77q-240 0 -388 152t-148 418
q0 180 73 322t218.5 230.5t347.5 102.5v-256q-158 -22 -245 -122t-87 -263t75.5 -248.5t203.5 -85.5q114 0 180.5 77t66.5 234z" />
    <glyph glyph-name="uni0400" unicode="&#x400;" horiz-adv-x="1587" 
d="M436 641v-371h1045v-270h-1370v1536h1359v-270h-1034v-371h981v-254h-981zM682 1980l301 -323h-328l-342 323h369z" />
    <glyph glyph-name="uni0401" unicode="&#x401;" horiz-adv-x="1587" 
d="M436 641v-371h1045v-270h-1370v1536h1359v-270h-1034v-371h981v-254h-981zM494 1675q-83 0 -135 45.5t-52 118.5t51.5 116.5t135.5 43.5t135 -43.5t51 -116.5t-51.5 -118.5t-134.5 -45.5zM1108 1675q-83 0 -134.5 45.5t-51.5 118.5t51 116.5t135 43.5t135 -43.5
t51 -116.5t-51.5 -118.5t-134.5 -45.5z" />
    <glyph glyph-name="uni0402" unicode="&#x402;" horiz-adv-x="2146" 
d="M33 1536h1698v-256h-824v-422q242 100 520 100q316 0 489 -129.5t173 -365.5q0 -232 -160 -359t-452 -127q-167 0 -349 46v237q190 -47 318 -47q154 0 236.5 63.5t82.5 180.5q0 122 -98 186t-285 64q-233 0 -475 -91v-616h-321v1280h-553v256z" />
    <glyph glyph-name="uni0403" unicode="&#x403;" horiz-adv-x="1302" 
d="M162 1536h1106v-287h-785v-1249h-321v1536zM516 1657l301 323h369l-342 -323h-328z" />
    <glyph glyph-name="uni0404" unicode="&#x404;" horiz-adv-x="1896" 
d="M1231 657h-817q34 -196 181 -306.5t376 -110.5q220 0 362 97t174 265h322q-25 -186 -139.5 -329.5t-302 -223.5t-418.5 -80q-261 0 -462 100t-311 281.5t-110 417.5t110 417.5t311 281.5t462 100q231 0 418.5 -80t302 -223.5t139.5 -329.5h-322q-34 168 -176 265t-360 97
q-229 0 -376 -110.5t-181 -306.5h817v-222z" />
    <glyph glyph-name="uni0405" unicode="&#x405;" horiz-adv-x="1671" 
d="M76 502h327q17 -127 140 -201t319 -74q189 0 299.5 56.5t110.5 154.5q0 81 -65 122t-232 61l-316 36q-291 35 -423 140t-132 297q0 219 192.5 346t516.5 127q210 0 375.5 -61.5t261.5 -174.5t106 -260h-327q-14 108 -126.5 173t-295.5 65q-174 0 -276.5 -54t-102.5 -149
q0 -73 62 -112.5t215 -59.5l325 -41q313 -38 439 -132t126 -286q0 -152 -92 -267t-259.5 -177t-387.5 -62q-340 0 -554.5 147.5t-225.5 385.5z" />
    <glyph glyph-name="uni0406" unicode="&#x406;" horiz-adv-x="647" 
d="M162 0v1536h321v-1536h-321z" />
    <glyph glyph-name="uni0407" unicode="&#x407;" horiz-adv-x="647" 
d="M162 0v1536h321v-1536h-321zM115 1675q-73 0 -116.5 44.5t-43.5 119.5q0 73 43.5 116.5t116.5 43.5t116 -43t43 -117q0 -75 -43 -119.5t-116 -44.5zM530 1675q-72 0 -114.5 44.5t-42.5 119.5q0 73 42.5 116.5t114.5 43.5q74 0 117 -43.5t43 -116.5q0 -75 -43.5 -119.5
t-116.5 -44.5z" />
    <glyph glyph-name="uni0408" unicode="&#x408;" horiz-adv-x="1613" 
d="M47 657v84h315v-61q0 -210 94 -318t298 -108q395 0 395 403v879h321v-893q0 -162 -52 -290t-146.5 -212t-226 -128t-291.5 -44q-323 0 -515 180t-192 508z" />
    <glyph glyph-name="uni0409" unicode="&#x409;" horiz-adv-x="2957" 
d="M420 1536h1411v-535h493q269 0 427.5 -137t158.5 -364q0 -226 -159 -363t-427 -137h-815v1251h-766q25 -300 25 -454q0 -435 -115.5 -630.5t-371.5 -195.5q-143 0 -256 58v270q84 -35 163 -35q145 0 210 136t65 442q0 285 -43 694zM1831 743v-485h477q127 0 203 66
t76 176q0 112 -75.5 177.5t-203.5 65.5h-477z" />
    <glyph glyph-name="uni040A" unicode="&#x40a;" horiz-adv-x="2832" 
d="M483 0h-321v1536h321v-618h901v618h320v-535h494q269 0 428 -137t159 -364q0 -226 -159.5 -363t-427.5 -137h-814v635h-901v-635zM1704 743v-485h477q127 0 202 65.5t75 176.5q0 112 -74.5 177.5t-202.5 65.5h-477z" />
    <glyph glyph-name="uni040B" unicode="&#x40b;" horiz-adv-x="2158" 
d="M2073 0h-322v324q0 356 -393 356q-205 0 -451 -88v-592h-321v1280h-553v256h1698v-256h-824v-438q242 100 520 100q315 0 480.5 -151.5t165.5 -440.5v-350z" />
    <glyph glyph-name="uni040C" unicode="&#x40c;" horiz-adv-x="1730" 
d="M483 0h-321v1536h321v-618h375l528 618h367l-637 -733l658 -803h-388l-516 635h-387v-635zM705 1657l301 323h368l-342 -323h-327z" />
    <glyph glyph-name="uni040D" unicode="&#x40d;" horiz-adv-x="1961" 
d="M571 0h-409v1536h315v-1221l903 1221h420v-1536h-315v1237zM858 1980l301 -323h-328l-342 323h369z" />
    <glyph glyph-name="uni040E" unicode="&#x40e;" horiz-adv-x="1773" 
d="M870 0h-350l199 338l-701 1198h357l522 -897l518 897h350zM412 1985h260q48 -152 213 -152q162 0 213 152h258q-37 -169 -160.5 -254.5t-310.5 -85.5q-186 0 -310 85.5t-163 254.5z" />
    <glyph glyph-name="uni040F" unicode="&#x40f;" horiz-adv-x="1865" 
d="M1087 -313h-309v313h-616v1536h321v-1251h901v1251h320v-1536h-617v-313z" />
    <glyph glyph-name="uni0410" unicode="&#x410;" horiz-adv-x="1880" 
d="M735 1536h412l723 -1536h-342l-154 334h-868l-152 -334h-344zM627 596h628l-315 690z" />
    <glyph glyph-name="uni0411" unicode="&#x411;" horiz-adv-x="1679" 
d="M432 932h635q262 0 404.5 -126.5t142.5 -340.5q0 -211 -147.5 -338t-399.5 -127h-956v1536h1378v-258h-1055zM432 696l-2 -448h602q120 0 190 59.5t70 163.5t-71 164.5t-191 60.5h-598z" />
    <glyph glyph-name="uni0412" unicode="&#x412;" horiz-adv-x="1759" 
d="M1337 807q173 -37 259.5 -137.5t86.5 -245.5q0 -192 -133 -308t-379 -116h-1060v1536h1024q212 0 329 -99t117 -274q0 -113 -60 -208t-184 -148zM432 670v-426h682q115 0 179.5 54t64.5 153q0 103 -75 161t-218 58h-633zM432 1292v-385h596q101 0 164 55.5t63 153.5
q0 78 -56 127t-155 49h-612z" />
    <glyph glyph-name="uni0413" unicode="&#x413;" horiz-adv-x="1302" 
d="M162 1536h1106v-287h-785v-1249h-321v1536z" />
    <glyph glyph-name="uni0414" unicode="&#x414;" horiz-adv-x="2107" 
d="M332 -313h-299v596h190q170 196 170 735q0 206 -28 518h1419v-1253h268v-596h-299v313h-1421v-313zM692 954q0 -482 -137 -675h907v974h-780q10 -130 10 -299z" />
    <glyph glyph-name="uni0415" unicode="&#x415;" horiz-adv-x="1587" 
d="M436 641v-371h1045v-270h-1370v1536h1359v-270h-1034v-371h981v-254h-981z" />
    <glyph glyph-name="uni0416" unicode="&#x416;" horiz-adv-x="2875" 
d="M373 1536l528 -618h375v618h321v-618h375l529 618h366l-637 -733l660 -803h-389l-516 635h-388v-635h-321v635h-385l-518 -635h-387l657 803l-635 733h365z" />
    <glyph glyph-name="uni0417" unicode="&#x417;" horiz-adv-x="1685" 
d="M844 -31q-351 0 -563 146.5t-226 394.5h324q19 -139 137.5 -214t327.5 -75q202 0 311 60.5t109 179.5q0 102 -92.5 151.5t-294.5 49.5h-299v219h292q174 0 264.5 58t90.5 153q0 106 -101.5 164.5t-275.5 58.5q-190 0 -304 -72.5t-134 -202.5h-320q9 111 65 206.5
t152 167.5t239 112.5t316 40.5q313 0 502.5 -118t189.5 -310q0 -126 -83.5 -220.5t-247.5 -134.5q177 -30 273.5 -118.5t96.5 -227.5q0 -213 -198 -341t-551 -128z" />
    <glyph glyph-name="uni0418" unicode="&#x418;" horiz-adv-x="1961" 
d="M571 0h-409v1536h315v-1221l903 1221h420v-1536h-315v1237z" />
    <glyph glyph-name="uni0419" unicode="&#x419;" horiz-adv-x="1961" 
d="M571 0h-409v1536h315v-1221l903 1221h420v-1536h-315v1237zM500 1985h260q48 -152 213 -152q162 0 213 152h258q-37 -169 -160.5 -254.5t-310.5 -85.5q-186 0 -310 85.5t-163 254.5z" />
    <glyph glyph-name="uni041A" unicode="&#x41a;" horiz-adv-x="1730" 
d="M483 0h-321v1536h321v-618h375l528 618h367l-637 -733l658 -803h-388l-516 635h-387v-635z" />
    <glyph glyph-name="uni041B" unicode="&#x41b;" horiz-adv-x="2009" 
d="M420 1536h1427v-1536h-321v1251h-781q23 -276 23 -454q0 -435 -115.5 -630.5t-371.5 -195.5q-143 0 -256 58v270q84 -35 163 -35q145 0 210 136t65 442q0 285 -43 694z" />
    <glyph glyph-name="uni041C" unicode="&#x41c;" horiz-adv-x="2451" 
d="M1794 1536h494v-1536h-306v1243l-589 -1243h-336l-588 1239v-1239h-307v1536h495l570 -1229z" />
    <glyph glyph-name="uni041D" unicode="&#x41d;" horiz-adv-x="1882" 
d="M162 0v1536h321v-618h916v618h321v-1536h-321v635h-916v-635h-321z" />
    <glyph glyph-name="uni041E" unicode="&#x41e;" horiz-adv-x="1953" 
d="M977 -31q-197 0 -363 58t-282 162t-181 253t-65 326t65 326t181 253t282 162t363 58q196 0 362 -58t282.5 -162t181.5 -253t65 -326t-65 -326t-181.5 -253t-282.5 -162t-362 -58zM977 258q260 0 412.5 137.5t152.5 372.5t-152.5 372.5t-412.5 137.5t-412.5 -137.5
t-152.5 -372.5t152.5 -372.5t412.5 -137.5z" />
    <glyph glyph-name="uni041F" unicode="&#x41f;" horiz-adv-x="1873" 
d="M162 1536h1550v-1536h-319v1251h-910v-1251h-321v1536z" />
    <glyph glyph-name="uni0420" unicode="&#x420;" horiz-adv-x="1619" 
d="M162 1536h829q266 0 424 -137.5t158 -362.5t-158 -362t-424 -137h-508v-537h-321v1536zM483 805h494q126 0 198 62t72 169t-72 169.5t-198 62.5h-494v-463z" />
    <glyph glyph-name="uni0421" unicode="&#x421;" horiz-adv-x="1882" 
d="M1487 621h323q-21 -193 -133 -341t-297.5 -229.5t-418.5 -81.5q-259 0 -458 100t-308 281.5t-109 417.5t109 417.5t308 281.5t458 100q233 0 418.5 -81.5t297.5 -229.5t133 -341h-323q-32 172 -171.5 269.5t-357.5 97.5q-252 0 -398 -138.5t-146 -375.5t146 -375.5
t398 -138.5q220 0 358.5 96t170.5 271z" />
    <glyph glyph-name="uni0422" unicode="&#x422;" horiz-adv-x="1628" 
d="M653 0v1251h-618v285h1558v-285h-618v-1251h-322z" />
    </font>
</defs>
</svg>
