<?xml version="1.0" standalone="no"?>
<!DOCTYPE svg PUBLIC "-//W3C//DTD SVG 1.1//EN" "http://www.w3.org/Graphics/SVG/1.1/DTD/svg11.dtd" >
<svg xmlns="http://www.w3.org/2000/svg" xmlns:xlink="http://www.w3.org/1999/xlink" version="1.1">
<metadata>
Created by FontForge 20201107 at Thu Jul 16 13:30:34 2026
 By www-data
Copyright 2025
</metadata>
<defs>
<font id="Bounded-Bold" horiz-adv-x="1669" >
  <font-face 
    font-family="Bounded"
    font-weight="700"
    font-stretch="normal"
    units-per-em="2048"
    panose-1="0 0 0 0 0 0 0 0 0 0"
    ascent="1638"
    descent="-410"
    x-height="1169"
    cap-height="1536"
    bbox="-637 -655 3783 2511"
    underline-thickness="102"
    underline-position="-255"
    unicode-range="U+000D-FB02"
  />
<missing-glyph horiz-adv-x="1761" 
d="M143 0v1536h1477v-1536h-1477zM553 365h655v806h-655v-806z" />
    <glyph glyph-name="fi" unicode="fi" horiz-adv-x="1853" 
d="M1130 764h-430v-764h-417v764h-238v309h238v6q0 256 151.5 393.5t442.5 137.5q142 0 272 -47v-308q-104 43 -223 43q-120 0 -173 -42.5t-53 -139.5v-43h430v-309zM1319 0v1188h420v-1188h-420zM1528 1284q-110 0 -177 55t-67 148t67 148t177 55q111 0 178.5 -55
t67.5 -148t-67.5 -148t-178.5 -55z" />
    <glyph glyph-name="fl" unicode="fl" horiz-adv-x="1853" 
d="M1130 764h-430v-764h-417v764h-238v309h238v6q0 256 151.5 393.5t442.5 137.5q142 0 272 -47v-308q-104 43 -223 43q-120 0 -173 -42.5t-53 -139.5v-43h430v-309zM1319 0v1577h420v-1577h-420z" />
    <glyph glyph-name="f_f" unicode="ff" horiz-adv-x="2170" 
d="M2140 764h-430v-764h-418v764h-592v-764h-417v764h-238v309h238v6q0 256 151.5 393.5t442.5 137.5q142 0 272 -47v-308q-104 43 -223 43q-120 0 -173 -42.5t-53 -139.5v-43h592v6q0 256 151.5 393.5t442.5 137.5q143 0 273 -47v-308q-104 43 -224 43t-172.5 -42.5
t-52.5 -139.5v-43h430v-309z" />
    <glyph glyph-name="f_f_i" unicode="ffi" horiz-adv-x="2813" 
d="M2140 764h-430v-764h-418v764h-592v-764h-417v764h-238v309h238v6q0 256 151.5 393.5t442.5 137.5q142 0 272 -47v-308q-104 43 -223 43q-120 0 -173 -42.5t-53 -139.5v-43h592v6q0 256 151.5 393.5t442.5 137.5q143 0 273 -47v-308q-104 43 -224 43t-172.5 -42.5
t-52.5 -139.5v-43h430v-309zM2279 0v1188h420v-1188h-420zM2488 1284q-110 0 -176.5 55t-66.5 148t66.5 148t176.5 55q111 0 178.5 -55t67.5 -148t-67.5 -148t-178.5 -55z" />
    <glyph glyph-name="f_f_l" unicode="ffl" horiz-adv-x="2826" 
d="M2140 764h-430v-764h-418v764h-592v-764h-417v764h-238v309h238v6q0 256 151.5 393.5t442.5 137.5q142 0 272 -47v-308q-104 43 -223 43q-120 0 -173 -42.5t-53 -139.5v-43h592v6q0 256 151.5 393.5t442.5 137.5q143 0 273 -47v-308q-104 43 -224 43t-172.5 -42.5
t-52.5 -139.5v-43h430v-309zM2290 0v1577h420v-1577h-420z" />
    <glyph glyph-name="f_t.liga" unicode="ft" horiz-adv-x="2252" 
d="M1260 786h-555v-786h-420v786h-238v322h240q9 243 160.5 372.5t433.5 129.5q140 0 270 -47v-277q-110 29 -221 29q-121 0 -173 -38.5t-52 -125.5v-43h561l174 360h237v-344h492v-321h-492v-277q0 -128 52 -178.5t188 -50.5q151 0 272 57l2 -319q-167 -64 -372 -64
q-282 0 -420.5 129.5t-138.5 362.5v323z" />
    <glyph glyph-name="t_t.liga" unicode="tt" horiz-adv-x="2316" 
d="M250 860h-238v182l238 97l180 346h238v-316h675l168 316h238v-316h492v-309h-492v-334q0 -135 51.5 -187t188.5 -52q153 0 272 53v-313q-68 -26 -168 -43t-203 -17q-283 0 -421 129t-138 363v401h-663v-334q0 -135 51 -187t186 -52q156 0 275 53v-313q-166 -60 -371 -60
q-283 0 -421 129t-138 363v401z" />
    <glyph glyph-name=".notdef" horiz-adv-x="1761" 
d="M143 0v1536h1477v-1536h-1477zM553 365h655v806h-655v-806z" />
    <glyph glyph-name="uni0000" horiz-adv-x="0" 
 />
    <glyph glyph-name="uni0000" horiz-adv-x="0" 
 />
    <glyph glyph-name="uni000D" unicode="&#xd;" horiz-adv-x="512" 
 />
    <glyph glyph-name="space" unicode=" " horiz-adv-x="507" 
 />
    <glyph glyph-name="exclam" unicode="!" horiz-adv-x="661" 
d="M182 543l-69 993h436l-70 -993h-297zM332 -20q-104 0 -169 59t-65 156t65 157t169 60q103 0 167 -60t64 -157q0 -96 -64 -155.5t-167 -59.5z" />
    <glyph glyph-name="quotedbl" unicode="&#x22;" horiz-adv-x="1036" 
d="M391 850h-235l-82 686h399zM881 850h-238l-80 686h398z" />
    <glyph glyph-name="numbersign" unicode="#" horiz-adv-x="1755" 
d="M268 0l43 362h-227v285h262l27 240h-240v284h275l41 365h333l-43 -365h369l43 365h334l-43 -365h227v-284h-260l-29 -240h240v-285h-272l-43 -362h-334l43 362h-369l-43 -362h-334zM678 647h369l28 240h-368z" />
    <glyph glyph-name="dollar" unicode="$" horiz-adv-x="1662" 
d="M674 1704h309v-148q247 -35 398 -166.5t163 -324.5h-414q-16 114 -147 162v-283l10 -2q314 -26 452 -136t138 -314q0 -211 -162 -351t-438 -168v-141h-309v145q-270 37 -430 178t-166 349h416q9 -69 55.5 -120t124.5 -77v303q-580 53 -580 469q0 207 154.5 333t425.5 151
v141zM1167 442q0 56 -42 89.5t-142 50.5v-291q90 15 137 53.5t47 97.5zM508 1100q0 -49 38.5 -81t127.5 -46v270q-80 -15 -123 -51.5t-43 -91.5z" />
    <glyph glyph-name="percent" unicode="%" horiz-adv-x="2650" 
d="M754 0l835 1536h307l-837 -1536h-305zM2058 -33q-243 0 -392.5 126.5t-149.5 332.5q0 207 149.5 334t392.5 127q244 0 393.5 -127t149.5 -334q0 -206 -149.5 -332.5t-393.5 -126.5zM590 637q-243 0 -393 127t-150 332q0 207 150 333.5t393 126.5q244 0 393.5 -126.5
t149.5 -333.5q0 -206 -149.5 -332.5t-393.5 -126.5zM2058 209q102 0 159.5 57.5t57.5 159.5q0 103 -57 161t-160 58q-100 0 -157.5 -58.5t-57.5 -160.5t57.5 -159.5t157.5 -57.5zM590 879q102 0 159.5 57.5t57.5 159.5q0 103 -57 161t-160 58q-100 0 -157.5 -58.5
t-57.5 -160.5t57.5 -159.5t157.5 -57.5z" />
    <glyph glyph-name="ampersand" unicode="&#x26;" horiz-adv-x="1925" 
d="M1538 1100h-416q-9 79 -68 127.5t-159 48.5q-92 0 -143.5 -36t-51.5 -97q0 -65 84 -135l461 -398l185 238h434l-387 -436l477 -412h-522l-189 162q-120 -103 -253 -149t-312 -46q-283 0 -450 128t-167 329q0 146 97 255t295 161q-197 171 -197 331q0 181 163.5 289.5
t459.5 108.5q297 0 472 -132t187 -337zM741 279q161 0 277 77l-379 322q-78 -32 -120 -83.5t-42 -115.5q0 -86 73 -143t191 -57z" />
    <glyph glyph-name="quotesingle" unicode="'" horiz-adv-x="563" 
d="M156 850l-82 686h415l-81 -686h-252z" />
    <glyph glyph-name="parenleft" unicode="(" horiz-adv-x="798" 
d="M432 1536h326q-254 -459 -254 -881q0 -412 254 -880h-326q-182 211 -271 427t-89 453t89 453.5t271 427.5z" />
    <glyph glyph-name="parenright" unicode=")" horiz-adv-x="798" 
d="M41 1536h326q182 -211 271 -427.5t89 -453.5t-89 -453t-271 -427h-326q254 468 254 880q0 422 -254 881z" />
    <glyph glyph-name="asterisk" unicode="*" horiz-adv-x="1097" 
d="M438 1268l-16 305h256l-14 -305l284 110l78 -243l-293 -82l193 -238l-207 -149l-170 254l-170 -254l-207 149l195 238l-293 82l78 243z" />
    <glyph glyph-name="plus" unicode="+" horiz-adv-x="1269" 
d="M786 152h-303v421h-422v304h422v421h303v-421h422v-304h-422v-421z" />
    <glyph glyph-name="comma" unicode="," horiz-adv-x="618" 
d="M276 -303h-202l145 305q-66 27 -106.5 85t-40.5 130q0 97 68.5 164.5t166.5 67.5q100 0 168 -69t68 -169q0 -61 -30 -131t-101 -178z" />
    <glyph glyph-name="hyphen" unicode="-" horiz-adv-x="759" 
d="M111 551v330h538v-330h-538z" />
    <glyph glyph-name="period" unicode="." horiz-adv-x="614" 
d="M307 -20q-100 0 -167.5 67.5t-67.5 167.5q0 99 68 167.5t167 68.5t167.5 -68.5t68.5 -167.5q0 -100 -68 -167.5t-168 -67.5z" />
    <glyph glyph-name="slash" unicode="/" horiz-adv-x="940" 
d="M29 -55l573 1646h311l-573 -1646h-311z" />
    <glyph glyph-name="zero" unicode="0" horiz-adv-x="1822" 
d="M911 -33q-194 0 -355.5 58t-272.5 162t-172.5 253t-61.5 328t61.5 328t172.5 253t272.5 162t355.5 58q258 0 454 -99.5t302.5 -281.5t106.5 -420t-106.5 -420t-302.5 -281.5t-454 -99.5zM911 311q208 0 323.5 119.5t115.5 337.5t-115.5 337.5t-323.5 119.5t-323 -119.5
t-115 -337.5t115 -337.5t323 -119.5z" />
    <glyph glyph-name="one" unicode="1" horiz-adv-x="1466" 
d="M672 1536h311v-1212h442v-324h-1384v324h522v850l-469 -82v327z" />
    <glyph glyph-name="two" unicode="2" horiz-adv-x="1634" 
d="M465 983h-424q13 177 120 310.5t284 204.5t399 71q317 0 512.5 -141t195.5 -369q0 -176 -143.5 -319t-474.5 -302l-203 -102h862v-336h-1519v295l659 371q234 134 314.5 208t80.5 160q0 95 -78 152t-221 57q-175 0 -264 -72t-100 -188z" />
    <glyph glyph-name="three" unicode="3" horiz-adv-x="1654" 
d="M141 1210v326h1391v-307l-502 -330q300 -12 441 -123t141 -303q0 -227 -199.5 -366.5t-568.5 -139.5q-360 0 -576 146t-227 393h424q31 -213 379 -213q167 0 252.5 52t85.5 149q0 91 -74 137.5t-246 46.5h-252v274l398 258h-867z" />
    <glyph glyph-name="four" unicode="4" horiz-adv-x="1718" 
d="M905 1536h537v-936h246v-313h-246v-287h-420v287h-981v299zM473 600h549v606z" />
    <glyph glyph-name="five" unicode="5" horiz-adv-x="1599" 
d="M100 614l133 922h1205v-315h-920l-51 -336q174 137 455 137q291 0 464 -140.5t173 -365.5q0 -246 -201 -397.5t-547 -151.5q-333 0 -542 142t-228 360h422q19 -81 110.5 -128.5t237.5 -47.5q152 0 238 60t86 165q0 101 -82 162t-232 61q-217 0 -354 -127h-367z" />
    <glyph glyph-name="six" unicode="6" horiz-adv-x="1667" 
d="M874 1569q292 0 490 -129.5t229 -327.5h-393q-65 148 -315 148q-233 0 -339 -126.5t-106 -363.5q221 231 570 231q284 0 450 -137.5t166 -361.5q0 -239 -196 -387t-543 -148q-208 0 -370 59t-265.5 165.5t-156.5 252t-52 322.5q-1 176 52.5 322.5t156 254t261.5 167
t361 59.5zM905 690q-236 0 -416 -174q102 -237 404 -237q147 0 227 58t80 150q0 95 -75.5 149t-219.5 54z" />
    <glyph glyph-name="seven" unicode="7" horiz-adv-x="1499" 
d="M711 0h-486l770 1200h-995v336h1458v-338z" />
    <glyph glyph-name="eight" unicode="8" horiz-adv-x="1736" 
d="M868 1569q377 0 579 -115t202 -324q0 -126 -83 -210t-239 -121q179 -34 274 -129t95 -244q0 -223 -212.5 -341t-615.5 -118q-404 0 -615.5 118t-211.5 341q0 150 94.5 244.5t272.5 128.5q-155 37 -237.5 121t-82.5 210q0 209 201.5 324t578.5 115zM868 291q194 0 296 44
t102 128q0 172 -398 172q-397 0 -397 -172q0 -85 101 -128.5t296 -43.5zM868 928q357 0 357 159q0 75 -92.5 116.5t-264.5 41.5t-265 -41.5t-93 -116.5q0 -159 358 -159z" />
    <glyph glyph-name="nine" unicode="9" horiz-adv-x="1667" 
d="M793 -33q-292 0 -490 129.5t-229 327.5h393q65 -148 315 -148q233 0 339 126.5t106 363.5q-221 -231 -570 -231q-284 0 -450 137.5t-166 361.5q0 239 196 387t543 148q208 0 370 -59t265.5 -165.5t156.5 -252t52 -322.5q1 -176 -52.5 -322.5t-156 -254t-261.5 -167
t-361 -59.5zM762 846q236 0 416 174q-102 237 -404 237q-147 0 -227 -58t-80 -150q0 -95 75.5 -149t219.5 -54z" />
    <glyph glyph-name="colon" unicode=":" horiz-adv-x="671" 
d="M336 -20q-103 0 -168.5 61t-65.5 158q0 98 65.5 159.5t168.5 61.5t168 -61.5t65 -159.5q0 -97 -65 -158t-168 -61zM336 676q-103 0 -168.5 61.5t-65.5 159.5q0 97 65.5 159t168.5 62t168 -62t65 -159q0 -98 -65 -159.5t-168 -61.5z" />
    <glyph glyph-name="semicolon" unicode=";" horiz-adv-x="675" 
d="M307 -303h-201l142 297q-66 24 -104 77.5t-38 125.5q0 95 65 155t169 60t167.5 -60t63.5 -157q0 -109 -129 -297zM338 676q-103 0 -167.5 61.5t-64.5 159.5q0 97 65 159t167 62q103 0 168 -62t65 -159q0 -98 -65 -159.5t-168 -61.5z" />
    <glyph glyph-name="less" unicode="&#x3c;" horiz-adv-x="1269" 
d="M1204 983l-753 -256l753 -256v-319l-1147 407v334l1147 410v-320z" />
    <glyph glyph-name="equal" unicode="=" horiz-adv-x="1269" 
d="M61 831v304h1147v-304h-1147zM61 315v303h1147v-303h-1147z" />
    <glyph glyph-name="greater" unicode="&#x3e;" horiz-adv-x="1269" 
d="M819 727l-753 256v320l1146 -410v-334l-1146 -407v319z" />
    <glyph glyph-name="question" unicode="?" horiz-adv-x="1443" 
d="M690 -20q-104 0 -168.5 59t-64.5 156t64.5 157t168.5 60q103 0 167.5 -60t64.5 -157q0 -96 -64.5 -155.5t-167.5 -59.5zM502 586q0 96 54 167.5t173 127.5l160 71q104 50 104 127q0 78 -68 122t-194 44q-129 0 -207 -56t-92 -155h-399q17 252 201.5 393.5t496.5 141.5
q314 0 489 -124.5t175 -348.5q0 -232 -248 -344l-174 -82q-50 -24 -73 -52t-23 -71v-33h-365q-10 34 -10 72z" />
    <glyph glyph-name="at" unicode="@" horiz-adv-x="2142" 
d="M2083 788q0 -240 -160 -384t-428 -144h-217v234q-47 -124 -136.5 -192.5t-217.5 -68.5q-182 0 -294 121.5t-112 317.5q0 197 111.5 317.5t294.5 120.5q130 0 219 -66.5t135 -187.5v229h377v-645q92 35 143 126t51 220q0 250 -200 398.5t-535 148.5q-367 0 -585 -185
t-218 -497q0 -290 215.5 -461.5t579.5 -171.5q174 0 360 39.5t301 100.5v-217q-120 -56 -306 -90.5t-365 -34.5q-309 0 -543 102.5t-360.5 291t-126.5 437.5q0 266 128.5 467.5t366.5 311.5t553 110q291 0 511 -92t339 -262t119 -394zM891 672q0 -72 42.5 -116t108.5 -44
q69 0 131 46.5t82 113.5q-20 68 -81.5 113.5t-131.5 45.5q-67 0 -109 -44t-42 -115z" />
    <glyph glyph-name="A" unicode="A" horiz-adv-x="1959" 
d="M700 1536h560l698 -1536h-453l-129 295h-792l-129 -295h-453zM731 637h498l-248 575z" />
    <glyph glyph-name="B" unicode="B" horiz-adv-x="1808" 
d="M1411 809q164 -39 248 -137t84 -240q0 -194 -132.5 -313t-379.5 -119h-1135v1536h1094q213 0 331.5 -99.5t118.5 -275.5q0 -113 -56 -205.5t-173 -146.5zM516 643v-346h600q92 0 143.5 45t51.5 125t-57 128t-162 48h-576zM516 1239v-305h518q76 0 125 45t49 119
q0 63 -44 102t-122 39h-526z" />
    <glyph glyph-name="C" unicode="C" horiz-adv-x="1912" 
d="M1423 643h426q-23 -202 -139 -355t-307.5 -237t-433.5 -84q-266 0 -469 100t-313.5 282t-110.5 419t110.5 419t313.5 282t469 100q242 0 433.5 -84t307.5 -237t139 -355h-426q-31 146 -149 227.5t-305 81.5q-215 0 -339 -116.5t-124 -317.5t124 -317.5t339 -116.5
q189 0 306 79.5t148 229.5z" />
    <glyph glyph-name="D" unicode="D" horiz-adv-x="1896" 
d="M143 1536h766q271 0 478 -95t320.5 -269.5t113.5 -403.5t-113.5 -403.5t-320.5 -269.5t-478 -95h-766v1536zM565 1159v-782h377q206 0 328.5 105.5t122.5 285.5t-122.5 285.5t-328.5 105.5h-377z" />
    <glyph glyph-name="E" unicode="E" horiz-adv-x="1626" 
d="M520 1192v-270h936v-308h-936v-270h1004v-344h-1428v1536h1417v-344h-993z" />
    <glyph glyph-name="F" unicode="F" horiz-adv-x="1579" 
d="M143 1536h1360v-358h-936v-271h897v-358h-897v-549h-424v1536z" />
    <glyph glyph-name="G" unicode="G" horiz-adv-x="1974" 
d="M1008 311q159 0 277.5 47.5t182.5 137.5h-419v299h815v-795h-301l-21 207q-99 -113 -249.5 -176.5t-346.5 -63.5q-181 0 -338.5 53.5t-275.5 153.5t-186 253t-68 341t68 341t188.5 253t282.5 153.5t352 53.5q186 0 341 -44.5t264.5 -125.5t179.5 -191t95 -243h-428
q-31 116 -151.5 182.5t-298.5 66.5q-219 0 -343 -114.5t-124 -331.5q0 -222 134 -339.5t370 -117.5z" />
    <glyph glyph-name="H" unicode="H" horiz-adv-x="1921" 
d="M143 0v1536h424v-567h785v567h426v-1536h-426v592h-785v-592h-424z" />
    <glyph glyph-name="I" unicode="I" horiz-adv-x="710" 
d="M143 0v1536h424v-1536h-424z" />
    <glyph glyph-name="J" unicode="J" horiz-adv-x="1650" 
d="M39 672l-2 84h416v-51q0 -187 76 -279t247 -92q326 0 326 338v864h424v-887q0 -316 -205 -499t-545 -183q-336 0 -536.5 189t-200.5 516z" />
    <glyph glyph-name="K" unicode="K" horiz-adv-x="1873" 
d="M565 0h-422v1536h422v-567h346l473 567h469l-624 -727l645 -809h-502l-463 592h-344v-592z" />
    <glyph glyph-name="L" unicode="L" horiz-adv-x="1564" 
d="M143 1536h424v-1159h959v-377h-1383v1536z" />
    <glyph glyph-name="M" unicode="M" horiz-adv-x="2531" 
d="M1733 1536h655v-1536h-403v1163l-504 -1163h-430l-504 1161v-1161h-404v1536h656l469 -1122z" />
    <glyph glyph-name="N" unicode="N" horiz-adv-x="1990" 
d="M692 1536l744 -1055v1055h411v-1536h-534l-758 1079v-1079h-412v1536h549z" />
    <glyph glyph-name="O" unicode="O" horiz-adv-x="1976" 
d="M987 -33q-270 0 -477 100t-320.5 282t-113.5 419t113.5 419t320.5 282t477 100q271 0 478.5 -100t321.5 -282t114 -419t-114 -419t-321.5 -282t-478.5 -100zM987 346q224 0 353.5 113t129.5 309t-129.5 309t-353.5 113q-223 0 -353 -113t-130 -309t130 -309t353 -113z
" />
    <glyph glyph-name="P" unicode="P" horiz-adv-x="1667" 
d="M143 1536h863q288 0 454 -144.5t166 -385.5q0 -240 -166.5 -384.5t-453.5 -144.5h-439v-477h-424v1536zM567 817h412q103 0 160 50t57 139t-57 139.5t-160 50.5h-412v-379z" />
    <glyph glyph-name="Q" unicode="Q" horiz-adv-x="1976" 
d="M1380 -115l-102 115q-129 -33 -291 -33q-270 0 -477 100t-320.5 282t-113.5 419t113.5 419t320.5 282t477 100q271 0 478.5 -100t321.5 -282t114 -419q0 -182 -68.5 -333.5t-196.5 -258.5l262 -291h-518zM1231 625l131 -146q108 108 108 289q0 196 -129.5 309t-353.5 113
q-223 0 -353 -113t-130 -309q0 -192 125 -304.5t342 -117.5l-248 279h508z" />
    <glyph glyph-name="R" unicode="R" horiz-adv-x="1740" 
d="M1202 0l-411 553h-224v-553h-424v1536h912q263 0 424 -136t161 -358q0 -174 -104 -297.5t-285 -169.5l443 -575h-492zM567 864h428q102 0 159.5 47t57.5 131t-57.5 131.5t-159.5 47.5h-428v-357z" />
    <glyph glyph-name="S" unicode="S" horiz-adv-x="1726" 
d="M74 504h432q14 -97 116.5 -153t270.5 -56q157 0 246.5 41t89.5 117q0 61 -54 93.5t-194 45.5l-287 26q-314 29 -459 142.5t-145 314.5q0 234 202.5 364t547.5 130q333 0 547 -139.5t229 -366.5h-430q-12 83 -105 130.5t-250 47.5q-147 0 -229 -38.5t-82 -110.5
q0 -56 52 -87t180 -44l305 -31q325 -31 462.5 -130.5t137.5 -297.5q0 -242 -212 -388.5t-560 -146.5q-358 0 -580.5 147.5t-230.5 389.5z" />
    <glyph glyph-name="T" unicode="T" horiz-adv-x="1675" 
d="M625 0v1159h-586v377h1597v-377h-585v-1159h-426z" />
    <glyph glyph-name="U" unicode="U" horiz-adv-x="1798" 
d="M547 1536v-850q0 -161 90.5 -250.5t261.5 -89.5t260.5 89.5t89.5 250.5v850h426v-870q0 -208 -96.5 -367t-273 -245.5t-406.5 -86.5t-406.5 86.5t-273 245.5t-96.5 367v870h424z" />
    <glyph glyph-name="V" unicode="V" horiz-adv-x="1914" 
d="M457 1536l506 -1141l501 1141h449l-715 -1536h-481l-715 1536h455z" />
    <glyph glyph-name="W" unicode="W" horiz-adv-x="2785" 
d="M1618 1536l377 -1139l321 1139h449l-467 -1536h-547l-358 1055l-359 -1055h-545l-469 1536h451l322 -1139l376 1139h449z" />
    <glyph glyph-name="X" unicode="X" horiz-adv-x="1781" 
d="M1761 1536l-604 -737l647 -799h-522l-393 510l-395 -510h-517l654 799l-608 737h530l346 -446l340 446h522z" />
    <glyph glyph-name="Y" unicode="Y" horiz-adv-x="1890" 
d="M1159 0h-426v618l-721 918h471l461 -588l461 588h471l-717 -911v-625z" />
    <glyph glyph-name="Z" unicode="Z" horiz-adv-x="1654" 
d="M1569 0h-1483v307l911 897h-905v334h1471v-307l-912 -897h918v-334z" />
    <glyph glyph-name="bracketleft" unicode="[" horiz-adv-x="886" 
d="M135 1536h682v-309h-293v-1143h293v-309h-682v1761z" />
    <glyph glyph-name="backslash" unicode="\" horiz-adv-x="940" 
d="M338 1591l573 -1646h-311l-573 1646h311z" />
    <glyph glyph-name="bracketright" unicode="]" horiz-adv-x="886" 
d="M70 1536h682v-1761h-682v309h292v1143h-292v309z" />
    <glyph glyph-name="asciicircum" unicode="^" horiz-adv-x="1269" 
d="M1217 768h-340l-242 442l-242 -442h-340l432 768h299z" />
    <glyph glyph-name="underscore" unicode="_" horiz-adv-x="987" 
d="M-70 -342v281h1127v-281h-1127z" />
    <glyph glyph-name="grave" unicode="`" horiz-adv-x="765" 
d="M457 1671l258 -387h-387l-277 387h406z" />
    <glyph glyph-name="a" unicode="a" horiz-adv-x="1513" 
d="M1016 0v143q-81 -78 -199.5 -127t-259.5 -49q-144 0 -257 45.5t-179 134t-66 205.5q0 175 139.5 275.5t362.5 111.5q31 2 88 2q198 0 322 -43q23 -6 47 -16q-25 205 -379 205q-265 0 -483 -111v303q270 125 585 125q109 0 207 -18t186.5 -58.5t152.5 -101t102 -151
t38 -201.5v-674h-407zM1016 479q-78 37 -266 37q-322 0 -322 -139q0 -65 66.5 -104.5t175.5 -39.5q60 0 120 15.5t111 45t83 77.5t32 108z" />
    <glyph glyph-name="b" unicode="b" horiz-adv-x="1667" 
d="M115 0v1577h420v-631q86 124 211.5 191t277.5 67q259 0 419.5 -170.5t160.5 -449.5q0 -276 -160.5 -446.5t-419.5 -170.5q-153 0 -278 67.5t-211 192.5v-227h-420zM1180 584q0 131 -79 216t-202 85q-126 0 -232 -84.5t-149 -216.5q43 -130 149 -213.5t232 -83.5
q123 0 202 84t79 213z" />
    <glyph glyph-name="c" unicode="c" horiz-adv-x="1560" 
d="M1094 494h415q-26 -235 -227 -381t-494 -146q-324 0 -525.5 171t-201.5 446q0 182 91 323t257 219t379 78q293 0 494 -146t227 -382h-415q-23 103 -104.5 160t-201.5 57q-141 0 -223 -81t-82 -228q0 -146 82 -227t223 -81q118 0 201 59.5t105 158.5z" />
    <glyph glyph-name="d" unicode="d" horiz-adv-x="1695" 
d="M1554 1577v-1577h-419v227q-86 -125 -211.5 -192.5t-278.5 -67.5q-258 0 -418.5 170.5t-160.5 446.5q0 279 160 449.5t419 170.5q154 0 279 -67t211 -191v631h419zM489 584q0 -129 79 -213t202 -84q126 0 232 83.5t149 213.5q-43 132 -149 216.5t-232 84.5
q-123 0 -202 -85t-79 -216z" />
    <glyph glyph-name="e" unicode="e" horiz-adv-x="1503" 
d="M801 -33q-212 0 -380 77t-264 219.5t-96 326.5q0 180 92 320.5t253 217t364 76.5q312 0 491 -199.5t179 -539.5h-924q89 -191 404 -191q129 0 257 33.5t232 95.5v-266q-253 -170 -608 -170zM780 909q-107 0 -181 -51.5t-101 -140.5h553q-29 93 -99 142.5t-172 49.5z" />
    <glyph glyph-name="f" unicode="f" horiz-adv-x="1206" 
d="M1178 764h-478v-764h-417v764h-238v309h238v2q0 258 156.5 396.5t455.5 138.5q153 0 311 -47v-308q-122 43 -260 43q-136 0 -191 -47t-55 -155v-23h478v-309z" />
    <glyph glyph-name="g" unicode="g" horiz-adv-x="1665" 
d="M635 123q-250 0 -412 149.5t-162 391.5t162 391t412 149q154 0 281.5 -62t220.5 -163v190h417v-858q0 -213 -100 -368t-280 -234.5t-422 -79.5q-160 0 -298.5 40.5t-277.5 125.5v316q243 -179 549 -179q204 0 308 88t104 275v41q-92 -96 -219.5 -154.5t-282.5 -58.5z
M776 408q244 0 375 256q-132 256 -375 256q-135 0 -214 -69t-79 -187t78 -187t215 -69z" />
    <glyph glyph-name="h" unicode="h" horiz-adv-x="1595" 
d="M115 0v1577h420v-592q76 106 187 162.5t241 56.5q251 0 391.5 -147.5t140.5 -401.5v-655h-420v594q0 130 -66.5 200t-191.5 70q-130 0 -206 -81.5t-76 -219.5v-563h-420z" />
    <glyph glyph-name="i" unicode="i" horiz-adv-x="649" 
d="M115 0v1188h420v-1188h-420zM324 1284q-110 0 -177 55t-67 148t67 148t177 55q111 0 178 -55t67 -148t-67 -148t-178 -55z" />
    <glyph glyph-name="j" unicode="j" horiz-adv-x="788" 
d="M666 1188v-1067q0 -234 -139.5 -363t-422.5 -129q-204 0 -370 60v315q119 -55 274 -55q135 0 186.5 50t51.5 179v1010h420zM455 1284q-110 0 -177 55t-67 148t67 148t177 55q111 0 178 -55t67 -148t-67 -148t-178 -55z" />
    <glyph glyph-name="k" unicode="k" horiz-adv-x="1521" 
d="M535 0h-420v1577h420v-823h217l348 415h452l-485 -546l518 -623h-481l-354 442h-215v-442z" />
    <glyph glyph-name="l" unicode="l" horiz-adv-x="649" 
d="M115 0v1577h420v-1577h-420z" />
    <glyph glyph-name="m" unicode="m" horiz-adv-x="2473" 
d="M1866 1204q241 0 374.5 -147t133.5 -402v-655h-418v594q0 131 -60 200.5t-172 69.5q-121 0 -190.5 -81t-69.5 -220v-563h-417v594q0 131 -60 200.5t-172 69.5q-121 0 -190.5 -81t-69.5 -220v-563h-418v1169h418v-178q75 104 178.5 158.5t224.5 54.5q168 0 286.5 -75.5
t174.5 -213.5q71 139 188.5 214t258.5 75z" />
    <glyph glyph-name="n" unicode="n" horiz-adv-x="1615" 
d="M985 1204q251 0 391 -147.5t140 -401.5v-655h-418v594q0 130 -66.5 200t-191.5 70q-132 0 -208.5 -81.5t-76.5 -219.5v-563h-418v1169h418v-186q77 108 188.5 164.5t241.5 56.5z" />
    <glyph glyph-name="o" unicode="o" horiz-adv-x="1622" 
d="M811 -33q-222 0 -392.5 77t-264 217t-93.5 323q0 279 206.5 449.5t543.5 170.5t543.5 -170.5t206.5 -449.5q0 -183 -93.5 -323t-264 -217t-392.5 -77zM811 276q153 0 239.5 82.5t86.5 225.5q0 145 -86.5 227t-239.5 82q-154 0 -241 -82t-87 -227q0 -143 87.5 -225.5
t240.5 -82.5z" />
    <glyph glyph-name="p" unicode="p" 
d="M115 -338v1507h420v-223q86 124 211.5 191t277.5 67q259 0 419.5 -170.5t160.5 -449.5q0 -276 -160.5 -446.5t-419.5 -170.5q-153 0 -278 67.5t-211 192.5v-565h-420zM1180 584q0 131 -79 216t-202 85q-126 0 -232 -84.5t-149 -216.5q43 -130 149 -213.5t232 -83.5
q123 0 202 84t79 213z" />
    <glyph glyph-name="q" unicode="q" 
d="M1554 1169v-1507h-419v565q-86 -125 -211.5 -192.5t-278.5 -67.5q-258 0 -418.5 170.5t-160.5 446.5q0 279 160 449.5t419 170.5q153 0 279 -67t211 -191v223h419zM489 584q0 -129 79 -213t202 -84q126 0 232 83.5t149 213.5q-43 132 -149 216.5t-232 84.5
q-123 0 -202 -85t-79 -216z" />
    <glyph glyph-name="r" unicode="r" horiz-adv-x="1132" 
d="M1104 1188v-357q-115 23 -215 23q-71 0 -129.5 -20.5t-105.5 -63.5t-73 -116.5t-26 -172.5v-481h-418v1169h418v-260q125 295 403 295q68 0 146 -16z" />
    <glyph glyph-name="s" unicode="s" horiz-adv-x="1531" 
d="M1470 381q0 -200 -179 -307t-500 -107q-329 0 -530 116.5t-210 309.5h424q21 -71 106 -110t228 -39q254 0 254 98q0 40 -49 59.5t-168 28.5l-207 16q-154 11 -263 40.5t-173 77t-92.5 107.5t-28.5 138q0 193 178 294t483 101q195 0 350 -50.5t247.5 -143t105.5 -213.5
h-424q-16 62 -90.5 102.5t-208.5 40.5q-112 0 -170.5 -24.5t-58.5 -69.5q0 -37 37 -57t133 -27l272 -21q150 -11 254 -39t165.5 -74t88 -106t26.5 -141z" />
    <glyph glyph-name="t" unicode="t" horiz-adv-x="1234" 
d="M250 860h-238v182l238 97l180 346h238v-316h491v-309h-491v-344q0 -129 51 -179t186 -50q159 0 275 55v-315q-163 -60 -369 -60q-284 0 -422.5 128.5t-138.5 363.5v401z" />
    <glyph glyph-name="u" unicode="u" horiz-adv-x="1591" 
d="M1454 0h-418v184q-76 -106 -184 -161.5t-234 -55.5q-244 0 -381 147.5t-137 401.5v653h418v-594q0 -129 64 -198.5t182 -69.5q130 0 201 79t71 222v561h418v-1169z" />
    <glyph glyph-name="v" unicode="v" horiz-adv-x="1574" 
d="M465 1169l328 -798l333 798h447l-547 -1169h-477l-547 1169h463z" />
    <glyph glyph-name="w" unicode="w" horiz-adv-x="2334" 
d="M1370 1169l275 -753l268 753h418l-439 -1169h-426l-297 786l-301 -786h-426l-438 1169h422l266 -751l279 751h399z" />
    <glyph glyph-name="x" unicode="x" horiz-adv-x="1472" 
d="M442 0h-467l492 594l-461 575h465l268 -327l269 327h458l-469 -571l502 -598h-475l-293 354z" />
    <glyph glyph-name="y" unicode="y" horiz-adv-x="1591" 
d="M500 -371q-129 0 -229.5 30.5t-194.5 98.5v291q98 -62 181 -88.5t183 -26.5q91 0 154 38.5t102 133.5l2 3h-184l-498 1060h461l332 -798l336 798h444l-561 -1192q-58 -125 -146 -205t-181 -111.5t-201 -31.5z" />
    <glyph glyph-name="z" unicode="z" horiz-adv-x="1421" 
d="M1341 0h-1263v291l737 579h-731v299h1253v-290l-735 -578h739v-301z" />
    <glyph glyph-name="braceleft" unicode="{" horiz-adv-x="966" 
d="M895 1536v-295h-223q-47 0 -66 -28.5t-6 -79.5l51 -179q39 -125 -9 -203t-165 -96q117 -18 165 -96t9 -203l-51 -178q-13 -51 6 -79.5t66 -28.5h223v-295h-414q-165 0 -242.5 109.5t-23.5 260.5l84 246q19 56 -8 90.5t-86 34.5h-142v279h142q59 0 86 34.5t8 90.5l-84 245
q-29 75 -20 142.5t43 118.5t98 80.5t145 29.5h414z" />
    <glyph glyph-name="bar" unicode="|" horiz-adv-x="641" 
d="M143 -201v1737h355v-1737h-355z" />
    <glyph glyph-name="braceright" unicode="}" horiz-adv-x="966" 
d="M72 1241v295h413q165 0 243 -110t24 -261l-84 -245q-19 -56 8 -90.5t86 -34.5h141v-279h-141q-59 0 -86 -34.5t-8 -90.5l84 -246q54 -151 -24 -260.5t-243 -109.5h-413v295h223q47 0 66 28.5t6 79.5l-52 178q-39 125 9 203t165 96q-117 18 -165 96t-9 203l52 179
q13 51 -6 79.5t-66 28.5h-223z" />
    <glyph glyph-name="asciitilde" unicode="~" horiz-adv-x="1269" 
d="M61 539v290q158 76 340 76q90 0 233.5 -34.5t233.5 -34.5q184 0 340 75v-290q-158 -76 -340 -76q-90 0 -233.5 34.5t-233.5 34.5q-184 0 -340 -75z" />
    <glyph glyph-name="uni00A0" unicode="&#xa0;" horiz-adv-x="507" 
 />
    <glyph glyph-name="exclamdown" unicode="&#xa1;" horiz-adv-x="643" 
d="M471 676l70 -993h-437l70 993h297zM322 1239q104 0 168.5 -59t64.5 -156t-64.5 -157t-168.5 -60q-103 0 -167.5 60t-64.5 157q0 96 64.5 155.5t167.5 59.5z" />
    <glyph glyph-name="cent" unicode="&#xa2;" horiz-adv-x="1615" 
d="M692 -176v151q-266 32 -427 197t-161 410q0 246 160.5 412t427.5 200v149h232v-149q244 -28 405.5 -166.5t186.5 -345.5h-388q-17 80 -70 135.5t-134 77.5v-623q79 24 133 79.5t71 133.5h388q-23 -204 -184.5 -344t-407.5 -168v-149h-232zM489 582q0 -118 53.5 -197.5
t149.5 -110.5v619q-96 -31 -149.5 -111.5t-53.5 -199.5z" />
    <glyph glyph-name="sterling" unicode="&#xa3;" horiz-adv-x="1671" 
d="M94 594v278h199q-82 110 -82 250q0 201 186 324t488 123q300 0 492 -136t204 -358h-418q-15 86 -86.5 135.5t-181.5 49.5q-120 0 -188 -47t-68 -132q0 -42 19 -82.5t40.5 -65t59.5 -61.5h585v-278h-436q-7 -91 -74.5 -167.5t-177.5 -127.5h949v-299h-1506v344
q199 30 297.5 84t98.5 141v25h-400z" />
    <glyph glyph-name="currency" unicode="&#xa4;" horiz-adv-x="1492" 
d="M1411 362l-135 -139l-162 129q-149 -84 -369 -84q-216 0 -368 84l-160 -129l-137 139l145 130q-75 113 -75 264t75 264l-145 129l137 139l160 -129q152 84 368 84q220 0 369 -84l162 129l135 -155l-143 -115q73 -110 73 -262q0 -155 -75 -264zM745 555q136 0 199.5 50.5
t63.5 150.5t-63.5 150t-199.5 50q-135 0 -198.5 -50t-63.5 -150q0 -201 262 -201z" />
    <glyph glyph-name="yen" unicode="&#xa5;" horiz-adv-x="1798" 
d="M178 608v242h352l-487 686h467l389 -571l389 571h467l-489 -686h358v-242h-512v-102h512v-242h-512v-264h-424v264h-510v242h510v102h-510z" />
    <glyph glyph-name="brokenbar" unicode="&#xa6;" horiz-adv-x="641" 
d="M143 -201v699h355v-699h-355zM498 1536v-698h-355v698h355z" />
    <glyph glyph-name="section" unicode="&#xa7;" horiz-adv-x="1806" 
d="M926 -299q-179 0 -324 36t-235.5 97t-140.5 137t-56 160h418q10 -74 96 -122t248 -48q131 0 196.5 33t65.5 84q0 43 -37.5 69.5t-130.5 53.5l-473 118q-234 60 -345.5 147t-111.5 222q0 84 50.5 148.5t152.5 101.5q-121 86 -121 244q0 81 43 150t127 122.5t220.5 84
t310.5 30.5q145 0 267.5 -23.5t209 -64t149 -95.5t94 -116.5t37.5 -128.5h-419q-10 73 -96.5 121.5t-248.5 48.5q-131 0 -196.5 -33t-65.5 -84q0 -45 37.5 -71.5t130.5 -51.5l473 -121q251 -63 354 -145.5t103 -220.5q0 -175 -201 -250q119 -85 119 -246q0 -80 -43 -149
t-126.5 -122.5t-220 -84.5t-310.5 -31zM639 805q-96 26 -141 41q-37 -37 -37 -86q0 -60 49 -96t162 -68l495 -131q2 0 140 -39q39 36 39 84q0 62 -49.5 97.5t-163.5 66.5z" />
    <glyph glyph-name="dieresis" unicode="&#xa8;" horiz-adv-x="1232" 
d="M303 1284q-104 0 -165.5 52t-61.5 143q0 87 62 138.5t165 51.5t165 -51.5t62 -138.5q0 -91 -61.5 -143t-165.5 -52zM930 1284q-104 0 -166 52t-62 143q0 87 62.5 138.5t165.5 51.5t164 -51t61 -139q0 -91 -60.5 -143t-164.5 -52z" />
    <glyph glyph-name="copyright" unicode="&#xa9;" horiz-adv-x="1847" 
d="M924 -33q-168 0 -318.5 60.5t-260.5 165t-174.5 254.5t-64.5 321q0 172 64.5 322t175 254.5t261 164.5t317.5 60q225 0 411.5 -102t296 -286t109.5 -413q0 -171 -64.5 -321t-174 -254.5t-260 -165t-318.5 -60.5zM1151 705h293q-22 -190 -163 -305t-355 -115
q-235 0 -377.5 133.5t-142.5 353.5t142.5 354t377.5 134q215 0 355.5 -114.5t162.5 -305.5h-293q-15 83 -73.5 127.5t-151.5 44.5q-106 0 -166 -65t-60 -175t60 -175t166 -65q95 0 152.5 44.5t72.5 128.5zM924 121q180 0 328.5 81t235.5 230t87 336t-87 336t-235.5 230
t-328.5 81t-328.5 -81t-236 -230t-87.5 -336t87.5 -336t236 -230t328.5 -81z" />
    <glyph glyph-name="ordfeminine" unicode="&#xaa;" horiz-adv-x="1398" 
d="M1292 623h-370v206q-64 -111 -167 -173t-231 -62q-200 0 -324 132t-124 347q0 217 124 349t324 132q129 0 231.5 -61.5t166.5 -171.5v205h370v-903zM436 1073q0 -89 55.5 -147t141.5 -58q91 0 167 57.5t107 147.5q-31 91 -107.5 149t-166.5 58q-87 0 -142 -58t-55 -149z
" />
    <glyph glyph-name="guillemotleft" unicode="&#xab;" horiz-adv-x="1499" 
d="M82 633l301 491h426l-311 -491l311 -490h-426zM690 633l301 491h426l-311 -491l311 -490h-426z" />
    <glyph glyph-name="logicalnot" unicode="&#xac;" horiz-adv-x="1269" 
d="M1198 369h-301v411h-846v303h1147v-714z" />
    <glyph glyph-name="uni00AD" unicode="&#xad;" horiz-adv-x="759" 
d="M111 551v330h538v-330h-538z" />
    <glyph glyph-name="registered" unicode="&#xae;" horiz-adv-x="1622" 
d="M811 276q-150 0 -280.5 49t-223 134.5t-145.5 206t-53 258.5q0 183 90 330.5t251 231t361 83.5t361 -83.5t251 -231t90 -330.5q0 -138 -53 -258.5t-145.5 -206t-223 -134.5t-280.5 -49zM811 418q246 0 397.5 141.5t151.5 364.5q0 221 -151.5 361t-397.5 140t-397.5 -140
t-151.5 -361q0 -223 151.5 -364.5t397.5 -141.5zM489 565v723h383q123 0 200 -65.5t77 -171.5q0 -75 -41 -131t-113 -82l176 -273h-235l-141 252h-103v-252h-203zM692 1130v-159h164q41 0 64.5 21.5t23.5 58.5q0 38 -23 58.5t-65 20.5h-164z" />
    <glyph glyph-name="macron" unicode="&#xaf;" horiz-adv-x="1075" 
d="M1059 1335h-998v250h998v-250z" />
    <glyph glyph-name="degree" unicode="&#xb0;" horiz-adv-x="960" 
d="M481 913q-172 0 -280.5 90t-108.5 232q0 141 108.5 230t280.5 89q170 0 278.5 -89t108.5 -230q0 -142 -108.5 -232t-278.5 -90zM481 1083q75 0 114.5 39t39.5 113t-39.5 112.5t-114.5 38.5q-76 0 -115.5 -38.5t-39.5 -112.5t39.5 -113t115.5 -39z" />
    <glyph glyph-name="plusminus" unicode="&#xb1;" horiz-adv-x="1269" 
d="M786 459h-303v272h-422v289h422v274h303v-274h422v-289h-422v-272zM61 61v287h1147v-287h-1147z" />
    <glyph glyph-name="twosuperior" unicode="&#xb2;" horiz-adv-x="1118" 
d="M387 1427h-305q13 150 148 251.5t358 101.5q196 0 312 -83.5t116 -221.5q0 -114 -75 -193t-234 -156l-113 -53h428v-235h-932v182l373 203q133 71 187.5 117t54.5 98q0 44 -38 70t-106 26q-76 0 -120 -30t-54 -77z" />
    <glyph glyph-name="threesuperior" unicode="&#xb3;" horiz-adv-x="1167" 
d="M375 1423h-303q12 163 151.5 260t386.5 97q223 0 346 -73.5t123 -197.5q0 -148 -184 -198q111 -21 158 -71.5t47 -127.5q0 -133 -126 -214t-376 -81q-253 0 -400.5 100.5t-152.5 264.5h303q16 -129 227 -129q102 0 147.5 18t45.5 62q0 36 -32.5 52.5t-114.5 16.5h-146
v189h146q131 0 131 75q0 76 -164 76q-101 0 -154 -31.5t-59 -87.5z" />
    <glyph glyph-name="acute" unicode="&#xb4;" horiz-adv-x="765" 
d="M51 1284l258 387h406l-277 -387h-387z" />
    <glyph glyph-name="paragraph" unicode="&#xb6;" 
d="M512 1536h578v-1536h-302v637h-276q-204 0 -334.5 126t-130.5 324t130.5 323.5t334.5 125.5zM1520 0h-301v1536h301v-1536z" />
    <glyph glyph-name="periodcentered" unicode="&#xb7;" horiz-adv-x="632" 
d="M315 518q-100 0 -167.5 68t-67.5 168q0 99 68 167t167 68t167.5 -68.5t68.5 -166.5q0 -100 -68 -168t-168 -68z" />
    <glyph glyph-name="cedilla" unicode="&#xb8;" horiz-adv-x="880" 
d="M164 -229l168 262h207l-84 -125q58 8 94 8q137 0 209.5 -52.5t72.5 -146.5q0 -100 -97.5 -163.5t-274.5 -63.5q-159 0 -268 60.5t-142 162.5h250q38 -59 160 -59q64 0 98.5 19.5t34.5 52.5q0 30 -28.5 48.5t-86.5 18.5q-64 0 -106 -22h-207z" />
    <glyph glyph-name="onesuperior" unicode="&#xb9;" horiz-adv-x="933" 
d="M434 1761h228v-688h221v-235h-785v235h277v424l-264 -39v240z" />
    <glyph glyph-name="ordmasculine" unicode="&#xba;" horiz-adv-x="1320" 
d="M659 594q-264 0 -426.5 132t-162.5 347q0 216 162.5 348.5t426.5 132.5q265 0 428.5 -132t163.5 -349q0 -215 -164 -347t-428 -132zM659 860q108 0 169 56.5t61 156.5q0 102 -61 158.5t-169 56.5t-167.5 -56.5t-59.5 -158.5q0 -100 60 -156.5t167 -56.5z" />
    <glyph glyph-name="guillemotright" unicode="&#xbb;" horiz-adv-x="1499" 
d="M1116 1124l301 -491l-301 -490h-426l311 490l-311 491h426zM508 1124l301 -491l-301 -490h-426l311 490l-311 491h426z" />
    <glyph glyph-name="onequarter" unicode="&#xbc;" horiz-adv-x="2332" 
d="M412 1536h227v-688h221v-236h-784v236h276v424l-264 -39v240zM623 0l835 1536h307l-837 -1536h-305zM1790 924h375v-557h133v-217h-133v-150h-285v150h-571v202zM1640 367h240v290z" />
    <glyph glyph-name="onehalf" unicode="&#xbd;" horiz-adv-x="2410" 
d="M1704 590h-305q13 150 148 251t358 101q196 0 312 -83.5t116 -221.5q0 -114 -75.5 -192t-234.5 -156l-112 -53h428v-236h-932v182l373 203q133 71 187 116.5t54 98.5q0 44 -37.5 70t-105.5 26q-76 0 -120 -29.5t-54 -76.5zM412 1536h227v-688h221v-236h-784v236h276v424
l-264 -39v240zM614 0l836 1536h307l-837 -1536h-306z" />
    <glyph glyph-name="threequarters" unicode="&#xbe;" horiz-adv-x="2543" 
d="M811 0l836 1536h307l-838 -1536h-305zM1991 924h374v-557h134v-217h-134v-150h-284v150h-572v202zM397 1200h-303q12 163 152 259.5t387 96.5q223 0 346 -73t123 -197q0 -149 -184 -199q111 -21 157.5 -71t46.5 -127q0 -133 -125.5 -214t-375.5 -81q-253 0 -400.5 100
t-152.5 264h303q16 -129 227 -129q102 0 147.5 18t45.5 62q0 37 -33 53.5t-115 16.5h-145v188h145q69 0 100 21.5t31 54.5q0 76 -164 76q-101 0 -154 -31.5t-59 -87.5zM1841 367h240v290z" />
    <glyph glyph-name="questiondown" unicode="&#xbf;" horiz-adv-x="1435" 
d="M748 1239q104 0 168.5 -59t64.5 -156t-64.5 -157t-168.5 -60q-103 0 -167.5 60t-64.5 157q0 96 64.5 155.5t167.5 59.5zM936 633q0 -96 -54 -167.5t-173 -127.5l-160 -72q-105 -51 -105 -127q0 -77 68.5 -121.5t194.5 -44.5q129 0 207 56t92 155h399
q-17 -252 -201.5 -393t-496.5 -141q-314 0 -489 124.5t-175 348.5q0 232 248 344l174 82q50 24 73 52t23 71v33h365q10 -34 10 -72z" />
    <glyph glyph-name="Agrave" unicode="&#xc0;" horiz-adv-x="1959" 
d="M700 1536h560l698 -1536h-453l-129 295h-792l-129 -295h-453zM911 1995l301 -344h-421l-355 344h475zM731 637h498l-248 575z" />
    <glyph glyph-name="Aacute" unicode="&#xc1;" horiz-adv-x="1959" 
d="M700 1536h560l698 -1536h-453l-129 295h-792l-129 -295h-453zM727 1651l301 344h475l-354 -344h-422zM731 637h498l-248 575z" />
    <glyph glyph-name="Acircumflex" unicode="&#xc2;" horiz-adv-x="1959" 
d="M700 1536h560l698 -1536h-453l-129 295h-792l-129 -295h-453zM449 1651l311 344h440l311 -344h-342l-190 139l-188 -139h-342zM731 637h498l-248 575z" />
    <glyph glyph-name="Atilde" unicode="&#xc3;" horiz-adv-x="1959" 
d="M700 1536h560l698 -1536h-453l-129 295h-792l-129 -295h-453zM692 1661h-270q47 350 360 350q64 0 138 -24t137 -48t102 -24q43 0 71.5 22t35.5 64h270q-47 -352 -358 -352q-65 0 -139.5 24.5t-138 49t-101.5 24.5q-43 0 -71.5 -22.5t-35.5 -63.5zM731 637h498l-248 575z
" />
    <glyph glyph-name="Adieresis" unicode="&#xc4;" horiz-adv-x="1959" 
d="M700 1536h560l698 -1536h-453l-129 295h-792l-129 -295h-453zM664 1649q-104 0 -166 52.5t-62 143.5q0 87 62 138t166 51q103 0 165 -51t62 -138q0 -91 -61.5 -143.5t-165.5 -52.5zM1298 1649q-104 0 -165.5 52.5t-61.5 143.5q0 87 62 138t165 51q104 0 166 -51t62 -138
q0 -91 -62 -143.5t-166 -52.5zM731 637h498l-248 575z" />
    <glyph glyph-name="Aring" unicode="&#xc5;" horiz-adv-x="1959" 
d="M700 1536h560l698 -1536h-453l-129 295h-792l-129 -295h-453zM731 637h498l-248 575zM979 1614q-193 0 -299.5 73t-106.5 205q0 134 106.5 207.5t299.5 73.5t300 -73.5t107 -207.5q0 -132 -107 -205t-300 -73zM979 1796q176 0 176 96q0 99 -176 99q-174 0 -174 -99
q0 -96 174 -96z" />
    <glyph glyph-name="AE" unicode="&#xc6;" horiz-adv-x="2578" 
d="M2396 614h-792l106 -270h784v-344h-1087l-111 295h-718l-117 -295h-453l643 1536h1805v-344h-1067l104 -270h903v-308zM713 637h456l-221 596z" />
    <glyph glyph-name="Ccedilla" unicode="&#xc7;" horiz-adv-x="1912" 
d="M705 -229l133 202q-348 37 -555 252t-207 543q0 237 110.5 419t313.5 282t469 100q242 0 433.5 -84t307.5 -237t139 -355h-426q-31 146 -149 227.5t-305 81.5q-215 0 -339 -116.5t-124 -317.5t124 -317.5t339 -116.5q189 0 306 79.5t148 229.5h426
q-34 -289 -251.5 -471.5t-555.5 -202.5l-34 -59q52 10 98 10q140 0 217.5 -54t77.5 -149q0 -105 -102.5 -169t-290.5 -64q-168 0 -280.5 60t-143.5 167h270q35 -55 154 -55q65 0 99 19.5t34 50.5q0 29 -28.5 46t-82.5 17q-72 0 -119 -18h-206z" />
    <glyph glyph-name="Egrave" unicode="&#xc8;" horiz-adv-x="1626" 
d="M520 1192v-270h936v-308h-936v-270h1004v-344h-1428v1536h1417v-344h-993zM750 1995l301 -344h-422l-355 344h476z" />
    <glyph glyph-name="Eacute" unicode="&#xc9;" horiz-adv-x="1626" 
d="M520 1192v-270h936v-308h-936v-270h1004v-344h-1428v1536h1417v-344h-993zM565 1651l301 344h475l-354 -344h-422z" />
    <glyph glyph-name="Ecircumflex" unicode="&#xca;" horiz-adv-x="1626" 
d="M520 1192v-270h936v-308h-936v-270h1004v-344h-1428v1536h1417v-344h-993zM287 1651l311 344h440l312 -344h-342l-191 139l-188 -139h-342z" />
    <glyph glyph-name="Edieresis" unicode="&#xcb;" horiz-adv-x="1626" 
d="M520 1192v-270h936v-308h-936v-270h1004v-344h-1428v1536h1417v-344h-993zM502 1649q-104 0 -166 52.5t-62 143.5q0 87 62 138t166 51q103 0 165 -51t62 -138q0 -91 -61.5 -143.5t-165.5 -52.5zM1137 1649q-104 0 -166 52.5t-62 143.5q0 87 62.5 138t165.5 51t165 -51
t62 -138q0 -91 -61.5 -143.5t-165.5 -52.5z" />
    <glyph glyph-name="Igrave" unicode="&#xcc;" horiz-adv-x="710" 
d="M143 0v1536h424v-1536h-424zM285 1995l301 -344h-422l-354 344h475z" />
    <glyph glyph-name="Iacute" unicode="&#xcd;" horiz-adv-x="710" 
d="M143 0v1536h424v-1536h-424zM100 1651l301 344h476l-355 -344h-422z" />
    <glyph glyph-name="Icircumflex" unicode="&#xce;" horiz-adv-x="710" 
d="M143 0v1536h424v-1536h-424zM-84 1651l225 344h428l226 -344h-293l-146 153l-145 -153h-295z" />
    <glyph glyph-name="Idieresis" unicode="&#xcf;" horiz-adv-x="710" 
d="M143 0v1536h424v-1536h-424zM129 1649q-88 0 -137 50.5t-49 141.5q0 92 49 142.5t137 50.5t137 -50.5t49 -142.5q0 -91 -49 -141.5t-137 -50.5zM584 1649q-88 0 -137.5 50.5t-49.5 141.5q0 92 49.5 142.5t137.5 50.5t137 -50.5t49 -142.5q0 -91 -49 -141.5t-137 -50.5z
" />
    <glyph glyph-name="Eth" unicode="&#xd0;" horiz-adv-x="1947" 
d="M55 629v282h140v625h766q271 0 478 -95t320 -269.5t113 -403.5t-113 -403.5t-320 -269.5t-478 -95h-766v629h-140zM616 1159v-248h349v-282h-349v-252h377q206 0 328.5 105.5t122.5 285.5t-122.5 285.5t-328.5 105.5h-377z" />
    <glyph glyph-name="Ntilde" unicode="&#xd1;" horiz-adv-x="1990" 
d="M692 1536l744 -1055v1055h411v-1536h-534l-758 1079v-1079h-412v1536h549zM735 1661h-270q47 350 360 350q64 0 138 -24t137.5 -48t101.5 -24q43 0 71.5 22t35.5 64h270q-47 -352 -358 -352q-65 0 -139.5 24.5t-138 49t-101.5 24.5q-43 0 -71.5 -22.5t-35.5 -63.5z" />
    <glyph glyph-name="Ograve" unicode="&#xd2;" horiz-adv-x="1976" 
d="M987 -33q-270 0 -477 100t-320.5 282t-113.5 419t113.5 419t320.5 282t477 100q271 0 478.5 -100t321.5 -282t114 -419t-114 -419t-321.5 -282t-478.5 -100zM918 1995l301 -344h-422l-355 344h476zM987 346q224 0 353.5 113t129.5 309t-129.5 309t-353.5 113
q-223 0 -353 -113t-130 -309t130 -309t353 -113z" />
    <glyph glyph-name="Oacute" unicode="&#xd3;" horiz-adv-x="1976" 
d="M987 -33q-270 0 -477 100t-320.5 282t-113.5 419t113.5 419t320.5 282t477 100q271 0 478.5 -100t321.5 -282t114 -419t-114 -419t-321.5 -282t-478.5 -100zM733 1651l301 344h475l-354 -344h-422zM987 346q224 0 353.5 113t129.5 309t-129.5 309t-353.5 113
q-223 0 -353 -113t-130 -309t130 -309t353 -113z" />
    <glyph glyph-name="Ocircumflex" unicode="&#xd4;" horiz-adv-x="1976" 
d="M987 -33q-270 0 -477 100t-320.5 282t-113.5 419t113.5 419t320.5 282t477 100q271 0 478.5 -100t321.5 -282t114 -419t-114 -419t-321.5 -282t-478.5 -100zM457 1651l311 344h440l312 -344h-342l-191 139l-188 -139h-342zM987 346q224 0 353.5 113t129.5 309t-129.5 309
t-353.5 113q-223 0 -353 -113t-130 -309t130 -309t353 -113z" />
    <glyph glyph-name="Otilde" unicode="&#xd5;" horiz-adv-x="1976" 
d="M987 -33q-270 0 -477 100t-320.5 282t-113.5 419t113.5 419t320.5 282t477 100q271 0 478.5 -100t321.5 -282t114 -419t-114 -419t-321.5 -282t-478.5 -100zM700 1661h-270q47 350 361 350q64 0 137.5 -24t137 -48t101.5 -24q43 0 71.5 22t35.5 64h270
q-47 -352 -358 -352q-65 0 -139.5 24.5t-138 49t-101.5 24.5q-43 0 -71.5 -22.5t-35.5 -63.5zM987 346q224 0 353.5 113t129.5 309t-129.5 309t-353.5 113q-223 0 -353 -113t-130 -309t130 -309t353 -113z" />
    <glyph glyph-name="Odieresis" unicode="&#xd6;" horiz-adv-x="1976" 
d="M987 -33q-270 0 -477 100t-320.5 282t-113.5 419t113.5 419t320.5 282t477 100q271 0 478.5 -100t321.5 -282t114 -419t-114 -419t-321.5 -282t-478.5 -100zM670 1649q-104 0 -166 52.5t-62 143.5q0 87 62 138t166 51q103 0 165 -51t62 -138q0 -91 -61.5 -143.5
t-165.5 -52.5zM1305 1649q-104 0 -166 52.5t-62 143.5q0 87 62.5 138t165.5 51t165 -51t62 -138q0 -91 -61.5 -143.5t-165.5 -52.5zM987 346q224 0 353.5 113t129.5 309t-129.5 309t-353.5 113q-223 0 -353 -113t-130 -309t130 -309t353 -113z" />
    <glyph glyph-name="multiply" unicode="&#xd7;" horiz-adv-x="1269" 
d="M338 199l-215 213l299 299l-299 299l215 213l299 -297l297 297l215 -213l-299 -299l299 -299l-215 -213l-297 297z" />
    <glyph glyph-name="Oslash" unicode="&#xd8;" horiz-adv-x="1974" 
d="M117 -37l198 236q-116 105 -177.5 250t-61.5 319q0 237 113 419t320 282t478 100q233 0 424 -78l68 82h381l-201 -236q242 -222 242 -569q0 -237 -114 -419t-321.5 -282t-478.5 -100q-233 0 -424 76l-65 -80h-381zM492 768q0 -154 79 -266l586 690q-73 20 -170 20
q-229 0 -362 -119.5t-133 -324.5zM987 324q229 0 362.5 119.5t133.5 324.5q0 153 -80 266l-584 -690q73 -20 168 -20z" />
    <glyph glyph-name="Ugrave" unicode="&#xd9;" horiz-adv-x="1798" 
d="M547 1536v-850q0 -161 90.5 -250.5t261.5 -89.5t260.5 89.5t89.5 250.5v850h426v-870q0 -208 -96.5 -367t-273 -245.5t-406.5 -86.5t-406.5 86.5t-273 245.5t-96.5 367v870h424zM829 1995l301 -344h-421l-355 344h475z" />
    <glyph glyph-name="Uacute" unicode="&#xda;" horiz-adv-x="1798" 
d="M547 1536v-850q0 -161 90.5 -250.5t261.5 -89.5t260.5 89.5t89.5 250.5v850h426v-870q0 -208 -96.5 -367t-273 -245.5t-406.5 -86.5t-406.5 86.5t-273 245.5t-96.5 367v870h424zM645 1651l301 344h475l-354 -344h-422z" />
    <glyph glyph-name="Ucircumflex" unicode="&#xdb;" horiz-adv-x="1798" 
d="M547 1536v-850q0 -161 90.5 -250.5t261.5 -89.5t260.5 89.5t89.5 250.5v850h426v-870q0 -208 -96.5 -367t-273 -245.5t-406.5 -86.5t-406.5 86.5t-273 245.5t-96.5 367v870h424zM367 1651l311 344h440l312 -344h-343l-190 139l-188 -139h-342z" />
    <glyph glyph-name="Udieresis" unicode="&#xdc;" horiz-adv-x="1798" 
d="M547 1536v-850q0 -161 90.5 -250.5t261.5 -89.5t260.5 89.5t89.5 250.5v850h426v-870q0 -208 -96.5 -367t-273 -245.5t-406.5 -86.5t-406.5 86.5t-273 245.5t-96.5 367v870h424zM582 1649q-104 0 -166 52.5t-62 143.5q0 87 62 138t166 51q103 0 165 -51t62 -138
q0 -91 -61.5 -143.5t-165.5 -52.5zM1217 1649q-104 0 -166 52.5t-62 143.5q0 87 62.5 138t165.5 51t165 -51t62 -138q0 -91 -61.5 -143.5t-165.5 -52.5z" />
    <glyph glyph-name="Yacute" unicode="&#xdd;" horiz-adv-x="1890" 
d="M1159 0h-426v618l-721 918h471l461 -588l461 588h471l-717 -911v-625zM690 1651l301 344h475l-354 -344h-422z" />
    <glyph glyph-name="Thorn" unicode="&#xde;" horiz-adv-x="1699" 
d="M143 0v1536h424v-229h439q288 0 454 -144t166 -387q0 -241 -166 -384.5t-454 -143.5h-439v-248h-424zM567 971v-387h412q103 0 160 50.5t57 141.5q0 92 -57 143.5t-160 51.5h-412z" />
    <glyph glyph-name="germandbls" unicode="&#xdf;" horiz-adv-x="1835" 
d="M532 0h-417v958q0 296 211.5 474t570.5 178q315 0 492.5 -111t177.5 -293q0 -122 -80.5 -212t-229.5 -134q257 -26 390 -135t133 -283q0 -217 -172 -346t-471 -129q-245 0 -492 78v317q135 -50 232 -71t192 -21q145 0 217 50t72 141q0 198 -350 198h-166v283h86
q111 0 172 45t61 121q0 89 -77 139.5t-212 50.5q-160 0 -250 -80t-90 -221v-997z" />
    <glyph glyph-name="agrave" unicode="&#xe0;" horiz-adv-x="1691" 
d="M1016 0v143q-81 -78 -199.5 -127t-259.5 -49q-144 0 -257 45.5t-179 134t-66 205.5q0 175 139.5 275.5t362.5 111.5q31 2 88 2q198 0 322 -43q23 -6 47 -16q-25 205 -379 205q-265 0 -483 -111v303q270 125 585 125q109 0 207 -18t186.5 -58.5t152.5 -101t102 -151
t38 -201.5v-674h-407zM1016 479q-78 37 -266 37q-322 0 -322 -139q0 -65 66.5 -104.5t175.5 -39.5q60 0 120 15.5t111 45t83 77.5t32 108zM791 1671l258 -387h-387l-277 387h406z" />
    <glyph glyph-name="aacute" unicode="&#xe1;" horiz-adv-x="1691" 
d="M1016 0v143q-81 -78 -199.5 -127t-259.5 -49q-144 0 -257 45.5t-179 134t-66 205.5q0 175 139.5 275.5t362.5 111.5q31 2 88 2q198 0 322 -43q23 -6 47 -16q-25 205 -379 205q-265 0 -483 -111v303q270 125 585 125q109 0 207 -18t186.5 -58.5t152.5 -101t102 -151
t38 -201.5v-674h-407zM1016 479q-78 37 -266 37q-322 0 -322 -139q0 -65 66.5 -104.5t175.5 -39.5q60 0 120 15.5t111 45t83 77.5t32 108zM612 1284l258 387h406l-277 -387h-387z" />
    <glyph glyph-name="acircumflex" unicode="&#xe2;" horiz-adv-x="1691" 
d="M1016 0v143q-81 -78 -199.5 -127t-259.5 -49q-144 0 -257 45.5t-179 134t-66 205.5q0 175 139.5 275.5t362.5 111.5q31 2 88 2q198 0 322 -43q23 -6 47 -16q-25 205 -379 205q-265 0 -483 -111v303q270 125 585 125q109 0 207 -18t186.5 -58.5t152.5 -101t102 -151
t38 -201.5v-674h-407zM336 1284l293 387h428l293 -387h-330l-176 184l-176 -184h-332zM1016 479q-78 37 -266 37q-322 0 -322 -139q0 -65 66.5 -104.5t175.5 -39.5q60 0 120 15.5t111 45t83 77.5t32 108z" />
    <glyph glyph-name="atilde" unicode="&#xe3;" horiz-adv-x="1691" 
d="M1016 0v143q-81 -78 -199.5 -127t-259.5 -49q-144 0 -257 45.5t-179 134t-66 205.5q0 175 139.5 275.5t362.5 111.5q31 2 88 2q198 0 322 -43q23 -6 47 -16q-25 205 -379 205q-265 0 -483 -111v303q270 125 585 125q109 0 207 -18t186.5 -58.5t152.5 -101t102 -151
t38 -201.5v-674h-407zM578 1296h-248q9 182 84.5 281.5t218.5 99.5q64 0 137 -26.5t134 -53t97 -26.5q42 0 71 27.5t36 76.5h248q-9 -180 -84.5 -281.5t-218.5 -101.5q-64 0 -137 27t-134 53.5t-96 26.5q-43 0 -72 -27t-36 -76zM1016 479q-78 37 -266 37q-322 0 -322 -139
q0 -65 66.5 -104.5t175.5 -39.5q60 0 120 15.5t111 45t83 77.5t32 108z" />
    <glyph glyph-name="adieresis" unicode="&#xe4;" horiz-adv-x="1691" 
d="M1016 0v143q-81 -78 -199.5 -127t-259.5 -49q-144 0 -257 45.5t-179 134t-66 205.5q0 175 139.5 275.5t362.5 111.5q31 2 88 2q198 0 322 -43q23 -6 47 -16q-25 205 -379 205q-265 0 -483 -111v303q270 125 585 125q109 0 207 -18t186.5 -58.5t152.5 -101t102 -151
t38 -201.5v-674h-407zM530 1284q-104 0 -165.5 52t-61.5 143q0 87 62 138.5t165 51.5t165.5 -51.5t62.5 -138.5q0 -91 -62 -143t-166 -52zM1157 1284q-104 0 -165.5 52t-61.5 143q0 87 62 138.5t165 51.5t164 -51t61 -139q0 -91 -60.5 -143t-164.5 -52zM1016 479
q-78 37 -266 37q-322 0 -322 -139q0 -65 66.5 -104.5t175.5 -39.5q60 0 120 15.5t111 45t83 77.5t32 108z" />
    <glyph glyph-name="aring" unicode="&#xe5;" horiz-adv-x="1691" 
d="M1016 0v143q-81 -78 -199.5 -127t-259.5 -49q-144 0 -257 45.5t-179 134t-66 205.5q0 175 139.5 275.5t362.5 111.5q31 2 88 2q198 0 322 -43q23 -6 47 -16q-25 205 -379 205q-265 0 -483 -111v303q270 125 585 125q109 0 207 -18t186.5 -58.5t152.5 -101t102 -151
t38 -201.5v-674h-407zM844 1264q-183 0 -286 75t-103 209q0 133 103.5 209t285.5 76q181 0 284 -76.5t103 -208.5q0 -133 -102.5 -208.5t-284.5 -75.5zM1016 479q-78 37 -266 37q-322 0 -322 -139q0 -65 66.5 -104.5t175.5 -39.5q60 0 120 15.5t111 45t83 77.5t32 108z
M844 1434q73 0 113 29.5t40 84.5q0 54 -40.5 84.5t-112.5 30.5q-73 0 -114.5 -30.5t-41.5 -84.5q0 -55 41 -84.5t115 -29.5z" />
    <glyph glyph-name="ae" unicode="&#xe6;" horiz-adv-x="2586" 
d="M1446 0h-303l-17 215q-86 -120 -209 -184t-272 -64q-258 0 -418.5 170.5t-160.5 446.5q0 279 160 449.5t419 170.5q149 0 272 -64t209 -182l17 211h303l8 -125q171 160 444 160q299 0 465.5 -195.5t155.5 -521.5h-922q39 -103 146.5 -158t281.5 -55q261 0 461 111v-254
q-117 -80 -238.5 -122t-277.5 -42q-325 0 -516 178zM489 584q0 -129 79 -213t202 -84q126 0 232 83.5t149 213.5q-43 132 -149 216.5t-232 84.5q-123 0 -202 -85t-79 -216zM1870 924q-110 0 -187 -58t-100 -159h574q-27 104 -99.5 160.5t-187.5 56.5z" />
    <glyph glyph-name="ccedilla" unicode="&#xe7;" horiz-adv-x="1560" 
d="M539 -229l131 202q-277 32 -443 197.5t-166 413.5q0 182 91 323t257 219t379 78q293 0 494 -146t227 -382h-415q-23 103 -104.5 160t-201.5 57q-141 0 -223 -81t-82 -228q0 -146 82 -227t223 -81q118 0 201 59.5t105 158.5h415q-25 -218 -200 -360.5t-437 -162.5l-43 -63
q58 8 95 8q137 0 209.5 -52.5t72.5 -146.5q0 -100 -97.5 -163.5t-274.5 -63.5q-159 0 -268 60.5t-142 162.5h250q38 -59 160 -59q64 0 98.5 19.5t34.5 52.5q0 30 -28.5 48.5t-86.5 18.5q-65 0 -107 -22h-206z" />
    <glyph glyph-name="egrave" unicode="&#xe8;" horiz-adv-x="1503" 
d="M801 -33q-212 0 -380 77t-264 219.5t-96 326.5q0 180 92 320.5t253 217t364 76.5q312 0 491 -199.5t179 -539.5h-924q89 -191 404 -191q129 0 257 33.5t232 95.5v-266q-253 -170 -608 -170zM780 909q-107 0 -181 -51.5t-101 -140.5h553q-29 93 -99 142.5t-172 49.5z
M717 1671l258 -387h-387l-277 387h406z" />
    <glyph glyph-name="eacute" unicode="&#xe9;" horiz-adv-x="1503" 
d="M801 -33q-212 0 -380 77t-264 219.5t-96 326.5q0 180 92 320.5t253 217t364 76.5q312 0 491 -199.5t179 -539.5h-924q89 -191 404 -191q129 0 257 33.5t232 95.5v-266q-253 -170 -608 -170zM780 909q-107 0 -181 -51.5t-101 -140.5h553q-29 93 -99 142.5t-172 49.5z
M537 1284l258 387h405l-276 -387h-387z" />
    <glyph glyph-name="ecircumflex" unicode="&#xea;" horiz-adv-x="1503" 
d="M801 -33q-212 0 -380 77t-264 219.5t-96 326.5q0 180 92 320.5t253 217t364 76.5q312 0 491 -199.5t179 -539.5h-924q89 -191 404 -191q129 0 257 33.5t232 95.5v-266q-253 -170 -608 -170zM262 1284l293 387h428l293 -387h-330l-176 184l-176 -184h-332zM780 909
q-107 0 -181 -51.5t-101 -140.5h553q-29 93 -99 142.5t-172 49.5z" />
    <glyph glyph-name="edieresis" unicode="&#xeb;" horiz-adv-x="1503" 
d="M801 -33q-212 0 -380 77t-264 219.5t-96 326.5q0 180 92 320.5t253 217t364 76.5q312 0 491 -199.5t179 -539.5h-924q89 -191 404 -191q129 0 257 33.5t232 95.5v-266q-253 -170 -608 -170zM455 1284q-104 0 -166 52t-62 143q0 87 62.5 138.5t165.5 51.5t165 -51.5
t62 -138.5q0 -91 -61.5 -143t-165.5 -52zM1081 1284q-104 0 -165.5 52t-61.5 143q0 87 62 138.5t165 51.5t164.5 -51.5t61.5 -138.5q0 -91 -61 -143t-165 -52zM780 909q-107 0 -181 -51.5t-101 -140.5h553q-29 93 -99 142.5t-172 49.5z" />
    <glyph glyph-name="igrave" unicode="&#xec;" horiz-adv-x="649" 
d="M115 0v1188h420v-1188h-420zM272 1671l258 -387h-387l-276 387h405z" />
    <glyph glyph-name="iacute" unicode="&#xed;" horiz-adv-x="649" 
d="M115 0v1188h420v-1188h-420zM94 1284l258 387h406l-277 -387h-387z" />
    <glyph glyph-name="icircumflex" unicode="&#xee;" horiz-adv-x="649" 
d="M115 0v1188h420v-1188h-420zM-80 1284l189 387h430l190 -387h-278l-127 191l-125 -191h-279z" />
    <glyph glyph-name="idieresis" unicode="&#xef;" horiz-adv-x="649" 
d="M115 0v1188h420v-1188h-420zM121 1284q-85 0 -132.5 53.5t-47.5 149.5q0 95 47.5 149t132.5 54t132.5 -54t47.5 -149q0 -96 -47.5 -149.5t-132.5 -53.5zM539 1284q-85 0 -133 53.5t-48 149.5q0 95 48 149t133 54t132.5 -54t47.5 -149q0 -96 -47.5 -149.5t-132.5 -53.5z
" />
    <glyph glyph-name="eth" unicode="&#xf0;" horiz-adv-x="1613" 
d="M1452 1307l-162 -31q256 -306 256 -649q0 -299 -197 -479.5t-536 -180.5q-341 0 -547.5 154.5t-206.5 408.5q0 157 86 279t240.5 189t353.5 67q211 0 363 -88q-62 106 -172 229l-412 -78v207l234 43q-123 101 -230 170l410 62q96 -70 192 -160l328 63v-206zM809 276
q153 0 240.5 66t87.5 180q0 115 -87 180.5t-241 65.5t-241 -64.5t-87 -181.5q0 -114 87.5 -180t240.5 -66z" />
    <glyph glyph-name="ntilde" unicode="&#xf1;" horiz-adv-x="1615" 
d="M985 1204q251 0 391 -147.5t140 -401.5v-655h-418v594q0 130 -66.5 200t-191.5 70q-132 0 -208.5 -81.5t-76.5 -219.5v-563h-418v1169h418v-186q77 108 188.5 164.5t241.5 56.5zM561 1296h-248q9 182 84.5 281.5t218.5 99.5q64 0 137 -26.5t134.5 -53t97.5 -26.5
q42 0 71 27.5t36 76.5h247q-9 -180 -84.5 -281.5t-218.5 -101.5q-64 0 -137 27t-133.5 53.5t-95.5 26.5q-43 0 -72.5 -27t-36.5 -76z" />
    <glyph glyph-name="ograve" unicode="&#xf2;" horiz-adv-x="1622" 
d="M811 -33q-222 0 -392.5 77t-264 217t-93.5 323q0 279 206.5 449.5t543.5 170.5t543.5 -170.5t206.5 -449.5q0 -183 -93.5 -323t-264 -217t-392.5 -77zM811 276q153 0 239.5 82.5t86.5 225.5q0 145 -86.5 227t-239.5 82q-154 0 -241 -82t-87 -227q0 -143 87.5 -225.5
t240.5 -82.5zM758 1671l258 -387h-387l-277 387h406z" />
    <glyph glyph-name="oacute" unicode="&#xf3;" horiz-adv-x="1622" 
d="M811 -33q-222 0 -392.5 77t-264 217t-93.5 323q0 279 206.5 449.5t543.5 170.5t543.5 -170.5t206.5 -449.5q0 -183 -93.5 -323t-264 -217t-392.5 -77zM811 276q153 0 239.5 82.5t86.5 225.5q0 145 -86.5 227t-239.5 82q-154 0 -241 -82t-87 -227q0 -143 87.5 -225.5
t240.5 -82.5zM580 1284l258 387h405l-276 -387h-387z" />
    <glyph glyph-name="ocircumflex" unicode="&#xf4;" horiz-adv-x="1622" 
d="M811 -33q-222 0 -392.5 77t-264 217t-93.5 323q0 279 206.5 449.5t543.5 170.5t543.5 -170.5t206.5 -449.5q0 -183 -93.5 -323t-264 -217t-392.5 -77zM303 1284l293 387h428l293 -387h-330l-176 184l-176 -184h-332zM811 276q153 0 239.5 82.5t86.5 225.5
q0 145 -86.5 227t-239.5 82q-154 0 -241 -82t-87 -227q0 -143 87.5 -225.5t240.5 -82.5z" />
    <glyph glyph-name="otilde" unicode="&#xf5;" horiz-adv-x="1622" 
d="M811 -33q-222 0 -392.5 77t-264 217t-93.5 323q0 279 206.5 449.5t543.5 170.5t543.5 -170.5t206.5 -449.5q0 -183 -93.5 -323t-264 -217t-392.5 -77zM545 1296h-248q9 182 84.5 281.5t218.5 99.5q64 0 137 -26.5t134.5 -53t97.5 -26.5q42 0 70.5 27.5t35.5 76.5h248
q-9 -180 -84.5 -281.5t-218.5 -101.5q-64 0 -137 27t-134 53.5t-96 26.5q-43 0 -72 -27t-36 -76zM811 276q153 0 239.5 82.5t86.5 225.5q0 145 -86.5 227t-239.5 82q-154 0 -241 -82t-87 -227q0 -143 87.5 -225.5t240.5 -82.5z" />
    <glyph glyph-name="odieresis" unicode="&#xf6;" horiz-adv-x="1622" 
d="M811 -33q-222 0 -392.5 77t-264 217t-93.5 323q0 279 206.5 449.5t543.5 170.5t543.5 -170.5t206.5 -449.5q0 -183 -93.5 -323t-264 -217t-392.5 -77zM498 1284q-104 0 -166 52t-62 143q0 87 62.5 138.5t165.5 51.5t165 -51.5t62 -138.5q0 -91 -61.5 -143t-165.5 -52z
M1124 1284q-104 0 -165.5 52t-61.5 143q0 87 62 138.5t165 51.5t164.5 -51.5t61.5 -138.5q0 -91 -61 -143t-165 -52zM811 276q153 0 239.5 82.5t86.5 225.5q0 145 -86.5 227t-239.5 82q-154 0 -241 -82t-87 -227q0 -143 87.5 -225.5t240.5 -82.5z" />
    <glyph glyph-name="divide" unicode="&#xf7;" horiz-adv-x="1269" 
d="M614 119q-81 0 -132.5 50t-51.5 128q0 77 51.5 126.5t132.5 49.5t133 -49.5t52 -126.5q0 -78 -51.5 -128t-133.5 -50zM61 573v304h1147v-304h-1147zM614 977q-81 0 -132.5 50t-51.5 128q0 77 51.5 126.5t132.5 49.5t133 -49.5t52 -126.5q0 -78 -51.5 -128t-133.5 -50z
" />
    <glyph glyph-name="oslash" unicode="&#xf8;" horiz-adv-x="1622" 
d="M82 -57l172 204q-193 171 -193 437q0 279 206.5 449.5t543.5 170.5q166 0 299 -43l57 68h373l-174 -207q94 -81 144.5 -193t50.5 -245q0 -183 -93.5 -323t-264 -217t-392.5 -77q-165 0 -299 41l-57 -65h-373zM461 584q0 -86 31 -156l411 487q-44 9 -92 9
q-164 0 -257 -90.5t-93 -249.5zM811 246q164 0 256 90.5t92 247.5q0 84 -29 157l-411 -487q58 -8 92 -8z" />
    <glyph glyph-name="ugrave" unicode="&#xf9;" horiz-adv-x="1591" 
d="M1454 0h-418v184q-76 -106 -184 -161.5t-234 -55.5q-244 0 -381 147.5t-137 401.5v653h418v-594q0 -129 64 -198.5t182 -69.5q130 0 201 79t71 222v561h418v-1169zM739 1671l258 -387h-387l-276 387h405z" />
    <glyph glyph-name="uacute" unicode="&#xfa;" horiz-adv-x="1591" 
d="M1454 0h-418v184q-76 -106 -184 -161.5t-234 -55.5q-244 0 -381 147.5t-137 401.5v653h418v-594q0 -129 64 -198.5t182 -69.5q130 0 201 79t71 222v561h418v-1169zM561 1284l258 387h406l-277 -387h-387z" />
    <glyph glyph-name="ucircumflex" unicode="&#xfb;" horiz-adv-x="1591" 
d="M1454 0h-418v184q-76 -106 -184 -161.5t-234 -55.5q-244 0 -381 147.5t-137 401.5v653h418v-594q0 -129 64 -198.5t182 -69.5q130 0 201 79t71 222v561h418v-1169zM285 1284l293 387h428l292 -387h-329l-176 184l-177 -184h-331z" />
    <glyph glyph-name="udieresis" unicode="&#xfc;" horiz-adv-x="1591" 
d="M1454 0h-418v184q-76 -106 -184 -161.5t-234 -55.5q-244 0 -381 147.5t-137 401.5v653h418v-594q0 -129 64 -198.5t182 -69.5q130 0 201 79t71 222v561h418v-1169zM479 1284q-104 0 -165.5 52t-61.5 143q0 87 62 138.5t165 51.5t165.5 -51.5t62.5 -138.5q0 -91 -62 -143
t-166 -52zM1106 1284q-104 0 -165.5 52t-61.5 143q0 87 62 138.5t165 51.5t164 -51t61 -139q0 -91 -60.5 -143t-164.5 -52z" />
    <glyph glyph-name="yacute" unicode="&#xfd;" horiz-adv-x="1591" 
d="M500 -371q-129 0 -229.5 30.5t-194.5 98.5v291q98 -62 181 -88.5t183 -26.5q91 0 154 38.5t102 133.5l2 3h-184l-498 1060h461l332 -798l336 798h444l-561 -1192q-58 -125 -146 -205t-181 -111.5t-201 -31.5zM582 1284l258 387h405l-276 -387h-387z" />
    <glyph glyph-name="thorn" unicode="&#xfe;" 
d="M115 -338v1915h420v-631q86 124 211.5 191t277.5 67q259 0 419.5 -170.5t160.5 -449.5q0 -276 -160.5 -446.5t-419.5 -170.5q-153 0 -278 67.5t-211 192.5v-565h-420zM1180 584q0 131 -79 216t-202 85q-126 0 -232 -84.5t-149 -216.5q43 -130 149 -213.5t232 -83.5
q123 0 202 84t79 213z" />
    <glyph glyph-name="ydieresis" unicode="&#xff;" horiz-adv-x="1591" 
d="M500 -371q-129 0 -229.5 30.5t-194.5 98.5v291q98 -62 181 -88.5t183 -26.5q91 0 154 38.5t102 133.5l2 3h-184l-498 1060h461l332 -798l336 798h444l-561 -1192q-58 -125 -146 -205t-181 -111.5t-201 -31.5zM500 1284q-104 0 -166 52t-62 143q0 87 62.5 138.5
t165.5 51.5t165 -51.5t62 -138.5q0 -91 -61.5 -143t-165.5 -52zM1126 1284q-104 0 -165.5 52t-61.5 143q0 87 62 138.5t165 51.5t164.5 -51.5t61.5 -138.5q0 -91 -61 -143t-165 -52z" />
    <glyph glyph-name="Amacron" unicode="&#x100;" horiz-adv-x="1959" 
d="M700 1536h560l698 -1536h-453l-129 295h-792l-129 -295h-453zM731 637h498l-248 575zM1479 1692h-998v252h998v-252z" />
    <glyph glyph-name="amacron" unicode="&#x101;" horiz-adv-x="1691" 
d="M1016 0v143q-81 -78 -199.5 -127t-259.5 -49q-144 0 -257 45.5t-179 134t-66 205.5q0 175 139.5 275.5t362.5 111.5q31 2 88 2q198 0 322 -43q23 -6 47 -16q-25 205 -379 205q-265 0 -483 -111v303q270 125 585 125q109 0 207 -18t186.5 -58.5t152.5 -101t102 -151
t38 -201.5v-674h-407zM1016 479q-78 37 -266 37q-322 0 -322 -139q0 -65 66.5 -104.5t175.5 -39.5q60 0 120 15.5t111 45t83 77.5t32 108zM1341 1335h-997v250h997v-250z" />
    <glyph glyph-name="Abreve" unicode="&#x102;" horiz-adv-x="1959" 
d="M700 1536h560l698 -1536h-453l-129 295h-792l-129 -295h-453zM731 637h498l-248 575zM461 2003h317q61 -115 203 -115t203 115h317q-50 -183 -185.5 -276t-334.5 -93t-335 93.5t-185 275.5z" />
    <glyph glyph-name="abreve" unicode="&#x103;" horiz-adv-x="1691" 
d="M1016 0v143q-81 -78 -199.5 -127t-259.5 -49q-144 0 -257 45.5t-179 134t-66 205.5q0 175 139.5 275.5t362.5 111.5q31 2 88 2q198 0 322 -43q23 -6 47 -16q-25 205 -379 205q-265 0 -483 -111v303q270 125 585 125q109 0 207 -18t186.5 -58.5t152.5 -101t102 -151
t38 -201.5v-674h-407zM346 1669h307q15 -69 65.5 -108t125.5 -39q73 0 123 39t67 108h307q-30 -190 -158.5 -295.5t-338.5 -105.5t-339 106t-159 295zM1016 479q-78 37 -266 37q-322 0 -322 -139q0 -65 66.5 -104.5t175.5 -39.5q60 0 120 15.5t111 45t83 77.5t32 108z" />
    <glyph glyph-name="Aogonek" unicode="&#x104;" horiz-adv-x="1959" 
d="M700 1536h560l698 -1536q-246 -66 -246 -141q0 -58 127 -58q53 0 119 15v-222q-30 -10 -94.5 -19t-128.5 -9q-145 0 -233.5 54t-88.5 144q0 151 227 236h-135l-129 295h-792l-129 -295h-453zM731 637h498l-248 575z" />
    <glyph glyph-name="aogonek" unicode="&#x105;" horiz-adv-x="1691" 
d="M1016 0v143q-81 -78 -199.5 -127t-259.5 -49q-144 0 -257 45.5t-179 134t-66 205.5q0 175 139.5 275.5t362.5 111.5q31 2 88 2q198 0 322 -43q23 -6 47 -16q-25 205 -379 205q-265 0 -483 -111v303q270 125 585 125q109 0 207 -18t186.5 -58.5t152.5 -101t102 -151
t38 -201.5v-674h-2q-245 -66 -245 -141q0 -58 127 -58q52 0 118 15v-222q-30 -10 -94.5 -19t-128.5 -9q-145 0 -233 54t-88 144q0 151 227 236h-88zM1016 479q-78 37 -266 37q-322 0 -322 -139q0 -65 66.5 -104.5t175.5 -39.5q60 0 120 15.5t111 45t83 77.5t32 108z" />
    <glyph glyph-name="Cacute" unicode="&#x106;" horiz-adv-x="1912" 
d="M1423 643h426q-23 -202 -139 -355t-307.5 -237t-433.5 -84q-266 0 -469 100t-313.5 282t-110.5 419t110.5 419t313.5 282t469 100q242 0 433.5 -84t307.5 -237t139 -355h-426q-31 146 -149 227.5t-305 81.5q-215 0 -339 -116.5t-124 -317.5t124 -317.5t339 -116.5
q189 0 306 79.5t148 229.5zM709 1651l301 344h475l-355 -344h-421z" />
    <glyph glyph-name="cacute" unicode="&#x107;" horiz-adv-x="1560" 
d="M1094 494h415q-26 -235 -227 -381t-494 -146q-324 0 -525.5 171t-201.5 446q0 182 91 323t257 219t379 78q293 0 494 -146t227 -382h-415q-23 103 -104.5 160t-201.5 57q-141 0 -223 -81t-82 -228q0 -146 82 -227t223 -81q118 0 201 59.5t105 158.5zM561 1284l258 387
h406l-277 -387h-387z" />
    <glyph glyph-name="Ccircumflex" unicode="&#x108;" horiz-adv-x="1912" 
d="M1423 643h426q-23 -202 -139 -355t-307.5 -237t-433.5 -84q-266 0 -469 100t-313.5 282t-110.5 419t110.5 419t313.5 282t469 100q242 0 433.5 -84t307.5 -237t139 -355h-426q-31 146 -149 227.5t-305 81.5q-215 0 -339 -116.5t-124 -317.5t124 -317.5t339 -116.5
q189 0 306 79.5t148 229.5zM430 1651l311 344h441l311 -344h-342l-190 139l-189 -139h-342z" />
    <glyph glyph-name="ccircumflex" unicode="&#x109;" horiz-adv-x="1560" 
d="M1094 494h415q-26 -235 -227 -381t-494 -146q-324 0 -525.5 171t-201.5 446q0 182 91 323t257 219t379 78q293 0 494 -146t227 -382h-415q-23 103 -104.5 160t-201.5 57q-141 0 -223 -81t-82 -228q0 -146 82 -227t223 -81q118 0 201 59.5t105 158.5zM285 1284l293 387
h428l292 -387h-329l-176 184l-177 -184h-331z" />
    <glyph glyph-name="Cdotaccent" unicode="&#x10a;" horiz-adv-x="1912" 
d="M1423 643h426q-23 -202 -139 -355t-307.5 -237t-433.5 -84q-266 0 -469 100t-313.5 282t-110.5 419t110.5 419t313.5 282t469 100q242 0 433.5 -84t307.5 -237t139 -355h-426q-31 146 -149 227.5t-305 81.5q-215 0 -339 -116.5t-124 -317.5t124 -317.5t339 -116.5
q189 0 306 79.5t148 229.5zM963 1649q-109 0 -176.5 55t-67.5 147q0 93 67.5 149t176.5 56q111 0 178 -56t67 -149q0 -92 -67 -147t-178 -55z" />
    <glyph glyph-name="cdotaccent" unicode="&#x10b;" horiz-adv-x="1560" 
d="M1094 494h415q-26 -235 -227 -381t-494 -146q-324 0 -525.5 171t-201.5 446q0 182 91 323t257 219t379 78q293 0 494 -146t227 -382h-415q-23 103 -104.5 160t-201.5 57q-141 0 -223 -81t-82 -228q0 -146 82 -227t223 -81q118 0 201 59.5t105 158.5zM793 1284
q-110 0 -177 55t-67 148t67 148t177 55q111 0 178 -55t67 -148t-67 -148t-178 -55z" />
    <glyph glyph-name="Ccaron" unicode="&#x10c;" horiz-adv-x="1912" 
d="M1423 643h426q-23 -202 -139 -355t-307.5 -237t-433.5 -84q-266 0 -469 100t-313.5 282t-110.5 419t110.5 419t313.5 282t469 100q242 0 433.5 -84t307.5 -237t139 -355h-426q-31 146 -149 227.5t-305 81.5q-215 0 -339 -116.5t-124 -317.5t124 -317.5t339 -116.5
q189 0 306 79.5t148 229.5zM1493 1993l-311 -344h-441l-311 344h342l191 -140l188 140h342z" />
    <glyph glyph-name="ccaron" unicode="&#x10d;" horiz-adv-x="1560" 
d="M1094 494h415q-26 -235 -227 -381t-494 -146q-324 0 -525.5 171t-201.5 446q0 182 91 323t257 219t379 78q293 0 494 -146t227 -382h-415q-23 103 -104.5 160t-201.5 57q-141 0 -223 -81t-82 -228q0 -146 82 -227t223 -81q118 0 201 59.5t105 158.5zM1298 1671l-292 -387
h-428l-293 387h329l177 -184l176 184h331z" />
    <glyph glyph-name="Dcaron" unicode="&#x10e;" horiz-adv-x="1896" 
d="M143 1536h766q271 0 478 -95t320.5 -269.5t113.5 -403.5t-113.5 -403.5t-320.5 -269.5t-478 -95h-766v1536zM1425 1993l-311 -344h-440l-312 344h343l190 -140l188 140h342zM565 1159v-782h377q206 0 328.5 105.5t122.5 285.5t-122.5 285.5t-328.5 105.5h-377z" />
    <glyph glyph-name="dcaron" unicode="&#x10f;" horiz-adv-x="1742" 
d="M1554 1577v-1577h-419v227q-86 -125 -211.5 -192.5t-278.5 -67.5q-258 0 -418.5 170.5t-160.5 446.5q0 279 160 449.5t419 170.5q154 0 279 -67t211 -191v631h419zM1722 1292l52 424h364l-129 -424h-287zM489 584q0 -129 79 -213t202 -84q126 0 232 83.5t149 213.5
q-43 132 -149 216.5t-232 84.5q-123 0 -202 -85t-79 -216z" />
    <glyph glyph-name="Dcroat" unicode="&#x110;" horiz-adv-x="1947" 
d="M55 629v282h140v625h766q271 0 478 -95t320 -269.5t113 -403.5t-113 -403.5t-320 -269.5t-478 -95h-766v629h-140zM616 1159v-248h349v-282h-349v-252h377q206 0 328.5 105.5t122.5 285.5t-122.5 285.5t-328.5 105.5h-377z" />
    <glyph glyph-name="dcroat" unicode="&#x111;" horiz-adv-x="1667" 
d="M1554 0h-419v215q-86 -119 -211.5 -183.5t-278.5 -64.5q-258 0 -418.5 162t-160.5 424q0 265 160 427.5t419 162.5q154 0 279 -64t211 -182v322h-549v247h549v111h419v-111h146v-247h-146v-1219zM772 287q126 0 231 74.5t148 191.5q-43 119 -148.5 194.5t-230.5 75.5
q-124 0 -203.5 -75.5t-79.5 -194.5q0 -117 79.5 -191.5t203.5 -74.5z" />
    <glyph glyph-name="Emacron" unicode="&#x112;" horiz-adv-x="1626" 
d="M520 1192v-270h936v-308h-936v-270h1004v-344h-1428v1536h1417v-344h-993zM1319 1692h-997v252h997v-252z" />
    <glyph glyph-name="emacron" unicode="&#x113;" horiz-adv-x="1503" 
d="M801 -33q-212 0 -380 77t-264 219.5t-96 326.5q0 180 92 320.5t253 217t364 76.5q312 0 491 -199.5t179 -539.5h-924q89 -191 404 -191q129 0 257 33.5t232 95.5v-266q-253 -170 -608 -170zM1266 1335h-998v250h998v-250zM780 909q-107 0 -181 -51.5t-101 -140.5h553
q-29 93 -99 142.5t-172 49.5z" />
    <glyph glyph-name="Ebreve" unicode="&#x114;" horiz-adv-x="1626" 
d="M520 1192v-270h936v-308h-936v-270h1004v-344h-1428v1536h1417v-344h-993zM299 2003h317q61 -115 203 -115t203 115h317q-50 -183 -185.5 -276t-334.5 -93t-335 93.5t-185 275.5z" />
    <glyph glyph-name="ebreve" unicode="&#x115;" horiz-adv-x="1503" 
d="M801 -33q-212 0 -380 77t-264 219.5t-96 326.5q0 180 92 320.5t253 217t364 76.5q312 0 491 -199.5t179 -539.5h-924q89 -191 404 -191q129 0 257 33.5t232 95.5v-266q-253 -170 -608 -170zM270 1669h308q15 -69 65 -108t125 -39q73 0 123 39t67 108h308
q-30 -189 -159 -295t-339 -106t-339 106t-159 295zM780 909q-107 0 -181 -51.5t-101 -140.5h553q-29 93 -99 142.5t-172 49.5z" />
    <glyph glyph-name="Edotaccent" unicode="&#x116;" horiz-adv-x="1626" 
d="M520 1192v-270h936v-308h-936v-270h1004v-344h-1428v1536h1417v-344h-993zM819 1649q-109 0 -176.5 55t-67.5 147q0 93 67.5 149t176.5 56q111 0 178.5 -56t67.5 -149q0 -92 -67.5 -147t-178.5 -55z" />
    <glyph glyph-name="edotaccent" unicode="&#x117;" horiz-adv-x="1503" 
d="M801 -33q-212 0 -380 77t-264 219.5t-96 326.5q0 180 92 320.5t253 217t364 76.5q312 0 491 -199.5t179 -539.5h-924q89 -191 404 -191q129 0 257 33.5t232 95.5v-266q-253 -170 -608 -170zM780 909q-107 0 -181 -51.5t-101 -140.5h553q-29 93 -99 142.5t-172 49.5z
M768 1284q-110 0 -177 55t-67 148t67 148t177 55q111 0 178.5 -55t67.5 -148t-67.5 -148t-178.5 -55z" />
    <glyph glyph-name="Eogonek" unicode="&#x118;" horiz-adv-x="1626" 
d="M520 1192v-270h936v-308h-936v-270h1004v-344q-246 -66 -246 -141q0 -58 127 -58q53 0 119 15v-222q-30 -10 -95 -19t-129 -9q-145 0 -233 54t-88 144q0 151 227 236h-1110v1536h1417v-344h-993z" />
    <glyph glyph-name="eogonek" unicode="&#x119;" horiz-adv-x="1505" 
d="M1159 -434q-152 0 -244 53.5t-92 142.5q0 68 44.5 122t146.5 104q-105 -21 -213 -21q-212 0 -380 77t-264 219.5t-96 326.5q0 180 92 320.5t253 217t364 76.5q313 0 491.5 -196.5t178.5 -538.5h-918q41 -95 143.5 -145t249.5 -50q280 0 494 129v-266q-23 -16 -94 -59
q-172 -99 -172 -197q0 -80 121 -80q52 0 118 15v-222q-29 -10 -94.5 -19t-128.5 -9zM500 717h549q-28 90 -97.5 141t-169.5 51q-110 0 -183.5 -52t-98.5 -140z" />
    <glyph glyph-name="Ecaron" unicode="&#x11a;" horiz-adv-x="1626" 
d="M520 1192v-270h936v-308h-936v-270h1004v-344h-1428v1536h1417v-344h-993zM1350 1993l-312 -344h-440l-311 344h342l190 -140l189 140h342z" />
    <glyph glyph-name="ecaron" unicode="&#x11b;" horiz-adv-x="1503" 
d="M801 -33q-212 0 -380 77t-264 219.5t-96 326.5q0 180 92 320.5t253 217t364 76.5q312 0 491 -199.5t179 -539.5h-924q89 -191 404 -191q129 0 257 33.5t232 95.5v-266q-253 -170 -608 -170zM1276 1671l-293 -387h-428l-293 387h330l176 -184l176 184h332zM780 909
q-107 0 -181 -51.5t-101 -140.5h553q-29 93 -99 142.5t-172 49.5z" />
    <glyph glyph-name="Gcircumflex" unicode="&#x11c;" horiz-adv-x="1974" 
d="M1008 311q159 0 277.5 47.5t182.5 137.5h-419v299h815v-795h-301l-21 207q-99 -113 -249.5 -176.5t-346.5 -63.5q-181 0 -338.5 53.5t-275.5 153.5t-186 253t-68 341t68 341t188.5 253t282.5 153.5t352 53.5q186 0 341 -44.5t264.5 -125.5t179.5 -191t95 -243h-428
q-31 116 -151.5 182.5t-298.5 66.5q-219 0 -343 -114.5t-124 -331.5q0 -222 134 -339.5t370 -117.5zM438 1651l312 344h440l311 -344h-342l-190 139l-189 -139h-342z" />
    <glyph glyph-name="gcircumflex" unicode="&#x11d;" horiz-adv-x="1665" 
d="M635 123q-250 0 -412 149.5t-162 391.5t162 391t412 149q154 0 281.5 -62t220.5 -163v190h417v-858q0 -213 -100 -368t-280 -234.5t-422 -79.5q-160 0 -298.5 40.5t-277.5 125.5v316q243 -179 549 -179q204 0 308 88t104 275v41q-92 -96 -219.5 -154.5t-282.5 -58.5z
M338 1284l293 387h428l293 -387h-330l-176 184l-176 -184h-332zM776 408q244 0 375 256q-132 256 -375 256q-135 0 -214 -69t-79 -187t78 -187t215 -69z" />
    <glyph glyph-name="Gbreve" unicode="&#x11e;" horiz-adv-x="1974" 
d="M1008 311q159 0 277.5 47.5t182.5 137.5h-419v299h815v-795h-301l-21 207q-99 -113 -249.5 -176.5t-346.5 -63.5q-181 0 -338.5 53.5t-275.5 153.5t-186 253t-68 341t68 341t188.5 253t282.5 153.5t352 53.5q186 0 341 -44.5t264.5 -125.5t179.5 -191t95 -243h-428
q-31 116 -151.5 182.5t-298.5 66.5q-219 0 -343 -114.5t-124 -331.5q0 -222 134 -339.5t370 -117.5zM449 2003h317q61 -115 203 -115q141 0 202 115h318q-50 -183 -185.5 -276t-334.5 -93t-335 93.5t-185 275.5z" />
    <glyph glyph-name="gbreve" unicode="&#x11f;" horiz-adv-x="1665" 
d="M635 123q-250 0 -412 149.5t-162 391.5t162 391t412 149q154 0 281.5 -62t220.5 -163v190h417v-858q0 -213 -100 -368t-280 -234.5t-422 -79.5q-160 0 -298.5 40.5t-277.5 125.5v316q243 -179 549 -179q204 0 308 88t104 275v41q-92 -96 -219.5 -154.5t-282.5 -58.5z
M348 1669h307q15 -69 65.5 -108t125.5 -39q73 0 123 39t67 108h307q-30 -190 -158.5 -295.5t-338.5 -105.5t-339 106t-159 295zM776 408q244 0 375 256q-132 256 -375 256q-135 0 -214 -69t-79 -187t78 -187t215 -69z" />
    <glyph glyph-name="Gdotaccent" unicode="&#x120;" horiz-adv-x="1974" 
d="M1008 311q159 0 277.5 47.5t182.5 137.5h-419v299h815v-795h-301l-21 207q-99 -113 -249.5 -176.5t-346.5 -63.5q-181 0 -338.5 53.5t-275.5 153.5t-186 253t-68 341t68 341t188.5 253t282.5 153.5t352 53.5q186 0 341 -44.5t264.5 -125.5t179.5 -191t95 -243h-428
q-31 116 -151.5 182.5t-298.5 66.5q-219 0 -343 -114.5t-124 -331.5q0 -222 134 -339.5t370 -117.5zM969 1649q-109 0 -176.5 55t-67.5 147q0 93 67.5 149t176.5 56q111 0 178 -56t67 -149q0 -92 -67 -147t-178 -55z" />
    <glyph glyph-name="gdotaccent" unicode="&#x121;" horiz-adv-x="1665" 
d="M635 123q-250 0 -412 149.5t-162 391.5t162 391t412 149q154 0 281.5 -62t220.5 -163v190h417v-858q0 -213 -100 -368t-280 -234.5t-422 -79.5q-160 0 -298.5 40.5t-277.5 125.5v316q243 -179 549 -179q204 0 308 88t104 275v41q-92 -96 -219.5 -154.5t-282.5 -58.5z
M776 408q244 0 375 256q-132 256 -375 256q-135 0 -214 -69t-79 -187t78 -187t215 -69zM846 1284q-110 0 -177 55t-67 148t67 148t177 55q111 0 178.5 -55t67.5 -148t-67.5 -148t-178.5 -55z" />
    <glyph glyph-name="uni0122" unicode="&#x122;" horiz-adv-x="1974" 
d="M1008 311q159 0 277.5 47.5t182.5 137.5h-419v299h815v-795h-301l-21 207q-99 -113 -249.5 -176.5t-346.5 -63.5q-181 0 -338.5 53.5t-275.5 153.5t-186 253t-68 341t68 341t188.5 253t282.5 153.5t352 53.5q186 0 341 -44.5t264.5 -125.5t179.5 -191t95 -243h-428
q-31 116 -151.5 182.5t-298.5 66.5q-219 0 -343 -114.5t-124 -331.5q0 -222 134 -339.5t370 -117.5zM979 -633h-201l129 207q-66 15 -103.5 58t-37.5 106q0 79 60 125.5t163 46.5t163 -47t60 -129q0 -52 -25.5 -98t-96.5 -134z" />
    <glyph glyph-name="uni0123" unicode="&#x123;" horiz-adv-x="1665" 
d="M635 123q-250 0 -412 149.5t-162 391.5t162 391t412 149q154 0 281.5 -62t220.5 -163v190h417v-858q0 -213 -100 -368t-280 -234.5t-422 -79.5q-160 0 -298.5 40.5t-277.5 125.5v316q243 -179 549 -179q204 0 308 88t104 275v41q-92 -96 -219.5 -154.5t-282.5 -58.5z
M866 1810h201l-129 -206q66 -15 103.5 -58t37.5 -106q0 -79 -60 -125.5t-163 -46.5t-163 47t-60 129q0 52 25 96.5t98 134.5zM776 408q244 0 375 256q-132 256 -375 256q-135 0 -214 -69t-79 -187t78 -187t215 -69z" />
    <glyph glyph-name="Hcircumflex" unicode="&#x124;" horiz-adv-x="1921" 
d="M143 0v1536h424v-567h785v567h426v-1536h-426v592h-785v-592h-424zM428 1651l311 344h441l311 -344h-342l-191 139l-188 -139h-342z" />
    <glyph glyph-name="hcircumflex" unicode="&#x125;" horiz-adv-x="1595" 
d="M115 0v1577h420v-592q76 106 187 162.5t241 56.5q251 0 391.5 -147.5t140.5 -401.5v-655h-420v594q0 130 -66.5 200t-191.5 70q-130 0 -206 -81.5t-76 -219.5v-563h-420zM326 1692l292 387h429l292 -387h-329l-176 184l-177 -184h-331z" />
    <glyph glyph-name="Hbar" unicode="&#x126;" horiz-adv-x="1994" 
d="M180 0v1102h-137v284h137v150h424v-150h787v150h426v-150h135v-284h-135v-1102h-426v559h-787v-559h-424zM604 909h787v193h-787v-193z" />
    <glyph glyph-name="hbar" unicode="&#x127;" horiz-adv-x="1595" 
d="M-31 1219v247h146v111h420v-111h561v-247h-561v-295q76 106 187 162.5t241 56.5q251 0 391.5 -147.5t140.5 -401.5v-594h-420v532q0 131 -67 201t-191 70q-130 0 -206 -81.5t-76 -219.5v-502h-420v1219h-146z" />
    <glyph glyph-name="Itilde" unicode="&#x128;" horiz-adv-x="710" 
d="M143 0v1536h424v-1536h-424zM150 1655h-209q9 162 75.5 252t186.5 90q46 0 87.5 -16t67.5 -35.5t57 -35.5t58 -16q70 0 86 99h209q-9 -161 -75.5 -250.5t-186.5 -89.5q-46 0 -87.5 16t-67.5 35t-57 35t-58 16q-70 0 -86 -100z" />
    <glyph glyph-name="itilde" unicode="&#x129;" horiz-adv-x="649" 
d="M115 0v1188h420v-1188h-420zM121 1298h-209q9 176 75.5 275.5t186.5 99.5q46 0 87.5 -16t67.5 -35t57 -35t58 -16q70 0 86 98h209q-9 -176 -75.5 -274.5t-186.5 -98.5q-46 0 -87.5 16t-67.5 34.5t-57 34.5t-58 16q-70 0 -86 -99z" />
    <glyph glyph-name="Imacron" unicode="&#x12a;" horiz-adv-x="710" 
d="M143 0v1536h424v-1536h-424zM739 1692h-768v252h768v-252z" />
    <glyph glyph-name="imacron" unicode="&#x12b;" horiz-adv-x="649" 
d="M115 0v1188h420v-1188h-420zM692 1335h-735v250h735v-250z" />
    <glyph glyph-name="Ibreve" unicode="&#x12c;" horiz-adv-x="710" 
d="M143 0v1536h424v-1536h-424zM-70 1995h291q19 -129 133 -129t133 129h291q-17 -166 -130 -263.5t-294 -97.5t-294 97.5t-130 263.5z" />
    <glyph glyph-name="ibreve" unicode="&#x12d;" horiz-adv-x="649" 
d="M115 0v1188h420v-1188h-420zM-90 1669h276q9 -66 46.5 -103.5t93.5 -37.5q54 0 91 37.5t46 103.5h276q-17 -183 -127.5 -292t-285.5 -109q-177 0 -288 109t-128 292z" />
    <glyph glyph-name="Iogonek" unicode="&#x12e;" horiz-adv-x="710" 
d="M143 0v1536h424v-1536q-95 -34 -142.5 -67.5t-47.5 -73.5q0 -58 106 -58q51 0 117 15v-222q-31 -10 -95.5 -19t-125.5 -9q-145 0 -233.5 54.5t-88.5 146.5q0 149 238 233h-152z" />
    <glyph glyph-name="iogonek" unicode="&#x12f;" horiz-adv-x="649" 
d="M115 0v1188h420v-1188q-191 -70 -191 -141q0 -58 100 -58q55 0 121 15v-222q-31 -10 -96 -19t-127 -9q-143 0 -230 55t-87 146q0 145 233 233h-143zM324 1284q-110 0 -177 55t-67 148t67 148t177 55q111 0 178 -55t67 -148t-67 -148t-178 -55z" />
    <glyph glyph-name="Idotaccent" unicode="&#x130;" horiz-adv-x="710" 
d="M143 0v1536h424v-1536h-424zM354 1649q-109 0 -176 55t-67 147q0 93 67 149t176 56q111 0 178.5 -56t67.5 -149q0 -92 -67.5 -147t-178.5 -55z" />
    <glyph glyph-name="dotlessi" unicode="&#x131;" horiz-adv-x="649" 
d="M115 0v1188h420v-1188h-420z" />
    <glyph glyph-name="IJ" unicode="&#x132;" horiz-adv-x="1730" 
d="M117 631l-2 84h417v-51q0 -167 77.5 -250.5t246.5 -83.5q166 0 246 78t80 223v905h426v-928q0 -297 -205.5 -469t-546.5 -172q-335 0 -532.5 176.5t-206.5 487.5zM111 848v688h426v-688h-426z" />
    <glyph glyph-name="ij" unicode="&#x133;" horiz-adv-x="1298" 
d="M115 0v1188h420v-1188h-213q122 -51 266 -51q135 0 186 50t51 179v1010h420v-1067q0 -234 -139 -363t-422 -129q-205 0 -371 60v311h-198zM324 1284q-110 0 -177 55t-67 148t67 148t177 55q111 0 178 -55t67 -148t-67 -148t-178 -55zM1034 1284q-110 0 -176.5 55
t-66.5 148t66.5 148t176.5 55q111 0 178.5 -55t67.5 -148t-67.5 -148t-178.5 -55z" />
    <glyph glyph-name="Jcircumflex" unicode="&#x134;" horiz-adv-x="1650" 
d="M39 672l-2 84h416v-51q0 -187 76 -279t247 -92q326 0 326 338v864h424v-887q0 -316 -205 -499t-545 -183q-336 0 -536.5 189t-200.5 516zM874 1651l226 344h428l225 -344h-293l-145 153l-146 -153h-295z" />
    <glyph glyph-name="jcircumflex" unicode="&#x135;" horiz-adv-x="649" 
d="M535 1188v-1067q0 -234 -139.5 -363t-422.5 -129q-204 0 -370 60v315q119 -55 274 -55q135 0 186.5 50t51.5 179v1010h420zM-57 1284l188 387h430l191 -387h-279l-127 191l-125 -191h-278z" />
    <glyph glyph-name="uni0136" unicode="&#x136;" horiz-adv-x="1781" 
d="M565 0h-422v1536h422v-567h346l473 567h469l-624 -727l645 -809h-502l-463 592h-344v-592zM918 -633h-201l129 207q-66 15 -103.5 58t-37.5 106q0 79 60 125.5t163 46.5t163 -47t60 -129q0 -52 -25.5 -97.5t-97.5 -134.5z" />
    <glyph glyph-name="uni0137" unicode="&#x137;" horiz-adv-x="1521" 
d="M535 0h-420v1577h420v-823h217l348 415h452l-485 -546l518 -623h-481l-354 442h-215v-442zM797 -633h-201l129 207q-66 15 -103.5 58t-37.5 106q0 79 60 125.5t163 46.5t163 -47t60 -129q0 -52 -25.5 -97.5t-97.5 -134.5z" />
    <glyph glyph-name="kgreenlandic" unicode="&#x138;" horiz-adv-x="1521" 
d="M115 1169h417v-651l535 651h438l-403 -464l434 -705h-471l-231 397l-345 -397h-374v1169z" />
    <glyph glyph-name="Lacute" unicode="&#x139;" horiz-adv-x="1564" 
d="M143 1536h424v-1159h959v-377h-1383v1536zM100 1651l301 344h476l-355 -344h-422z" />
    <glyph glyph-name="lacute" unicode="&#x13a;" horiz-adv-x="649" 
d="M115 0v1577h420v-1577h-420zM94 1692l258 387h406l-277 -387h-387z" />
    <glyph glyph-name="uni013B" unicode="&#x13b;" horiz-adv-x="1564" 
d="M143 1536h424v-1159h959v-377h-1383v1536zM852 -633h-201l129 207q-66 15 -103.5 58t-37.5 106q0 79 60 125.5t163 46.5t163 -47t60 -129q0 -52 -25.5 -98t-96.5 -134z" />
    <glyph glyph-name="uni013C" unicode="&#x13c;" horiz-adv-x="649" 
d="M115 0v1577h420v-1577h-420zM315 -633h-200l129 207q-66 15 -104 58t-38 106q0 79 60.5 125.5t163.5 46.5t163 -47t60 -129q0 -52 -25.5 -97.5t-97.5 -134.5z" />
    <glyph glyph-name="Lcaron" unicode="&#x13d;" horiz-adv-x="1564" 
d="M143 1536h424v-1159h959v-377h-1383v1536zM774 1044l60 492h364l-137 -492h-287z" />
    <glyph glyph-name="lcaron" unicode="&#x13e;" horiz-adv-x="694" 
d="M115 0v1577h420v-1577h-420zM616 1292l52 424h364l-129 -424h-287z" />
    <glyph glyph-name="Ldot" unicode="&#x13f;" horiz-adv-x="1570" 
d="M143 1536h424v-1159h959v-377h-1383v1536zM1145 715q-101 0 -170.5 69t-69.5 170t69.5 171.5t170.5 70.5t170 -70t69 -172q0 -101 -69 -170t-170 -69z" />
    <glyph glyph-name="ldot" unicode="&#x140;" horiz-adv-x="1077" 
d="M115 0v1577h420v-1577h-420zM864 567q-99 0 -167 68.5t-68 167.5q0 100 67.5 167.5t167.5 67.5t168 -67.5t68 -167.5q0 -99 -68.5 -167.5t-167.5 -68.5z" />
    <glyph glyph-name="Lslash" unicode="&#x141;" horiz-adv-x="1634" 
d="M213 1536h424v-483l467 123v-289l-467 -123v-387h958v-377h-1382v651l-139 -35v289l139 37v594z" />
    <glyph glyph-name="lslash" unicode="&#x142;" horiz-adv-x="866" 
d="M59 612v281l164 49v635h420v-514l164 49v-281l-164 -49v-782h-420v662z" />
    <glyph glyph-name="Nacute" unicode="&#x143;" horiz-adv-x="1990" 
d="M692 1536l744 -1055v1055h411v-1536h-534l-758 1079v-1079h-412v1536h549zM768 1651l301 344h475l-354 -344h-422z" />
    <glyph glyph-name="nacute" unicode="&#x144;" horiz-adv-x="1615" 
d="M985 1204q251 0 391 -147.5t140 -401.5v-655h-418v594q0 130 -66.5 200t-191.5 70q-132 0 -208.5 -81.5t-76.5 -219.5v-563h-418v1169h418v-186q77 108 188.5 164.5t241.5 56.5zM596 1284l258 387h406l-277 -387h-387z" />
    <glyph glyph-name="uni0145" unicode="&#x145;" horiz-adv-x="1990" 
d="M692 1536l744 -1055v1055h411v-1536h-534l-758 1079v-1079h-412v1536h549zM985 -633h-201l129 207q-66 15 -103.5 58t-37.5 106q0 79 60 125.5t163 46.5t163.5 -47t60.5 -129q0 -52 -25.5 -97.5t-97.5 -134.5z" />
    <glyph glyph-name="uni0146" unicode="&#x146;" horiz-adv-x="1615" 
d="M985 1204q251 0 391 -147.5t140 -401.5v-655h-418v594q0 130 -66.5 200t-191.5 70q-132 0 -208.5 -81.5t-76.5 -219.5v-563h-418v1169h418v-186q77 108 188.5 164.5t241.5 56.5zM817 -633h-201l129 207q-66 15 -103.5 58t-37.5 106q0 79 60 125.5t163 46.5t163.5 -47
t60.5 -129q0 -52 -25.5 -97.5t-97.5 -134.5z" />
    <glyph glyph-name="Ncaron" unicode="&#x147;" horiz-adv-x="1990" 
d="M692 1536l744 -1055v1055h411v-1536h-534l-758 1079v-1079h-412v1536h549zM1554 1993l-311 -344h-440l-311 344h342l190 -140l188 140h342z" />
    <glyph glyph-name="ncaron" unicode="&#x148;" horiz-adv-x="1615" 
d="M985 1204q251 0 391 -147.5t140 -401.5v-655h-418v594q0 130 -66.5 200t-191.5 70q-132 0 -208.5 -81.5t-76.5 -219.5v-563h-418v1169h418v-186q77 108 188.5 164.5t241.5 56.5zM1333 1671l-293 -387h-428l-293 387h330l176 -184l176 184h332z" />
    <glyph glyph-name="napostrophe" unicode="&#x149;" horiz-adv-x="2080" 
d="M1448 1204q251 0 390.5 -147t139.5 -402v-655h-417v594q0 130 -66.5 200t-191.5 70q-132 0 -208.5 -81.5t-76.5 -219.5v-563h-418v1169h418v-186q77 108 188.5 164.5t241.5 56.5zM195 823h-201l139 293q-65 26 -104 84t-39 129q0 95 67.5 161t165.5 66q97 0 164.5 -66.5
t67.5 -164.5q0 -61 -29 -130t-100 -175z" />
    <glyph glyph-name="Eng" unicode="&#x14a;" horiz-adv-x="1886" 
d="M143 0v1536h424v-252q184 285 555 285q296 0 466.5 -163t170.5 -441v-850q0 -231 -140.5 -358.5t-424.5 -127.5q-201 0 -354 58v319q122 -51 280 -51q113 0 164 50t51 157v702q0 159 -94 242.5t-274 83.5q-188 0 -294 -94.5t-106 -259.5v-836h-424z" />
    <glyph glyph-name="eng" unicode="&#x14b;" horiz-adv-x="1615" 
d="M985 1204q251 0 391 -147.5t140 -401.5v-532q0 -223 -131.5 -358.5t-358.5 -135.5q-172 0 -297 64v313q107 -57 205 -57q92 0 128 39t36 137v469q0 130 -66.5 200t-191.5 70q-132 0 -208.5 -81.5t-76.5 -219.5v-563h-418v1169h418v-186q77 108 188.5 164.5t241.5 56.5z
" />
    <glyph glyph-name="Omacron" unicode="&#x14c;" horiz-adv-x="1976" 
d="M987 -33q-270 0 -477 100t-320.5 282t-113.5 419t113.5 419t320.5 282t477 100q271 0 478.5 -100t321.5 -282t114 -419t-114 -419t-321.5 -282t-478.5 -100zM987 346q224 0 353.5 113t129.5 309t-129.5 309t-353.5 113q-223 0 -353 -113t-130 -309t130 -309t353 -113z
M1487 1692h-998v252h998v-252z" />
    <glyph glyph-name="omacron" unicode="&#x14d;" horiz-adv-x="1622" 
d="M811 -33q-222 0 -392.5 77t-264 217t-93.5 323q0 279 206.5 449.5t543.5 170.5t543.5 -170.5t206.5 -449.5q0 -183 -93.5 -323t-264 -217t-392.5 -77zM1309 1335h-998v250h998v-250zM811 276q153 0 239.5 82.5t86.5 225.5q0 145 -86.5 227t-239.5 82q-154 0 -241 -82
t-87 -227q0 -143 87.5 -225.5t240.5 -82.5z" />
    <glyph glyph-name="Obreve" unicode="&#x14e;" horiz-adv-x="1976" 
d="M987 -33q-270 0 -477 100t-320.5 282t-113.5 419t113.5 419t320.5 282t477 100q271 0 478.5 -100t321.5 -282t114 -419t-114 -419t-321.5 -282t-478.5 -100zM987 346q224 0 353.5 113t129.5 309t-129.5 309t-353.5 113q-223 0 -353 -113t-130 -309t130 -309t353 -113z
M467 2003h317q61 -115 203 -115t203 115h317q-50 -183 -185.5 -276t-334.5 -93t-335 93.5t-185 275.5z" />
    <glyph glyph-name="obreve" unicode="&#x14f;" horiz-adv-x="1622" 
d="M811 -33q-222 0 -392.5 77t-264 217t-93.5 323q0 279 206.5 449.5t543.5 170.5t543.5 -170.5t206.5 -449.5q0 -183 -93.5 -323t-264 -217t-392.5 -77zM313 1669h308q15 -69 65 -108t125 -39q73 0 123 39t67 108h308q-30 -189 -159 -295t-339 -106t-339 106t-159 295z
M811 276q153 0 239.5 82.5t86.5 225.5q0 145 -86.5 227t-239.5 82q-154 0 -241 -82t-87 -227q0 -143 87.5 -225.5t240.5 -82.5z" />
    <glyph glyph-name="Ohungarumlaut" unicode="&#x150;" horiz-adv-x="1976" 
d="M987 -33q-270 0 -477 100t-320.5 282t-113.5 419t113.5 419t320.5 282t477 100q271 0 478.5 -100t321.5 -282t114 -419t-114 -419t-321.5 -282t-478.5 -100zM987 346q224 0 353.5 113t129.5 309t-129.5 309t-353.5 113q-223 0 -353 -113t-130 -309t130 -309t353 -113z
M549 1651l254 344h399l-287 -344h-366zM1087 1651l252 344h404l-289 -344h-367z" />
    <glyph glyph-name="ohungarumlaut" unicode="&#x151;" horiz-adv-x="1622" 
d="M811 -33q-222 0 -392.5 77t-264 217t-93.5 323q0 279 206.5 449.5t543.5 170.5t543.5 -170.5t206.5 -449.5q0 -183 -93.5 -323t-264 -217t-392.5 -77zM811 276q153 0 239.5 82.5t86.5 225.5q0 145 -86.5 227t-239.5 82q-154 0 -241 -82t-87 -227q0 -143 87.5 -225.5
t240.5 -82.5zM377 1284l231 387h369l-250 -387h-350zM891 1284l229 387h369l-250 -387h-348z" />
    <glyph glyph-name="OE" unicode="&#x152;" horiz-adv-x="2732" 
d="M2632 0h-1645q-271 0 -478 95t-320 269.5t-113 403.5t112 403.5t318 269.5t477 95h1638v-344h-909v-268h850v-310h-850v-270h920v-344zM956 377h344v782h-344q-207 0 -329.5 -105.5t-122.5 -285.5t122.5 -285.5t329.5 -105.5z" />
    <glyph glyph-name="oe" unicode="&#x153;" horiz-adv-x="2547" 
d="M1855 -33q-172 0 -306.5 51.5t-221.5 149.5q-185 -201 -541 -201q-211 0 -376 77t-257 217.5t-92 322.5q0 184 92 325.5t257 218t376 76.5q361 0 545 -209q90 99 217.5 154t278.5 55q301 0 479 -195t178 -522h-923q38 -104 139 -158.5t254 -54.5q281 0 500 129v-253
q-118 -86 -278 -134.5t-321 -48.5zM805 276q152 0 237.5 82.5t85.5 225.5q0 145 -85.5 227t-237.5 82q-151 0 -236.5 -82t-85.5 -227q0 -143 86 -225.5t236 -82.5zM1835 924q-110 0 -187 -58.5t-100 -158.5h570q-27 104 -99.5 160.5t-183.5 56.5z" />
    <glyph glyph-name="Racute" unicode="&#x154;" horiz-adv-x="1740" 
d="M1202 0l-411 553h-224v-553h-424v1536h912q263 0 424 -136t161 -358q0 -174 -104 -297.5t-285 -169.5l443 -575h-492zM567 864h428q102 0 159.5 47t57.5 131t-57.5 131.5t-159.5 47.5h-428v-357zM590 1651l301 344h475l-354 -344h-422z" />
    <glyph glyph-name="racute" unicode="&#x155;" horiz-adv-x="1132" 
d="M1104 1188v-357q-115 23 -215 23q-71 0 -129.5 -20.5t-105.5 -63.5t-73 -116.5t-26 -172.5v-481h-418v1169h418v-260q125 295 403 295q68 0 146 -16zM381 1284l258 387h405l-276 -387h-387z" />
    <glyph glyph-name="uni0156" unicode="&#x156;" horiz-adv-x="1740" 
d="M1202 0l-411 553h-224v-553h-424v1536h912q263 0 424 -136t161 -358q0 -174 -104 -297.5t-285 -169.5l443 -575h-492zM866 -633h-200l129 207q-66 15 -104 58t-38 106q0 79 60.5 125.5t163.5 46.5t163 -47t60 -129q0 -52 -25.5 -97.5t-97.5 -134.5zM567 864h428
q102 0 159.5 47t57.5 131t-57.5 131.5t-159.5 47.5h-428v-357z" />
    <glyph glyph-name="uni0157" unicode="&#x157;" horiz-adv-x="1132" 
d="M1104 1188v-357q-115 23 -215 23q-71 0 -129.5 -20.5t-105.5 -63.5t-73 -116.5t-26 -172.5v-481h-418v1169h418v-260q125 295 403 295q68 0 146 -16zM338 -633h-201l129 207q-66 15 -103.5 58t-37.5 106q0 79 60 125.5t163 46.5t163 -47t60 -129q0 -52 -25.5 -98
t-96.5 -134z" />
    <glyph glyph-name="Rcaron" unicode="&#x158;" horiz-adv-x="1740" 
d="M1202 0l-411 553h-224v-553h-424v1536h912q263 0 424 -136t161 -358q0 -174 -104 -297.5t-285 -169.5l443 -575h-492zM1376 1993l-311 -344h-440l-312 344h342l191 -140l188 140h342zM567 864h428q102 0 159.5 47t57.5 131t-57.5 131.5t-159.5 47.5h-428v-357z" />
    <glyph glyph-name="rcaron" unicode="&#x159;" horiz-adv-x="1132" 
d="M1104 1188v-357q-115 23 -215 23q-71 0 -129.5 -20.5t-105.5 -63.5t-73 -116.5t-26 -172.5v-481h-418v1169h418v-260q125 295 403 295q68 0 146 -16zM1118 1671l-293 -387h-428l-293 387h330l176 -184l176 184h332z" />
    <glyph glyph-name="Sacute" unicode="&#x15a;" horiz-adv-x="1726" 
d="M74 504h432q14 -97 116.5 -153t270.5 -56q157 0 246.5 41t89.5 117q0 61 -54 93.5t-194 45.5l-287 26q-314 29 -459 142.5t-145 314.5q0 234 202.5 364t547.5 130q333 0 547 -139.5t229 -366.5h-430q-12 83 -105 130.5t-250 47.5q-147 0 -229 -38.5t-82 -110.5
q0 -56 52 -87t180 -44l305 -31q325 -31 462.5 -130.5t137.5 -297.5q0 -242 -212 -388.5t-560 -146.5q-358 0 -580.5 147.5t-230.5 389.5zM608 1651l301 344h475l-354 -344h-422z" />
    <glyph glyph-name="sacute" unicode="&#x15b;" horiz-adv-x="1531" 
d="M1470 381q0 -200 -179 -307t-500 -107q-329 0 -530 116.5t-210 309.5h424q21 -71 106 -110t228 -39q254 0 254 98q0 40 -49 59.5t-168 28.5l-207 16q-154 11 -263 40.5t-173 77t-92.5 107.5t-28.5 138q0 193 178 294t483 101q195 0 350 -50.5t247.5 -143t105.5 -213.5
h-424q-16 62 -90.5 102.5t-208.5 40.5q-112 0 -170.5 -24.5t-58.5 -69.5q0 -37 37 -57t133 -27l272 -21q150 -11 254 -39t165.5 -74t88 -106t26.5 -141zM532 1284l259 387h405l-276 -387h-388z" />
    <glyph glyph-name="Scircumflex" unicode="&#x15c;" horiz-adv-x="1726" 
d="M74 504h432q14 -97 116.5 -153t270.5 -56q157 0 246.5 41t89.5 117q0 61 -54 93.5t-194 45.5l-287 26q-314 29 -459 142.5t-145 314.5q0 234 202.5 364t547.5 130q333 0 547 -139.5t229 -366.5h-430q-12 83 -105 130.5t-250 47.5q-147 0 -229 -38.5t-82 -110.5
q0 -56 52 -87t180 -44l305 -31q325 -31 462.5 -130.5t137.5 -297.5q0 -242 -212 -388.5t-560 -146.5q-358 0 -580.5 147.5t-230.5 389.5zM332 1651l311 344h440l312 -344h-342l-191 139l-188 -139h-342z" />
    <glyph glyph-name="scircumflex" unicode="&#x15d;" horiz-adv-x="1531" 
d="M1470 381q0 -200 -179 -307t-500 -107q-329 0 -530 116.5t-210 309.5h424q21 -71 106 -110t228 -39q254 0 254 98q0 40 -49 59.5t-168 28.5l-207 16q-154 11 -263 40.5t-173 77t-92.5 107.5t-28.5 138q0 193 178 294t483 101q195 0 350 -50.5t247.5 -143t105.5 -213.5
h-424q-16 62 -90.5 102.5t-208.5 40.5q-112 0 -170.5 -24.5t-58.5 -69.5q0 -37 37 -57t133 -27l272 -21q150 -11 254 -39t165.5 -74t88 -106t26.5 -141zM258 1284l293 387h428l293 -387h-330l-176 184l-176 -184h-332z" />
    <glyph glyph-name="Scedilla" unicode="&#x15e;" horiz-adv-x="1726" 
d="M602 -229l133 204q-296 29 -475.5 172t-185.5 357h432q14 -97 116.5 -153t270.5 -56q157 0 246.5 41t89.5 117q0 61 -54 93.5t-194 45.5l-287 26q-314 29 -459 142.5t-145 314.5q0 234 202.5 364t547.5 130q333 0 547 -139.5t229 -366.5h-430q-12 83 -105 130.5
t-250 47.5q-147 0 -229 -38.5t-82 -110.5q0 -56 52 -87t180 -44l305 -31q325 -31 462.5 -130.5t137.5 -297.5q0 -154 -89 -272.5t-252 -186.5t-378 -76l-33 -57q52 10 99 10q140 0 217 -54t77 -149q0 -105 -102.5 -169t-290.5 -64q-168 0 -280.5 60t-143.5 167h271
q35 -55 153 -55q65 0 99 19.5t34 50.5q0 29 -28 46t-82 17q-73 0 -119 -18h-207z" />
    <glyph glyph-name="scedilla" unicode="&#x15f;" horiz-adv-x="1531" 
d="M522 -229l129 202q-270 25 -431.5 137.5t-168.5 282.5h424q21 -71 106 -110t228 -39q254 0 254 98q0 40 -49 59.5t-168 28.5l-207 16q-154 11 -263 40.5t-173 77t-92.5 107.5t-28.5 138q0 193 178 294t483 101q195 0 350 -50.5t247.5 -143t105.5 -213.5h-424
q-16 62 -90.5 102.5t-208.5 40.5q-112 0 -170.5 -24.5t-58.5 -69.5q0 -37 37 -57t133 -27l272 -21q150 -11 254 -39t165.5 -74t88 -106t26.5 -141q0 -190 -162 -296.5t-454 -115.5l-41 -61q58 8 94 8q137 0 210 -52.5t73 -146.5q0 -100 -98 -163.5t-275 -63.5
q-159 0 -267.5 60t-141.5 163h249q38 -59 160 -59q64 0 98.5 19.5t34.5 52.5q0 30 -28 48.5t-86 18.5q-65 0 -107 -22h-207z" />
    <glyph glyph-name="Scaron" unicode="&#x160;" horiz-adv-x="1726" 
d="M74 504h432q14 -97 116.5 -153t270.5 -56q157 0 246.5 41t89.5 117q0 61 -54 93.5t-194 45.5l-287 26q-314 29 -459 142.5t-145 314.5q0 234 202.5 364t547.5 130q333 0 547 -139.5t229 -366.5h-430q-12 83 -105 130.5t-250 47.5q-147 0 -229 -38.5t-82 -110.5
q0 -56 52 -87t180 -44l305 -31q325 -31 462.5 -130.5t137.5 -297.5q0 -242 -212 -388.5t-560 -146.5q-358 0 -580.5 147.5t-230.5 389.5zM1395 1993l-312 -344h-440l-311 344h342l190 -140l189 140h342z" />
    <glyph glyph-name="scaron" unicode="&#x161;" horiz-adv-x="1531" 
d="M1470 381q0 -200 -179 -307t-500 -107q-329 0 -530 116.5t-210 309.5h424q21 -71 106 -110t228 -39q254 0 254 98q0 40 -49 59.5t-168 28.5l-207 16q-154 11 -263 40.5t-173 77t-92.5 107.5t-28.5 138q0 193 178 294t483 101q195 0 350 -50.5t247.5 -143t105.5 -213.5
h-424q-16 62 -90.5 102.5t-208.5 40.5q-112 0 -170.5 -24.5t-58.5 -69.5q0 -37 37 -57t133 -27l272 -21q150 -11 254 -39t165.5 -74t88 -106t26.5 -141zM1272 1671l-293 -387h-428l-293 387h330l176 -184l176 184h332z" />
    <glyph glyph-name="uni0162" unicode="&#x162;" horiz-adv-x="1675" 
d="M625 0v1159h-586v377h1597v-377h-585v-1159h-121l-51 -90q52 10 98 10q140 0 217.5 -54t77.5 -149q0 -105 -102.5 -169t-290.5 -64q-168 0 -280.5 60t-143.5 167h270q35 -55 154 -55q65 0 99 19.5t34 50.5q0 29 -28.5 46t-82.5 17q-73 0 -119 -18h-207l150 229h-100z" />
    <glyph glyph-name="uni0163" unicode="&#x163;" horiz-adv-x="1234" 
d="M250 860h-238v182l238 97l180 346h238v-316h491v-309h-491v-344q0 -129 51 -179t186 -50q159 0 275 55v-315q-160 -60 -414 -60l-41 -59q58 8 94 8q137 0 210 -52.5t73 -146.5q0 -100 -98 -163.5t-275 -63.5q-159 0 -268 60.5t-142 162.5h250q38 -59 160 -59
q64 0 98.5 19.5t34.5 52.5q0 30 -28 48.5t-86 18.5q-65 0 -107 -22h-207l144 225q-165 46 -246.5 165t-81.5 298v401z" />
    <glyph glyph-name="Tcaron" unicode="&#x164;" horiz-adv-x="1675" 
d="M625 0v1159h-586v377h1597v-377h-585v-1159h-426zM1368 1993l-311 -344h-441l-311 344h342l191 -140l188 140h342z" />
    <glyph glyph-name="tcaron" unicode="&#x165;" horiz-adv-x="1234" 
d="M250 860h-238v182l238 97l180 346h238v-316h491v-309h-491v-344q0 -129 51 -179t186 -50q159 0 275 55v-315q-163 -60 -369 -60q-284 0 -422.5 128.5t-138.5 363.5v401zM788 1348l52 424h364l-129 -424h-287z" />
    <glyph glyph-name="Tbar" unicode="&#x166;" horiz-adv-x="1699" 
d="M51 1159v377h1598v-377h-586v-342h389v-291h-389v-526h-426v526h-389v291h389v342h-586z" />
    <glyph glyph-name="tbar" unicode="&#x167;" horiz-adv-x="1259" 
d="M266 860h-237v182l237 97l180 346h238v-316h492v-309h-492v-137h363v-277h-359q12 -87 65 -123t169 -36q158 0 274 55v-315q-163 -60 -369 -60q-280 0 -419 125.5t-142 353.5h-207v277h207v137z" />
    <glyph glyph-name="Utilde" unicode="&#x168;" horiz-adv-x="1798" 
d="M547 1536v-850q0 -161 90.5 -250.5t261.5 -89.5t260.5 89.5t89.5 250.5v850h426v-870q0 -208 -96.5 -367t-273 -245.5t-406.5 -86.5t-406.5 86.5t-273 245.5t-96.5 367v870h424zM610 1661h-270q47 350 360 350q64 0 138 -24t137 -48t102 -24q43 0 71.5 22t35.5 64h270
q-47 -352 -358 -352q-65 0 -139.5 24.5t-138 49t-101.5 24.5q-43 0 -71.5 -22.5t-35.5 -63.5z" />
    <glyph glyph-name="utilde" unicode="&#x169;" horiz-adv-x="1591" 
d="M1454 0h-418v184q-76 -106 -184 -161.5t-234 -55.5q-244 0 -381 147.5t-137 401.5v653h418v-594q0 -129 64 -198.5t182 -69.5q130 0 201 79t71 222v561h418v-1169zM526 1296h-247q9 182 84.5 281.5t218.5 99.5q64 0 137 -26.5t134 -53t97 -26.5q42 0 71 27.5t36 76.5h248
q-9 -180 -85 -281.5t-219 -101.5q-64 0 -137 27t-133.5 53.5t-95.5 26.5q-43 0 -72.5 -27t-36.5 -76z" />
    <glyph glyph-name="Umacron" unicode="&#x16a;" horiz-adv-x="1798" 
d="M547 1536v-850q0 -161 90.5 -250.5t261.5 -89.5t260.5 89.5t89.5 250.5v850h426v-870q0 -208 -96.5 -367t-273 -245.5t-406.5 -86.5t-406.5 86.5t-273 245.5t-96.5 367v870h424zM1397 1692h-998v252h998v-252z" />
    <glyph glyph-name="umacron" unicode="&#x16b;" horiz-adv-x="1591" 
d="M1454 0h-418v184q-76 -106 -184 -161.5t-234 -55.5q-244 0 -381 147.5t-137 401.5v653h418v-594q0 -129 64 -198.5t182 -69.5q130 0 201 79t71 222v561h418v-1169zM1290 1335h-997v250h997v-250z" />
    <glyph glyph-name="Ubreve" unicode="&#x16c;" horiz-adv-x="1798" 
d="M547 1536v-850q0 -161 90.5 -250.5t261.5 -89.5t260.5 89.5t89.5 250.5v850h426v-870q0 -208 -96.5 -367t-273 -245.5t-406.5 -86.5t-406.5 86.5t-273 245.5t-96.5 367v870h424zM379 2003h317q61 -115 203 -115t203 115h317q-50 -183 -185.5 -276t-334.5 -93t-335 93.5
t-185 275.5z" />
    <glyph glyph-name="ubreve" unicode="&#x16d;" horiz-adv-x="1591" 
d="M1454 0h-418v184q-76 -106 -184 -161.5t-234 -55.5q-244 0 -381 147.5t-137 401.5v653h418v-594q0 -129 64 -198.5t182 -69.5q130 0 201 79t71 222v561h418v-1169zM295 1669h307q15 -69 65.5 -108t125.5 -39q73 0 123 39t67 108h307q-30 -190 -158.5 -295.5
t-338.5 -105.5t-339 106t-159 295z" />
    <glyph glyph-name="Uring" unicode="&#x16e;" horiz-adv-x="1798" 
d="M547 1536v-850q0 -161 90.5 -250.5t261.5 -89.5t260.5 89.5t89.5 250.5v850h426v-870q0 -208 -96.5 -367t-273 -245.5t-406.5 -86.5t-406.5 86.5t-273 245.5t-96.5 367v870h424zM897 1614q-193 0 -299 73t-106 205q0 134 106 207.5t299 73.5q194 0 301 -74t107 -207
q0 -132 -107 -205t-301 -73zM897 1796q176 0 176 96q0 99 -176 99q-174 0 -174 -99q0 -96 174 -96z" />
    <glyph glyph-name="uring" unicode="&#x16f;" horiz-adv-x="1591" 
d="M1454 0h-418v184q-76 -106 -184 -161.5t-234 -55.5q-244 0 -381 147.5t-137 401.5v653h418v-594q0 -129 64 -198.5t182 -69.5q130 0 201 79t71 222v561h418v-1169zM793 1264q-183 0 -286.5 75.5t-103.5 208.5q0 132 104 208.5t286 76.5q181 0 284 -76.5t103 -208.5
q0 -133 -102.5 -208.5t-284.5 -75.5zM793 1434q73 0 113 29.5t40 84.5q0 54 -40.5 84.5t-112.5 30.5q-73 0 -114.5 -30.5t-41.5 -84.5q0 -55 41 -84.5t115 -29.5z" />
    <glyph glyph-name="Uhungarumlaut" unicode="&#x170;" horiz-adv-x="1798" 
d="M547 1536v-850q0 -161 90.5 -250.5t261.5 -89.5t260.5 89.5t89.5 250.5v850h426v-870q0 -208 -96.5 -367t-273 -245.5t-406.5 -86.5t-406.5 86.5t-273 245.5t-96.5 367v870h424zM403 1651l254 344h400l-287 -344h-367zM942 1651l252 344h403l-288 -344h-367z" />
    <glyph glyph-name="uhungarumlaut" unicode="&#x171;" horiz-adv-x="1591" 
d="M1454 0h-418v184q-76 -106 -184 -161.5t-234 -55.5q-244 0 -381 147.5t-137 401.5v653h418v-594q0 -129 64 -198.5t182 -69.5q130 0 201 79t71 222v561h418v-1169zM358 1284l232 387h368l-249 -387h-351zM872 1284l230 387h368l-249 -387h-349z" />
    <glyph glyph-name="Uogonek" unicode="&#x172;" horiz-adv-x="1798" 
d="M1249 688v848h426v-870q0 -249 -134.5 -423t-369.5 -241q-229 -67 -229 -141q0 -60 139 -60q52 0 121 15v-222q-32 -10 -96.5 -19t-128.5 -9q-148 0 -238 55.5t-90 147.5q0 124 178 200q-319 20 -511.5 210t-192.5 487v870h424v-848q0 -161 90.5 -251.5t261.5 -90.5
t260.5 90t89.5 252z" />
    <glyph glyph-name="uogonek" unicode="&#x173;" horiz-adv-x="1591" 
d="M1454 0h-2q-246 -66 -246 -141q0 -58 127 -58q53 0 119 15v-222q-30 -10 -94.5 -19t-128.5 -9q-145 0 -233.5 54t-88.5 144q0 150 228 236h-99v184q-76 -106 -184 -161.5t-234 -55.5q-244 0 -381 147.5t-137 401.5v653h418v-594q0 -129 64 -198.5t182 -69.5q130 0 201 79
t71 222v561h418v-1169z" />
    <glyph glyph-name="Wcircumflex" unicode="&#x174;" horiz-adv-x="2785" 
d="M1618 1536l377 -1139l321 1139h449l-467 -1536h-547l-358 1055l-359 -1055h-545l-469 1536h451l322 -1139l376 1139h449zM860 1651l311 344h441l311 -344h-342l-190 139l-189 -139h-342z" />
    <glyph glyph-name="wcircumflex" unicode="&#x175;" horiz-adv-x="2334" 
d="M1370 1169l275 -753l268 753h418l-439 -1169h-426l-297 786l-301 -786h-426l-438 1169h422l266 -751l279 751h399zM670 1284l293 387h428l292 -387h-329l-176 184l-177 -184h-331z" />
    <glyph glyph-name="Ycircumflex" unicode="&#x176;" horiz-adv-x="1890" 
d="M1159 0h-426v618l-721 918h471l461 -588l461 588h471l-717 -911v-625zM412 1651l311 344h440l312 -344h-342l-191 139l-188 -139h-342z" />
    <glyph glyph-name="ycircumflex" unicode="&#x177;" horiz-adv-x="1591" 
d="M500 -371q-129 0 -229.5 30.5t-194.5 98.5v291q98 -62 181 -88.5t183 -26.5q91 0 154 38.5t102 133.5l2 3h-184l-498 1060h461l332 -798l336 798h444l-561 -1192q-58 -125 -146 -205t-181 -111.5t-201 -31.5zM307 1284l293 387h428l293 -387h-330l-176 184l-176 -184
h-332z" />
    <glyph glyph-name="Ydieresis" unicode="&#x178;" horiz-adv-x="1890" 
d="M1159 0h-426v618l-721 918h471l461 -588l461 588h471l-717 -911v-625zM627 1649q-104 0 -166 52.5t-62 143.5q0 87 62.5 138t165.5 51t165 -51t62 -138q0 -91 -61.5 -143.5t-165.5 -52.5zM1262 1649q-104 0 -166 52.5t-62 143.5q0 87 62 138t166 51q103 0 165 -51
t62 -138q0 -91 -61.5 -143.5t-165.5 -52.5z" />
    <glyph glyph-name="Zacute" unicode="&#x179;" horiz-adv-x="1654" 
d="M1569 0h-1483v307l911 897h-905v334h1471v-307l-912 -897h918v-334zM573 1651l301 344h476l-355 -344h-422z" />
    <glyph glyph-name="zacute" unicode="&#x17a;" horiz-adv-x="1421" 
d="M1341 0h-1263v291l737 579h-731v299h1253v-290l-735 -578h739v-301zM479 1284l258 387h406l-277 -387h-387z" />
    <glyph glyph-name="Zdotaccent" unicode="&#x17b;" horiz-adv-x="1654" 
d="M1569 0h-1483v307l911 897h-905v334h1471v-307l-912 -897h918v-334zM827 1649q-109 0 -176 55t-67 147q0 93 67 149t176 56q111 0 178.5 -56t67.5 -149q0 -92 -67.5 -147t-178.5 -55z" />
    <glyph glyph-name="zdotaccent" unicode="&#x17c;" horiz-adv-x="1421" 
d="M1341 0h-1263v291l737 579h-731v299h1253v-290l-735 -578h739v-301zM711 1284q-110 0 -177 55t-67 148t67 148t177 55q111 0 178 -55t67 -148t-67 -148t-178 -55z" />
    <glyph glyph-name="Zcaron" unicode="&#x17d;" horiz-adv-x="1654" 
d="M1569 0h-1483v307l911 897h-905v334h1471v-307l-912 -897h918v-334zM1358 1993l-311 -344h-441l-311 344h342l190 -140l189 140h342z" />
    <glyph glyph-name="zcaron" unicode="&#x17e;" horiz-adv-x="1421" 
d="M1341 0h-1263v291l737 579h-731v299h1253v-290l-735 -578h739v-301zM1219 1671l-293 -387h-428l-293 387h330l176 -184l176 184h332z" />
    <glyph glyph-name="longs" unicode="&#x17f;" horiz-adv-x="651" 
d="M778 1298q-135 0 -189 -47t-54 -155v-1096h-420v1075q0 258 156.5 396.5t455.5 138.5q153 0 311 -47v-308q-122 43 -260 43z" />
    <glyph glyph-name="uni0180" unicode="&#x180;" 
d="M535 0h-420v1219h-146v247h146v111h420v-111h548v-247h-548v-322q86 118 211.5 182t277.5 64q259 0 419.5 -162.5t160.5 -427.5q0 -262 -161 -424t-419 -162q-153 0 -278 64.5t-211 183.5v-215zM897 287q124 0 203.5 74.5t79.5 191.5q0 119 -79.5 194.5t-203.5 75.5
q-125 0 -230.5 -75.5t-148.5 -194.5q43 -117 148 -191.5t231 -74.5z" />
    <glyph glyph-name="uni0181" unicode="&#x181;" horiz-adv-x="2232" 
d="M442 1536h1170q213 0 331.5 -99.5t118.5 -275.5q0 -113 -55 -205.5t-172 -146.5q164 -39 247 -137t83 -240q0 -194 -132.5 -313t-379.5 -119h-1133l12 1225q-139 -3 -139 -154q0 -96 41 -221h-315q-82 177 -82 317q0 173 104.5 271t300.5 98zM938 643v-346h602
q91 0 143 45.5t52 124.5q0 80 -58 128t-164 48h-575zM938 1239v-305h518q77 0 126.5 45t49.5 119q0 63 -45 102t-123 39h-526z" />
    <glyph glyph-name="uni0186" unicode="&#x186;" horiz-adv-x="1912" 
d="M63 643h426q31 -150 148 -229.5t307 -79.5q215 0 339 116.5t124 317.5t-124 317.5t-339 116.5q-187 0 -305.5 -81.5t-149.5 -227.5h-426q23 202 139 355t308 237t434 84q266 0 469 -100t313.5 -282t110.5 -419t-110.5 -419t-313.5 -282t-469 -100q-242 0 -434 84
t-308 237t-139 355z" />
    <glyph glyph-name="uni0187" unicode="&#x187;" horiz-adv-x="2019" 
d="M956 1569q278 0 461 -123q-6 34 -6 72q0 70 24.5 129t72.5 105.5t127.5 72.5t181.5 26q143 0 270 -43v-313q-103 31 -168 31q-186 0 -186 -158q0 -73 47 -199q5 -18 22 -72.5t30 -105.5t19 -98h-426q-31 146 -149.5 227.5t-306.5 81.5q-215 0 -339 -116.5t-124 -317.5
t124 -317.5t339 -116.5q190 0 307.5 79.5t148.5 229.5h426q-23 -202 -139 -355t-307.5 -237t-433.5 -84q-266 0 -469 100t-313.5 282t-110.5 419q0 178 64.5 327.5t180 253.5t278.5 162t355 58z" />
    <glyph glyph-name="uni0188" unicode="&#x188;" horiz-adv-x="1673" 
d="M1518 1520q132 0 276 -64v-295q-109 45 -192 45q-93 0 -134 -39t-41 -123q0 -40 9.5 -89t18 -78t32.5 -109l26 -92h-415q-23 103 -104.5 160t-200.5 57q-142 0 -224 -81t-82 -228q0 -146 82.5 -227t223.5 -81q117 0 199.5 59.5t105.5 158.5h415q-17 -155 -115 -275.5
t-256.5 -186t-353.5 -65.5q-212 0 -377 77.5t-256.5 219.5t-91.5 326q0 269 190 441.5t490 172.5q210 0 357 -96v27q0 190 110 287.5t308 97.5z" />
    <glyph glyph-name="uni0189" unicode="&#x189;" horiz-adv-x="1947" 
d="M55 629v282h140v625h766q271 0 478 -95t320 -269.5t113 -403.5t-113 -403.5t-320 -269.5t-478 -95h-766v629h-140zM616 1159v-248h349v-282h-349v-252h377q206 0 328.5 105.5t122.5 285.5t-122.5 285.5t-328.5 105.5h-377z" />
    <glyph glyph-name="uni018A" unicode="&#x18a;" horiz-adv-x="2377" 
d="M469 1536h922q271 0 478 -95t320 -269.5t113 -403.5t-113 -403.5t-320 -269.5t-478 -95h-766v1180h-76q-76 0 -113 -33.5t-37 -110.5q0 -91 35 -186h-315q-24 53 -39.5 92t-29 101t-13.5 122q0 177 107.5 274t324.5 97zM1047 1159v-782h376q207 0 329 105.5t122 285.5
t-122 285.5t-329 105.5h-376z" />
    <glyph glyph-name="uni018E" unicode="&#x18e;" horiz-adv-x="1626" 
d="M1106 922v270h-993v344h1417v-1536h-1428v344h1004v270h-936v308h936z" />
    <glyph glyph-name="uni018F" unicode="&#x18f;" horiz-adv-x="1912" 
d="M950 1571q202 0 368.5 -60t279.5 -167t175 -255.5t62 -322.5q0 -237 -111.5 -419t-312 -281t-459.5 -99q-211 0 -379.5 68t-277 188.5t-166 283.5t-57.5 355h1327q-29 174 -147 268.5t-302 94.5q-172 0 -281.5 -69t-152.5 -181h-428q56 271 285 433.5t577 162.5zM950 303
q162 0 274 72.5t156 208.5h-848q40 -133 149 -207t269 -74z" />
    <glyph glyph-name="uni0190" unicode="&#x190;" horiz-adv-x="1695" 
d="M1559 1536v-326h-867l398 -258v-274h-252q-172 0 -246 -46.5t-74 -137.5q0 -97 85.5 -149t252.5 -52q348 0 379 213h424q-11 -247 -227 -393t-576 -146q-369 0 -568.5 139.5t-199.5 366.5q0 192 141 303t441 123l-502 330v307h1391z" />
    <glyph glyph-name="uni0191" unicode="&#x191;" horiz-adv-x="1579" 
d="M567 1178v-271h897v-358h-897v-406q0 -252 -130.5 -383t-387.5 -131q-169 0 -285 41v316q95 -31 181 -31q198 0 198 217v1364h1360v-358h-936z" />
    <glyph glyph-name="florin" unicode="&#x192;" horiz-adv-x="1273" 
d="M1243 748h-477v-584q0 -259 -151.5 -397t-444.5 -138q-138 0 -281 47v308q110 -43 230 -43q127 0 178 47t51 155v605h-237v325h237v2q0 258 157 396.5t456 138.5q153 0 311 -47v-308q-122 43 -260 43q-136 0 -191 -47t-55 -155v-23h477v-325z" />
    <glyph glyph-name="uni0193" unicode="&#x193;" horiz-adv-x="2048" 
d="M948 -33q-181 0 -338 53.5t-275.5 153.5t-186.5 253t-68 341q0 154 46 285t126.5 225t190 160t237 98.5t266.5 32.5q304 0 484 -135q-11 53 -11 84q0 147 102.5 240t303.5 93q143 0 270 -43v-313q-103 31 -168 31q-186 0 -186 -158q0 -63 47 -199q8 -30 30 -98.5
t31 -105.5h-426q-31 116 -151.5 182.5t-298.5 66.5q-219 0 -342 -114t-123 -332q0 -222 133.5 -339.5t370.5 -117.5q174 0 300 58t183 166h-442v260h813v-795h-299l-21 207q-99 -113 -250 -176.5t-348 -63.5z" />
    <glyph glyph-name="uni0194" unicode="&#x194;" horiz-adv-x="1890" 
d="M1677 0h-1462l483 612l-708 924h459l497 -643l504 643h451l-713 -920zM811 217h270l-135 172z" />
    <glyph glyph-name="uni0196" unicode="&#x196;" horiz-adv-x="890" 
d="M133 457v1079h424v-1055q0 -100 34.5 -144t119.5 -44q65 0 139 22v-313q-119 -35 -254 -35q-463 0 -463 490z" />
    <glyph glyph-name="uni0197" unicode="&#x197;" horiz-adv-x="860" 
d="M815 645h-174v-645h-424v645h-174v289h174v602h424v-602h174v-289z" />
    <glyph glyph-name="uni0198" unicode="&#x198;" horiz-adv-x="1820" 
d="M1309 0l-340 569l-443 -569h-383v1536h422v-956l576 778q79 107 166 159t229 52q116 0 238 -35v-313q-98 26 -166 26t-112 -26.5t-85 -79.5l-182 -234l565 -907h-485z" />
    <glyph glyph-name="uni0199" unicode="&#x199;" horiz-adv-x="1523" 
d="M1067 0l-231 397l-347 -397h-374v1081q0 272 142.5 400.5t451.5 128.5q187 0 342 -49v-299q-125 47 -265 47q-133 0 -192 -58.5t-59 -185.5v-553l544 657h428l-405 -464l436 -705h-471z" />
    <glyph glyph-name="uni019A" unicode="&#x19a;" horiz-adv-x="892" 
d="M59 700v248h179v629h419v-629h177v-248h-177v-700h-419v700h-179z" />
    <glyph glyph-name="uni019B" unicode="&#x19b;" horiz-adv-x="1517" 
d="M1251 1290l-301 -96l570 -1194h-453l-313 733l-330 -733h-451l486 971h192l-47 110l-334 -108l-61 201l285 92q-57 45 -140 45q-170 0 -352 -117v283q94 69 190 101t222 32q265 0 434 -230l340 111z" />
    <glyph glyph-name="uni019C" unicode="&#x19c;" horiz-adv-x="2533" 
d="M639 -33q-240 0 -374 147.5t-134 401.5v1020h424v-948q0 -126 59.5 -194t169.5 -68q118 0 186 79t68 216v915h426v-948q0 -126 59 -194t169 -68q120 0 188 79t68 216v915h424v-1536h-424v184q-73 -106 -177 -161.5t-227 -55.5q-167 0 -284 75.5t-175 215.5
q-71 -143 -187 -217t-259 -74z" />
    <glyph glyph-name="uni019D" unicode="&#x19d;" horiz-adv-x="1990" 
d="M143 174v1362h549l744 -1055v1055h411v-1536h-534l-758 1081v-931q0 -521 -516 -521q-157 0 -275 37v316q94 -27 177 -27q105 0 153.5 54.5t48.5 164.5z" />
    <glyph glyph-name="uni019E" unicode="&#x19e;" horiz-adv-x="1615" 
d="M983 1204q251 0 392 -147.5t141 -401.5v-993h-420v932q0 130 -66.5 200t-189.5 70q-132 0 -208.5 -81.5t-76.5 -219.5v-563h-418v1169h418v-184q78 107 188 163t240 56z" />
    <glyph glyph-name="uni019F" unicode="&#x19f;" horiz-adv-x="1976" 
d="M987 -33q-270 0 -477 100t-320.5 282t-113.5 419t113.5 419t320.5 282t477 100q271 0 478.5 -100t321.5 -282t114 -419t-114 -419t-321.5 -282t-478.5 -100zM987 324q182 0 305.5 76t167.5 214h-944q44 -138 167 -214t304 -76zM987 1212q-181 0 -304 -76t-167 -214h944
q-44 138 -167.5 214t-305.5 76z" />
    <glyph glyph-name="Ohorn" unicode="&#x1a0;" horiz-adv-x="1988" 
d="M987 -33q-271 0 -478 100t-320 282t-113 419t113 419t320 282t478 100q131 0 270 -27q101 -24 177 -24q97 0 142.5 36.5t45.5 94.5q0 73 -57 153h321q68 -108 68 -211q0 -105 -71.5 -178.5t-203.5 -101.5q219 -213 219 -543q0 -237 -113.5 -419t-320.5 -282t-477 -100z
M987 346q224 0 353.5 113t129.5 309t-129.5 309t-353.5 113t-353.5 -113t-129.5 -309t129.5 -309t353.5 -113z" />
    <glyph glyph-name="ohorn" unicode="&#x1a1;" horiz-adv-x="1671" 
d="M811 -33q-222 0 -392.5 77t-264 217t-93.5 323q0 279 206.5 449.5t543.5 170.5q117 0 266 -33q55 -12 109 -12q76 0 116.5 32.5t40.5 92.5q0 86 -47 152h316q55 -96 55 -207q0 -103 -65 -174t-181 -97q140 -153 140 -374q0 -183 -93.5 -323t-264 -217t-392.5 -77z
M811 276q153 0 239.5 82.5t86.5 225.5q0 145 -86.5 227t-239.5 82q-154 0 -241 -82t-87 -227q0 -143 87.5 -225.5t240.5 -82.5z" />
    <glyph glyph-name="uni01A4" unicode="&#x1a4;" horiz-adv-x="2148" 
d="M469 1536h1016q289 0 455.5 -144t166.5 -386q0 -240 -166.5 -384.5t-455.5 -144.5h-436v-477h-426v1180h-74q-76 0 -113 -33.5t-37 -110.5q0 -91 35 -186h-315q-24 53 -39.5 92t-29 101t-13.5 122q0 177 107.5 274t324.5 97zM1049 817h411q103 0 160 50t57 139t-57 139.5
t-160 50.5h-411v-379z" />
    <glyph glyph-name="uni01A5" unicode="&#x1a5;" horiz-adv-x="1667" 
d="M113 -338v1419q0 272 142.5 400.5t451.5 128.5q187 0 342 -49v-299q-125 47 -265 47q-133 0 -192.5 -58.5t-59.5 -185.5v-160q86 120 212 185t280 65q257 0 417.5 -165t160.5 -431q0 -265 -160.5 -428.5t-417.5 -163.5q-155 0 -280.5 65.5t-211.5 186.5v-557h-419z
M1180 559q0 122 -79.5 199.5t-203.5 77.5q-125 0 -230.5 -77.5t-150.5 -199.5q44 -120 150 -196t231 -76t204 76t79 196z" />
    <glyph glyph-name="uni01A9" unicode="&#x1a9;" horiz-adv-x="1622" 
d="M1550 0h-1466v307l604 463l-586 459v307h1420v-336h-832l375 -293v-274l-387 -297h872v-336z" />
    <glyph glyph-name="uni01AA" unicode="&#x1aa;" horiz-adv-x="1239" 
d="M1192 -47q87 0 182 31v-314q-116 -41 -284 -41q-500 0 -500 512v672q-78 -35 -168 -35q-196 0 -323.5 117t-127.5 301q0 186 132 300t374 114q254 0 392.5 -129.5t138.5 -372.5v-936q0 -111 42 -165t142 -54zM449 1032q80 0 141 58v63q0 77 -39.5 121.5t-114.5 44.5
q-71 0 -108 -36t-37 -99q0 -68 42.5 -110t115.5 -42z" />
    <glyph glyph-name="uni01AC" unicode="&#x1ac;" horiz-adv-x="1861" 
d="M811 0v1159h-254q-160 0 -160 -141q0 -65 35 -168h-313q-24 53 -39.5 92t-29 101t-13.5 122q0 177 107 274t325 97h1354v-377h-586v-1159h-426z" />
    <glyph glyph-name="uni01AD" unicode="&#x1ad;" horiz-adv-x="1239" 
d="M12 836v182l238 98q9 255 151.5 374.5t442.5 119.5q187 0 342 -49v-299q-125 47 -266 47q-109 0 -169 -40t-75 -124h483v-309h-491v-322q0 -127 51 -177t186 -50q156 0 275 53v-313q-163 -60 -369 -60q-284 0 -422.5 128.5t-138.5 363.5v377h-238z" />
    <glyph glyph-name="uni01AE" unicode="&#x1ae;" horiz-adv-x="1679" 
d="M39 1159v377h1597v-377h-585v-987q0 -110 41.5 -163.5t140.5 -53.5q87 0 182 31v-316q-119 -41 -285 -41q-505 0 -505 514v1016h-586z" />
    <glyph glyph-name="Uhorn" unicode="&#x1af;" horiz-adv-x="1961" 
d="M547 1536v-850q0 -161 90.5 -250.5t261.5 -89.5t260.5 89.5t89.5 250.5v850h373q51 4 81 34.5t30 76.5q0 67 -60 155h316q65 -103 65 -209q0 -127 -100 -202.5t-279 -83.5v-641q0 -208 -96.5 -367t-273 -245.5t-406.5 -86.5t-406.5 86.5t-273 245.5t-96.5 367v870h424z
" />
    <glyph glyph-name="uhorn" unicode="&#x1b0;" horiz-adv-x="1763" 
d="M1454 0h-418v184q-76 -106 -184 -161.5t-234 -55.5q-244 0 -381 147.5t-137 401.5v653h418v-594q0 -129 64 -198.5t182 -69.5q130 0 201 79t71 222v561h365q51 4 80.5 34.5t29.5 76.5q0 70 -59 156h315q66 -104 66 -209q0 -128 -100.5 -204t-278.5 -83v-940z" />
    <glyph glyph-name="uni01B1" unicode="&#x1b1;" horiz-adv-x="2007" 
d="M1004 -33q-214 0 -382.5 56t-275.5 155t-163 231t-56 287q0 160 64.5 295.5t187.5 235.5h-295v309h758v-279q-141 -71 -220 -189t-79 -273q0 -207 123 -328t338 -121t338.5 121t123.5 328q0 155 -79 273t-220 189v279h758v-309h-297q123 -100 188.5 -236t65.5 -295
q0 -156 -55.5 -287.5t-162.5 -230.5t-276.5 -155t-383.5 -56z" />
    <glyph glyph-name="uni01B2" unicode="&#x1b2;" horiz-adv-x="1810" 
d="M125 666v870h422v-850q0 -170 74.5 -258t216.5 -88q129 0 235 83.5t166.5 229t60.5 322.5q0 126 -60.5 197t-174.5 71q-107 0 -201 -43v320q127 49 314 49q270 0 411.5 -148.5t141.5 -443.5q0 -161 -41.5 -311.5t-122.5 -277t-192.5 -221t-259 -147.5t-314.5 -53
q-317 0 -496.5 188.5t-179.5 510.5z" />
    <glyph glyph-name="uni01B3" unicode="&#x1b3;" horiz-adv-x="1898" 
d="M1153 0h-426v618l-719 918h469l465 -594l297 399q95 128 177.5 178t211.5 50q112 0 219 -35v-311q-67 20 -133 20q-59 0 -96 -23t-78 -77l-387 -516v-627z" />
    <glyph glyph-name="uni01B4" unicode="&#x1b4;" horiz-adv-x="1677" 
d="M500 -371q-130 0 -230 30.5t-196 98.5v293q97 -63 180.5 -90t183.5 -27q92 0 155.5 39t102.5 133v3h-184l-496 1060h461l332 -798l215 510q49 115 99 182t128 104t189 37q122 0 225 -47v-272q-75 30 -125 30q-61 0 -97 -32t-65 -97l-350 -809q-41 -95 -101 -164.5
t-130.5 -108.5t-143.5 -57t-153 -18z" />
    <glyph glyph-name="uni01B5" unicode="&#x1b5;" horiz-adv-x="1667" 
d="M195 633v291h524l285 280h-906v334h1471v-307l-314 -307h224v-291h-516l-306 -299h918v-334h-1483v307l332 326h-229z" />
    <glyph glyph-name="uni01B6" unicode="&#x1b6;" horiz-adv-x="1429" 
d="M129 467v248h494l196 155h-731v299h1253v-290l-206 -164h172v-248h-488l-213 -166h740v-301h-1264v291l225 176h-178z" />
    <glyph glyph-name="uni01B7" unicode="&#x1b7;" horiz-adv-x="1677" 
d="M131 1210v326h1391v-307l-502 -330q300 -12 441 -123t141 -303q0 -227 -199.5 -366.5t-568.5 -139.5q-360 0 -576 146t-227 393h424q31 -213 379 -213q167 0 252 52t85 149q0 91 -74 137.5t-245 46.5h-252v274l397 258h-866z" />
    <glyph glyph-name="uni01B8" unicode="&#x1b8;" horiz-adv-x="1677" 
d="M1546 1536v-326h-866l397 -258v-274h-252q-171 0 -245 -46.5t-74 -137.5q0 -97 85.5 -149t252.5 -52q348 0 379 213h424q-11 -247 -227 -393t-576 -146q-369 0 -568.5 139.5t-199.5 366.5q0 193 140.5 303.5t440.5 122.5l-501 330v307h1390z" />
    <glyph glyph-name="uni01B9" unicode="&#x1b9;" horiz-adv-x="1536" 
d="M1413 1169v-299h-790l419 -276v-258h-247q-166 0 -243 -53.5t-77 -143.5q0 -95 82 -152t229 -57q150 0 237 64t103 168h396q-9 -235 -205.5 -384t-530.5 -149q-352 0 -543.5 134t-191.5 354q0 91 33.5 168.5t101.5 139t179.5 99t257.5 43.5l-480 310v292h1270z" />
    <glyph glyph-name="uni01C0" unicode="&#x1c0;" horiz-adv-x="620" 
d="M115 -215v1792h389v-1792h-389z" />
    <glyph glyph-name="uni01C1" unicode="&#x1c1;" horiz-adv-x="1253" 
d="M115 -215v1792h389v-1792h-389zM748 -215v1792h389v-1792h-389z" />
    <glyph glyph-name="uni01C2" unicode="&#x1c2;" horiz-adv-x="903" 
d="M96 803v248h160v526h389v-526h162v-248h-162v-244h162v-248h-162v-526h-389v526h-160v248h160v244h-160z" />
    <glyph glyph-name="uni01C3" unicode="&#x1c3;" horiz-adv-x="598" 
d="M152 543l-70 993h436l-69 -993h-297zM301 -20q-104 0 -168.5 59t-64.5 156t64.5 157t168.5 60q103 0 167 -60t64 -157q0 -96 -64 -155.5t-167 -59.5z" />
    <glyph glyph-name="uni01C4" unicode="&#x1c4;" horiz-adv-x="3487" 
d="M143 1536h766q271 0 478 -95t320.5 -269.5t113.5 -403.5t-113.5 -403.5t-320.5 -269.5t-478 -95h-766v1536zM3402 0h-1483v307l911 897h-905v334h1471v-307l-912 -897h918v-334zM3191 1993l-312 -344h-440l-311 344h342l190 -140l189 140h342zM565 1159v-782h377
q206 0 328.5 105.5t122.5 285.5t-122.5 285.5t-328.5 105.5h-377z" />
    <glyph glyph-name="uni01C5" unicode="&#x1c5;" horiz-adv-x="3305" 
d="M145 1536h766q271 0 478 -95t320.5 -269.5t113.5 -403.5t-113.5 -403.5t-320.5 -269.5t-478 -95h-766v1536zM3226 0h-1264v291l737 579h-731v299h1254v-290l-736 -578h740v-301zM3103 1671l-293 -387h-428l-293 387h330l176 -184l176 184h332zM567 1159v-782h377
q206 0 328.5 105.5t122.5 285.5t-122.5 285.5t-328.5 105.5h-377z" />
    <glyph glyph-name="uni01C6" unicode="&#x1c6;" horiz-adv-x="3096" 
d="M1554 1577v-1577h-419v227q-86 -125 -211.5 -192.5t-278.5 -67.5q-258 0 -418.5 170.5t-160.5 446.5q0 279 160 449.5t419 170.5q154 0 279 -67t211 -191v631h419zM3017 0h-1264v291l737 579h-731v299h1254v-290l-736 -578h740v-301zM2894 1671l-293 -387h-428l-293 387
h330l176 -184l176 184h332zM489 584q0 -129 79 -213t202 -84q126 0 232 83.5t149 213.5q-43 132 -149 216.5t-232 84.5q-123 0 -202 -85t-79 -216z" />
    <glyph glyph-name="uni01C7" unicode="&#x1c7;" horiz-adv-x="3225" 
d="M143 1536h424v-1159h959v-377h-1383v1536zM1614 672l-2 84h416v-51q0 -187 76 -279t247 -92q326 0 326 338v864h424v-887q0 -316 -205 -499t-545 -183q-336 0 -536.5 189t-200.5 516z" />
    <glyph glyph-name="uni01C8" unicode="&#x1c8;" horiz-adv-x="2197" 
d="M145 1536h424v-1159h959v-377h-307q122 -51 266 -51q135 0 186 50t51 179v1010h420v-1067q0 -234 -139 -363t-422 -129q-205 0 -371 60v311h-1067v1536zM1933 1284q-110 0 -176.5 55t-66.5 148t66.5 148t176.5 55q111 0 178.5 -55t67.5 -148t-67.5 -148t-178.5 -55z" />
    <glyph glyph-name="uni01C9" unicode="&#x1c9;" horiz-adv-x="1282" 
d="M115 0v1577h420v-1577h-230q114 -51 266 -51q135 0 186.5 50t51.5 179v1010h420v-1067q0 -234 -139 -363t-422 -129q-205 0 -371 60v311h-182zM1018 1284q-110 0 -177 55t-67 148t67 148t177 55q111 0 178.5 -55t67.5 -148t-67.5 -148t-178.5 -55z" />
    <glyph glyph-name="uni01CA" unicode="&#x1ca;" horiz-adv-x="3645" 
d="M692 1536l744 -1055v1055h411v-1536h-534l-758 1079v-1079h-412v1536h549zM2034 672l-2 84h415v-51q0 -186 76.5 -278.5t247.5 -92.5q326 0 326 338v864h424v-887q0 -316 -205 -499t-545 -183q-336 0 -536.5 189t-200.5 516z" />
    <glyph glyph-name="uni01CB" unicode="&#x1cb;" horiz-adv-x="2629" 
d="M694 1536l744 -1055v1055h411v-1536h-196q122 -51 266 -51q135 0 186.5 50t51.5 179v1010h419v-1067q0 -234 -139 -363t-422 -129q-204 0 -370 60v311h-330l-758 1079v-1079h-412v1536h549zM2365 1284q-110 0 -176.5 55t-66.5 148t66.5 148t176.5 55q111 0 178.5 -55
t67.5 -148t-67.5 -148t-178.5 -55z" />
    <glyph glyph-name="uni01CC" unicode="&#x1cc;" horiz-adv-x="2244" 
d="M2191 1188v-1067q0 -234 -139 -363t-422 -129q-204 0 -370 60v311h-162v594q0 130 -66.5 200t-191.5 70q-132 0 -208.5 -81.5t-76.5 -219.5v-563h-418v1169h418v-186q77 108 188.5 164.5t241.5 56.5q251 0 391 -147.5t140 -401.5v-655h-248q114 -51 266 -51
q135 0 186.5 50t51.5 179v1010h419zM1980 1284q-110 0 -176.5 55t-66.5 148t66.5 148t176.5 55q111 0 178.5 -55t67.5 -148t-67.5 -148t-178.5 -55z" />
    <glyph glyph-name="uni01CD" unicode="&#x1cd;" horiz-adv-x="1959" 
d="M700 1536h560l698 -1536h-453l-129 295h-792l-129 -295h-453zM1511 1993l-311 -344h-440l-311 344h342l190 -140l188 140h342zM731 637h498l-248 575z" />
    <glyph glyph-name="uni01CE" unicode="&#x1ce;" horiz-adv-x="1691" 
d="M1016 0v143q-81 -78 -199.5 -127t-259.5 -49q-144 0 -257 45.5t-179 134t-66 205.5q0 175 139.5 275.5t362.5 111.5q31 2 88 2q198 0 322 -43q23 -6 47 -16q-25 205 -379 205q-265 0 -483 -111v303q270 125 585 125q109 0 207 -18t186.5 -58.5t152.5 -101t102 -151
t38 -201.5v-674h-407zM1350 1671l-293 -387h-428l-293 387h330l176 -184l176 184h332zM1016 479q-78 37 -266 37q-322 0 -322 -139q0 -65 66.5 -104.5t175.5 -39.5q60 0 120 15.5t111 45t83 77.5t32 108z" />
    <glyph glyph-name="uni01CF" unicode="&#x1cf;" horiz-adv-x="710" 
d="M143 0v1536h424v-1536h-424zM887 1993l-312 -344h-440l-311 344h342l190 -140l189 140h342z" />
    <glyph glyph-name="uni01D0" unicode="&#x1d0;" horiz-adv-x="649" 
d="M115 0v1188h420v-1188h-420zM831 1671l-292 -387h-428l-293 387h329l177 -184l176 184h331z" />
    <glyph glyph-name="uni01D1" unicode="&#x1d1;" horiz-adv-x="1976" 
d="M987 -33q-270 0 -477 100t-320.5 282t-113.5 419t113.5 419t320.5 282t477 100q271 0 478.5 -100t321.5 -282t114 -419t-114 -419t-321.5 -282t-478.5 -100zM1520 1993l-312 -344h-440l-311 344h342l190 -140l189 140h342zM987 346q224 0 353.5 113t129.5 309t-129.5 309
t-353.5 113q-223 0 -353 -113t-130 -309t130 -309t353 -113z" />
    <glyph glyph-name="uni01D2" unicode="&#x1d2;" horiz-adv-x="1622" 
d="M811 -33q-222 0 -392.5 77t-264 217t-93.5 323q0 279 206.5 449.5t543.5 170.5t543.5 -170.5t206.5 -449.5q0 -183 -93.5 -323t-264 -217t-392.5 -77zM1317 1671l-293 -387h-428l-293 387h330l176 -184l176 184h332zM811 276q153 0 239.5 82.5t86.5 225.5
q0 145 -86.5 227t-239.5 82q-154 0 -241 -82t-87 -227q0 -143 87.5 -225.5t240.5 -82.5z" />
    <glyph glyph-name="uni01D3" unicode="&#x1d3;" horiz-adv-x="1798" 
d="M547 1536v-850q0 -161 90.5 -250.5t261.5 -89.5t260.5 89.5t89.5 250.5v850h426v-870q0 -208 -96.5 -367t-273 -245.5t-406.5 -86.5t-406.5 86.5t-273 245.5t-96.5 367v870h424zM1430 1993l-312 -344h-440l-311 344h342l190 -140l188 140h343z" />
    <glyph glyph-name="uni01D4" unicode="&#x1d4;" horiz-adv-x="1591" 
d="M1454 0h-418v184q-76 -106 -184 -161.5t-234 -55.5q-244 0 -381 147.5t-137 401.5v653h418v-594q0 -129 64 -198.5t182 -69.5q130 0 201 79t71 222v561h418v-1169zM1298 1671l-292 -387h-428l-293 387h329l177 -184l176 184h331z" />
    <glyph glyph-name="uni01D5" unicode="&#x1d5;" horiz-adv-x="1798" 
d="M547 1536v-850q0 -161 90.5 -250.5t261.5 -89.5t260.5 89.5t89.5 250.5v850h426v-870q0 -208 -96.5 -367t-273 -245.5t-406.5 -86.5t-406.5 86.5t-273 245.5t-96.5 367v870h424zM582 1649q-104 0 -166 52.5t-62 143.5q0 87 62 138t166 51q103 0 165 -51t62 -138
q0 -91 -61.5 -143.5t-165.5 -52.5zM1217 1649q-104 0 -166 52.5t-62 143.5q0 87 62.5 138t165.5 51t165 -51t62 -138q0 -91 -61.5 -143.5t-165.5 -52.5zM1399 2130h-998v252h998v-252z" />
    <glyph glyph-name="uni01D6" unicode="&#x1d6;" horiz-adv-x="1591" 
d="M1454 0h-418v184q-76 -106 -184 -161.5t-234 -55.5q-244 0 -381 147.5t-137 401.5v653h418v-594q0 -129 64 -198.5t182 -69.5q130 0 201 79t71 222v561h418v-1169zM479 1284q-104 0 -165.5 52t-61.5 143q0 87 62 138.5t165 51.5t165.5 -51.5t62.5 -138.5q0 -91 -62 -143
t-166 -52zM1106 1284q-104 0 -165.5 52t-61.5 143q0 87 62 138.5t165 51.5t164 -51t61 -139q0 -91 -60.5 -143t-164.5 -52zM1288 1761h-997v250h997v-250z" />
    <glyph glyph-name="uni01D7" unicode="&#x1d7;" horiz-adv-x="1798" 
d="M547 1536v-850q0 -161 90.5 -250.5t261.5 -89.5t260.5 89.5t89.5 250.5v850h426v-870q0 -208 -96.5 -367t-273 -245.5t-406.5 -86.5t-406.5 86.5t-273 245.5t-96.5 367v870h424zM582 1649q-104 0 -166 52.5t-62 143.5q0 87 62 138t166 51q103 0 165 -51t62 -138
q0 -91 -61.5 -143.5t-165.5 -52.5zM1217 1649q-104 0 -166 52.5t-62 143.5q0 87 62.5 138t165.5 51t165 -51t62 -138q0 -91 -61.5 -143.5t-165.5 -52.5zM645 2109l301 345h475l-354 -345h-422z" />
    <glyph glyph-name="uni01D8" unicode="&#x1d8;" horiz-adv-x="1591" 
d="M1454 0h-418v184q-76 -106 -184 -161.5t-234 -55.5q-244 0 -381 147.5t-137 401.5v653h418v-594q0 -129 64 -198.5t182 -69.5q130 0 201 79t71 222v561h418v-1169zM479 1284q-104 0 -165.5 52t-61.5 143q0 87 62 138.5t165 51.5t165.5 -51.5t62.5 -138.5q0 -91 -62 -143
t-166 -52zM1106 1284q-104 0 -165.5 52t-61.5 143q0 87 62 138.5t165 51.5t164 -51t61 -139q0 -91 -60.5 -143t-164.5 -52zM539 1759l301 344h475l-354 -344h-422z" />
    <glyph glyph-name="uni01D9" unicode="&#x1d9;" horiz-adv-x="1798" 
d="M547 1536v-850q0 -161 90.5 -250.5t261.5 -89.5t260.5 89.5t89.5 250.5v850h426v-870q0 -208 -96.5 -367t-273 -245.5t-406.5 -86.5t-406.5 86.5t-273 245.5t-96.5 367v870h424zM582 1649q-104 0 -166 52.5t-62 143.5q0 87 62 138t166 51q103 0 165 -51t62 -138
q0 -91 -61.5 -143.5t-165.5 -52.5zM1217 1649q-104 0 -166 52.5t-62 143.5q0 87 62.5 138t165.5 51t165 -51t62 -138q0 -91 -61.5 -143.5t-165.5 -52.5zM1432 2451l-312 -344h-440l-311 344h342l190 -139l189 139h342z" />
    <glyph glyph-name="uni01DA" unicode="&#x1da;" horiz-adv-x="1591" 
d="M1454 0h-418v184q-76 -106 -184 -161.5t-234 -55.5q-244 0 -381 147.5t-137 401.5v653h418v-594q0 -129 64 -198.5t182 -69.5q130 0 201 79t71 222v561h418v-1169zM479 1284q-104 0 -165.5 52t-61.5 143q0 87 62 138.5t165 51.5t165.5 -51.5t62.5 -138.5q0 -91 -62 -143
t-166 -52zM1106 1284q-104 0 -165.5 52t-61.5 143q0 87 62 138.5t165 51.5t164 -51t61 -139q0 -91 -60.5 -143t-164.5 -52zM1325 2101l-311 -344h-441l-311 344h342l191 -139l188 139h342z" />
    <glyph glyph-name="uni01DB" unicode="&#x1db;" horiz-adv-x="1798" 
d="M547 1536v-850q0 -161 90.5 -250.5t261.5 -89.5t260.5 89.5t89.5 250.5v850h426v-870q0 -208 -96.5 -367t-273 -245.5t-406.5 -86.5t-406.5 86.5t-273 245.5t-96.5 367v870h424zM582 1649q-104 0 -166 52.5t-62 143.5q0 87 62 138t166 51q103 0 165 -51t62 -138
q0 -91 -61.5 -143.5t-165.5 -52.5zM1217 1649q-104 0 -166 52.5t-62 143.5q0 87 62.5 138t165.5 51t165 -51t62 -138q0 -91 -61.5 -143.5t-165.5 -52.5zM829 2454l301 -345h-421l-355 345h475z" />
    <glyph glyph-name="uni01DC" unicode="&#x1dc;" horiz-adv-x="1591" 
d="M1454 0h-418v184q-76 -106 -184 -161.5t-234 -55.5q-244 0 -381 147.5t-137 401.5v653h418v-594q0 -129 64 -198.5t182 -69.5q130 0 201 79t71 222v561h418v-1169zM479 1284q-104 0 -165.5 52t-61.5 143q0 87 62 138.5t165 51.5t165.5 -51.5t62.5 -138.5q0 -91 -62 -143
t-166 -52zM1106 1284q-104 0 -165.5 52t-61.5 143q0 87 62 138.5t165 51.5t164 -51t61 -139q0 -91 -60.5 -143t-164.5 -52zM723 2103l301 -344h-422l-354 344h475z" />
    <glyph glyph-name="uni01DD" unicode="&#x1dd;" horiz-adv-x="1505" 
d="M705 1202q212 0 380 -76.5t263.5 -219t95.5 -326.5q0 -180 -92 -321t-253 -217.5t-364 -76.5q-312 0 -490.5 200t-178.5 540h923q-88 190 -403 190q-129 0 -257.5 -34t-232.5 -95v266q253 170 609 170zM725 260q107 0 181.5 52t101.5 141h-553q29 -93 98.5 -143
t171.5 -50z" />
    <glyph glyph-name="uni01DE" unicode="&#x1de;" horiz-adv-x="1959" 
d="M700 1536h560l698 -1536h-453l-129 295h-792l-129 -295h-453zM664 1649q-104 0 -166 52.5t-62 143.5q0 87 62 138t166 51q103 0 165 -51t62 -138q0 -91 -61.5 -143.5t-165.5 -52.5zM1298 1649q-104 0 -165.5 52.5t-61.5 143.5q0 87 62 138t165 51q104 0 166 -51t62 -138
q0 -91 -62 -143.5t-166 -52.5zM1481 2130h-998v252h998v-252zM731 637h498l-248 575z" />
    <glyph glyph-name="uni01DF" unicode="&#x1df;" horiz-adv-x="1691" 
d="M1016 0v143q-81 -78 -199.5 -127t-259.5 -49q-144 0 -257 45.5t-179 134t-66 205.5q0 175 139.5 275.5t362.5 111.5q31 2 88 2q198 0 322 -43q23 -6 47 -16q-25 205 -379 205q-265 0 -483 -111v303q270 125 585 125q109 0 207 -18t186.5 -58.5t152.5 -101t102 -151
t38 -201.5v-674h-407zM530 1284q-104 0 -165.5 52t-61.5 143q0 87 62 138.5t165 51.5t165.5 -51.5t62.5 -138.5q0 -91 -62 -143t-166 -52zM1157 1284q-104 0 -165.5 52t-61.5 143q0 87 62 138.5t165 51.5t164 -51t61 -139q0 -91 -60.5 -143t-164.5 -52zM1339 1761h-997v250
h997v-250zM1016 479q-78 37 -266 37q-322 0 -322 -139q0 -65 66.5 -104.5t175.5 -39.5q60 0 120 15.5t111 45t83 77.5t32 108z" />
    <glyph glyph-name="uni01E0" unicode="&#x1e0;" horiz-adv-x="1959" 
d="M700 1536h560l698 -1536h-453l-129 295h-792l-129 -295h-453zM731 637h498l-248 575zM981 1649q-109 0 -176.5 55t-67.5 147q0 93 67.5 149t176.5 56q111 0 178.5 -56t67.5 -149q0 -92 -67.5 -147t-178.5 -55zM1479 2130h-998v252h998v-252z" />
    <glyph glyph-name="uni01E1" unicode="&#x1e1;" horiz-adv-x="1691" 
d="M1016 0v143q-81 -78 -199.5 -127t-259.5 -49q-144 0 -257 45.5t-179 134t-66 205.5q0 175 139.5 275.5t362.5 111.5q31 2 88 2q198 0 322 -43q23 -6 47 -16q-25 205 -379 205q-265 0 -483 -111v303q270 125 585 125q109 0 207 -18t186.5 -58.5t152.5 -101t102 -151
t38 -201.5v-674h-407zM1016 479q-78 37 -266 37q-322 0 -322 -139q0 -65 66.5 -104.5t175.5 -39.5q60 0 120 15.5t111 45t83 77.5t32 108zM842 1284q-110 0 -177 55t-67 148t67 148t177 55q111 0 178 -55t67 -148t-67 -148t-178 -55zM1341 1761h-997v250h997v-250z" />
    <glyph glyph-name="uni01E2" unicode="&#x1e2;" horiz-adv-x="2578" 
d="M2396 614h-792l106 -270h784v-344h-1087l-111 295h-718l-117 -295h-453l643 1536h1805v-344h-1067l104 -270h903v-308zM713 637h456l-221 596zM2017 1692h-997v252h997v-252z" />
    <glyph glyph-name="uni01E3" unicode="&#x1e3;" horiz-adv-x="2586" 
d="M1446 0h-303l-17 215q-86 -120 -209 -184t-272 -64q-258 0 -418.5 170.5t-160.5 446.5q0 279 160 449.5t419 170.5q149 0 272 -64t209 -182l17 211h303l8 -125q171 160 444 160q299 0 465.5 -195.5t155.5 -521.5h-922q39 -103 146.5 -158t281.5 -55q261 0 461 111v-254
q-117 -80 -238.5 -122t-277.5 -42q-325 0 -516 178zM489 584q0 -129 79 -213t202 -84q126 0 232 83.5t149 213.5q-43 132 -149 216.5t-232 84.5q-123 0 -202 -85t-79 -216zM1870 924q-110 0 -187 -58t-100 -159h574q-27 104 -99.5 160.5t-187.5 56.5zM1792 1335h-997v250
h997v-250z" />
    <glyph glyph-name="uni01E4" unicode="&#x1e4;" horiz-adv-x="2045" 
d="M1071 618v246h793v-297h172v-205h-172v-360h-269l-16 250q-200 -285 -629 -285q-256 0 -454 98t-308 280.5t-110 422.5q0 188 68 341t188.5 253t282.5 153.5t352 53.5q182 0 330.5 -40.5t254 -115.5t176 -175t107.5 -224h-446q-29 85 -141.5 144t-268.5 59
q-224 0 -350.5 -115.5t-126.5 -333.5q0 -210 124.5 -334.5t364.5 -124.5q191 0 318 53h-328v205h528q10 38 11 51h-451z" />
    <glyph glyph-name="uni01E5" unicode="&#x1e5;" horiz-adv-x="1757" 
d="M635 172q-164 0 -294.5 64t-205 182t-74.5 270t74.5 270t205 182t294.5 64q155 0 282.5 -59t219.5 -156v180h417v-882q0 -75 -12 -142h182v-200h-260q-97 -152 -281 -234t-431 -82q-160 0 -298.5 40.5t-277.5 125.5v291q241 -180 549 -180q145 0 236 39h-416v200h581
q11 53 11 101v129q-92 -92 -219.5 -147.5t-282.5 -55.5zM776 457q245 0 375 231q-132 232 -375 232q-135 0 -214 -62.5t-79 -169.5q0 -106 78 -168.5t215 -62.5z" />
    <glyph glyph-name="Gcaron" unicode="&#x1e6;" horiz-adv-x="1974" 
d="M1008 311q159 0 277.5 47.5t182.5 137.5h-419v299h815v-795h-301l-21 207q-99 -113 -249.5 -176.5t-346.5 -63.5q-181 0 -338.5 53.5t-275.5 153.5t-186 253t-68 341t68 341t188.5 253t282.5 153.5t352 53.5q186 0 341 -44.5t264.5 -125.5t179.5 -191t95 -243h-428
q-31 116 -151.5 182.5t-298.5 66.5q-219 0 -343 -114.5t-124 -331.5q0 -222 134 -339.5t370 -117.5zM1501 1993l-311 -344h-440l-312 344h342l191 -140l188 140h342z" />
    <glyph glyph-name="gcaron" unicode="&#x1e7;" horiz-adv-x="1665" 
d="M635 123q-250 0 -412 149.5t-162 391.5t162 391t412 149q154 0 281.5 -62t220.5 -163v190h417v-858q0 -213 -100 -368t-280 -234.5t-422 -79.5q-160 0 -298.5 40.5t-277.5 125.5v316q243 -179 549 -179q204 0 308 88t104 275v41q-92 -96 -219.5 -154.5t-282.5 -58.5z
M1352 1671l-293 -387h-428l-293 387h330l176 -184l176 184h332zM776 408q244 0 375 256q-132 256 -375 256q-135 0 -214 -69t-79 -187t78 -187t215 -69z" />
    <glyph glyph-name="uni01E8" unicode="&#x1e8;" horiz-adv-x="1781" 
d="M565 0h-422v1536h422v-567h346l473 567h469l-624 -727l645 -809h-502l-463 592h-344v-592zM1475 1993l-312 -344h-440l-311 344h342l190 -140l189 140h342z" />
    <glyph glyph-name="uni01E9" unicode="&#x1e9;" horiz-adv-x="1523" 
d="M535 0h-420v1577h420v-823h217l348 415h452l-485 -546l518 -623h-481l-354 442h-215v-442zM1327 2034l-311 -344h-441l-311 344h342l191 -140l188 140h342z" />
    <glyph glyph-name="uni01EA" unicode="&#x1ea;" horiz-adv-x="1976" 
d="M1278 -184v-222q-31 -10 -95.5 -19t-127.5 -9q-145 0 -233.5 53.5t-88.5 142.5q0 128 182 205q-380 22 -609.5 240.5t-229.5 560.5q0 237 113.5 419t320.5 282t477 100q271 0 478.5 -100t321.5 -282t114 -419q0 -289 -168 -493t-455 -275q-246 -62 -246 -141
q0 -58 125 -58q55 0 121 15zM504 768q0 -196 130 -309t353 -113q224 0 353.5 113t129.5 309t-129.5 309t-353.5 113q-223 0 -353 -113t-130 -309z" />
    <glyph glyph-name="uni01EB" unicode="&#x1eb;" horiz-adv-x="1622" 
d="M1057 -6q-209 -64 -209 -135q0 -58 133 -58q52 0 121 15v-222q-32 -10 -96.5 -19t-128.5 -9q-148 0 -238 52t-90 138q0 131 184 213q-305 20 -488.5 187.5t-183.5 427.5q0 279 206.5 449.5t543.5 170.5t543.5 -170.5t206.5 -449.5q0 -223 -135 -376t-369 -214zM483 584
q0 -143 87.5 -225.5t240.5 -82.5t239.5 82.5t86.5 225.5q0 145 -86.5 227t-239.5 82q-154 0 -241 -82t-87 -227z" />
    <glyph glyph-name="uni01EC" unicode="&#x1ec;" horiz-adv-x="1976" 
d="M1278 -184v-222q-31 -10 -95.5 -19t-127.5 -9q-145 0 -233.5 53.5t-88.5 142.5q0 128 182 205q-380 22 -609.5 240.5t-229.5 560.5q0 237 113.5 419t320.5 282t477 100q271 0 478.5 -100t321.5 -282t114 -419q0 -289 -168 -493t-455 -275q-246 -62 -246 -141
q0 -58 125 -58q55 0 121 15zM504 768q0 -196 130 -309t353 -113q224 0 353.5 113t129.5 309t-129.5 309t-353.5 113q-223 0 -353 -113t-130 -309zM1487 1692h-998v252h998v-252z" />
    <glyph glyph-name="uni01ED" unicode="&#x1ed;" horiz-adv-x="1622" 
d="M1057 -6q-209 -64 -209 -135q0 -58 133 -58q52 0 121 15v-222q-32 -10 -96.5 -19t-128.5 -9q-148 0 -238 52t-90 138q0 131 184 213q-305 20 -488.5 187.5t-183.5 427.5q0 279 206.5 449.5t543.5 170.5t543.5 -170.5t206.5 -449.5q0 -223 -135 -376t-369 -214zM1309 1335
h-998v250h998v-250zM483 584q0 -143 87.5 -225.5t240.5 -82.5t239.5 82.5t86.5 225.5q0 145 -86.5 227t-239.5 82q-154 0 -241 -82t-87 -227z" />
    <glyph glyph-name="uni01EE" unicode="&#x1ee;" horiz-adv-x="1677" 
d="M131 1210v326h1391v-307l-502 -330q300 -12 441 -123t141 -303q0 -227 -199.5 -366.5t-568.5 -139.5q-360 0 -576 146t-227 393h424q31 -213 379 -213q167 0 252 52t85 149q0 91 -74 137.5t-245 46.5h-252v274l397 258h-866zM1346 1993l-312 -344h-440l-311 344h342
l190 -140l189 140h342z" />
    <glyph glyph-name="uni01EF" unicode="&#x1ef;" horiz-adv-x="1533" 
d="M121 870v299h1270v-292l-480 -310q146 -6 257.5 -43.5t179.5 -99t101.5 -139t33.5 -168.5q0 -220 -191.5 -354t-543.5 -134q-334 0 -530.5 149t-205.5 384h396q16 -104 103 -168t237 -64q147 0 229 57t82 152q0 90 -77 143.5t-243 53.5h-247v258l419 276h-790zM1278 1671
l-293 -387h-428l-293 387h330l176 -184l176 184h332z" />
    <glyph glyph-name="uni01F0" unicode="&#x1f0;" horiz-adv-x="649" 
d="M535 1188v-1067q0 -234 -139.5 -363t-422.5 -129q-204 0 -370 60v315q119 -55 274 -55q135 0 186.5 50t51.5 179v1010h420zM831 1671l-292 -387h-428l-293 387h329l177 -184l176 184h331z" />
    <glyph glyph-name="uni01F1" unicode="&#x1f1;" horiz-adv-x="3487" 
d="M143 1536h766q271 0 478 -95t320.5 -269.5t113.5 -403.5t-113.5 -403.5t-320.5 -269.5t-478 -95h-766v1536zM3402 0h-1483v307l911 897h-905v334h1471v-307l-912 -897h918v-334zM565 1159v-782h377q206 0 328.5 105.5t122.5 285.5t-122.5 285.5t-328.5 105.5h-377z" />
    <glyph glyph-name="uni01F2" unicode="&#x1f2;" horiz-adv-x="3305" 
d="M145 1536h766q271 0 478 -95t320.5 -269.5t113.5 -403.5t-113.5 -403.5t-320.5 -269.5t-478 -95h-766v1536zM3226 0h-1264v291l737 579h-731v299h1254v-290l-736 -578h740v-301zM567 1159v-782h377q206 0 328.5 105.5t122.5 285.5t-122.5 285.5t-328.5 105.5h-377z" />
    <glyph glyph-name="uni01F3" unicode="&#x1f3;" horiz-adv-x="3096" 
d="M1554 1577v-1577h-419v227q-86 -125 -211.5 -192.5t-278.5 -67.5q-258 0 -418.5 170.5t-160.5 446.5q0 279 160 449.5t419 170.5q154 0 279 -67t211 -191v631h419zM3017 0h-1264v291l737 579h-731v299h1254v-290l-736 -578h740v-301zM489 584q0 -129 79 -213t202 -84
q126 0 232 83.5t149 213.5q-43 132 -149 216.5t-232 84.5q-123 0 -202 -85t-79 -216z" />
    <glyph glyph-name="uni01F4" unicode="&#x1f4;" horiz-adv-x="1974" 
d="M1008 311q159 0 277.5 47.5t182.5 137.5h-419v299h815v-795h-301l-21 207q-99 -113 -249.5 -176.5t-346.5 -63.5q-181 0 -338.5 53.5t-275.5 153.5t-186 253t-68 341t68 341t188.5 253t282.5 153.5t352 53.5q186 0 341 -44.5t264.5 -125.5t179.5 -191t95 -243h-428
q-31 116 -151.5 182.5t-298.5 66.5q-219 0 -343 -114.5t-124 -331.5q0 -222 134 -339.5t370 -117.5zM715 1651l301 344h475l-354 -344h-422z" />
    <glyph glyph-name="uni01F5" unicode="&#x1f5;" horiz-adv-x="1665" 
d="M635 123q-250 0 -412 149.5t-162 391.5t162 391t412 149q154 0 281.5 -62t220.5 -163v190h417v-858q0 -213 -100 -368t-280 -234.5t-422 -79.5q-160 0 -298.5 40.5t-277.5 125.5v316q243 -179 549 -179q204 0 308 88t104 275v41q-92 -96 -219.5 -154.5t-282.5 -58.5z
M776 408q244 0 375 256q-132 256 -375 256q-135 0 -214 -69t-79 -187t78 -187t215 -69zM614 1284l258 387h406l-277 -387h-387z" />
    <glyph glyph-name="uni01F8" unicode="&#x1f8;" horiz-adv-x="1990" 
d="M692 1536l744 -1055v1055h411v-1536h-534l-758 1079v-1079h-412v1536h549zM952 1995l301 -344h-422l-354 344h475z" />
    <glyph glyph-name="uni01F9" unicode="&#x1f9;" horiz-adv-x="1615" 
d="M985 1204q251 0 391 -147.5t140 -401.5v-655h-418v594q0 130 -66.5 200t-191.5 70q-132 0 -208.5 -81.5t-76.5 -219.5v-563h-418v1169h418v-186q77 108 188.5 164.5t241.5 56.5zM774 1671l258 -387h-387l-276 387h405z" />
    <glyph glyph-name="Aringacute" unicode="&#x1fa;" horiz-adv-x="1959" 
d="M700 1536h560l698 -1536h-453l-129 295h-792l-129 -295h-453zM979 1614q-193 0 -299.5 73t-106.5 205q0 104 66 173t188 94l136 352h376l-200 -354q120 -26 183.5 -94t63.5 -171q0 -132 -107 -205t-300 -73zM731 637h498l-248 575zM979 1796q176 0 176 96q0 99 -176 99
q-174 0 -174 -99q0 -96 174 -96z" />
    <glyph glyph-name="aringacute" unicode="&#x1fb;" horiz-adv-x="1691" 
d="M1016 0v143q-81 -78 -199.5 -127t-259.5 -49q-144 0 -257 45.5t-179 134t-66 205.5q0 175 139.5 275.5t362.5 111.5q31 2 88 2q198 0 322 -43q23 -6 47 -16q-25 205 -379 205q-265 0 -483 -111v303q270 125 585 125q109 0 207 -18t186.5 -58.5t152.5 -101t102 -151
t38 -201.5v-674h-407zM844 1264q-183 0 -286 75t-103 209q0 101 61 170t172 97l137 358h377l-203 -358q111 -28 171.5 -97t60.5 -170q0 -133 -102.5 -208.5t-284.5 -75.5zM1016 479q-78 37 -266 37q-322 0 -322 -139q0 -65 66.5 -104.5t175.5 -39.5q60 0 120 15.5t111 45
t83 77.5t32 108zM844 1434q73 0 113 29.5t40 84.5q0 54 -40.5 84.5t-112.5 30.5q-73 0 -114.5 -30.5t-41.5 -84.5q0 -55 41 -84.5t115 -29.5z" />
    <glyph glyph-name="AEacute" unicode="&#x1fc;" horiz-adv-x="2578" 
d="M2396 614h-792l106 -270h784v-344h-1087l-111 295h-718l-117 -295h-453l643 1536h1805v-344h-1067l104 -270h903v-308zM713 637h456l-221 596zM1264 1651l301 344h475l-354 -344h-422z" />
    <glyph glyph-name="aeacute" unicode="&#x1fd;" horiz-adv-x="2586" 
d="M1446 0h-303l-17 215q-86 -120 -209 -184t-272 -64q-258 0 -418.5 170.5t-160.5 446.5q0 279 160 449.5t419 170.5q149 0 272 -64t209 -182l17 211h303l8 -125q171 160 444 160q299 0 465.5 -195.5t155.5 -521.5h-922q39 -103 146.5 -158t281.5 -55q261 0 461 111v-254
q-117 -80 -238.5 -122t-277.5 -42q-325 0 -516 178zM1063 1284l258 387h405l-276 -387h-387zM489 584q0 -129 79 -213t202 -84q126 0 232 83.5t149 213.5q-43 132 -149 216.5t-232 84.5q-123 0 -202 -85t-79 -216zM1870 924q-110 0 -187 -58t-100 -159h574
q-27 104 -99.5 160.5t-187.5 56.5z" />
    <glyph glyph-name="Oslashacute" unicode="&#x1fe;" horiz-adv-x="1974" 
d="M117 -37l198 236q-116 105 -177.5 250t-61.5 319q0 237 113 419t320 282t478 100q233 0 424 -78l68 82h381l-201 -236q242 -222 242 -569q0 -237 -114 -419t-321.5 -282t-478.5 -100q-233 0 -424 76l-65 -80h-381zM733 1651l301 344h475l-354 -344h-422zM492 768
q0 -154 79 -266l586 690q-73 20 -170 20q-229 0 -362 -119.5t-133 -324.5zM987 324q229 0 362.5 119.5t133.5 324.5q0 153 -80 266l-584 -690q73 -20 168 -20z" />
    <glyph glyph-name="oslashacute" unicode="&#x1ff;" horiz-adv-x="1622" 
d="M82 -57l172 204q-193 171 -193 437q0 279 206.5 449.5t543.5 170.5q166 0 299 -43l57 68h373l-174 -207q94 -81 144.5 -193t50.5 -245q0 -183 -93.5 -323t-264 -217t-392.5 -77q-165 0 -299 41l-57 -65h-373zM461 584q0 -86 31 -156l411 487q-44 9 -92 9
q-164 0 -257 -90.5t-93 -249.5zM811 246q164 0 256 90.5t92 247.5q0 84 -29 157l-411 -487q58 -8 92 -8zM580 1284l258 387h405l-276 -387h-387z" />
    <glyph glyph-name="uni0200" unicode="&#x200;" horiz-adv-x="1959" 
d="M700 1536h560l698 -1536h-453l-129 295h-792l-129 -295h-453zM641 1995l252 -344h-367l-288 344h403zM1178 1995l254 -344h-367l-287 344h400zM731 637h498l-248 575z" />
    <glyph glyph-name="uni0201" unicode="&#x201;" horiz-adv-x="1691" 
d="M1016 0v143q-81 -78 -199.5 -127t-259.5 -49q-144 0 -257 45.5t-179 134t-66 205.5q0 175 139.5 275.5t362.5 111.5q31 2 88 2q198 0 322 -43q23 -6 47 -16q-25 205 -379 205q-265 0 -483 -111v303q270 125 585 125q109 0 207 -18t186.5 -58.5t152.5 -101t102 -151
t38 -201.5v-674h-407zM530 1671l230 -387h-348l-250 387h368zM1042 1671l232 -387h-350l-250 387h368zM1016 479q-78 37 -266 37q-322 0 -322 -139q0 -65 66.5 -104.5t175.5 -39.5q60 0 120 15.5t111 45t83 77.5t32 108z" />
    <glyph glyph-name="uni0202" unicode="&#x202;" horiz-adv-x="1959" 
d="M700 1536h560l698 -1536h-453l-129 295h-792l-129 -295h-453zM1499 1640h-317q-61 115 -203 115t-203 -115h-317q50 183 185.5 276t334.5 93t335 -93.5t185 -275.5zM731 637h498l-248 575z" />
    <glyph glyph-name="uni0203" unicode="&#x203;" horiz-adv-x="1691" 
d="M1016 0v143q-81 -78 -199.5 -127t-259.5 -49q-144 0 -257 45.5t-179 134t-66 205.5q0 175 139.5 275.5t362.5 111.5q31 2 88 2q198 0 322 -43q23 -6 47 -16q-25 205 -379 205q-265 0 -483 -111v303q270 125 585 125q109 0 207 -18t186.5 -58.5t152.5 -101t102 -151
t38 -201.5v-674h-407zM1341 1284h-307q-15 69 -65 108.5t-125 39.5q-73 0 -123.5 -39.5t-67.5 -108.5h-307q30 190 159 296t339 106t338.5 -106t158.5 -296zM1016 479q-78 37 -266 37q-322 0 -322 -139q0 -65 66.5 -104.5t175.5 -39.5q60 0 120 15.5t111 45t83 77.5t32 108z
" />
    <glyph glyph-name="uni0204" unicode="&#x204;" horiz-adv-x="1626" 
d="M520 1192v-270h936v-308h-936v-270h1004v-344h-1428v1536h1417v-344h-993zM481 1995l252 -344h-366l-289 344h403zM1018 1995l254 -344h-367l-287 344h400z" />
    <glyph glyph-name="uni0205" unicode="&#x205;" horiz-adv-x="1503" 
d="M801 -33q-212 0 -380 77t-264 219.5t-96 326.5q0 180 92 320.5t253 217t364 76.5q312 0 491 -199.5t179 -539.5h-924q89 -191 404 -191q129 0 257 33.5t232 95.5v-266q-253 -170 -608 -170zM457 1671l229 -387h-348l-250 387h369zM969 1671l231 -387h-350l-250 387h369z
M780 909q-107 0 -181 -51.5t-101 -140.5h553q-29 93 -99 142.5t-172 49.5z" />
    <glyph glyph-name="uni0206" unicode="&#x206;" horiz-adv-x="1626" 
d="M520 1192v-270h936v-308h-936v-270h1004v-344h-1428v1536h1417v-344h-993zM1339 1640h-317q-61 115 -203 115t-203 -115h-317q50 183 185.5 276t334.5 93t335 -93.5t185 -275.5z" />
    <glyph glyph-name="uni0207" unicode="&#x207;" horiz-adv-x="1503" 
d="M801 -33q-212 0 -380 77t-264 219.5t-96 326.5q0 180 92 320.5t253 217t364 76.5q312 0 491 -199.5t179 -539.5h-924q89 -191 404 -191q129 0 257 33.5t232 95.5v-266q-253 -170 -608 -170zM1266 1284h-308q-15 69 -65 108.5t-125 39.5q-73 0 -123 -39t-67 -109h-308
q30 190 159 296t339 106t339 -106t159 -296zM780 909q-107 0 -181 -51.5t-101 -140.5h553q-29 93 -99 142.5t-172 49.5z" />
    <glyph glyph-name="uni0208" unicode="&#x208;" horiz-adv-x="710" 
d="M143 0v1536h424v-1536h-424zM-182 1995h336l192 -344h-317zM268 1995h336l191 -344h-316z" />
    <glyph glyph-name="uni0209" unicode="&#x209;" horiz-adv-x="649" 
d="M115 0v1188h420v-1188h-420zM-145 1671h290l191 -387h-270zM238 1671h290l191 -387h-270z" />
    <glyph glyph-name="uni020A" unicode="&#x20a;" horiz-adv-x="710" 
d="M143 0v1536h424v-1536h-424zM874 1640h-317q-61 115 -203 115q-141 0 -202 -115h-318q50 183 185.5 276t334.5 93t335 -93.5t185 -275.5z" />
    <glyph glyph-name="uni020B" unicode="&#x20b;" horiz-adv-x="649" 
d="M115 0v1188h420v-1188h-420zM739 1284h-276q-9 66 -46 103.5t-93 37.5q-54 0 -91.5 -37.5t-46.5 -103.5h-276q17 183 128 292.5t286 109.5q177 0 287.5 -109t127.5 -293z" />
    <glyph glyph-name="uni020C" unicode="&#x20c;" horiz-adv-x="1976" 
d="M987 -33q-270 0 -477 100t-320.5 282t-113.5 419t113.5 419t320.5 282t477 100q271 0 478.5 -100t321.5 -282t114 -419t-114 -419t-321.5 -282t-478.5 -100zM649 1995l252 -344h-366l-289 344h403zM1186 1995l254 -344h-367l-287 344h400zM987 346q224 0 353.5 113
t129.5 309t-129.5 309t-353.5 113q-223 0 -353 -113t-130 -309t130 -309t353 -113z" />
    <glyph glyph-name="uni020D" unicode="&#x20d;" horiz-adv-x="1622" 
d="M811 -33q-222 0 -392.5 77t-264 217t-93.5 323q0 279 206.5 449.5t543.5 170.5t543.5 -170.5t206.5 -449.5q0 -183 -93.5 -323t-264 -217t-392.5 -77zM498 1671l229 -387h-348l-250 387h369zM1010 1671l231 -387h-350l-250 387h369zM811 276q153 0 239.5 82.5t86.5 225.5
q0 145 -86.5 227t-239.5 82q-154 0 -241 -82t-87 -227q0 -143 87.5 -225.5t240.5 -82.5z" />
    <glyph glyph-name="uni020E" unicode="&#x20e;" horiz-adv-x="1976" 
d="M987 -33q-270 0 -477 100t-320.5 282t-113.5 419t113.5 419t320.5 282t477 100q271 0 478.5 -100t321.5 -282t114 -419t-114 -419t-321.5 -282t-478.5 -100zM1507 1640h-317q-61 115 -203 115t-203 -115h-317q50 183 185.5 276t334.5 93t335 -93.5t185 -275.5zM987 346
q224 0 353.5 113t129.5 309t-129.5 309t-353.5 113q-223 0 -353 -113t-130 -309t130 -309t353 -113z" />
    <glyph glyph-name="uni020F" unicode="&#x20f;" horiz-adv-x="1622" 
d="M811 -33q-222 0 -392.5 77t-264 217t-93.5 323q0 279 206.5 449.5t543.5 170.5t543.5 -170.5t206.5 -449.5q0 -183 -93.5 -323t-264 -217t-392.5 -77zM1309 1284h-308q-15 69 -65 108.5t-125 39.5q-73 0 -123 -39t-67 -109h-308q30 190 159 296t339 106t339 -106
t159 -296zM811 276q153 0 239.5 82.5t86.5 225.5q0 145 -86.5 227t-239.5 82q-154 0 -241 -82t-87 -227q0 -143 87.5 -225.5t240.5 -82.5z" />
    <glyph glyph-name="uni0210" unicode="&#x210;" horiz-adv-x="1740" 
d="M1202 0l-411 553h-224v-553h-424v1536h912q263 0 424 -136t161 -358q0 -174 -104 -297.5t-285 -169.5l443 -575h-492zM506 1995l252 -344h-367l-289 344h404zM1042 1995l254 -344h-366l-287 344h399zM567 864h428q102 0 159.5 47t57.5 131t-57.5 131.5t-159.5 47.5h-428
v-357z" />
    <glyph glyph-name="uni0211" unicode="&#x211;" horiz-adv-x="1132" 
d="M1104 1188v-357q-115 23 -215 23q-71 0 -129.5 -20.5t-105.5 -63.5t-73 -116.5t-26 -172.5v-481h-418v1169h418v-260q125 295 403 295q68 0 146 -16zM299 1671l229 -387h-348l-250 387h369zM811 1671l231 -387h-350l-250 387h369z" />
    <glyph glyph-name="uni0212" unicode="&#x212;" horiz-adv-x="1740" 
d="M1202 0l-411 553h-224v-553h-424v1536h912q263 0 424 -136t161 -358q0 -174 -104 -297.5t-285 -169.5l443 -575h-492zM1364 1640h-317q-61 115 -203 115t-203 -115h-317q50 183 185.5 276t334.5 93t335 -93.5t185 -275.5zM567 864h428q102 0 159.5 47t57.5 131
t-57.5 131.5t-159.5 47.5h-428v-357z" />
    <glyph glyph-name="uni0213" unicode="&#x213;" horiz-adv-x="1132" 
d="M1104 1188v-357q-115 23 -215 23q-71 0 -129.5 -20.5t-105.5 -63.5t-73 -116.5t-26 -172.5v-481h-418v1169h418v-260q125 295 403 295q68 0 146 -16zM1110 1284h-307q-15 69 -65.5 108.5t-125.5 39.5q-73 0 -123 -39t-67 -109h-307q30 190 158.5 296t338.5 106t339 -106
t159 -296z" />
    <glyph glyph-name="uni0214" unicode="&#x214;" horiz-adv-x="1798" 
d="M547 1536v-850q0 -161 90.5 -250.5t261.5 -89.5t260.5 89.5t89.5 250.5v850h426v-870q0 -208 -96.5 -367t-273 -245.5t-406.5 -86.5t-406.5 86.5t-273 245.5t-96.5 367v870h424zM559 1995l252 -344h-367l-288 344h403zM1096 1995l254 -344h-367l-287 344h400z" />
    <glyph glyph-name="uni0215" unicode="&#x215;" horiz-adv-x="1591" 
d="M1454 0h-418v184q-76 -106 -184 -161.5t-234 -55.5q-244 0 -381 147.5t-137 401.5v653h418v-594q0 -129 64 -198.5t182 -69.5q130 0 201 79t71 222v561h418v-1169zM479 1671l230 -387h-349l-249 387h368zM991 1671l232 -387h-351l-249 387h368z" />
    <glyph glyph-name="uni0216" unicode="&#x216;" horiz-adv-x="1798" 
d="M547 1536v-850q0 -161 90.5 -250.5t261.5 -89.5t260.5 89.5t89.5 250.5v850h426v-870q0 -208 -96.5 -367t-273 -245.5t-406.5 -86.5t-406.5 86.5t-273 245.5t-96.5 367v870h424zM1417 1640h-317q-61 115 -203 115t-203 -115h-317q50 183 185.5 276t334.5 93t335 -93.5
t185 -275.5z" />
    <glyph glyph-name="uni0217" unicode="&#x217;" horiz-adv-x="1591" 
d="M1454 0h-418v184q-76 -106 -184 -161.5t-234 -55.5q-244 0 -381 147.5t-137 401.5v653h418v-594q0 -129 64 -198.5t182 -69.5q130 0 201 79t71 222v561h418v-1169zM1290 1284h-307q-15 69 -65 108.5t-125 39.5q-73 0 -123.5 -39.5t-67.5 -108.5h-307q30 190 159 296
t339 106t338.5 -106t158.5 -296z" />
    <glyph glyph-name="uni0218" unicode="&#x218;" horiz-adv-x="1726" 
d="M74 504h432q14 -97 116.5 -153t270.5 -56q157 0 246.5 41t89.5 117q0 61 -54 93.5t-194 45.5l-287 26q-314 29 -459 142.5t-145 314.5q0 234 202.5 364t547.5 130q333 0 547 -139.5t229 -366.5h-430q-12 83 -105 130.5t-250 47.5q-147 0 -229 -38.5t-82 -110.5
q0 -56 52 -87t180 -44l305 -31q325 -31 462.5 -130.5t137.5 -297.5q0 -242 -212 -388.5t-560 -146.5q-358 0 -580.5 147.5t-230.5 389.5zM852 -633h-201l129 207q-66 15 -103.5 58t-37.5 106q0 79 60 125.5t163 46.5t163 -47t60 -129q0 -52 -25.5 -98t-96.5 -134z" />
    <glyph glyph-name="uni0219" unicode="&#x219;" horiz-adv-x="1531" 
d="M1470 381q0 -200 -179 -307t-500 -107q-329 0 -530 116.5t-210 309.5h424q21 -71 106 -110t228 -39q254 0 254 98q0 40 -49 59.5t-168 28.5l-207 16q-154 11 -263 40.5t-173 77t-92.5 107.5t-28.5 138q0 193 178 294t483 101q195 0 350 -50.5t247.5 -143t105.5 -213.5
h-424q-16 62 -90.5 102.5t-208.5 40.5q-112 0 -170.5 -24.5t-58.5 -69.5q0 -37 37 -57t133 -27l272 -21q150 -11 254 -39t165.5 -74t88 -106t26.5 -141zM762 -633h-201l129 207q-66 15 -103.5 58t-37.5 106q0 79 60 125.5t163 46.5t163 -47t60 -129q0 -52 -25.5 -97.5
t-97.5 -134.5z" />
    <glyph glyph-name="uni021A" unicode="&#x21a;" horiz-adv-x="1675" 
d="M625 0v1159h-586v377h1597v-377h-585v-1159h-426zM827 -633h-200l129 207q-66 15 -104 58t-38 106q0 79 60.5 125.5t163.5 46.5t163 -47t60 -129q0 -52 -25.5 -97.5t-97.5 -134.5z" />
    <glyph glyph-name="uni021B" unicode="&#x21b;" horiz-adv-x="1234" 
d="M250 860h-238v182l238 97l180 346h238v-316h491v-309h-491v-344q0 -129 51 -179t186 -50q159 0 275 55v-315q-163 -60 -369 -60q-284 0 -422.5 128.5t-138.5 363.5v401zM674 -633h-201l129 207q-66 15 -103.5 58t-37.5 106q0 79 60 125.5t163 46.5t163 -47t60 -129
q0 -52 -25.5 -97.5t-97.5 -134.5z" />
    <glyph glyph-name="uni021C" unicode="&#x21c;" horiz-adv-x="1677" 
d="M131 1210v326h1391v-307l-502 -330q300 -12 441 -123t141 -303q0 -227 -199.5 -366.5t-568.5 -139.5q-360 0 -576 146t-227 393h424q31 -213 379 -213q167 0 252 52t85 149q0 91 -74 137.5t-245 46.5h-252v274l397 258h-866z" />
    <glyph glyph-name="uni021D" unicode="&#x21d;" horiz-adv-x="1533" 
d="M121 870v299h1270v-292l-480 -310q146 -6 257.5 -43.5t179.5 -99t101.5 -139t33.5 -168.5q0 -220 -191.5 -354t-543.5 -134q-334 0 -530.5 149t-205.5 384h396q16 -104 103 -168t237 -64q147 0 229 57t82 152q0 90 -77 143.5t-243 53.5h-247v258l419 276h-790z" />
    <glyph glyph-name="uni021E" unicode="&#x21e;" horiz-adv-x="1921" 
d="M143 0v1536h424v-567h785v567h426v-1536h-426v592h-785v-592h-424zM1491 1993l-311 -344h-441l-311 344h342l191 -140l188 140h342z" />
    <glyph glyph-name="uni021F" unicode="&#x21f;" horiz-adv-x="1595" 
d="M115 0v1577h420v-592q76 106 187 162.5t241 56.5q251 0 391.5 -147.5t140.5 -401.5v-655h-420v594q0 130 -66.5 200t-191.5 70q-130 0 -206 -81.5t-76 -219.5v-563h-420zM1362 2034l-311 -344h-441l-311 344h342l190 -140l189 140h342z" />
    <glyph glyph-name="uni0220" unicode="&#x220;" horiz-adv-x="1835" 
d="M143 0v1536h424v-238q173 271 529 271q285 0 447.5 -164.5t162.5 -446.5v-1296h-424v1198q0 159 -88.5 244.5t-253.5 85.5q-174 0 -273.5 -93t-99.5 -253v-844h-424z" />
    <glyph glyph-name="uni0226" unicode="&#x226;" horiz-adv-x="1959" 
d="M700 1536h560l698 -1536h-453l-129 295h-792l-129 -295h-453zM731 637h498l-248 575zM979 1649q-109 0 -176.5 55t-67.5 147q0 93 67.5 149t176.5 56q111 0 178.5 -56t67.5 -149q0 -92 -67.5 -147t-178.5 -55z" />
    <glyph glyph-name="uni0227" unicode="&#x227;" horiz-adv-x="1691" 
d="M1016 0v143q-81 -78 -199.5 -127t-259.5 -49q-144 0 -257 45.5t-179 134t-66 205.5q0 175 139.5 275.5t362.5 111.5q31 2 88 2q198 0 322 -43q23 -6 47 -16q-25 205 -379 205q-265 0 -483 -111v303q270 125 585 125q109 0 207 -18t186.5 -58.5t152.5 -101t102 -151
t38 -201.5v-674h-407zM1016 479q-78 37 -266 37q-322 0 -322 -139q0 -65 66.5 -104.5t175.5 -39.5q60 0 120 15.5t111 45t83 77.5t32 108zM842 1284q-110 0 -177 55t-67 148t67 148t177 55q111 0 178 -55t67 -148t-67 -148t-178 -55z" />
    <glyph glyph-name="uni0228" unicode="&#x228;" horiz-adv-x="1626" 
d="M520 1192v-270h936v-308h-936v-270h1004v-344h-580l-51 -90q52 10 98 10q140 0 217.5 -54t77.5 -149q0 -105 -102.5 -169t-290.5 -64q-168 0 -280.5 60t-143.5 167h270q35 -55 154 -55q65 0 99 19.5t34 50.5q0 29 -28.5 46t-82.5 17q-71 0 -118 -18h-207l149 229h-643
v1536h1417v-344h-993z" />
    <glyph glyph-name="uni0229" unicode="&#x229;" horiz-adv-x="1503" 
d="M522 -229l133 206q-266 37 -430 203t-164 410q0 180 92 320.5t253 217t364 76.5q312 0 491 -199.5t179 -539.5h-924q89 -191 404 -191q129 0 257 33.5t232 95.5v-266q-234 -156 -555 -168l-41 -61q58 8 94 8q137 0 210 -52.5t73 -146.5q0 -100 -98 -163.5t-275 -63.5
q-159 0 -267.5 60t-141.5 163h249q38 -59 160 -59q64 0 98.5 19.5t34.5 52.5q0 30 -28 48.5t-86 18.5q-65 0 -107 -22h-207zM780 909q-107 0 -181 -51.5t-101 -140.5h553q-29 93 -99 142.5t-172 49.5z" />
    <glyph glyph-name="uni022A" unicode="&#x22a;" horiz-adv-x="1976" 
d="M987 -33q-270 0 -477 100t-320.5 282t-113.5 419t113.5 419t320.5 282t477 100q271 0 478.5 -100t321.5 -282t114 -419t-114 -419t-321.5 -282t-478.5 -100zM672 1649q-104 0 -166 52.5t-62 143.5q0 87 62 138t166 51q103 0 165 -51t62 -138q0 -91 -61.5 -143.5
t-165.5 -52.5zM1307 1649q-104 0 -166 52.5t-62 143.5q0 87 62.5 138t165.5 51t165 -51t62 -138q0 -91 -61.5 -143.5t-165.5 -52.5zM1489 2130h-997v252h997v-252zM987 346q224 0 353.5 113t129.5 309t-129.5 309t-353.5 113q-223 0 -353 -113t-130 -309t130 -309t353 -113z
" />
    <glyph glyph-name="uni022B" unicode="&#x22b;" horiz-adv-x="1622" 
d="M811 -33q-222 0 -392.5 77t-264 217t-93.5 323q0 279 206.5 449.5t543.5 170.5t543.5 -170.5t206.5 -449.5q0 -183 -93.5 -323t-264 -217t-392.5 -77zM498 1284q-104 0 -166 52t-62 143q0 87 62.5 138.5t165.5 51.5t165 -51.5t62 -138.5q0 -91 -61.5 -143t-165.5 -52z
M1124 1284q-104 0 -165.5 52t-61.5 143q0 87 62 138.5t165 51.5t164.5 -51.5t61.5 -138.5q0 -91 -61 -143t-165 -52zM1307 1761h-998v250h998v-250zM811 276q153 0 239.5 82.5t86.5 225.5q0 145 -86.5 227t-239.5 82q-154 0 -241 -82t-87 -227q0 -143 87.5 -225.5
t240.5 -82.5z" />
    <glyph glyph-name="uni022C" unicode="&#x22c;" horiz-adv-x="1976" 
d="M987 -33q-270 0 -477 100t-320.5 282t-113.5 419t113.5 419t320.5 282t477 100q271 0 478.5 -100t321.5 -282t114 -419t-114 -419t-321.5 -282t-478.5 -100zM700 1661h-270q47 350 361 350q64 0 137.5 -24t137 -48t101.5 -24q43 0 71.5 22t35.5 64h270
q-47 -352 -358 -352q-65 0 -139.5 24.5t-138 49t-101.5 24.5q-43 0 -71.5 -22.5t-35.5 -63.5zM1487 2116h-998v251h998v-251zM987 346q224 0 353.5 113t129.5 309t-129.5 309t-353.5 113q-223 0 -353 -113t-130 -309t130 -309t353 -113z" />
    <glyph glyph-name="uni022D" unicode="&#x22d;" horiz-adv-x="1622" 
d="M811 -33q-222 0 -392.5 77t-264 217t-93.5 323q0 279 206.5 449.5t543.5 170.5t543.5 -170.5t206.5 -449.5q0 -183 -93.5 -323t-264 -217t-392.5 -77zM545 1296h-248q9 182 84.5 281.5t218.5 99.5q64 0 137 -26.5t134.5 -53t97.5 -26.5q42 0 70.5 27.5t35.5 76.5h248
q-9 -180 -84.5 -281.5t-218.5 -101.5q-64 0 -137 27t-134 53.5t-96 26.5q-43 0 -72 -27t-36 -76zM1309 1810h-998v250h998v-250zM811 276q153 0 239.5 82.5t86.5 225.5q0 145 -86.5 227t-239.5 82q-154 0 -241 -82t-87 -227q0 -143 87.5 -225.5t240.5 -82.5z" />
    <glyph glyph-name="uni022E" unicode="&#x22e;" horiz-adv-x="1976" 
d="M987 -33q-270 0 -477 100t-320.5 282t-113.5 419t113.5 419t320.5 282t477 100q271 0 478.5 -100t321.5 -282t114 -419t-114 -419t-321.5 -282t-478.5 -100zM987 346q224 0 353.5 113t129.5 309t-129.5 309t-353.5 113q-223 0 -353 -113t-130 -309t130 -309t353 -113z
M987 1649q-109 0 -176.5 55t-67.5 147q0 93 67.5 149t176.5 56q111 0 178.5 -56t67.5 -149q0 -92 -67.5 -147t-178.5 -55z" />
    <glyph glyph-name="uni022F" unicode="&#x22f;" horiz-adv-x="1622" 
d="M811 -33q-222 0 -392.5 77t-264 217t-93.5 323q0 279 206.5 449.5t543.5 170.5t543.5 -170.5t206.5 -449.5q0 -183 -93.5 -323t-264 -217t-392.5 -77zM811 276q153 0 239.5 82.5t86.5 225.5q0 145 -86.5 227t-239.5 82q-154 0 -241 -82t-87 -227q0 -143 87.5 -225.5
t240.5 -82.5zM809 1284q-110 0 -177 55t-67 148t67 148t177 55q111 0 178.5 -55t67.5 -148t-67.5 -148t-178.5 -55z" />
    <glyph glyph-name="uni0230" unicode="&#x230;" horiz-adv-x="1976" 
d="M987 -33q-270 0 -477 100t-320.5 282t-113.5 419t113.5 419t320.5 282t477 100q271 0 478.5 -100t321.5 -282t114 -419t-114 -419t-321.5 -282t-478.5 -100zM987 346q224 0 353.5 113t129.5 309t-129.5 309t-353.5 113q-223 0 -353 -113t-130 -309t130 -309t353 -113z
M989 1649q-109 0 -176.5 55t-67.5 147q0 93 67.5 149t176.5 56q111 0 178.5 -56t67.5 -149q0 -92 -67.5 -147t-178.5 -55zM1487 2130h-998v252h998v-252z" />
    <glyph glyph-name="uni0231" unicode="&#x231;" horiz-adv-x="1622" 
d="M811 -33q-222 0 -392.5 77t-264 217t-93.5 323q0 279 206.5 449.5t543.5 170.5t543.5 -170.5t206.5 -449.5q0 -183 -93.5 -323t-264 -217t-392.5 -77zM809 1284q-110 0 -177 55t-67 148t67 148t177 55q111 0 178.5 -55t67.5 -148t-67.5 -148t-178.5 -55zM1309 1761h-998
v250h998v-250zM811 276q153 0 239.5 82.5t86.5 225.5q0 145 -86.5 227t-239.5 82q-154 0 -241 -82t-87 -227q0 -143 87.5 -225.5t240.5 -82.5z" />
    <glyph glyph-name="uni0232" unicode="&#x232;" horiz-adv-x="1890" 
d="M1159 0h-426v618l-721 918h471l461 -588l461 588h471l-717 -911v-625zM1444 1692h-998v252h998v-252z" />
    <glyph glyph-name="uni0233" unicode="&#x233;" horiz-adv-x="1591" 
d="M500 -371q-129 0 -229.5 30.5t-194.5 98.5v291q98 -62 181 -88.5t183 -26.5q91 0 154 38.5t102 133.5l2 3h-184l-498 1060h461l332 -798l336 798h444l-561 -1192q-58 -125 -146 -205t-181 -111.5t-201 -31.5zM1311 1335h-998v250h998v-250z" />
    <glyph glyph-name="uni0237" unicode="&#x237;" horiz-adv-x="649" 
d="M535 1188v-1067q0 -234 -139.5 -363t-422.5 -129q-204 0 -370 60v315q119 -55 274 -55q135 0 186.5 50t51.5 179v1010h420z" />
    <glyph glyph-name="uni0238" unicode="&#x238;" horiz-adv-x="2682" 
d="M643 1204q153 0 279.5 -69t212.5 -195v637h413v-637q85 127 211.5 195.5t280.5 68.5q259 0 418 -170.5t159 -449.5q0 -277 -159.5 -447t-417.5 -170q-155 0 -280.5 69t-211.5 197v-233h-413v233q-84 -127 -210.5 -196.5t-281.5 -69.5q-257 0 -417 170.5t-160 446.5
q0 279 160 449.5t417 170.5zM2193 584q0 131 -78 216t-200 85q-126 0 -231 -84.5t-150 -216.5q45 -131 150 -214t231 -83q122 0 200 83.5t78 213.5zM489 584q0 -130 78.5 -213.5t202.5 -83.5q125 0 229.5 83.5t149.5 213.5q-45 132 -149.5 216.5t-229.5 84.5
q-124 0 -202.5 -85t-78.5 -216z" />
    <glyph glyph-name="uni0239" unicode="&#x239;" horiz-adv-x="2682" 
d="M643 1204q153 0 279.5 -69t212.5 -195v229h413v-229q85 127 211.5 195.5t280.5 68.5q259 0 418 -170.5t159 -449.5q0 -277 -159.5 -447t-417.5 -170q-155 0 -280.5 69t-211.5 197v-571h-413v571q-84 -127 -210.5 -196.5t-281.5 -69.5q-257 0 -417 170.5t-160 446.5
q0 279 160 449.5t417 170.5zM2193 584q0 131 -78 216t-200 85q-126 0 -231 -84.5t-150 -216.5q45 -131 150 -214t231 -83q122 0 200 83.5t78 213.5zM489 584q0 -130 78.5 -213.5t202.5 -83.5q125 0 229.5 83.5t149.5 213.5q-45 132 -149.5 216.5t-229.5 84.5
q-124 0 -202.5 -85t-78.5 -216z" />
    <glyph glyph-name="uni023A" unicode="&#x23a;" horiz-adv-x="1961" 
d="M516 -250l215 545h-147l-129 -295h-453l698 1536h521l100 250h254l-201 -504l584 -1282h-453l-129 295h-391l-215 -545h-254zM731 637h135l174 438l-59 137zM1171 768l-51 -131h109z" />
    <glyph glyph-name="uni023B" unicode="&#x23b;" horiz-adv-x="1914" 
d="M383 -250l125 316q-203 98 -316.5 280t-113.5 422q0 237 110.5 419t313.5 282t469 100q67 0 129 -6l88 223h336l-119 -301q190 -84 306.5 -237.5t139.5 -354.5h-426q-35 156 -161 235l-314 -794q412 0 475 309h426q-23 -202 -139 -355t-307.5 -237t-433.5 -84
q-98 0 -162 10l-90 -227h-336zM508 768q0 -222 145 -336l303 770q-209 -3 -328.5 -119.5t-119.5 -314.5z" />
    <glyph glyph-name="uni023C" unicode="&#x23c;" horiz-adv-x="1560" 
d="M393 -246l80 264q-193 70 -302.5 218.5t-109.5 347.5q0 182 91 323t257 219t379 78q32 0 46 -2l65 213h266l-78 -258q178 -59 291 -185.5t131 -295.5h-415q-20 101 -105 160l-170 -557q107 8 181 65.5t94 149.5h415q-26 -235 -227 -381t-494 -146q-43 0 -63 2l-66 -215
h-266zM483 584q0 -154 92 -234l164 541q-120 -14 -188 -94t-68 -213z" />
    <glyph glyph-name="uni023D" unicode="&#x23d;" horiz-adv-x="1640" 
d="M219 1536h424v-526h481v-289h-481v-344h959v-377h-1383v721h-174v289h174v526z" />
    <glyph glyph-name="uni023E" unicode="&#x23e;" horiz-adv-x="1710" 
d="M330 -250l295 518v891h-586v377h1304l142 250h346l-195 -342v-285h-161l-424 -747v-412h-234l-141 -250h-346zM1051 1159v-141l77 141h-77z" />
    <glyph glyph-name="uni0241" unicode="&#x241;" horiz-adv-x="1548" 
d="M807 1569q336 0 522.5 -133.5t186.5 -354.5q0 -131 -54.5 -221t-185.5 -188l-131 -94q-108 -80 -141 -150.5t-33 -204.5v-223h-426v297q0 172 54.5 277t184.5 200l140 103q101 73 131 108t30 90q0 78 -75.5 123t-221.5 45q-314 0 -350 -215h-422q7 113 62 210.5
t152.5 171.5t246 116.5t330.5 42.5z" />
    <glyph glyph-name="uni0242" unicode="&#x242;" horiz-adv-x="1437" 
d="M483 0v117q0 111 37 188t125 137l186 127q79 54 106.5 87t27.5 83q0 68 -62 111t-184 43q-141 0 -212.5 -56t-94.5 -169h-412q24 253 207.5 394.5t517.5 141.5q193 0 342 -53t234 -156.5t85 -244.5q0 -129 -51 -212.5t-164 -162.5l-167 -119q-58 -40 -80.5 -81
t-22.5 -109v-66h-418z" />
    <glyph glyph-name="uni0243" unicode="&#x243;" horiz-adv-x="1904" 
d="M43 350v236h150v950h1093q213 0 332 -100t119 -275q0 -112 -56.5 -205t-173.5 -147q164 -39 248 -137t84 -240q0 -194 -133 -313t-381 -119h-1132v350h-150zM610 350v-57h600q93 0 145 45.5t52 128.5q0 82 -57.5 131t-163.5 49h-576v-61h455v-236h-455zM610 1243v-313
h518q77 0 127 46t50 122q0 64 -45 104.5t-123 40.5h-527z" />
    <glyph glyph-name="uni0244" unicode="&#x244;" horiz-adv-x="2000" 
d="M649 1536v-510h703v510h426v-510h174v-291h-174v-69q0 -208 -97 -367t-273.5 -245.5t-406.5 -86.5t-406.5 86.5t-273 245.5t-96.5 367v69h-174v291h174v510h424zM1001 346q171 0 261 89.5t90 250.5v49h-703v-49q0 -161 90.5 -250.5t261.5 -89.5z" />
    <glyph glyph-name="uni0245" unicode="&#x245;" horiz-adv-x="1886" 
d="M444 0h-442l700 1536h482l698 -1536h-432l-502 1141z" />
    <glyph glyph-name="uni0246" unicode="&#x246;" horiz-adv-x="1626" 
d="M494 -250l75 250h-473v1536h938l76 250h334l-76 -250h145v-344h-249l-80 -270h272v-308h-366l-82 -270h516v-344h-621l-76 -250h-333zM520 344h154l82 270h-236v-270zM520 1192v-270h328l82 270h-410z" />
    <glyph glyph-name="uni0247" unicode="&#x247;" horiz-adv-x="1503" 
d="M379 -246l82 273q-186 73 -293 220.5t-107 342.5q0 180 92 320.5t253 217t364 76.5q33 0 49 -2l64 213h268l-84 -270q179 -80 276 -256.5t97 -423.5h-580l-55 -184q61 -7 115 -7q129 0 257 33.5t232 95.5v-266q-253 -170 -608 -170q-61 0 -90 2l-66 -215h-266zM729 905
q-88 -12 -147.5 -61t-83.5 -127h174zM1051 717q-24 77 -76 123l-37 -123h113zM516 465q18 -44 55 -78l23 78h-78z" />
    <glyph glyph-name="uni0248" unicode="&#x248;" horiz-adv-x="1751" 
d="M780 762v289h322v485h424v-485h176v-289h-176v-113q0 -316 -205 -499t-545 -183q-336 0 -536.5 189t-200.5 516l-2 84h416v-51q0 -187 76 -279t247 -92q326 0 326 338v90h-322z" />
    <glyph glyph-name="uni0249" unicode="&#x249;" horiz-adv-x="792" 
d="M606 1188v-354h146v-248h-146v-465q0 -234 -139 -363t-422 -129q-205 0 -371 60v315q119 -55 275 -55q135 0 186 50t51 179v408h-145v248h145v354h420zM395 1284q-110 0 -176.5 55t-66.5 148t66.5 148t176.5 55q111 0 178.5 -55t67.5 -148t-67.5 -148t-178.5 -55z" />
    <glyph glyph-name="uni024A" unicode="&#x24a;" horiz-adv-x="1998" 
d="M2040 -45q85 0 180 31v-303q-120 -54 -285 -54q-254 0 -375.5 129.5t-121.5 384.5v168q-104 -165 -260.5 -254.5t-350.5 -89.5q-221 0 -390.5 100t-263 282t-93.5 419t93.5 419t263 282t390.5 100q193 0 350 -87.5t261 -250.5v305h417v-1364q0 -110 42.5 -163.5
t142.5 -53.5zM510 768q0 -186 119.5 -306t308.5 -120q171 0 311 119t201 307q-61 189 -201 307.5t-311 118.5q-190 0 -309 -119.5t-119 -306.5z" />
    <glyph glyph-name="uni024B" unicode="&#x24b;" 
d="M1554 1169v-997q0 -111 42.5 -165t142.5 -54q89 0 180 31v-314q-113 -41 -285 -41q-254 0 -375.5 129.5t-121.5 382.5v88q-86 -126 -212 -194t-280 -68q-258 0 -418.5 170.5t-160.5 446.5q0 279 160 449.5t419 170.5q153 0 279.5 -68t212.5 -192v225h417zM489 584
q0 -129 79 -213t202 -84q126 0 232 83.5t149 213.5q-43 132 -149 216.5t-232 84.5q-123 0 -202 -85t-79 -216z" />
    <glyph glyph-name="uni024C" unicode="&#x24c;" horiz-adv-x="1824" 
d="M45 563v289h182v684h912q263 0 424 -136t161 -358q0 -174 -104 -297.5t-285 -169.5l443 -575h-492l-412 553h-223v-553h-424v563h-182zM651 864h428q102 0 159.5 47t57.5 131t-57.5 131.5t-159.5 47.5h-428v-357z" />
    <glyph glyph-name="uni024D" unicode="&#x24d;" horiz-adv-x="1173" 
d="M1145 1188v-357q-115 23 -215 23q-134 0 -223 -72.5t-107 -226.5h248v-250h-252v-305h-418v305h-145v250h145v614h418v-260q125 295 403 295q68 0 146 -16z" />
    <glyph glyph-name="uni024E" unicode="&#x24e;" horiz-adv-x="1988" 
d="M37 1102v291h139l-115 143h471l113 -143h696l113 143h471l-115 -143h142v-291h-369l-375 -477v-625h-426v618l-381 484h-364zM993 948l121 154h-242z" />
    <glyph glyph-name="uni024F" unicode="&#x24f;" 
d="M33 670v237h143l-125 262h461l111 -262h446l111 262h444l-123 -262h146v-237h-258l-326 -693q-58 -125 -146 -205t-181 -111.5t-201 -31.5q-129 0 -229.5 30.5t-194.5 98.5v291q98 -62 181 -88.5t183 -26.5q91 0 154 38.5t102 133.5l2 3h-184l-264 561h-252zM844 371
l125 299h-250z" />
    <glyph glyph-name="uni0250" unicode="&#x250;" horiz-adv-x="1513" 
d="M942 434q-262 0 -436 146v-60q0 -237 368 -237q270 0 486 110v-303q-270 -125 -586 -125q-318 0 -496 139.5t-178 391.5v673h396v-129q180 162 446 162q230 0 374 -102t144 -281q0 -119 -68.5 -207.5t-185 -133t-264.5 -44.5zM813 684q105 0 170.5 36t65.5 99
q0 64 -65.5 99.5t-170.5 35.5q-205 0 -319 -135q119 -135 319 -135z" />
    <glyph glyph-name="uni0251" unicode="&#x251;" horiz-adv-x="1691" 
d="M1016 0v143q-81 -78 -199.5 -127t-259.5 -49q-144 0 -257 45.5t-179 134t-66 205.5q0 175 139.5 275.5t362.5 111.5q31 2 88 2q198 0 322 -43q23 -6 47 -16q-25 205 -379 205q-265 0 -483 -111v303q270 125 585 125q109 0 207 -18t186.5 -58.5t152.5 -101t102 -151
t38 -201.5v-674h-407zM1016 479q-78 37 -266 37q-322 0 -322 -139q0 -65 66.5 -104.5t175.5 -39.5q60 0 120 15.5t111 45t83 77.5t32 108z" />
    <glyph glyph-name="uni0252" unicode="&#x252;" horiz-adv-x="1689" 
d="M676 143v-143h-408v674q0 111 38 201.5t102 151t152.5 101t186.5 58.5t207 18q316 0 586 -125v-303q-218 111 -483 111q-354 0 -379 -205q24 10 47 16q124 43 322 43q57 0 88 -2q223 -11 362 -111.5t139 -275.5q0 -117 -65.5 -205.5t-178.5 -134t-257 -45.5
q-141 0 -259.5 49t-199.5 127zM676 479q0 -60 32 -108t83 -77.5t111 -45t120 -15.5q109 0 175.5 39.5t66.5 104.5q0 139 -322 139q-188 0 -266 -37z" />
    <glyph glyph-name="uni0253" unicode="&#x253;" 
d="M115 0v1081q0 272 142.5 400.5t451.5 128.5q187 0 342 -49v-299q-125 47 -265 47q-134 0 -192.5 -60.5t-58.5 -189.5v-162q86 118 211.5 182t277.5 64q259 0 419.5 -162.5t160.5 -427.5q0 -262 -161 -424t-419 -162q-153 0 -278 64.5t-211 183.5v-215h-420zM1180 553
q0 118 -79 194t-202 76q-127 0 -232.5 -75.5t-148.5 -194.5q43 -118 148.5 -192t232.5 -74q123 0 202 74.5t79 191.5z" />
    <glyph glyph-name="uni0254" unicode="&#x254;" horiz-adv-x="1560" 
d="M467 676h-416q17 155 114.5 275t255.5 185.5t351 65.5q324 0 525.5 -170.5t201.5 -445.5q0 -182 -91 -323t-257 -219.5t-379 -78.5q-193 0 -351 65.5t-255.5 186.5t-114.5 277h416q23 -103 104 -160.5t201 -57.5q141 0 223 81.5t82 228.5q0 146 -82 226.5t-223 80.5
q-118 0 -200.5 -59t-104.5 -158z" />
    <glyph glyph-name="uni0256" unicode="&#x256;" horiz-adv-x="1820" 
d="M1178 6v293q-83 -157 -220.5 -244.5t-312.5 -87.5q-258 0 -418.5 170.5t-160.5 446.5q0 279 160 449.5t419 170.5q173 0 312 -86.5t221 -243.5v703h411v-1397q0 -120 48 -170.5t151 -50.5q87 0 182 31v-318q-127 -43 -284 -43q-508 0 -508 377zM489 584q0 -129 79 -213
t202 -84q126 0 232 83.5t149 213.5q-43 132 -149 216.5t-232 84.5q-123 0 -202 -85t-79 -216z" />
    <glyph glyph-name="uni0257" unicode="&#x257;" horiz-adv-x="1667" 
d="M1552 1143v-1143h-417v227q-86 -125 -211.5 -192.5t-278.5 -67.5q-258 0 -418.5 170.5t-160.5 446.5q0 279 160 449.5t419 170.5q152 0 278 -66.5t212 -189.5v187q0 238 113 356.5t349 118.5q160 0 275 -45v-291q-87 35 -162 35q-81 0 -119.5 -40.5t-38.5 -125.5z
M489 584q0 -129 79 -213t202 -84q126 0 232 83.5t149 213.5q-43 132 -149 216.5t-232 84.5q-123 0 -202 -85t-79 -216z" />
    <glyph glyph-name="uni0259" unicode="&#x259;" horiz-adv-x="1501" 
d="M702 1204q212 0 380 -77t264 -219.5t96 -325.5q0 -181 -92.5 -322t-254 -217t-364.5 -76q-311 0 -489.5 200.5t-178.5 541.5h922q-92 188 -397 188q-249 0 -486 -102v254q123 71 282 113t318 42zM721 248q109 0 182.5 53t100.5 145h-564q31 -96 103.5 -147t177.5 -51z
" />
    <glyph glyph-name="uni025B" unicode="&#x25b;" horiz-adv-x="1501" 
d="M96 868q0 152 165.5 244t490.5 92q309 0 487 -118t191 -300h-402q-17 61 -83 100.5t-185 39.5q-124 0 -183 -31.5t-59 -81.5q0 -104 219 -104h240v-228h-238q-139 0 -195.5 -25t-56.5 -81q0 -61 67 -96t210 -35q276 0 299 145h407q-5 -87 -51.5 -162t-132 -134
t-223 -92.5t-311.5 -33.5t-309 29.5t-216.5 80.5t-122.5 115.5t-41 139.5q0 109 75 176t247 94q-289 60 -289 266z" />
    <glyph glyph-name="uni025F" unicode="&#x25f;" horiz-adv-x="792" 
d="M606 1188v-354h146v-248h-146v-465q0 -234 -139 -363t-422 -129q-205 0 -371 60v315q119 -55 275 -55q135 0 186 50t51 179v408h-145v248h145v354h420z" />
    <glyph glyph-name="uni0260" unicode="&#x260;" horiz-adv-x="1667" 
d="M1731 1610q171 0 342 -49v-293q-132 47 -267 47q-131 0 -191.5 -61.5t-60.5 -188.5v-754q0 -213 -100 -368t-280 -234.5t-422 -79.5q-161 0 -299.5 41t-276.5 127v314q242 -181 549 -181q204 0 308 88.5t104 276.5v41q-92 -96 -219.5 -154.5t-282.5 -58.5
q-250 0 -412 149.5t-162 391.5t162 391t412 149q154 0 281.5 -62t220.5 -163v92q0 278 145 408.5t449 130.5zM776 408q244 0 375 256q-132 256 -375 256q-135 0 -214 -69t-79 -187t78 -187t215 -69z" />
    <glyph glyph-name="uni0261" unicode="&#x261;" horiz-adv-x="1665" 
d="M635 123q-250 0 -412 149.5t-162 391.5t162 391t412 149q154 0 281.5 -62t220.5 -163v190h417v-858q0 -213 -100 -368t-280 -234.5t-422 -79.5q-160 0 -298.5 40.5t-277.5 125.5v316q243 -179 549 -179q204 0 308 88t104 275v41q-92 -96 -219.5 -154.5t-282.5 -58.5z
M776 408q244 0 375 256q-132 256 -375 256q-135 0 -214 -69t-79 -187t78 -187t215 -69z" />
    <glyph glyph-name="uni0263" unicode="&#x263;" horiz-adv-x="1609" 
d="M805 -371q-194 0 -304 79.5t-110 215.5q0 80 37 153t123 183l-535 909h453l340 -641l344 641h440l-536 -909q87 -111 124.5 -183.5t37.5 -152.5q0 -136 -110.5 -215.5t-303.5 -79.5zM805 -123q41 0 64.5 20.5t23.5 53.5q0 30 -21.5 69.5t-66.5 102.5q-47 -65 -68.5 -104
t-21.5 -68q0 -33 24 -53.5t66 -20.5z" />
    <glyph glyph-name="uni0264" unicode="&#x264;" horiz-adv-x="1609" 
d="M805 -371q-194 0 -304 79.5t-110 215.5q0 80 37 153t123 183l-535 909h453l340 -641l344 641h440l-536 -909q87 -111 124.5 -183.5t37.5 -152.5q0 -136 -110.5 -215.5t-303.5 -79.5zM805 -123q41 0 64.5 20.5t23.5 53.5q0 30 -21.5 69.5t-66.5 102.5q-47 -65 -68.5 -104
t-21.5 -68q0 -33 24 -53.5t66 -20.5z" />
    <glyph glyph-name="uni0265" unicode="&#x265;" horiz-adv-x="1574" 
d="M1458 1169v-1507h-418v520q-76 -105 -184 -160t-235 -55q-245 0 -383 147.5t-138 401.5v653h418v-594q0 -130 64 -199t184 -69q127 0 200.5 80.5t73.5 220.5v561h418z" />
    <glyph glyph-name="uni0266" unicode="&#x266;" horiz-adv-x="1595" 
d="M115 0v1081q0 272 142.5 400.5t451.5 128.5q187 0 342 -49v-299q-125 47 -265 47q-133 0 -192 -58.5t-59 -185.5v-135q76 107 186.5 163t241.5 56q251 0 391.5 -147.5t140.5 -401.5v-600h-420v539q0 132 -66.5 201t-191.5 69q-131 0 -206.5 -81t-75.5 -220v-508h-420z
" />
    <glyph glyph-name="uni0267" unicode="&#x267;" horiz-adv-x="1593" 
d="M115 0v1081q0 272 142.5 400.5t451.5 128.5q187 0 342 -49v-299q-125 47 -265 47q-133 0 -192 -58.5t-59 -185.5v-135q76 107 186.5 163t241.5 56q251 0 391.5 -147.5t140.5 -401.5v-459q0 -512 -500 -512q-171 0 -284 41v314q95 -31 180 -31q100 0 142 54t42 165v367
q0 132 -66.5 201t-191.5 69q-131 0 -206.5 -81t-75.5 -220v-508h-420z" />
    <glyph glyph-name="uni0268" unicode="&#x268;" horiz-adv-x="790" 
d="M41 586v248h143v354h420v-354h146v-248h-146v-586h-420v586h-143zM395 1284q-110 0 -176.5 55t-66.5 148t66.5 148t176.5 55q111 0 178.5 -55t67.5 -148t-67.5 -148t-178.5 -55z" />
    <glyph glyph-name="uni0269" unicode="&#x269;" horiz-adv-x="915" 
d="M104 1169h420v-739q0 -79 41 -114t123 -35q98 0 205 57v-324q-129 -47 -275 -47q-250 0 -382 116.5t-132 317.5v768z" />
    <glyph glyph-name="uni026A" unicode="&#x26a;" horiz-adv-x="1273" 
d="M1202 0h-1130v248h356v674h-356v247h1130v-247h-356v-674h356v-248z" />
    <glyph glyph-name="uni026C" unicode="&#x26c;" horiz-adv-x="1277" 
d="M500 0v571q-25 -2 -72 -2q-197 0 -305.5 81t-108.5 229q0 130 85.5 211t236.5 81q86 0 164 -30v436h420v-686q155 59 331 164v-248q-167 -90 -331 -148v-659h-420zM436 778q18 0 64 4v156q-47 47 -119 47q-54 0 -84.5 -26t-30.5 -70q0 -51 41 -81t129 -30z" />
    <glyph glyph-name="uni026F" unicode="&#x26f;" horiz-adv-x="2473" 
d="M608 -35q-241 0 -374.5 147t-133.5 402v655h418v-594q0 -131 60 -200.5t172 -69.5q121 0 190.5 81t69.5 220v563h417v-594q0 -131 60 -200.5t172 -69.5q121 0 190.5 81t69.5 220v563h418v-1169h-418v178q-75 -104 -178.5 -158.5t-224.5 -54.5q-168 0 -286.5 75.5
t-174.5 213.5q-71 -139 -188.5 -214t-258.5 -75z" />
    <glyph glyph-name="uni0271" unicode="&#x271;" horiz-adv-x="2473" 
d="M2374 655v-514q0 -512 -500 -512q-169 0 -285 41v314q95 -31 183 -31q100 0 142 54t42 165v422q0 130 -60.5 200t-173.5 70q-120 0 -189 -81.5t-69 -219.5v-563h-417v594q0 130 -60.5 200t-173.5 70q-120 0 -189 -81.5t-69 -219.5v-563h-418v1169h418v-178
q73 104 177 158.5t226 54.5q168 0 286 -75.5t173 -213.5q73 140 190 214.5t259 74.5q240 0 374 -147.5t134 -401.5z" />
    <glyph glyph-name="uni0272" unicode="&#x272;" horiz-adv-x="1615" 
d="M137 1169h418v-184q78 107 188 163t240 56q251 0 392 -147.5t141 -401.5v-655h-420v594q0 130 -66.5 200t-189.5 70q-132 0 -208.5 -81.5t-76.5 -219.5v-459q0 -238 -114 -356.5t-351 -118.5q-155 0 -272 52v274q83 -37 162 -37q81 0 119 40.5t38 127.5v1083z" />
    <glyph glyph-name="uni0275" unicode="&#x275;" horiz-adv-x="1622" 
d="M811 -33q-222 0 -392.5 77t-264 217t-93.5 323q0 279 206.5 449.5t543.5 170.5t543.5 -170.5t206.5 -449.5q0 -183 -93.5 -323t-264 -217t-392.5 -77zM811 276q113 0 191 46.5t112 130.5h-606q33 -84 111.5 -130.5t191.5 -46.5zM811 893q-115 0 -193 -46t-112 -132h608
q-32 85 -110 131.5t-193 46.5z" />
    <glyph glyph-name="uni0278" unicode="&#x278;" horiz-adv-x="1992" 
d="M788 -338v305q-216 4 -381 82t-255.5 217t-90.5 318q0 181 90.5 321t255.5 217.5t381 81.5v373h416v-373q216 -4 381 -81.5t255.5 -217.5t90.5 -321q0 -179 -90.5 -318t-255.5 -217t-381 -82v-305h-416zM483 584q0 -138 81 -220t224 -90v621q-143 -6 -224 -89t-81 -222z
M1509 584q0 140 -80.5 222.5t-224.5 88.5v-621q144 7 224.5 89.5t80.5 220.5z" />
    <glyph glyph-name="uni027D" unicode="&#x27d;" horiz-adv-x="1132" 
d="M555 481v-309q0 -111 42 -165t142 -54q90 0 181 31v-314q-113 -41 -285 -41q-498 0 -498 512v1028h426l-26 -307q119 342 419 342q71 0 146 -16v-357q-115 23 -213 23q-71 0 -130 -20.5t-105.5 -63.5t-72.5 -116.5t-26 -172.5z" />
    <glyph glyph-name="uni027E" unicode="&#x27e;" horiz-adv-x="909" 
d="M604 1204q169 0 285 -41v-313q-95 31 -182 31q-100 0 -142.5 -54t-42.5 -165v-662h-418v692q0 253 122.5 382.5t377.5 129.5z" />
    <glyph glyph-name="uni0283" unicode="&#x283;" horiz-adv-x="811" 
d="M885 1610q155 0 313 -47v-291q-113 39 -242 39q-135 0 -198.5 -55t-63.5 -173v-919q0 -258 -152.5 -396.5t-443.5 -138.5q-137 0 -280 47v308q107 -43 229 -43q126 0 176.5 47t50.5 155v932q0 258 157 396.5t454 138.5z" />
    <glyph glyph-name="uni0284" unicode="&#x284;" horiz-adv-x="956" 
d="M801 1610q150 0 311 -47v-308q-122 43 -260 43q-135 0 -189.5 -47t-54.5 -155v-643h166v-248h-166v-543h-420v543h-145v248h145v622q0 258 157 396.5t456 138.5z" />
    <glyph glyph-name="uni0288" unicode="&#x288;" horiz-adv-x="1159" 
d="M1176 860h-492v-694q0 -111 42 -165t142 -54q80 0 181 30v-307q-113 -41 -285 -41q-498 0 -498 512v719h-239v182l239 97l180 346h238v-316h492v-309z" />
    <glyph glyph-name="uni0289" unicode="&#x289;" horiz-adv-x="1781" 
d="M1554 0h-417v182q-76 -105 -183.5 -160t-234.5 -55q-244 0 -380 147.5t-136 401.5v70h-154v248h154v335h418v-335h516v335h417v-335h183v-248h-183v-586zM864 307q125 0 196 73t77 206h-516v-11q0 -129 62.5 -198.5t180.5 -69.5z" />
    <glyph glyph-name="uni028A" unicode="&#x28a;" horiz-adv-x="1677" 
d="M840 -33q-329 0 -532.5 149.5t-203.5 401.5q0 231 201 375h-235v276h653v-208q-105 -54 -163 -149t-58 -212q0 -143 92 -233.5t246 -90.5q153 0 244.5 90.5t91.5 233.5q0 118 -57.5 212.5t-164.5 148.5v208h654v-276h-236q199 -142 199 -375q0 -252 -202 -401.5
t-529 -149.5z" />
    <glyph glyph-name="uni028B" unicode="&#x28b;" horiz-adv-x="1613" 
d="M1550 727q0 -158 -60 -298t-164 -242t-253.5 -161t-320.5 -59q-172 0 -298.5 43t-204 125t-114.5 193.5t-37 255.5v585h418v-583q0 -291 260 -291q156 0 254 104t98 267q0 107 -51.5 167t-156.5 60q-78 0 -154 -35v299q135 47 285 47q243 0 371 -122.5t128 -354.5z" />
    <glyph glyph-name="uni028C" unicode="&#x28c;" horiz-adv-x="1574" 
d="M2 0l547 1169h477l547 -1169h-461l-330 803l-333 -803h-447z" />
    <glyph glyph-name="uni028E" unicode="&#x28e;" horiz-adv-x="1583" 
d="M1094 1540q129 0 229.5 -30.5t194.5 -98.5v-291q-97 62 -180.5 88.5t-184.5 26.5q-91 0 -154 -38.5t-102 -133.5l-2 -2h184l498 -1061h-461l-332 799l-335 -799h-445l561 1192q44 94 104.5 163.5t130 108.5t142.5 57.5t152 18.5z" />
    <glyph glyph-name="uni0292" unicode="&#x292;" horiz-adv-x="1533" 
d="M121 870v299h1270v-292l-480 -310q146 -6 257.5 -43.5t179.5 -99t101.5 -139t33.5 -168.5q0 -220 -191.5 -354t-543.5 -134q-334 0 -530.5 149t-205.5 384h396q16 -104 103 -168t237 -64q147 0 229 57t82 152q0 90 -77 143.5t-243 53.5h-247v258l419 276h-790z" />
    <glyph glyph-name="uni0294" unicode="&#x294;" horiz-adv-x="1398" 
d="M479 0v508q0 115 40 189.5t122 129.5l190 131q76 52 103 86t27 86q0 168 -246 168q-142 0 -213 -55t-94 -168h-412q24 253 207.5 394t517.5 141q309 0 485 -122.5t176 -344.5q0 -118 -50.5 -209.5t-166.5 -173.5l-188 -131q-45 -30 -62.5 -69t-17.5 -105v-455h-418z" />
    <glyph glyph-name="uni0295" unicode="&#x295;" horiz-adv-x="1392" 
d="M920 508v-508h-418v455q0 66 -17.5 105t-62.5 69l-189 131q-116 82 -166.5 173.5t-50.5 209.5q0 222 176.5 344.5t485.5 122.5q334 0 517.5 -141t207.5 -394h-412q-23 113 -94 168t-213 55q-246 0 -246 -168q0 -52 27 -86t102 -86l191 -131q82 -55 122 -129.5t40 -189.5z
" />
    <glyph glyph-name="uni0298" unicode="&#x298;" horiz-adv-x="1933" 
d="M967 -33q-199 0 -366.5 59.5t-284 166t-181.5 260t-65 335.5q0 243 111.5 430t315.5 289.5t470 102.5q267 0 471 -102.5t316 -289t112 -430.5t-112 -430.5t-316 -288.5t-471 -102zM967 584q-86 0 -145.5 59t-59.5 145t59.5 145.5t145.5 59.5q87 0 145.5 -59t58.5 -146
t-58.5 -145.5t-145.5 -58.5zM967 276q221 0 348 137.5t127 374.5t-127 374.5t-348 137.5q-220 0 -347.5 -138t-127.5 -374t127.5 -374t347.5 -138z" />
    <glyph glyph-name="uni029D" unicode="&#x29d;" horiz-adv-x="1230" 
d="M479 -371q-227 0 -358 114t-131 298t124.5 293.5t327.5 109.5q80 0 156 -12v748l209 -43l209 43v-899q83 -48 155 -109v-291q-73 73 -167 133q-35 -183 -174.5 -284t-350.5 -101zM805 1284q-110 0 -177 55t-67 148t67 148t177 55q111 0 178.5 -55t67.5 -148t-67.5 -148
t-178.5 -55zM432 -80q81 0 123.5 45.5t42.5 126.5v96q-87 17 -135 17q-90 0 -137 -41t-47 -109q0 -60 39.5 -97.5t113.5 -37.5z" />
    <glyph glyph-name="uni02A7" unicode="&#x2a7;" horiz-adv-x="1814" 
d="M252 860h-238v182l238 97l180 346h238v-316h616q28 214 182 327.5t422 113.5q153 0 314 -47v-291q-116 39 -242 39q-136 0 -200 -55t-64 -173v-919q0 -259 -152.5 -397t-447.5 -138q-134 0 -277 35v262q70 -20 154 -20q162 6 233.5 68.5t71.5 201.5v684h-610v-317
q0 -129 46.5 -179.5t168.5 -50.5q114 0 223 56v-310q-153 -63 -317 -63q-272 0 -405.5 129t-133.5 362v373z" />
    <glyph glyph-name="uni02B0" unicode="&#x2b0;" horiz-adv-x="1282" 
d="M100 573v1231h336v-458q123 167 332 167q193 0 303.5 -115.5t110.5 -312.5v-512h-338v463q0 98 -50.5 150.5t-144.5 52.5q-98 0 -155.5 -61.5t-57.5 -165.5v-439h-336z" />
    <glyph glyph-name="uni02B1" unicode="&#x2b1;" horiz-adv-x="1282" 
d="M100 573v840q0 215 112 316.5t355 101.5q125 0 269 -39v-240q-100 35 -205 35q-102 0 -148.5 -44t-46.5 -140v-105q126 170 332 170q194 0 304 -116.5t110 -313.5v-465h-338v418q0 97 -50.5 150t-144.5 53q-98 0 -155.5 -61.5t-57.5 -165.5v-394h-336z" />
    <glyph glyph-name="uni02B2" unicode="&#x2b2;" horiz-adv-x="557" 
d="M111 309v1186h335v-1186h-335zM279 1573q-88 0 -141.5 43.5t-53.5 118.5q0 73 53.5 117t141.5 44t141 -44t53 -117q0 -75 -53 -118.5t-141 -43.5z" />
    <glyph glyph-name="uni02B3" unicode="&#x2b3;" horiz-adv-x="800" 
d="M858 1501v-287q-97 19 -166 19q-114 0 -185 -69t-71 -218v-373h-336v914h336v-203q97 229 312 229q54 0 110 -12z" />
    <glyph glyph-name="uni02B7" unicode="&#x2b7;" horiz-adv-x="1628" 
d="M975 1487l199 -572l192 572h336l-326 -914h-344l-217 601l-217 -601h-344l-328 914h338l191 -572l200 572h320z" />
    <glyph glyph-name="uni02B8" unicode="&#x2b8;" horiz-adv-x="1095" 
d="M393 285q-193 0 -336 104v232q78 -50 144 -70.5t143 -20.5q72 0 120 30.5t79 103.5h-148l-383 823h371l248 -610l256 610h356l-432 -926q-131 -276 -418 -276z" />
    <glyph glyph-name="uni02B9" unicode="&#x2b9;" horiz-adv-x="632" 
d="M190 850l-81 686h415l-82 -686h-252z" />
    <glyph glyph-name="uni02BB" unicode="&#x2bb;" horiz-adv-x="548" 
d="M279 1810h200l-129 -204q67 -18 104.5 -60t37.5 -104q0 -79 -61 -125.5t-163 -46.5q-103 0 -163 47t-60 127q0 57 25 101t98 132z" />
    <glyph glyph-name="uni02BC" unicode="&#x2bc;" horiz-adv-x="608" 
d="M299 823h-201l140 293q-65 27 -104.5 84.5t-39.5 128.5q0 95 68 161t166 66q97 0 164 -66.5t67 -164.5q0 -61 -29 -130t-100 -175z" />
    <glyph glyph-name="uni02BE" unicode="&#x2be;" horiz-adv-x="512" 
d="M82 1358v196q172 0 280.5 -91t108.5 -238q0 -146 -108.5 -237t-280.5 -91v195q79 0 120.5 34t41.5 99q0 133 -162 133z" />
    <glyph glyph-name="uni02BF" unicode="&#x2bf;" horiz-adv-x="512" 
d="M430 1554v-196q-162 0 -162 -133q0 -65 41.5 -99t120.5 -34v-195q-172 0 -280.5 91t-108.5 237q0 147 108.5 238t280.5 91z" />
    <glyph glyph-name="uni02C0" unicode="&#x2c0;" horiz-adv-x="671" 
d="M96 573v394q0 93 31 152t96 102l150 102q56 38 76 64t20 65q0 129 -182 129q-105 0 -160.5 -42t-73.5 -130h-329q18 198 161.5 310t405.5 112q242 0 380 -97t138 -272q0 -92 -39 -165t-127 -134l-147 -102q-35 -24 -48.5 -54.5t-13.5 -80.5v-353h-338z" />
    <glyph glyph-name="uni02C1" unicode="&#x2c1;" horiz-adv-x="669" 
d="M573 967v-394h-335v353q0 50 -13.5 80.5t-48.5 54.5l-147 102q-89 63 -128.5 135t-39.5 164q0 175 139 272t381 97q258 0 403 -111t164 -311h-332q-15 86 -70 129t-161 43q-182 0 -182 -129q0 -39 20 -65.5t76 -63.5l150 -102q63 -43 93.5 -102t30.5 -152z" />
    <glyph glyph-name="circumflex" unicode="&#x2c6;" horiz-adv-x="1116" 
d="M51 1284l293 387h428l293 -387h-330l-176 184l-176 -184h-332z" />
    <glyph glyph-name="caron" unicode="&#x2c7;" horiz-adv-x="1116" 
d="M1065 1671l-293 -387h-428l-293 387h330l176 -184l176 184h332z" />
    <glyph glyph-name="uni02C8" unicode="&#x2c8;" horiz-adv-x="575" 
d="M106 850v686h363v-686h-363z" />
    <glyph glyph-name="uni02C9" unicode="&#x2c9;" horiz-adv-x="1075" 
d="M1059 1335h-998v250h998v-250z" />
    <glyph glyph-name="breve" unicode="&#x2d8;" horiz-adv-x="1097" 
d="M51 1669h307q15 -69 65.5 -108t125.5 -39q73 0 123 39t67 108h308q-30 -189 -159 -295t-339 -106t-339 106t-159 295z" />
    <glyph glyph-name="dotaccent" unicode="&#x2d9;" horiz-adv-x="653" 
d="M326 1284q-110 0 -177 55t-67 148t67 148t177 55q111 0 178 -55t67 -148t-67 -148t-178 -55z" />
    <glyph glyph-name="ring" unicode="&#x2da;" horiz-adv-x="878" 
d="M440 1264q-183 0 -286 75t-103 209q0 133 103.5 209t285.5 76q181 0 284 -76.5t103 -208.5q0 -133 -102.5 -208.5t-284.5 -75.5zM440 1434q73 0 113.5 29.5t40.5 84.5q0 54 -41 84.5t-113 30.5q-73 0 -114 -30.5t-41 -84.5q0 -55 40.5 -84.5t114.5 -29.5z" />
    <glyph glyph-name="ogonek" unicode="&#x2db;" horiz-adv-x="657" 
d="M420 41l139 -16v-25h45q-246 -66 -246 -141q0 -58 127 -58q53 0 119 15v-222q-30 -10 -94.5 -19t-128.5 -9q-145 0 -233.5 54t-88.5 144q0 186 361 277z" />
    <glyph glyph-name="tilde" unicode="&#x2dc;" horiz-adv-x="1116" 
d="M293 1296h-248q9 182 84.5 281.5t218.5 99.5q64 0 137 -26.5t134.5 -53t97.5 -26.5q42 0 70.5 27.5t35.5 76.5h248q-9 -180 -84.5 -281.5t-218.5 -101.5q-64 0 -137 27t-134 53.5t-96 26.5q-43 0 -72 -27t-36 -76z" />
    <glyph glyph-name="hungarumlaut" unicode="&#x2dd;" horiz-adv-x="1216" 
d="M51 1284l232 387h368l-250 -387h-350zM565 1284l230 387h368l-250 -387h-348z" />
    <glyph glyph-name="uni02E1" unicode="&#x2e1;" horiz-adv-x="536" 
d="M100 573v1231h336v-1231h-336z" />
    <glyph glyph-name="uni02E2" unicode="&#x2e2;" horiz-adv-x="1234" 
d="M1169 872q0 -158 -141.5 -241.5t-392.5 -83.5q-257 0 -414.5 91.5t-165.5 244.5h342q15 -57 80 -88t172 -31q191 0 191 82q0 32 -37 47.5t-127 21.5l-160 13q-230 18 -333 85.5t-103 190.5q0 151 139 230t379 79q231 0 382.5 -88t168.5 -231h-340q-15 50 -70.5 81.5
t-154.5 31.5q-84 0 -129 -21t-45 -59q0 -29 28.5 -44.5t100.5 -21.5l209 -16q156 -11 250 -46.5t132.5 -90t38.5 -136.5z" />
    <glyph glyph-name="uni02E3" unicode="&#x2e3;" horiz-adv-x="1220" 
d="M389 573h-377l381 463l-356 451h373l202 -252l203 252h369l-365 -447l389 -467h-381l-221 271z" />
    <glyph glyph-name="gravecomb" unicode="&#x300;" horiz-adv-x="765" 
d="M457 1671l258 -387h-387l-277 387h406z" />
    <glyph glyph-name="acutecomb" unicode="&#x301;" horiz-adv-x="765" 
d="M51 1284l258 387h406l-277 -387h-387z" />
    <glyph glyph-name="uni0302" unicode="&#x302;" horiz-adv-x="1116" 
d="M51 1284l293 387h428l293 -387h-330l-176 184l-176 -184h-332z" />
    <glyph glyph-name="tildecomb" unicode="&#x303;" horiz-adv-x="1116" 
d="M293 1296h-248q9 182 84.5 281.5t218.5 99.5q64 0 137 -26.5t134.5 -53t97.5 -26.5q42 0 70.5 27.5t35.5 76.5h248q-9 -180 -84.5 -281.5t-218.5 -101.5q-64 0 -137 27t-134 53.5t-96 26.5q-43 0 -72 -27t-36 -76z" />
    <glyph glyph-name="uni0304" unicode="&#x304;" horiz-adv-x="1122" 
d="M1059 1335h-998v250h998v-250z" />
    <glyph glyph-name="uni0306" unicode="&#x306;" horiz-adv-x="1097" 
d="M51 1669h307q15 -69 65.5 -108t125.5 -39q73 0 123 39t67 108h308q-30 -189 -159 -295t-339 -106t-339 106t-159 295z" />
    <glyph glyph-name="uni0307" unicode="&#x307;" horiz-adv-x="653" 
d="M326 1284q-110 0 -177 55t-67 148t67 148t177 55q111 0 178 -55t67 -148t-67 -148t-178 -55z" />
    <glyph glyph-name="uni0308" unicode="&#x308;" horiz-adv-x="1232" 
d="M303 1284q-104 0 -165.5 52t-61.5 143q0 87 62 138.5t165 51.5t165 -51.5t62 -138.5q0 -91 -61.5 -143t-165.5 -52zM930 1284q-104 0 -166 52t-62 143q0 87 62.5 138.5t165.5 51.5t164 -51t61 -139q0 -91 -60.5 -143t-164.5 -52z" />
    <glyph glyph-name="hookabovecomb" unicode="&#x309;" horiz-adv-x="690" 
d="M258 1255l-76 113q123 42 123 102t-119 60q-63 0 -135 -14v223q114 30 242 30q162 0 254 -58t92 -159q0 -105 -91.5 -178.5t-289.5 -118.5z" />
    <glyph glyph-name="uni030A" unicode="&#x30a;" horiz-adv-x="878" 
d="M440 1264q-183 0 -286 75t-103 209q0 133 103.5 209t285.5 76q181 0 284 -76.5t103 -208.5q0 -133 -102.5 -208.5t-284.5 -75.5zM440 1434q73 0 113.5 29.5t40.5 84.5q0 54 -41 84.5t-113 30.5q-73 0 -114 -30.5t-41 -84.5q0 -55 40.5 -84.5t114.5 -29.5z" />
    <glyph glyph-name="uni030B" unicode="&#x30b;" horiz-adv-x="1216" 
d="M51 1284l232 387h368l-250 -387h-350zM565 1284l230 387h368l-250 -387h-348z" />
    <glyph glyph-name="uni030C" unicode="&#x30c;" horiz-adv-x="1116" 
d="M1065 1671l-293 -387h-428l-293 387h330l176 -184l176 184h332z" />
    <glyph glyph-name="uni030D" unicode="&#x30d;" horiz-adv-x="622" 
d="M145 1284v428h332v-428h-332z" />
    <glyph glyph-name="uni030F" unicode="&#x30f;" horiz-adv-x="1214" 
d="M932 1671l231 -387h-350l-250 387h369zM420 1671l229 -387h-348l-250 387h369z" />
    <glyph glyph-name="uni0311" unicode="&#x311;" horiz-adv-x="1097" 
d="M1047 1284h-308q-15 69 -65 108.5t-125 39.5q-73 0 -123.5 -39.5t-67.5 -108.5h-307q30 190 159 296t339 106t339 -106t159 -296z" />
    <glyph glyph-name="uni0312" unicode="&#x312;" horiz-adv-x="583" 
d="M303 1810h201l-129 -206q66 -15 103.5 -58t37.5 -106q0 -79 -60 -125.5t-163 -46.5t-163 47t-60 129q0 52 25 96.5t98 134.5z" />
    <glyph glyph-name="uni0313" unicode="&#x313;" horiz-adv-x="579" 
d="M281 1284h-201l129 207q-66 15 -103.5 58t-37.5 106q0 79 60 125.5t163 46.5t163 -47t60 -129q0 -52 -25.5 -97.5t-97.5 -134.5z" />
    <glyph glyph-name="uni0315" unicode="&#x315;" horiz-adv-x="583" 
d="M281 1284h-201l129 207q-66 15 -103.5 58t-37.5 106q0 79 60 125.5t163 46.5t163 -47t60 -129q0 -52 -25.5 -97.5t-97.5 -134.5z" />
    <glyph glyph-name="uni031B" unicode="&#x31b;" horiz-adv-x="557" 
d="M506 1219q0 -134 -111 -211.5t-307 -77.5h-37v231h6q58 0 92.5 30t34.5 81q0 69 -59 155h315q66 -104 66 -208z" />
    <glyph glyph-name="uni0320" unicode="&#x320;" horiz-adv-x="1075" 
d="M1059 -383h-998v250h998v-250z" />
    <glyph glyph-name="dotbelowcomb" unicode="&#x323;" horiz-adv-x="653" 
d="M326 -504q-110 0 -177 55t-67 148t67 148t177 55q111 0 178 -55t67 -148t-67 -148t-178 -55z" />
    <glyph glyph-name="uni0324" unicode="&#x324;" horiz-adv-x="1232" 
d="M303 -483q-104 0 -165.5 51.5t-61.5 142.5q0 87 62 139t165 52t165 -52t62 -139q0 -91 -61.5 -142.5t-165.5 -51.5zM930 -483q-104 0 -166 51.5t-62 142.5q0 87 62.5 139t165.5 52t164 -51.5t61 -139.5q0 -91 -60.5 -142.5t-164.5 -51.5z" />
    <glyph glyph-name="uni0325" unicode="&#x325;" horiz-adv-x="878" 
d="M440 -655q-183 0 -286 75t-103 209q0 133 103.5 209t285.5 76q181 0 284 -76.5t103 -208.5q0 -133 -102.5 -208.5t-284.5 -75.5zM440 -485q73 0 113.5 29.5t40.5 84.5q0 54 -41 84.5t-113 30.5q-73 0 -114 -30.5t-41 -84.5q0 -55 40.5 -84.5t114.5 -29.5z" />
    <glyph glyph-name="uni0326" unicode="&#x326;" horiz-adv-x="565" 
d="M272 -633h-200l129 207q-66 15 -104 58t-38 106q0 79 60.5 125.5t163.5 46.5t163 -47t60 -129q0 -52 -25.5 -97.5t-97.5 -134.5z" />
    <glyph glyph-name="uni0327" unicode="&#x327;" horiz-adv-x="880" 
d="M164 -229l168 262h207l-84 -125q58 8 94 8q137 0 209.5 -52.5t72.5 -146.5q0 -100 -97.5 -163.5t-274.5 -63.5q-159 0 -268 60.5t-142 162.5h250q38 -59 160 -59q64 0 98.5 19.5t34.5 52.5q0 30 -28.5 48.5t-86.5 18.5q-64 0 -106 -22h-207z" />
    <glyph glyph-name="uni0328" unicode="&#x328;" horiz-adv-x="657" 
d="M420 41l139 -16v-25h45q-246 -66 -246 -141q0 -58 127 -58q53 0 119 15v-222q-30 -10 -94.5 -19t-128.5 -9q-145 0 -233.5 54t-88.5 144q0 186 361 277z" />
    <glyph glyph-name="uni0329" unicode="&#x329;" horiz-adv-x="622" 
d="M145 -514v428h332v-428h-332z" />
    <glyph glyph-name="uni032D" unicode="&#x32d;" horiz-adv-x="1116" 
d="M51 -473l293 387h428l293 -387h-330l-176 184l-176 -184h-332z" />
    <glyph glyph-name="uni032E" unicode="&#x32e;" horiz-adv-x="1087" 
d="M51 -86h307q15 -69 65.5 -108t125.5 -39q73 0 123 39t67 108h308q-30 -189 -159 -295t-339 -106t-339 106t-159 295z" />
    <glyph glyph-name="uni032F" unicode="&#x32f;" horiz-adv-x="1097" 
d="M1047 -487h-308q-15 69 -65 108t-125 39q-73 0 -123.5 -39t-67.5 -108h-307q30 189 159 295t339 106t339 -106t159 -295z" />
    <glyph glyph-name="uni0330" unicode="&#x330;" horiz-adv-x="1116" 
d="M293 -459h-248q9 182 84.5 281.5t218.5 99.5q64 0 137 -26.5t134.5 -53t97.5 -26.5q42 0 70.5 27.5t35.5 76.5h248q-9 -180 -84.5 -281.5t-218.5 -101.5q-51 0 -108 16.5t-99 37t-86.5 37t-73.5 16.5q-43 0 -72 -27t-36 -76z" />
    <glyph glyph-name="uni0331" unicode="&#x331;" horiz-adv-x="1075" 
d="M1059 -383h-998v250h998v-250z" />
    <glyph glyph-name="uni0332" unicode="&#x332;" horiz-adv-x="1110" 
d="M-8 -573v280h1126v-280h-1126z" />
    <glyph glyph-name="uni0335" unicode="&#x335;" horiz-adv-x="1026" 
d="M57 469v248h912v-248h-912z" />
    <glyph glyph-name="uni035C" unicode="&#x35c;" horiz-adv-x="1865" 
d="M934 -541q-366 0 -606.5 118t-327.5 314h344q68 -69 215.5 -115t374.5 -46q225 0 372.5 46t215.5 115h344q-87 -196 -327 -314t-605 -118z" />
    <glyph glyph-name="uni035D" unicode="&#x35d;" horiz-adv-x="1865" 
d="M934 1270q-366 0 -606.5 118t-327.5 314h344q68 -70 215.5 -116t374.5 -46q225 0 372.5 46t215.5 116h344q-87 -196 -327 -314t-605 -118z" />
    <glyph glyph-name="uni0361" unicode="&#x361;" horiz-adv-x="1865" 
d="M934 1716q365 0 605 -118t327 -314h-344q-68 70 -215.5 116t-372.5 46q-227 0 -374.5 -46t-215.5 -116h-344q87 196 327.5 314t606.5 118z" />
    <glyph glyph-name="Beta" unicode="&#x392;" horiz-adv-x="1808" 
d="M1411 809q164 -39 248 -137t84 -240q0 -194 -132.5 -313t-379.5 -119h-1135v1536h1094q213 0 331.5 -99.5t118.5 -275.5q0 -113 -56 -205.5t-173 -146.5zM516 643v-346h600q92 0 143.5 45t51.5 125t-57 128t-162 48h-576zM516 1239v-305h518q76 0 125 45t49 119
q0 63 -44 102t-122 39h-526z" />
    <glyph glyph-name="Epsilon" unicode="&#x395;" horiz-adv-x="1626" 
d="M520 1192v-270h936v-308h-936v-270h1004v-344h-1428v1536h1417v-344h-993z" />
    <glyph glyph-name="Theta" unicode="&#x398;" horiz-adv-x="1976" 
d="M987 -33q-270 0 -477 100t-320.5 282t-113.5 419t113.5 419t320.5 282t477 100q271 0 478.5 -100t321.5 -282t114 -419t-114 -419t-321.5 -282t-478.5 -100zM631 614v308h717v-308h-717zM987 324q230 0 363 119t133 325t-133 325t-363 119q-229 0 -362 -119.5
t-133 -324.5t133 -324.5t362 -119.5z" />
    <glyph glyph-name="Lambda" unicode="&#x39b;" horiz-adv-x="1914" 
d="M963 1139l-504 -1139h-457l715 1536h481l715 -1536h-449z" />
    <glyph glyph-name="uni03A9" unicode="&#x3a9;" horiz-adv-x="2037" 
d="M1018 1569q200 0 369 -55t287 -152.5t184.5 -237.5t66.5 -305q0 -330 -266 -510h289v-309h-824v279q178 39 274.5 160.5t96.5 295.5q0 203 -125 330t-352 127q-225 0 -350 -127t-125 -330q0 -174 96 -295.5t272 -160.5v-279h-821v309h287q-264 181 -264 510
q0 220 113.5 391t319.5 265t472 94z" />
    <glyph glyph-name="beta" unicode="&#x3b2;" horiz-adv-x="1779" 
d="M530 -338h-417v1256q0 316 212.5 504t581.5 188q192 0 341.5 -48t234 -139t84.5 -211q0 -124 -87 -216t-245 -136q238 -26 362.5 -134t124.5 -286q0 -215 -183.5 -344t-483.5 -129q-363 0 -525 191v-496zM530 672q0 -207 116 -306.5t333 -99.5q148 0 234.5 54t86.5 147
q0 90 -70.5 142.5t-213.5 52.5h-195v278h103q111 0 173 45.5t62 124.5q0 89 -75.5 141t-204.5 52q-166 0 -257.5 -92.5t-91.5 -254.5v-284z" />
    <glyph glyph-name="epsilon" unicode="&#x3b5;" horiz-adv-x="1501" 
d="M96 868q0 152 165.5 244t490.5 92q309 0 487 -118t191 -300h-402q-17 61 -83 100.5t-185 39.5q-124 0 -183 -31.5t-59 -81.5q0 -104 219 -104h240v-228h-238q-139 0 -195.5 -25t-56.5 -81q0 -61 67 -96t210 -35q276 0 299 145h407q-5 -87 -51.5 -162t-132 -134
t-223 -92.5t-311.5 -33.5t-309 29.5t-216.5 80.5t-122.5 115.5t-41 139.5q0 109 75 176t247 94q-289 60 -289 266z" />
    <glyph glyph-name="theta" unicode="&#x3b8;" horiz-adv-x="1736" 
d="M868 -33q-247 0 -428 102.5t-274.5 287.5t-93.5 431t93.5 431t274.5 288t428 103q246 0 427 -103t274.5 -288t93.5 -431q0 -184 -54.5 -336t-155 -259.5t-250.5 -166.5t-335 -59zM868 274q166 0 257 89.5t116 275.5h-747q25 -186 116.5 -275.5t257.5 -89.5zM868 1303
q-166 0 -257.5 -89.5t-116.5 -275.5h747q-23 186 -115 275.5t-258 89.5z" />
    <glyph glyph-name="lambda" unicode="&#x3bb;" horiz-adv-x="1585" 
d="M442 0h-450l616 1167q-44 70 -99 100.5t-138 30.5q-142 0 -305 -98v291q167 119 380 119q168 0 292 -77t214 -257l637 -1276h-448l-348 756z" />
    <glyph glyph-name="omega" unicode="&#x3c9;" horiz-adv-x="2140" 
d="M895 524v264h350v-264q0 -233 199 -233q106 0 166.5 68t60.5 196q0 134 -71.5 218.5t-202.5 109.5v321q164 -11 294 -66t214 -144t128 -205.5t44 -251.5q0 -266 -154.5 -418t-404.5 -152q-164 0 -279.5 74.5t-167.5 218.5q-54 -144 -169 -218.5t-279 -74.5
q-250 0 -403.5 152t-153.5 418q0 135 43.5 251t127 205.5t213.5 144.5t295 66v-321q-132 -25 -203 -109t-71 -219q0 -128 60 -196t165 -68q199 0 199 233z" />
    <glyph glyph-name="uni0400" unicode="&#x400;" horiz-adv-x="1626" 
d="M520 1192v-270h936v-308h-936v-270h1004v-344h-1428v1536h1417v-344h-993zM750 1995l301 -344h-422l-355 344h476z" />
    <glyph glyph-name="uni0401" unicode="&#x401;" horiz-adv-x="1626" 
d="M520 1192v-270h936v-308h-936v-270h1004v-344h-1428v1536h1417v-344h-993zM502 1649q-104 0 -166 52.5t-62 143.5q0 87 62 138t166 51q103 0 165 -51t62 -138q0 -91 -61.5 -143.5t-165.5 -52.5zM1137 1649q-104 0 -166 52.5t-62 143.5q0 87 62.5 138t165.5 51t165 -51
t62 -138q0 -91 -61.5 -143.5t-165.5 -52.5z" />
    <glyph glyph-name="uni0402" unicode="&#x402;" horiz-adv-x="2191" 
d="M35 1536h1739v-332h-795v-332q224 93 487 93q322 0 497 -130.5t175 -369.5q0 -235 -163.5 -362.5t-465.5 -127.5q-178 0 -338 41v303q168 -43 289 -43q125 0 189.5 45.5t64.5 133.5q0 184 -313 184q-209 0 -422 -78v-561h-424v1204h-520v332z" />
    <glyph glyph-name="uni0403" unicode="&#x403;" horiz-adv-x="1349" 
d="M143 1536h1168v-379h-744v-1157h-424v1536zM475 1651l301 344h475l-354 -344h-422z" />
    <glyph glyph-name="uni0404" unicode="&#x404;" horiz-adv-x="1927" 
d="M1237 627h-725q40 -147 162 -227.5t307 -80.5q193 0 315.5 79.5t151.5 222.5h420q-25 -194 -144.5 -342.5t-313 -230t-431.5 -81.5q-268 0 -473 100t-317.5 282t-112.5 419t112.5 419t317.5 282t473 100q238 0 431.5 -81.5t313 -230t144.5 -342.5h-420
q-31 143 -153.5 222.5t-313.5 79.5q-185 0 -307 -80.5t-162 -227.5h725v-282z" />
    <glyph glyph-name="uni0405" unicode="&#x405;" horiz-adv-x="1726" 
d="M74 504h432q14 -97 116.5 -153t270.5 -56q157 0 246.5 41t89.5 117q0 61 -54 93.5t-194 45.5l-287 26q-314 29 -459 142.5t-145 314.5q0 234 202.5 364t547.5 130q333 0 547 -139.5t229 -366.5h-430q-12 83 -105 130.5t-250 47.5q-147 0 -229 -38.5t-82 -110.5
q0 -56 52 -87t180 -44l305 -31q325 -31 462.5 -130.5t137.5 -297.5q0 -242 -212 -388.5t-560 -146.5q-358 0 -580.5 147.5t-230.5 389.5z" />
    <glyph glyph-name="uni0406" unicode="&#x406;" horiz-adv-x="710" 
d="M143 0v1536h424v-1536h-424z" />
    <glyph glyph-name="uni0407" unicode="&#x407;" horiz-adv-x="710" 
d="M143 0v1536h424v-1536h-424zM129 1649q-88 0 -137 50.5t-49 141.5q0 92 49 142.5t137 50.5t137 -50.5t49 -142.5q0 -91 -49 -141.5t-137 -50.5zM584 1649q-88 0 -137.5 50.5t-49.5 141.5q0 92 49.5 142.5t137.5 50.5t137 -50.5t49 -142.5q0 -91 -49 -141.5t-137 -50.5z
" />
    <glyph glyph-name="uni0408" unicode="&#x408;" horiz-adv-x="1650" 
d="M39 672l-2 84h416v-51q0 -187 76 -279t247 -92q326 0 326 338v864h424v-887q0 -316 -205 -499t-545 -183q-336 0 -536.5 189t-200.5 516z" />
    <glyph glyph-name="uni0409" unicode="&#x409;" horiz-adv-x="2979" 
d="M399 1536h1491v-475h424q289 0 457 -145t168 -386t-168 -385.5t-457 -144.5h-850v1159h-637q17 -216 17 -352q0 -443 -122 -640.5t-396 -197.5q-168 0 -297 66v352q87 -35 166 -35q132 0 190.5 120.5t58.5 395.5q0 276 -45 668zM1890 725v-391h400q103 0 162 52t59 144
q0 91 -59 143t-162 52h-400z" />
    <glyph glyph-name="uni040A" unicode="&#x40a;" horiz-adv-x="2852" 
d="M567 0h-424v1536h424v-567h770v567h424v-475h426q289 0 457 -145t168 -386t-168 -385.5t-457 -144.5h-850v592h-770v-592zM1761 725v-391h402q103 0 161 52t58 144q0 91 -58 143t-161 52h-402z" />
    <glyph glyph-name="uni040B" unicode="&#x40b;" horiz-adv-x="2201" 
d="M2122 0h-426v305q0 149 -82.5 222t-249.5 73q-181 0 -385 -72v-528h-424v1204h-520v332h1739v-332h-795v-352q222 92 487 92q320 0 488 -154.5t168 -449.5v-340z" />
    <glyph glyph-name="uni040C" unicode="&#x40c;" horiz-adv-x="1781" 
d="M565 0h-422v1536h422v-567h346l473 567h469l-624 -727l645 -809h-502l-463 592h-344v-592zM680 1651l301 344h475l-354 -344h-422z" />
    <glyph glyph-name="uni040D" unicode="&#x40d;" horiz-adv-x="2013" 
d="M682 0h-539v1536h418v-1112l754 1112h555v-1536h-420v1137zM936 1995l301 -344h-422l-354 344h475z" />
    <glyph glyph-name="uni040E" unicode="&#x40e;" horiz-adv-x="1849" 
d="M967 0h-461l194 338l-692 1198h469l459 -799l453 799h460zM393 2003h334q50 -133 193 -133q142 0 192 133h334q-44 -188 -181 -278.5t-345 -90.5t-345.5 90.5t-181.5 278.5z" />
    <glyph glyph-name="uni040F" unicode="&#x40f;" horiz-adv-x="1904" 
d="M1155 -309h-407v309h-605v1536h424v-1159h770v1159h424v-1536h-606v-309z" />
    <glyph glyph-name="uni0410" unicode="&#x410;" horiz-adv-x="1959" 
d="M700 1536h560l698 -1536h-453l-129 295h-792l-129 -295h-453zM731 637h498l-248 575z" />
    <glyph glyph-name="uni0411" unicode="&#x411;" horiz-adv-x="1724" 
d="M518 952h578q282 0 424.5 -127t142.5 -350q0 -217 -151 -346t-416 -129h-1000v1536h1448v-322h-1024zM516 662l-2 -353h526q94 0 147.5 46.5t53.5 129.5t-54 130t-147 47h-524z" />
    <glyph glyph-name="uni0412" unicode="&#x412;" horiz-adv-x="1808" 
d="M1411 809q164 -39 248 -137t84 -240q0 -194 -132.5 -313t-379.5 -119h-1135v1536h1094q213 0 331.5 -99.5t118.5 -275.5q0 -113 -56 -205.5t-173 -146.5zM516 643v-346h600q92 0 143.5 45t51.5 125t-57 128t-162 48h-576zM516 1239v-305h518q76 0 125 45t49 119
q0 63 -44 102t-122 39h-526z" />
    <glyph glyph-name="uni0413" unicode="&#x413;" horiz-adv-x="1349" 
d="M143 1536h1168v-379h-744v-1157h-424v1536z" />
    <glyph glyph-name="uni0414" unicode="&#x414;" horiz-adv-x="2183" 
d="M436 -309h-397v684h197q153 190 153 669q0 189 -31 492h1502v-1161h264v-684h-398v309h-1290v-309zM782 956q0 -400 -114 -585h766v794h-658q6 -74 6 -209z" />
    <glyph glyph-name="uni0415" unicode="&#x415;" horiz-adv-x="1626" 
d="M520 1192v-270h936v-308h-936v-270h1004v-344h-1428v1536h1417v-344h-993z" />
    <glyph glyph-name="uni0416" unicode="&#x416;" horiz-adv-x="2996" 
d="M469 1536l471 -567h346v567h424v-567h344l473 567h469l-624 -727l647 -809h-504l-461 592h-344v-592h-424v592h-344l-461 -592h-504l648 809l-627 727h471z" />
    <glyph glyph-name="uni0417" unicode="&#x417;" horiz-adv-x="1736" 
d="M866 -33q-367 0 -588.5 149.5t-232.5 403.5h426q15 -111 115 -169t280 -58q171 0 263 47t92 137q0 80 -79.5 117t-258.5 37h-281v280h275q155 0 232 42.5t77 119.5q0 82 -83.5 126t-234.5 44q-164 0 -258.5 -56t-111.5 -161h-422q8 113 65 211t157 172.5t252.5 117
t338.5 42.5q329 0 529 -119t200 -313q0 -123 -82 -216.5t-246 -134.5q177 -30 272 -116t95 -226q0 -215 -209.5 -346t-581.5 -131z" />
    <glyph glyph-name="uni0418" unicode="&#x418;" horiz-adv-x="2013" 
d="M682 0h-539v1536h418v-1112l754 1112h555v-1536h-420v1137z" />
    <glyph glyph-name="uni0419" unicode="&#x419;" horiz-adv-x="2013" 
d="M682 0h-539v1536h418v-1112l754 1112h555v-1536h-420v1137zM475 2003h334q50 -133 192 -133q143 0 193 133h334q-44 -188 -181.5 -278.5t-345.5 -90.5t-345 90.5t-181 278.5z" />
    <glyph glyph-name="uni041A" unicode="&#x41a;" horiz-adv-x="1781" 
d="M565 0h-422v1536h422v-567h346l473 567h469l-624 -727l645 -809h-502l-463 592h-344v-592z" />
    <glyph glyph-name="uni041B" unicode="&#x41b;" horiz-adv-x="2048" 
d="M399 1536h1508v-1536h-426v1159h-652q15 -191 15 -352q0 -443 -122 -640.5t-396 -197.5q-168 0 -297 66v352q87 -35 166 -35q132 0 190.5 120.5t58.5 395.5q0 276 -45 668z" />
    <glyph glyph-name="uni041C" unicode="&#x41c;" horiz-adv-x="2531" 
d="M1733 1536h655v-1536h-403v1163l-504 -1163h-430l-504 1161v-1161h-404v1536h656l469 -1122z" />
    <glyph glyph-name="uni041D" unicode="&#x41d;" horiz-adv-x="1921" 
d="M143 0v1536h424v-567h785v567h426v-1536h-426v592h-785v-592h-424z" />
    <glyph glyph-name="uni041E" unicode="&#x41e;" horiz-adv-x="1976" 
d="M987 -33q-270 0 -477 100t-320.5 282t-113.5 419t113.5 419t320.5 282t477 100q271 0 478.5 -100t321.5 -282t114 -419t-114 -419t-321.5 -282t-478.5 -100zM987 346q224 0 353.5 113t129.5 309t-129.5 309t-353.5 113q-223 0 -353 -113t-130 -309t130 -309t353 -113z
" />
    <glyph glyph-name="uni041F" unicode="&#x41f;" horiz-adv-x="1912" 
d="M143 1536h1626v-1536h-423v1159h-779v-1159h-424v1536z" />
    <glyph glyph-name="uni0420" unicode="&#x420;" horiz-adv-x="1667" 
d="M143 1536h863q288 0 454 -144.5t166 -385.5q0 -240 -166.5 -384.5t-453.5 -144.5h-439v-477h-424v1536zM567 817h412q103 0 160 50t57 139t-57 139.5t-160 50.5h-412v-379z" />
    <glyph glyph-name="uni0421" unicode="&#x421;" horiz-adv-x="1912" 
d="M1423 643h426q-23 -202 -139 -355t-307.5 -237t-433.5 -84q-266 0 -469 100t-313.5 282t-110.5 419t110.5 419t313.5 282t469 100q242 0 433.5 -84t307.5 -237t139 -355h-426q-31 146 -149 227.5t-305 81.5q-215 0 -339 -116.5t-124 -317.5t124 -317.5t339 -116.5
q189 0 306 79.5t148 229.5z" />
    <glyph glyph-name="uni0422" unicode="&#x422;" horiz-adv-x="1675" 
d="M625 0v1159h-586v377h1597v-377h-585v-1159h-426z" />
    <glyph glyph-name="uni0423" unicode="&#x423;" horiz-adv-x="1841" 
d="M958 0h-460l194 338l-692 1198h469l459 -799l452 799h461z" />
    <glyph glyph-name="uni0424" unicode="&#x424;" horiz-adv-x="2594" 
d="M1509 -51h-424v284h-360q-311 0 -491.5 156t-180.5 416t180.5 415.5t491.5 155.5h360v211h424v-211h361q311 0 491.5 -155.5t180.5 -415.5t-180.5 -416t-491.5 -156h-361v-284zM481 805q0 -110 71 -173t196 -63h337v471h-337q-125 0 -196 -62.5t-71 -172.5zM1509 1040
v-471h336q126 0 197.5 63t71.5 173t-71.5 172.5t-197.5 62.5h-336z" />
    <glyph glyph-name="uni0425" unicode="&#x425;" horiz-adv-x="1781" 
d="M1761 1536l-604 -737l647 -799h-522l-393 510l-395 -510h-517l654 799l-608 737h530l346 -446l340 446h522z" />
    </font>
</defs>
</svg>
