<svg width="170" height="38" viewBox="0 0 170 38" fill="none" xmlns="http://www.w3.org/2000/svg">
<g clip-path="url(#clip0_2006_355)">
<mask id="mask0_2006_355" style="mask-type:luminance" maskUnits="userSpaceOnUse" x="0" y="0" width="170" height="38">
<path d="M169.273 0H0V38H169.273V0Z" fill="white"/>
</mask>
<g mask="url(#mask0_2006_355)">
<path fill-rule="evenodd" clip-rule="evenodd" d="M2.36802 9.45769L16.0356 15.8898C18.2896 16.9505 20.6515 16.9505 22.9055 15.8898L36.573 9.45769C37.0126 9.25076 37.277 8.83202 37.277 8.34262C37.277 7.85323 37.0126 7.43436 36.573 7.22755L22.9054 0.795591C20.6515 -0.265197 18.2897 -0.265197 16.0356 0.795591L2.36802 7.22755C1.92844 7.43442 1.66406 7.85323 1.66406 8.34262C1.66406 8.83202 1.92844 9.25094 2.36802 9.45769ZM15.0867 8.96945L17.753 10.2243C18.88 10.7546 20.0609 10.7546 21.1879 10.2243L23.8542 8.96945L21.188 7.7147C20.0609 7.18437 18.88 7.18437 17.753 7.7147L15.0867 8.96945Z" fill="url(#paint0_linear_2006_355)"/>
<path fill-rule="evenodd" clip-rule="evenodd" d="M13.1569 8.0635L15.0832 8.96997L17.7496 7.71522C18.8766 7.18489 20.0575 7.18489 21.1845 7.71522L23.8508 8.96997L25.777 8.0635C26.0701 7.9256 26.2464 7.6463 26.2464 7.32002C26.2464 6.99368 26.0701 6.71461 25.777 6.57666L21.1844 4.41531C20.0574 3.885 18.8764 3.885 17.7496 4.41531L13.1569 6.57666C12.8639 6.71456 12.6875 6.9938 12.6875 7.32002C12.6875 7.64642 12.8639 7.92555 13.1569 8.0635Z" fill="url(#paint1_linear_2006_355)"/>
<path fill-rule="evenodd" clip-rule="evenodd" d="M25.1697 35.1717V21.1555L33.2397 17.3578V29.4817C33.2397 30.2031 33.5768 30.8235 34.1799 31.2111C34.7829 31.5987 35.4823 31.6452 36.1304 31.3401L37.7676 30.5697C38.5001 30.225 38.9408 29.5268 38.9408 28.7111V13.3827L38.9408 13.3684V11.5755L38.9408 11.5586V11.4625L38.9381 11.4638C38.905 10.7901 38.5724 10.2136 38.0007 9.84596C37.3977 9.45825 36.6982 9.41207 36.0502 9.71693L20.642 16.9683C19.9094 17.3131 19.4688 18.0111 19.4688 18.8267V20.6196V20.6253V35.9422C19.4688 36.6638 19.8059 37.2841 20.409 37.6717C21.012 38.0593 21.7114 38.1057 22.3594 37.8007L23.9967 37.0303C24.7292 36.6855 25.1697 35.9875 25.1697 35.1717Z" fill="url(#paint2_linear_2006_355)"/>
<path fill-rule="evenodd" clip-rule="evenodd" d="M11.5824 20.1115L16.5816 22.4642C17.2295 22.7691 17.9291 22.7228 18.532 22.3351C19.1298 21.9508 19.4661 21.3383 19.4722 20.625C19.4722 20.623 19.4722 20.6212 19.4722 20.6193V20.6056V18.8264C19.4722 18.8219 19.4722 18.8173 19.4722 18.8127C19.4722 17.9971 19.0315 17.299 18.2989 16.9542L16.0531 15.8974C16.0478 15.8948 16.0426 15.8925 16.0373 15.8899L2.89067 9.70302L2.88258 9.69922C2.23677 9.3985 1.54082 9.446 0.940186 9.83205C0.337273 10.2198 0 10.8399 0 11.5615V13.3544C0 14.1702 0.440595 14.8682 1.17321 15.213L5.88118 17.4287V31.4587C5.88118 32.2743 6.32186 32.9724 7.0544 33.3171L8.69162 34.0876C9.33958 34.3927 10.0391 34.3464 10.6421 33.9586C11.2451 33.5709 11.5823 32.9507 11.5823 32.2291L11.5824 20.1115Z" fill="url(#paint3_linear_2006_355)"/>
<path fill-rule="evenodd" clip-rule="evenodd" d="M12.8953 32.3625V20.7315L11.5775 20.1113V32.2287C11.5775 32.8839 11.2995 33.4556 10.7969 33.8455L12.8953 32.3625Z" fill="url(#paint4_linear_2006_355)"/>
<path fill-rule="evenodd" clip-rule="evenodd" d="M19.4704 35.9421V20.625C19.4644 21.3383 19.128 21.9509 18.5303 22.3352C17.9273 22.7229 17.2278 22.7692 16.5798 22.4642L12.8984 20.7317V32.3628L20.251 37.5585C19.7484 37.1686 19.4704 36.5971 19.4704 35.9421Z" fill="url(#paint5_linear_2006_355)"/>
<path fill-rule="evenodd" clip-rule="evenodd" d="M25.1719 24.8314L33.9203 31.0137C33.4824 30.628 33.2419 30.0907 33.2419 29.4813V17.3574L25.1719 21.1552V24.8314Z" fill="url(#paint6_linear_2006_355)"/>
<path fill-rule="evenodd" clip-rule="evenodd" d="M16.5823 22.4645C17.2303 22.7694 18.083 22.6247 18.5328 22.3355C18.9826 22.0463 19.0615 21.8979 19.221 21.6105C19.3829 21.3186 19.4698 20.9848 19.4728 20.6254C19.4728 20.6235 19.4728 20.6217 19.4728 20.6197V18.827C19.4728 18.8224 19.4728 18.8177 19.4728 18.8133C19.4728 17.9975 19.0322 17.2995 18.2997 16.9547L16.0598 15.9007C16.0525 15.8972 16.0452 15.8938 16.0378 15.8904L3.28343 9.88809C2.33432 9.44609 1.45312 9.4542 1.45312 10.5355V12.3284C1.45312 13.1442 1.89018 13.8502 2.62633 14.187L5.988 15.7253C6.73781 16.0707 7.33441 16.6859 7.33441 17.8103V26.9599C7.33441 29.6528 7.77504 29.9496 8.50763 30.2943L10.1449 31.0647C11.5009 31.7029 11.5829 30.8846 11.5829 29.6901V20.1119L16.5823 22.4645Z" fill="url(#paint7_linear_2006_355)"/>
<path fill-rule="evenodd" clip-rule="evenodd" d="M3.77419 10.1168C7.87058 12.0446 11.9678 13.9714 16.0637 15.9003C18.311 16.9508 20.6649 16.9474 22.9114 15.89L36.579 9.45794C37.0185 9.25101 37.2829 8.8322 37.2829 8.34287C37.2829 7.85554 37.0208 7.43818 36.5847 7.2305L27.314 2.86766C23.7852 1.207 18.4122 0.998191 13.5352 3.29327L3.77419 7.88675C3.33477 8.0935 3.07031 8.51375 3.07031 9.00182C3.07031 9.49265 3.33401 9.90916 3.77419 10.1168ZM13.1664 6.57633L17.7591 4.41496C18.8861 3.88456 20.067 3.88456 21.194 4.41496L25.7866 6.57633C26.0796 6.7141 26.2559 6.9934 26.2559 7.31969C26.2559 7.64603 26.0796 7.92521 25.7866 8.06305L23.8603 8.96963L21.194 10.2243C20.067 10.7548 18.886 10.7548 17.7591 10.2243L15.0928 8.96963L13.1665 8.06305C12.8736 7.92527 12.6972 7.64597 12.6972 7.31969C12.6972 6.99335 12.8733 6.71422 13.1664 6.57633Z" fill="url(#paint8_linear_2006_355)"/>
<path fill-rule="evenodd" clip-rule="evenodd" d="M4.70373 10.557C8.3261 12.2616 12.4131 14.429 16.0582 15.9005L18.2973 16.9543C19.0298 17.299 19.4705 17.9971 19.4705 18.8128C19.4754 18.0031 19.9151 17.3107 20.6437 16.968L23.3087 15.7139V15.7048H23.2989L36.5729 9.45791C37.0125 9.25098 37.2767 8.83218 37.2767 8.34267C37.2767 8.23638 37.2643 8.13344 37.2402 8.03516C37.1536 8.38896 36.9169 8.68075 36.573 8.84266L22.9054 15.2747C20.6515 16.3355 18.2896 16.3355 16.0355 15.2747L3.07543 9.17556L2.36802 8.84266C2.02392 8.68075 1.78719 8.38896 1.70063 8.03516C1.67662 8.13338 1.66406 8.23644 1.66406 8.34267C1.66406 8.83206 1.92843 9.25098 2.36802 9.45791L2.88092 9.69927L4.70373 10.557Z" fill="#00518F"/>
<path d="M46 16.0714V14.1552H54.2923V16.0714H51.283V24.2085H49.016V16.0714H46ZM59.3321 24.3636C58.4282 24.3636 57.6141 24.159 56.8899 23.7496C56.1702 23.3359 55.6012 22.7421 55.1829 21.9684C54.7691 21.1947 54.5621 20.2681 54.5621 19.1886C54.5621 18.1 54.7691 17.1689 55.1829 16.3953C55.6012 15.6216 56.1702 15.0301 56.8899 14.6208C57.6141 14.2069 58.4282 14 59.3321 14C60.232 14 61.0415 14.2069 61.7612 14.6208C62.4809 15.0301 63.0504 15.6216 63.4684 16.3953C63.891 17.1689 64.1029 18.1 64.1029 19.1886C64.1029 20.2726 63.891 21.2015 63.4684 21.9752C63.0504 22.7443 62.4809 23.3359 61.7612 23.7496C61.0415 24.159 60.232 24.3636 59.3321 24.3636ZM59.3321 22.3732C59.8273 22.3732 60.2614 22.2496 60.6345 22.0022C61.0082 21.7548 61.2983 21.3927 61.505 20.9158C61.7117 20.439 61.8154 19.8633 61.8154 19.1886C61.8154 18.5094 61.7117 17.9314 61.505 17.4545C61.2983 16.9733 61.0082 16.6089 60.6345 16.3615C60.2614 16.1141 59.8273 15.9905 59.3321 15.9905C58.8376 15.9905 58.4034 16.1141 58.0303 16.3615C57.6567 16.6089 57.3665 16.9733 57.1598 17.4545C56.9529 17.9314 56.8495 18.5094 56.8495 19.1886C56.8495 19.8633 56.9529 20.439 57.1598 20.9158C57.3665 21.3927 57.6567 21.7548 58.0303 22.0022C58.4034 22.2496 58.8376 22.3732 59.3321 22.3732ZM73.8458 14.1552V24.2085H71.5854V16.0714H67.5234V24.2085H65.263V14.1552H73.8458ZM80.0122 18.3249V20.0455H75.4044V18.3249H80.0122ZM90.1599 14.1552V24.2085H87.9001V16.0714H83.8381V24.2085H81.5777V14.1552H90.1599ZM91.6177 24.2085V14.1552H98.8705V16.0714H93.8776V18.2102H98.4859V20.0725H93.8776V22.2923H98.8705V24.2085H91.6177ZM100.092 24.2085V14.1552H102.352V18.1225H106.414V14.1552H108.675V24.2085H106.414V20.0455H102.352V24.2085H100.092ZM114.605 24.3636C113.701 24.3636 112.887 24.159 112.162 23.7496C111.443 23.3359 110.874 22.7421 110.455 21.9684C110.042 21.1947 109.835 20.2681 109.835 19.1886C109.835 18.1 110.042 17.1689 110.455 16.3953C110.874 15.6216 111.443 15.0301 112.162 14.6208C112.887 14.2069 113.701 14 114.605 14C115.505 14 116.314 14.2069 117.034 14.6208C117.754 15.0301 118.323 15.6216 118.741 16.3953C119.164 17.1689 119.376 18.1 119.376 19.1886C119.376 20.2726 119.164 21.2015 118.741 21.9752C118.323 22.7443 117.754 23.3359 117.034 23.7496C116.314 24.159 115.505 24.3636 114.605 24.3636ZM114.605 22.3732C115.1 22.3732 115.534 22.2496 115.907 22.0022C116.281 21.7548 116.571 21.3927 116.778 20.9158C116.984 20.439 117.088 19.8633 117.088 19.1886C117.088 18.5094 116.984 17.9314 116.778 17.4545C116.571 16.9733 116.281 16.6089 115.907 16.3615C115.534 16.1141 115.1 15.9905 114.605 15.9905C114.11 15.9905 113.676 16.1141 113.303 16.3615C112.929 16.6089 112.639 16.9733 112.433 17.4545C112.226 17.9314 112.122 18.5094 112.122 19.1886C112.122 19.8633 112.226 20.439 112.433 20.9158C112.639 21.3927 112.929 21.7548 113.303 22.0022C113.676 22.2496 114.11 22.3732 114.605 22.3732ZM129.119 14.1552V24.2085H126.858V16.0714H122.796V24.2085H120.536V14.1552H129.119ZM130.177 24.2085V22.2923H130.447C130.78 22.2923 131.037 22.2158 131.217 22.0629C131.397 21.9099 131.532 21.631 131.621 21.2262C131.716 20.8214 131.795 20.2367 131.857 19.4719L132.296 14.1552H139.239V24.2085H136.979V16.0714H134.381L134.037 20.005C133.965 20.8192 133.835 21.4984 133.646 22.0426C133.461 22.5824 133.22 23.012 132.924 23.3314C132.627 23.6462 132.274 23.8711 131.864 24.006C131.46 24.141 131.001 24.2085 130.488 24.2085H130.177ZM140.076 24.2085L143.544 14.1552H146.512L150.008 24.2085H147.477L146.013 19.5867C145.806 18.8939 145.597 18.181 145.385 17.4478C145.179 16.7101 144.961 15.9027 144.731 15.0256H145.325C145.091 15.9027 144.871 16.7101 144.664 17.4478C144.457 18.1855 144.245 18.8984 144.03 19.5867L142.545 24.2085H140.076ZM142.37 22.1236V20.3424H147.713V22.1236H142.37ZM154.737 24.3636C153.824 24.3636 153.006 24.159 152.281 23.7496C151.562 23.3359 150.993 22.7421 150.574 21.9684C150.16 21.1947 149.953 20.2681 149.953 19.1886C149.953 18.1 150.16 17.1689 150.574 16.3953C150.993 15.6216 151.562 15.0301 152.281 14.6208C153.006 14.2069 153.824 14 154.737 14C155.336 14 155.889 14.0877 156.397 14.2632C156.91 14.4386 157.362 14.6905 157.753 15.0189C158.149 15.3427 158.471 15.734 158.718 16.1928C158.965 16.6517 159.128 17.1667 159.204 17.7379H156.917C156.867 17.4636 156.779 17.2184 156.654 17.0025C156.532 16.7866 156.379 16.6044 156.195 16.456C156.01 16.303 155.799 16.1883 155.56 16.1119C155.322 16.0309 155.061 15.9905 154.778 15.9905C154.247 15.9905 153.79 16.1186 153.408 16.375C153.03 16.6314 152.74 16.998 152.538 17.4748C152.34 17.9516 152.241 18.5229 152.241 19.1886C152.241 19.8543 152.34 20.4256 152.538 20.9024C152.74 21.3746 153.03 21.739 153.408 21.9954C153.79 22.2473 154.245 22.3732 154.771 22.3732C155.054 22.3732 155.313 22.335 155.547 22.2586C155.785 22.1821 155.997 22.0696 156.181 21.9212C156.37 21.7682 156.527 21.5838 156.654 21.3679C156.779 21.152 156.87 20.9068 156.923 20.6325H159.211C159.139 21.1768 158.981 21.6761 158.738 22.1303C158.495 22.5847 158.178 22.9805 157.787 23.3178C157.396 23.6507 156.944 23.9094 156.431 24.0938C155.918 24.2737 155.354 24.3636 154.737 24.3636ZM159.946 16.0714V14.1552H168.238V16.0714H165.229V24.2085H162.962V16.0714H159.946Z" fill="white"/>
</g>
</g>
<defs>
<linearGradient id="paint0_linear_2006_355" x1="37.265" y1="8.18475" x2="1.69599" y2="8.04622" gradientUnits="userSpaceOnUse">
<stop stop-color="#0075AD"/>
<stop offset="1" stop-color="#099CDE"/>
</linearGradient>
<linearGradient id="paint1_linear_2006_355" x1="12.7849" y1="7.36666" x2="26.2453" y2="7.36666" gradientUnits="userSpaceOnUse">
<stop stop-color="#003E7E"/>
<stop offset="0.501961" stop-color="#0075AD"/>
<stop offset="1" stop-color="#003E7E"/>
</linearGradient>
<linearGradient id="paint2_linear_2006_355" x1="19.466" y1="24.5086" x2="38.9994" y2="15.4217" gradientUnits="userSpaceOnUse">
<stop stop-color="#1BAF0F"/>
<stop offset="1" stop-color="#008936"/>
</linearGradient>
<linearGradient id="paint3_linear_2006_355" x1="9.2341" y1="34.1482" x2="-0.145506" y2="11.7025" gradientUnits="userSpaceOnUse">
<stop stop-color="#099CDE"/>
<stop offset="1" stop-color="#47B5EF"/>
</linearGradient>
<linearGradient id="paint4_linear_2006_355" x1="12.887" y1="27.4343" x2="11.4527" y2="27.4343" gradientUnits="userSpaceOnUse">
<stop stop-color="#005590"/>
<stop offset="1" stop-color="#003E7E"/>
</linearGradient>
<linearGradient id="paint5_linear_2006_355" x1="20.2484" y1="37.5504" x2="12.7764" y2="20.7788" gradientUnits="userSpaceOnUse">
<stop stop-color="#0076B1"/>
<stop offset="1" stop-color="#0075AD"/>
</linearGradient>
<linearGradient id="paint6_linear_2006_355" x1="33.913" y1="31.0062" x2="25.1188" y2="24.9065" gradientUnits="userSpaceOnUse">
<stop stop-color="#0075AD"/>
<stop offset="1" stop-color="#003E7E"/>
</linearGradient>
<linearGradient id="paint7_linear_2006_355" x1="19.4532" y1="20.567" x2="1.4048" y2="11.7319" gradientUnits="userSpaceOnUse">
<stop stop-color="#47B5EF"/>
<stop offset="1" stop-color="#90D0F3"/>
</linearGradient>
<linearGradient id="paint8_linear_2006_355" x1="37.3134" y1="8.56741" x2="3.06819" y2="9.14824" gradientUnits="userSpaceOnUse">
<stop stop-color="#0075AD"/>
<stop offset="1" stop-color="#47B5EF"/>
</linearGradient>
<clipPath id="clip0_2006_355">
<rect width="169.273" height="38" fill="white"/>
</clipPath>
</defs>
</svg>
