<svg width="18" height="18" viewBox="0 0 18 18" fill="none" xmlns="http://www.w3.org/2000/svg">
<mask id="mask0_30_1217" style="mask-type:luminance" maskUnits="userSpaceOnUse" x="0" y="0" width="18" height="18">
<path d="M8.08333 15.1667C11.9954 15.1667 15.1667 11.9954 15.1667 8.08333C15.1667 4.17125 11.9954 1 8.08333 1C4.17125 1 1 4.17125 1 8.08333C1 11.9954 4.17125 15.1667 8.08333 15.1667Z" fill="#555555" stroke="white" stroke-width="2" stroke-linejoin="round"/>
<path d="M10.4407 5.3095C10.1315 4.99961 9.76404 4.75384 9.35955 4.58631C8.95505 4.41878 8.52146 4.33278 8.08365 4.33325C7.64583 4.33278 7.21224 4.41878 6.80775 4.58631C6.40325 4.75384 6.03583 4.99961 5.72656 5.3095M13.1761 13.1758L16.7116 16.7112" stroke="white" stroke-width="2" stroke-linecap="round" stroke-linejoin="round"/>
</mask>
<g mask="url(#mask0_30_1217)">
<path d="M-0.664062 -0.666748H19.3359V19.3333H-0.664062V-0.666748Z" fill="white"/>
</g>
</svg>
